<svg width="60" height="60" viewBox="0 0 60 60" fill="none" xmlns="http://www.w3.org/2000/svg">
<path d="M18.1773 8.55843C19.4744 8.54522 20.537 9.58669 20.5491 10.8836C20.5502 11.0014 20.5425 11.1192 20.526 11.2359L19.9853 15.0638C25.938 11.0641 33.6954 10.9716 39.7405 14.8293L37.2861 17.2722L49.971 19.092C49.0318 12.5515 49.1022 13.0205 48.1509 6.35109L46.1777 8.37127C36.1387 0.87292 22.2602 1.26154 12.6562 9.31036C18.1057 8.54742 17.9416 8.55843 18.1762 8.55843H18.1773Z" fill="#487FFF"/>
<path d="M51.6378 13.832C52.3073 18.5296 52.8127 19.7032 51.6378 20.7491C50.4629 21.795 49.2187 21.3601 45.4595 20.8196C48.6802 26.268 48.8135 33.0034 45.8118 38.5752L43.6151 36.3678C42.5107 44.0126 42.9335 41.0654 41.7949 49.0977C50.3099 47.9231 50.1932 48.0177 50.1932 47.9231L54.5272 47.301L52.3547 45.1289C58.8028 35.6082 58.5154 23.0489 51.6378 13.8331V13.832Z" fill="#487FFF"/>
<path d="M41.8293 51.4448C40.5321 51.458 39.4696 50.4165 39.4574 49.1196C39.4563 49.0018 39.4641 48.884 39.4806 48.7673L40.0212 44.9394C34.465 48.6727 27.2967 49.0217 21.4046 45.8433L23.6123 43.647L10.9043 41.8271C11.7147 47.5343 11.903 48.873 12.7244 54.5571L14.897 52.385C24.8819 59.1171 38.1185 58.4268 47.3492 50.6939C41.8997 51.4569 42.0638 51.4459 41.8293 51.4459V51.4448Z" fill="#487FFF"/>
<path d="M9.24939 40.1713C10.3186 39.0792 11.3867 39.5251 15.0633 40.0425C11.3294 34.4873 10.9804 27.3203 14.1593 21.4293L16.356 23.6367C17.4604 15.9919 17.0376 18.939 18.1762 10.9067C8.09872 12.3864 10.9055 11.9284 5.44392 12.7266L7.61643 14.8987C0.883078 24.8818 1.57348 38.1159 9.30775 47.3449C8.59092 42.2246 8.13285 41.2502 9.24939 40.1702V40.1713Z" fill="#487FFF"/>
</svg>
