<svg width="64" height="103" viewBox="0 0 64 103" fill="none" xmlns="http://www.w3.org/2000/svg">
<path d="M32.3017 21.3373C26.4686 21.3373 21.7227 26.0824 21.7227 31.9155C21.7227 35.6694 23.6875 38.9722 26.6428 40.8504L26.9592 39.5562C24.5517 37.8682 22.9748 35.0728 22.9748 31.9155C22.9748 26.7732 27.1586 22.5894 32.3017 22.5894C37.4449 22.5894 41.6279 26.7732 41.6279 31.9155C41.6279 35.0719 40.0518 37.8673 37.6443 39.5562L37.9607 40.8504C40.916 38.9713 42.88 35.6685 42.88 31.9155C42.88 26.0824 38.1349 21.3373 32.3017 21.3373Z" fill="#487FFF"/>
<path d="M41.9456 22.2704C39.3698 19.6946 35.9442 18.275 32.3005 18.275C28.6569 18.275 25.2313 19.6938 22.6555 22.2704C20.0797 24.847 18.6602 28.2726 18.6602 31.9154C18.6602 35.5582 20.0789 38.9847 22.6555 41.5613C23.6224 42.5282 24.7096 43.3326 25.8834 43.9604L26.1931 42.6914C22.446 40.5591 19.9131 36.5276 19.9131 31.9154C19.9131 25.0851 25.4703 19.5271 32.3014 19.5271C39.1325 19.5271 44.6897 25.0851 44.6897 31.9154C44.6897 36.5267 42.1576 40.5583 38.4097 42.6906L38.7194 43.9595C39.8924 43.3318 40.9787 42.5282 41.9464 41.5613C44.5222 38.9847 45.9418 35.559 45.9418 31.9154C45.9418 28.2718 44.523 24.847 41.9464 22.2704H41.9456Z" fill="#487FFF"/>
<path d="M49.1843 24.7848C48.2621 22.6037 46.9409 20.6439 45.2588 18.9618C43.5767 17.2797 41.6177 15.9585 39.4358 15.0363C37.1764 14.0803 34.7773 13.5965 32.3042 13.5965C29.8311 13.5965 27.4321 14.0803 25.1727 15.0363C22.9907 15.9594 21.0318 17.2797 19.3497 18.9618C17.6675 20.6439 16.3464 22.6029 15.4241 24.7848C14.4691 27.0442 13.9844 29.4432 13.9844 31.9164C13.9844 34.3895 14.4691 36.7885 15.4241 39.0479C16.3473 41.229 17.6684 43.1888 19.3497 44.8709C20.9232 46.4445 22.7383 47.7008 24.7511 48.6122L25.1062 47.1606C19.4001 44.4561 15.4452 38.6398 15.4452 31.9172C15.4452 22.6214 23.0084 15.0581 32.3042 15.0581C41.6001 15.0581 49.1633 22.6205 49.1633 31.9172C49.1633 38.6398 45.2083 44.4561 39.5031 47.1606L39.8582 48.6122C41.871 47.7008 43.6861 46.4437 45.258 44.8709C46.9401 43.1888 48.2612 41.2299 49.1835 39.0479C50.1394 36.7885 50.6241 34.3895 50.6241 31.9164C50.6241 29.4432 50.1394 27.045 49.1835 24.7848H49.1843Z" fill="#487FFF"/>
<path d="M55.1098 22.2806C53.8628 19.3321 52.078 16.6856 49.8052 14.4119C47.5323 12.1391 44.885 10.3543 41.9373 9.10809C38.8844 7.81726 35.6422 7.16174 32.3015 7.16174C28.9609 7.16174 25.7178 7.81641 22.6657 9.10809C19.7172 10.3552 17.0707 12.1399 14.7979 14.4119C12.5251 16.6839 10.7403 19.3321 9.49322 22.2806C8.20239 25.3335 7.54688 28.5749 7.54688 31.9156C7.54688 35.2562 8.20155 38.4993 9.49322 41.5513C10.7403 44.4999 12.5251 47.1463 14.7979 49.42C17.0707 51.6929 19.7172 53.4776 22.6657 54.7239C22.8441 54.7996 23.0234 54.8728 23.2035 54.9435L23.88 52.1708C15.9516 48.863 10.365 41.0296 10.365 31.9156C10.365 19.8201 20.2061 9.97902 32.3024 9.97902C44.3986 9.97902 54.2389 19.8201 54.2389 31.9156C54.2389 41.0288 48.6532 48.8621 40.7247 52.1708L41.4013 54.9435C41.5805 54.8728 41.7598 54.7996 41.9382 54.7239C44.8859 53.4768 47.5332 51.692 49.806 49.42C52.0788 47.1472 53.8636 44.4999 55.1107 41.5513C56.4015 38.4985 57.0562 35.2571 57.0562 31.9156C57.0562 28.574 56.4015 25.3327 55.1107 22.2806H55.1098Z" fill="#487FFF"/>
<path d="M61.5098 19.5776C59.9135 15.8027 57.6281 12.4133 54.7174 9.50342C51.8067 6.59358 48.4172 4.30812 44.6432 2.711C40.7345 1.05833 36.5835 0.220215 32.3054 0.220215C28.0273 0.220215 23.8755 1.05833 19.9668 2.711C16.1919 4.30728 12.8024 6.59274 9.89258 9.50342C6.9819 12.4141 4.69728 15.8036 3.10016 19.5776C1.44749 23.4863 0.609375 27.6373 0.609375 31.9154C0.609375 36.1935 1.44749 40.3453 3.101 44.254C4.69728 48.0289 6.98274 51.4184 9.89342 54.3282C12.8041 57.2381 16.1927 59.5235 19.9676 61.1206C20.4902 61.342 21.0169 61.5481 21.5488 61.74L22.3431 58.4851C11.5974 54.4427 3.93154 44.058 3.93154 31.9162C3.93154 16.2706 16.6606 3.54154 32.3062 3.54154C47.9519 3.54154 60.6809 16.2698 60.6809 31.9162C60.6809 44.058 53.0159 54.4427 42.2694 58.4851L43.0637 61.7391C43.5947 61.5473 44.1215 61.3411 44.6432 61.1206C48.4181 59.5244 51.8075 57.2389 54.7174 54.3282C57.6281 51.4175 59.9127 48.0281 61.5098 44.254C63.1633 40.3453 64.0014 36.1943 64.0014 31.9154C64.0014 27.6365 63.1633 23.4863 61.5098 19.5776Z" fill="#487FFF"/>
<path d="M48.581 100.309L48.995 102.803H51.5253L35.3294 36.4459L34.8624 34.5728C35.1577 34.1176 35.3294 33.5748 35.3294 32.9908C35.3294 31.3811 34.0251 30.0768 32.4153 30.0768C30.8056 30.0768 29.5013 31.3811 29.5013 32.9908C29.5013 33.4604 29.6132 33.9038 29.8101 34.2968L29.3397 36.1817L13.0781 102.803H15.2433L15.9518 100.591L32.4179 92.6492L48.581 100.309ZM48.1603 98.6246L33.9712 91.9003L45.1385 86.5148L48.1603 98.6246ZM41.468 71.8041L41.5286 72.049H23.2794L32.0139 66.7518L41.468 71.8041ZM39.9735 73.3129L32.3101 77.1643L24.5298 73.3129H39.9743H39.9735ZM30.8965 77.8745L20.2904 83.2045L22.6407 73.7883L30.8965 77.8745ZM32.3144 78.5763L43.5456 84.136H21.2514L32.3144 78.5763ZM44.3601 85.3999L32.4128 91.1623L20.2534 85.3999H44.3601ZM44.2844 83.0917L33.728 77.8661L41.9493 73.7344L44.2844 83.0909V83.0917ZM41.0548 70.1506L33.2694 65.9903L39.0487 62.4847H39.1413L41.054 70.1506H41.0548ZM32.0989 35.8889C32.2033 35.8998 32.3085 35.9066 32.4153 35.9066C32.4465 35.9066 32.4776 35.9049 32.5087 35.904L33.0187 37.9505L33.5665 40.1451H31.0353L31.5941 37.9059L32.0973 35.8897L32.0989 35.8889ZM35.0685 46.3014L32.2369 48.5195L29.5745 46.5959L32.4667 43.4605L35.0685 46.3022V46.3014ZM35.3075 47.1176L36.409 51.5328L32.9034 49L35.3075 47.1176ZM32.9505 42.9354L33.9839 41.8146L34.7547 44.9045L32.9497 42.9346L32.9505 42.9354ZM33.744 40.8553L33.7777 40.9899L32.4683 42.4095L31.0446 40.8553H33.744ZM29.7302 45.3766L30.692 41.5226L31.9845 42.9338L29.7302 45.3774V45.3766ZM28.1473 51.7222L29.2438 47.3296L31.5907 49.0252L28.1473 51.7222ZM32.2563 49.5074L36.706 52.7227L36.7683 52.9718H27.8352V52.9701L32.2563 49.5074ZM37.1503 54.5033L38.4631 59.7625L33.378 56.6726L37.1503 54.5033ZM32.4532 56.1113L28.8441 53.9184H36.2659L32.4532 56.1113ZM27.5221 54.2239L31.5158 56.6507L26.1472 59.7381L27.523 54.2239H27.5221ZM32.4397 57.2128L38.7887 61.071L38.8089 61.1535L38.6953 61.2225H25.7752L25.8274 61.0163L32.4389 57.2137L32.4397 57.2128ZM36.6126 62.4847L31.9744 65.2978L26.7109 62.4847H36.6135H36.6126ZM25.293 63.1596L30.7189 66.0593L23.4729 70.4544L25.293 63.1596ZM16.375 98.8964L19.465 86.5115L30.8586 91.9104L16.375 98.8955V98.8964Z" fill="#487FFF"/>
</svg>
