<svg width="327" height="162" viewBox="0 0 327 162" fill="none" xmlns="http://www.w3.org/2000/svg">
<g filter="url(#filter0_d_329_1694)">
<path d="M27 22.4685C27 18.3438 30.3438 15 34.4685 15H292.532C296.656 15 300 18.3438 300 22.4685V115.532C300 119.656 296.656 123 292.532 123H34.4685C30.3437 123 27 119.656 27 115.532V22.4685Z" fill="url(#paint0_linear_329_1694)"/>
<path d="M34.4688 15.4668H292.531C296.398 15.4668 299.533 18.6018 299.533 22.4688V115.531C299.533 119.398 296.398 122.533 292.531 122.533H34.4688C30.6018 122.533 27.4668 119.398 27.4668 115.531V22.4688C27.4668 18.6018 30.6018 15.4668 34.4688 15.4668Z" stroke="#E0EAF8" stroke-width="0.933561"/>
</g>
<path d="M43.1111 44.416H41.3713L45.2806 33.5528H47.1742L51.0835 44.416H49.3437L46.2725 35.526H46.1876L43.1111 44.416ZM43.4029 40.1619H49.0467V41.5411H43.4029V40.1619ZM52.525 47.4713V36.2686H54.0738V37.5894H54.2064C54.2984 37.4196 54.431 37.2234 54.6043 37.0006C54.7775 36.7778 55.018 36.5833 55.3257 36.4171C55.6333 36.2474 56.04 36.1625 56.5456 36.1625C57.2034 36.1625 57.7904 36.3287 58.3067 36.6611C58.823 36.9935 59.2279 37.4727 59.5214 38.0986C59.8184 38.7245 59.9669 39.4777 59.9669 40.3582C59.9669 41.2387 59.8202 41.9937 59.5267 42.6232C59.2332 43.2491 58.83 43.7318 58.3173 44.0712C57.8045 44.4072 57.2193 44.5751 56.5616 44.5751C56.0665 44.5751 55.6616 44.492 55.3469 44.3258C55.0357 44.1596 54.7917 43.9651 54.6149 43.7424C54.4381 43.5196 54.3019 43.3216 54.2064 43.1483H54.111V47.4713H52.525ZM54.0791 40.3423C54.0791 40.9152 54.1622 41.4173 54.3284 41.8487C54.4946 42.2801 54.7351 42.6178 55.0498 42.8618C55.3646 43.1023 55.75 43.2225 56.2062 43.2225C56.68 43.2225 57.0761 43.097 57.3943 42.8459C57.7126 42.5913 57.9531 42.2465 58.1157 41.8116C58.2819 41.3766 58.365 40.8869 58.365 40.3423C58.365 39.8048 58.2837 39.3221 58.121 38.8942C57.9619 38.4663 57.7214 38.1286 57.3996 37.8811C57.0814 37.6336 56.6836 37.5098 56.2062 37.5098C55.7465 37.5098 55.3575 37.6282 55.0392 37.8652C54.7245 38.1021 54.4858 38.4327 54.3231 38.8571C54.1605 39.2814 54.0791 39.7765 54.0791 40.3423ZM61.7439 47.4713V36.2686H63.2927V37.5894H63.4254C63.5173 37.4196 63.6499 37.2234 63.8232 37.0006C63.9965 36.7778 64.2369 36.5833 64.5446 36.4171C64.8522 36.2474 65.2589 36.1625 65.7646 36.1625C66.4223 36.1625 67.0093 36.3287 67.5256 36.6611C68.0419 36.9935 68.4468 37.4727 68.7403 38.0986C69.0373 38.7245 69.1859 39.4777 69.1859 40.3582C69.1859 41.2387 69.0391 41.9937 68.7456 42.6232C68.4521 43.2491 68.049 43.7318 67.5362 44.0712C67.0235 44.4072 66.4382 44.5751 65.7805 44.5751C65.2854 44.5751 64.8805 44.492 64.5658 44.3258C64.2546 44.1596 64.0106 43.9651 63.8338 43.7424C63.657 43.5196 63.5208 43.3216 63.4254 43.1483H63.3299V47.4713H61.7439ZM63.2981 40.3423C63.2981 40.9152 63.3812 41.4173 63.5474 41.8487C63.7136 42.2801 63.954 42.6178 64.2687 42.8618C64.5835 43.1023 64.9689 43.2225 65.4251 43.2225C65.8989 43.2225 66.295 43.097 66.6133 42.8459C66.9315 42.5913 67.172 42.2465 67.3346 41.8116C67.5008 41.3766 67.5839 40.8869 67.5839 40.3423C67.5839 39.8048 67.5026 39.3221 67.3399 38.8942C67.1808 38.4663 66.9404 38.1286 66.6186 37.8811C66.3003 37.6336 65.9025 37.5098 65.4251 37.5098C64.9654 37.5098 64.5764 37.6282 64.2581 37.8652C63.9434 38.1021 63.7047 38.4327 63.5421 38.8571C63.3794 39.2814 63.2981 39.7765 63.2981 40.3423ZM72.5488 33.5528V44.416H70.9628V33.5528H72.5488ZM74.6825 44.416V36.2686H76.2684V44.416H74.6825ZM75.4834 35.0114C75.2076 35.0114 74.9707 34.9195 74.7726 34.7356C74.5781 34.5482 74.4809 34.3254 74.4809 34.0673C74.4809 33.8056 74.5781 33.5828 74.7726 33.3989C74.9707 33.2115 75.2076 33.1178 75.4834 33.1178C75.7592 33.1178 75.9944 33.2115 76.1889 33.3989C76.3869 33.5828 76.4859 33.8056 76.4859 34.0673C76.4859 34.3254 76.3869 34.5482 76.1889 34.7356C75.9944 34.9195 75.7592 35.0114 75.4834 35.0114ZM81.834 44.5804C81.0454 44.5804 80.3665 44.4019 79.7972 44.0447C79.2314 43.684 78.7964 43.1872 78.4923 42.5542C78.1882 41.9212 78.0361 41.1963 78.0361 40.3794C78.0361 39.552 78.1917 38.8217 78.5029 38.1887C78.8141 37.5522 79.2526 37.0554 79.8184 36.6982C80.3842 36.3411 81.0507 36.1625 81.8181 36.1625C82.4369 36.1625 82.9886 36.2774 83.473 36.5073C83.9575 36.7336 84.3483 37.0518 84.6453 37.462C84.9459 37.8722 85.1245 38.3514 85.181 38.8995H83.6375C83.5526 38.5176 83.3581 38.1887 83.054 37.9129C82.7534 37.6371 82.3503 37.4992 81.8446 37.4992C81.4026 37.4992 81.0154 37.6159 80.683 37.8493C80.3541 38.0791 80.0977 38.408 79.9138 38.8359C79.73 39.2602 79.638 39.7624 79.638 40.3423C79.638 40.9364 79.7282 41.4491 79.9085 41.8805C80.0889 42.312 80.3435 42.6461 80.6724 42.8831C81.0048 43.12 81.3955 43.2385 81.8446 43.2385C82.1452 43.2385 82.4175 43.1836 82.6615 43.074C82.909 42.9609 83.1159 42.8 83.2821 42.5913C83.4518 42.3827 83.5703 42.1316 83.6375 41.8381H85.181C85.1245 42.365 84.953 42.8353 84.6665 43.2491C84.3801 43.6628 83.9964 43.9881 83.5155 44.2251C83.0381 44.462 82.4776 44.5804 81.834 44.5804ZM89.2481 44.5964C88.7318 44.5964 88.2651 44.5009 87.8478 44.3099C87.4305 44.1154 87.0999 43.8343 86.8559 43.4665C86.6154 43.0988 86.4952 42.6479 86.4952 42.1139C86.4952 41.6542 86.5836 41.2759 86.7604 40.9788C86.9372 40.6818 87.1759 40.4466 87.4765 40.2733C87.7771 40.1001 88.113 39.9692 88.4843 39.8808C88.8556 39.7924 89.234 39.7252 89.6194 39.6793C90.1074 39.6227 90.5035 39.5767 90.8076 39.5413C91.1117 39.5024 91.3327 39.4406 91.4706 39.3557C91.6086 39.2708 91.6775 39.1329 91.6775 38.942V38.9048C91.6775 38.4416 91.5467 38.0827 91.285 37.828C91.0268 37.5734 90.6414 37.4461 90.1286 37.4461C89.5947 37.4461 89.1739 37.5646 88.8662 37.8015C88.5621 38.0349 88.3517 38.2948 88.235 38.5813L86.7445 38.2418C86.9213 37.7467 87.1794 37.3471 87.5189 37.043C87.8619 36.7354 88.2562 36.5126 88.7018 36.3747C89.1473 36.2332 89.6159 36.1625 90.1074 36.1625C90.4328 36.1625 90.7775 36.2014 91.1418 36.2792C91.5095 36.3534 91.8526 36.4914 92.1708 36.6929C92.4926 36.8945 92.7561 37.1827 92.9612 37.5575C93.1663 37.9288 93.2688 38.4115 93.2688 39.0056V44.416H91.7199V43.3021H91.6563C91.5537 43.5072 91.3999 43.7088 91.1948 43.9068C90.9897 44.1048 90.7263 44.2693 90.4045 44.4001C90.0827 44.5309 89.6972 44.5964 89.2481 44.5964ZM89.5929 43.3233C90.0314 43.3233 90.4062 43.2367 90.7174 43.0634C91.0322 42.8901 91.2708 42.6638 91.4335 42.3845C91.5997 42.1016 91.6828 41.7992 91.6828 41.4774V40.4272C91.6262 40.4837 91.5166 40.5368 91.3539 40.5863C91.1948 40.6323 91.0127 40.6729 90.8076 40.7083C90.6025 40.7401 90.4027 40.7702 90.2082 40.7985C90.0137 40.8232 89.8511 40.8444 89.7202 40.8621C89.4126 40.901 89.1314 40.9664 88.8768 41.0584C88.6258 41.1503 88.4242 41.2829 88.2721 41.4562C88.1236 41.6259 88.0494 41.8523 88.0494 42.1352C88.0494 42.5277 88.1943 42.8247 88.4843 43.0263C88.7743 43.2243 89.1438 43.3233 89.5929 43.3233ZM99.1845 36.2686V37.5416H94.7341V36.2686H99.1845ZM95.9276 34.3166H97.5136V42.0238C97.5136 42.3314 97.5596 42.563 97.6515 42.7186C97.7434 42.8707 97.8619 42.975 98.0069 43.0316C98.1554 43.0846 98.3163 43.1112 98.4896 43.1112C98.6169 43.1112 98.7283 43.1023 98.8238 43.0846C98.9192 43.0669 98.9935 43.0528 99.0465 43.0422L99.333 44.3524C99.241 44.3877 99.1102 44.4231 98.9405 44.4585C98.7707 44.4973 98.5585 44.5186 98.3039 44.5221C97.8867 44.5292 97.4977 44.4549 97.137 44.2993C96.7763 44.1437 96.4846 43.9033 96.2618 43.5779C96.039 43.2526 95.9276 42.8442 95.9276 42.3526V34.3166ZM100.939 44.416V36.2686H102.525V44.416H100.939ZM101.74 35.0114C101.464 35.0114 101.227 34.9195 101.029 34.7356C100.835 34.5482 100.737 34.3254 100.737 34.0673C100.737 33.8056 100.835 33.5828 101.029 33.3989C101.227 33.2115 101.464 33.1178 101.74 33.1178C102.016 33.1178 102.251 33.2115 102.445 33.3989C102.643 33.5828 102.742 33.8056 102.742 34.0673C102.742 34.3254 102.643 34.5482 102.445 34.7356C102.251 34.9195 102.016 35.0114 101.74 35.0114ZM108.09 44.5804C107.327 44.5804 106.66 44.4054 106.091 44.0553C105.521 43.7052 105.079 43.2155 104.765 42.586C104.45 41.9566 104.293 41.221 104.293 40.3794C104.293 39.5343 104.45 38.7952 104.765 38.1622C105.079 37.5292 105.521 37.0377 106.091 36.6876C106.66 36.3375 107.327 36.1625 108.09 36.1625C108.854 36.1625 109.521 36.3375 110.09 36.6876C110.659 37.0377 111.102 37.5292 111.416 38.1622C111.731 38.7952 111.888 39.5343 111.888 40.3794C111.888 41.221 111.731 41.9566 111.416 42.586C111.102 43.2155 110.659 43.7052 110.09 44.0553C109.521 44.4054 108.854 44.5804 108.09 44.5804ZM108.096 43.2491C108.591 43.2491 109.001 43.1182 109.326 42.8565C109.652 42.5949 109.892 42.2465 110.048 41.8116C110.207 41.3766 110.286 40.8975 110.286 40.3741C110.286 39.8543 110.207 39.3769 110.048 38.942C109.892 38.5035 109.652 38.1516 109.326 37.8864C109.001 37.6212 108.591 37.4886 108.096 37.4886C107.597 37.4886 107.183 37.6212 106.855 37.8864C106.529 38.1516 106.287 38.5035 106.128 38.942C105.972 39.3769 105.894 39.8543 105.894 40.3741C105.894 40.8975 105.972 41.3766 106.128 41.8116C106.287 42.2465 106.529 42.5949 106.855 42.8565C107.183 43.1182 107.597 43.2491 108.096 43.2491ZM115.245 39.5785V44.416H113.659V36.2686H115.181V37.5947H115.282C115.469 37.1632 115.763 36.8167 116.162 36.555C116.565 36.2933 117.073 36.1625 117.685 36.1625C118.24 36.1625 118.726 36.2792 119.143 36.5126C119.561 36.7424 119.884 37.0854 120.114 37.5416C120.344 37.9978 120.459 38.5618 120.459 39.2337V44.416H118.873V39.4246C118.873 38.8341 118.719 38.3726 118.411 38.0402C118.104 37.7043 117.681 37.5363 117.144 37.5363C116.776 37.5363 116.449 37.6159 116.162 37.775C115.879 37.9341 115.655 38.1675 115.489 38.4752C115.326 38.7793 115.245 39.1471 115.245 39.5785ZM126.539 44.416V36.2686H128.072V37.5628H128.157C128.305 37.1243 128.567 36.7796 128.942 36.5285C129.32 36.2739 129.748 36.1466 130.225 36.1466C130.324 36.1466 130.441 36.1501 130.575 36.1572C130.713 36.1643 130.821 36.1731 130.899 36.1837V37.7007C130.835 37.6831 130.722 37.6636 130.56 37.6424C130.397 37.6176 130.234 37.6053 130.072 37.6053C129.697 37.6053 129.363 37.6848 129.069 37.844C128.779 37.9996 128.549 38.217 128.379 38.4964C128.21 38.7722 128.125 39.0869 128.125 39.4406V44.416H126.539ZM135.491 44.5804C134.688 44.5804 133.997 44.4089 133.417 44.0659C132.841 43.7194 132.395 43.2332 132.081 42.6072C131.769 41.9778 131.614 41.2405 131.614 40.3953C131.614 39.5608 131.769 38.8253 132.081 38.1887C132.395 37.5522 132.834 37.0554 133.396 36.6982C133.962 36.3411 134.623 36.1625 135.38 36.1625C135.84 36.1625 136.285 36.2385 136.717 36.3906C137.148 36.5426 137.535 36.7813 137.878 37.1067C138.221 37.432 138.492 37.8546 138.69 38.3744C138.888 38.8907 138.987 39.5184 138.987 40.2574V40.8197H132.51V39.6315H137.433C137.433 39.2142 137.348 38.8447 137.178 38.5229C137.008 38.1976 136.77 37.9412 136.462 37.7538C136.158 37.5664 135.801 37.4727 135.39 37.4727C134.945 37.4727 134.556 37.5823 134.223 37.8015C133.895 38.0172 133.64 38.3001 133.46 38.6502C133.283 38.9968 133.194 39.3734 133.194 39.78V40.7083C133.194 41.2529 133.29 41.7161 133.481 42.098C133.675 42.4799 133.946 42.7717 134.292 42.9732C134.639 43.1713 135.044 43.2703 135.507 43.2703C135.808 43.2703 136.082 43.2278 136.329 43.143C136.577 43.0546 136.791 42.9237 136.971 42.7505C137.151 42.5772 137.289 42.3632 137.385 42.1086L138.886 42.3792C138.766 42.8212 138.55 43.2084 138.239 43.5408C137.931 43.8697 137.544 44.126 137.077 44.3099C136.614 44.4903 136.085 44.5804 135.491 44.5804ZM146.852 38.2577L145.414 38.5123C145.354 38.3284 145.259 38.1534 145.128 37.9872C145.001 37.821 144.827 37.6848 144.608 37.5787C144.389 37.4727 144.115 37.4196 143.786 37.4196C143.337 37.4196 142.962 37.5204 142.661 37.722C142.361 37.92 142.21 38.1764 142.21 38.4911C142.21 38.7634 142.311 38.9826 142.513 39.1488C142.714 39.315 143.04 39.4512 143.489 39.5573L144.783 39.8543C145.533 40.0276 146.091 40.2946 146.459 40.6553C146.827 41.0159 147.011 41.4845 147.011 42.0609C147.011 42.5489 146.869 42.9838 146.587 43.3658C146.307 43.7441 145.916 44.0412 145.414 44.2569C144.916 44.4726 144.338 44.5804 143.68 44.5804C142.767 44.5804 142.023 44.386 141.447 43.997C140.87 43.6045 140.517 43.0475 140.386 42.3261L141.919 42.0927C142.014 42.4923 142.21 42.7947 142.508 42.9998C142.805 43.2013 143.192 43.3021 143.669 43.3021C144.189 43.3021 144.604 43.1943 144.916 42.9785C145.227 42.7593 145.382 42.4923 145.382 42.1776C145.382 41.923 145.287 41.709 145.096 41.5358C144.909 41.3625 144.62 41.2317 144.231 41.1432L142.852 40.8409C142.092 40.6676 141.53 40.3918 141.166 40.0134C140.805 39.6351 140.624 39.1559 140.624 38.576C140.624 38.095 140.759 37.6742 141.028 37.3135C141.296 36.9528 141.668 36.6717 142.142 36.4701C142.615 36.265 143.158 36.1625 143.77 36.1625C144.65 36.1625 145.344 36.3534 145.849 36.7354C146.355 37.1137 146.689 37.6212 146.852 38.2577ZM148.755 47.4713V36.2686H150.304V37.5894H150.436C150.528 37.4196 150.661 37.2234 150.834 37.0006C151.007 36.7778 151.248 36.5833 151.555 36.4171C151.863 36.2474 152.27 36.1625 152.775 36.1625C153.433 36.1625 154.02 36.3287 154.536 36.6611C155.053 36.9935 155.458 37.4727 155.751 38.0986C156.048 38.7245 156.197 39.4777 156.197 40.3582C156.197 41.2387 156.05 41.9937 155.756 42.6232C155.463 43.2491 155.06 43.7318 154.547 44.0712C154.034 44.4072 153.449 44.5751 152.791 44.5751C152.296 44.5751 151.891 44.492 151.577 44.3258C151.265 44.1596 151.021 43.9651 150.845 43.7424C150.668 43.5196 150.532 43.3216 150.436 43.1483H150.341V47.4713H148.755ZM150.309 40.3423C150.309 40.9152 150.392 41.4173 150.558 41.8487C150.724 42.2801 150.965 42.6178 151.28 42.8618C151.594 43.1023 151.98 43.2225 152.436 43.2225C152.91 43.2225 153.306 43.097 153.624 42.8459C153.942 42.5913 154.183 42.2465 154.345 41.8116C154.512 41.3766 154.595 40.8869 154.595 40.3423C154.595 39.8048 154.513 39.3221 154.351 38.8942C154.192 38.4663 153.951 38.1286 153.629 37.8811C153.311 37.6336 152.913 37.5098 152.436 37.5098C151.976 37.5098 151.587 37.6282 151.269 37.8652C150.954 38.1021 150.716 38.4327 150.553 38.8571C150.39 39.2814 150.309 39.7765 150.309 40.3423ZM161.405 44.5804C160.642 44.5804 159.975 44.4054 159.406 44.0553C158.836 43.7052 158.394 43.2155 158.08 42.586C157.765 41.9566 157.608 41.221 157.608 40.3794C157.608 39.5343 157.765 38.7952 158.08 38.1622C158.394 37.5292 158.836 37.0377 159.406 36.6876C159.975 36.3375 160.642 36.1625 161.405 36.1625C162.169 36.1625 162.836 36.3375 163.405 36.6876C163.975 37.0377 164.417 37.5292 164.731 38.1622C165.046 38.7952 165.203 39.5343 165.203 40.3794C165.203 41.221 165.046 41.9566 164.731 42.586C164.417 43.2155 163.975 43.7052 163.405 44.0553C162.836 44.4054 162.169 44.5804 161.405 44.5804ZM161.411 43.2491C161.906 43.2491 162.316 43.1182 162.641 42.8565C162.967 42.5949 163.207 42.2465 163.363 41.8116C163.522 41.3766 163.601 40.8975 163.601 40.3741C163.601 39.8543 163.522 39.3769 163.363 38.942C163.207 38.5035 162.967 38.1516 162.641 37.8864C162.316 37.6212 161.906 37.4886 161.411 37.4886C160.912 37.4886 160.498 37.6212 160.17 37.8864C159.844 38.1516 159.602 38.5035 159.443 38.942C159.287 39.3769 159.21 39.8543 159.21 40.3741C159.21 40.8975 159.287 41.3766 159.443 41.8116C159.602 42.2465 159.844 42.5949 160.17 42.8565C160.498 43.1182 160.912 43.2491 161.411 43.2491ZM168.56 39.5785V44.416H166.974V36.2686H168.496V37.5947H168.597C168.784 37.1632 169.078 36.8167 169.477 36.555C169.88 36.2933 170.388 36.1625 171 36.1625C171.555 36.1625 172.041 36.2792 172.458 36.5126C172.876 36.7424 173.199 37.0854 173.429 37.5416C173.659 37.9978 173.774 38.5618 173.774 39.2337V44.416H172.188V39.4246C172.188 38.8341 172.034 38.3726 171.726 38.0402C171.419 37.7043 170.996 37.5363 170.459 37.5363C170.091 37.5363 169.764 37.6159 169.477 37.775C169.194 37.9341 168.97 38.1675 168.804 38.4752C168.641 38.7793 168.56 39.1471 168.56 39.5785ZM182.006 38.2577L180.569 38.5123C180.509 38.3284 180.413 38.1534 180.282 37.9872C180.155 37.821 179.982 37.6848 179.762 37.5787C179.543 37.4727 179.269 37.4196 178.94 37.4196C178.491 37.4196 178.116 37.5204 177.816 37.722C177.515 37.92 177.365 38.1764 177.365 38.4911C177.365 38.7634 177.466 38.9826 177.667 39.1488C177.869 39.315 178.194 39.4512 178.643 39.5573L179.937 39.8543C180.687 40.0276 181.246 40.2946 181.614 40.6553C181.981 41.0159 182.165 41.4845 182.165 42.0609C182.165 42.5489 182.024 42.9838 181.741 43.3658C181.462 43.7441 181.071 44.0412 180.569 44.2569C180.07 44.4726 179.492 44.5804 178.834 44.5804C177.922 44.5804 177.177 44.386 176.601 43.997C176.025 43.6045 175.671 43.0475 175.54 42.3261L177.073 42.0927C177.169 42.4923 177.365 42.7947 177.662 42.9998C177.959 43.2013 178.346 43.3021 178.824 43.3021C179.343 43.3021 179.759 43.1943 180.07 42.9785C180.381 42.7593 180.537 42.4923 180.537 42.1776C180.537 41.923 180.441 41.709 180.25 41.5358C180.063 41.3625 179.775 41.2317 179.386 41.1432L178.007 40.8409C177.246 40.6676 176.684 40.3918 176.32 40.0134C175.959 39.6351 175.779 39.1559 175.779 38.576C175.779 38.095 175.913 37.6742 176.182 37.3135C176.451 36.9528 176.822 36.6717 177.296 36.4701C177.77 36.265 178.313 36.1625 178.924 36.1625C179.805 36.1625 180.498 36.3534 181.004 36.7354C181.509 37.1137 181.843 37.6212 182.006 38.2577ZM183.909 44.416V36.2686H185.495V44.416H183.909ZM184.71 35.0114C184.434 35.0114 184.197 34.9195 183.999 34.7356C183.805 34.5482 183.708 34.3254 183.708 34.0673C183.708 33.8056 183.805 33.5828 183.999 33.3989C184.197 33.2115 184.434 33.1178 184.71 33.1178C184.986 33.1178 185.221 33.2115 185.416 33.3989C185.614 33.5828 185.713 33.8056 185.713 34.0673C185.713 34.3254 185.614 34.5482 185.416 34.7356C185.221 34.9195 184.986 35.0114 184.71 35.0114ZM194.599 36.2686L191.644 44.416H189.947L186.987 36.2686H188.69L190.753 42.5383H190.838L192.896 36.2686H194.599ZM199.323 44.5804C198.521 44.5804 197.829 44.4089 197.249 44.0659C196.673 43.7194 196.227 43.2332 195.913 42.6072C195.602 41.9778 195.446 41.2405 195.446 40.3953C195.446 39.5608 195.602 38.8253 195.913 38.1887C196.227 37.5522 196.666 37.0554 197.228 36.6982C197.794 36.3411 198.455 36.1625 199.212 36.1625C199.672 36.1625 200.117 36.2385 200.549 36.3906C200.98 36.5426 201.367 36.7813 201.71 37.1067C202.053 37.432 202.324 37.8546 202.522 38.3744C202.72 38.8907 202.819 39.5184 202.819 40.2574V40.8197H196.342V39.6315H201.265C201.265 39.2142 201.18 38.8447 201.01 38.5229C200.84 38.1976 200.602 37.9412 200.294 37.7538C199.99 37.5664 199.633 37.4727 199.223 37.4727C198.777 37.4727 198.388 37.5823 198.056 37.8015C197.727 38.0172 197.472 38.3001 197.292 38.6502C197.115 38.9968 197.027 39.3734 197.027 39.78V40.7083C197.027 41.2529 197.122 41.7161 197.313 42.098C197.508 42.4799 197.778 42.7717 198.125 42.9732C198.471 43.1713 198.876 43.2703 199.339 43.2703C199.64 43.2703 199.914 43.2278 200.162 43.143C200.409 43.0546 200.623 42.9237 200.803 42.7505C200.984 42.5772 201.122 42.3632 201.217 42.1086L202.718 42.3792C202.598 42.8212 202.382 43.2084 202.071 43.5408C201.763 43.8697 201.376 44.126 200.909 44.3099C200.446 44.4903 199.918 44.5804 199.323 44.5804ZM206.165 39.5785V44.416H204.579V36.2686H206.101V37.5947H206.202C206.389 37.1632 206.683 36.8167 207.082 36.555C207.485 36.2933 207.993 36.1625 208.605 36.1625C209.16 36.1625 209.646 36.2792 210.063 36.5126C210.481 36.7424 210.804 37.0854 211.034 37.5416C211.264 37.9978 211.379 38.5618 211.379 39.2337V44.416H209.793V39.4246C209.793 38.8341 209.639 38.3726 209.331 38.0402C209.024 37.7043 208.601 37.5363 208.064 37.5363C207.696 37.5363 207.369 37.6159 207.082 37.775C206.799 37.9341 206.575 38.1675 206.409 38.4752C206.246 38.7793 206.165 39.1471 206.165 39.5785ZM217.017 44.5804C216.215 44.5804 215.523 44.4089 214.943 44.0659C214.367 43.7194 213.921 43.2332 213.607 42.6072C213.295 41.9778 213.14 41.2405 213.14 40.3953C213.14 39.5608 213.295 38.8253 213.607 38.1887C213.921 37.5522 214.36 37.0554 214.922 36.6982C215.488 36.3411 216.149 36.1625 216.906 36.1625C217.366 36.1625 217.811 36.2385 218.243 36.3906C218.674 36.5426 219.061 36.7813 219.404 37.1067C219.747 37.432 220.018 37.8546 220.216 38.3744C220.414 38.8907 220.513 39.5184 220.513 40.2574V40.8197H214.036V39.6315H218.959C218.959 39.2142 218.874 38.8447 218.704 38.5229C218.534 38.1976 218.296 37.9412 217.988 37.7538C217.684 37.5664 217.327 37.4727 216.917 37.4727C216.471 37.4727 216.082 37.5823 215.75 37.8015C215.421 38.0172 215.166 38.3001 214.986 38.6502C214.809 38.9968 214.721 39.3734 214.721 39.78V40.7083C214.721 41.2529 214.816 41.7161 215.007 42.098C215.202 42.4799 215.472 42.7717 215.819 42.9732C216.165 43.1713 216.57 43.2703 217.033 43.2703C217.334 43.2703 217.608 43.2278 217.855 43.143C218.103 43.0546 218.317 42.9237 218.497 42.7505C218.678 42.5772 218.816 42.3632 218.911 42.1086L220.412 42.3792C220.292 42.8212 220.076 43.2084 219.765 43.5408C219.457 43.8697 219.07 44.126 218.603 44.3099C218.14 44.4903 217.611 44.5804 217.017 44.5804ZM228.378 38.2577L226.94 38.5123C226.88 38.3284 226.785 38.1534 226.654 37.9872C226.527 37.821 226.353 37.6848 226.134 37.5787C225.915 37.4727 225.641 37.4196 225.312 37.4196C224.863 37.4196 224.488 37.5204 224.187 37.722C223.887 37.92 223.737 38.1764 223.737 38.4911C223.737 38.7634 223.837 38.9826 224.039 39.1488C224.241 39.315 224.566 39.4512 225.015 39.5573L226.309 39.8543C227.059 40.0276 227.618 40.2946 227.985 40.6553C228.353 41.0159 228.537 41.4845 228.537 42.0609C228.537 42.5489 228.396 42.9838 228.113 43.3658C227.833 43.7441 227.443 44.0412 226.94 44.2569C226.442 44.4726 225.864 44.5804 225.206 44.5804C224.294 44.5804 223.549 44.386 222.973 43.997C222.396 43.6045 222.043 43.0475 221.912 42.3261L223.445 42.0927C223.54 42.4923 223.737 42.7947 224.034 42.9998C224.331 43.2013 224.718 43.3021 225.195 43.3021C225.715 43.3021 226.131 43.1943 226.442 42.9785C226.753 42.7593 226.909 42.4923 226.909 42.1776C226.909 41.923 226.813 41.709 226.622 41.5358C226.435 41.3625 226.147 41.2317 225.758 41.1432L224.378 40.8409C223.618 40.6676 223.056 40.3918 222.692 40.0134C222.331 39.6351 222.151 39.1559 222.151 38.576C222.151 38.095 222.285 37.6742 222.554 37.3135C222.822 36.9528 223.194 36.6717 223.668 36.4701C224.141 36.265 224.684 36.1625 225.296 36.1625C226.177 36.1625 226.87 36.3534 227.375 36.7354C227.881 37.1137 228.215 37.6212 228.378 38.2577ZM236.386 38.2577L234.949 38.5123C234.889 38.3284 234.793 38.1534 234.662 37.9872C234.535 37.821 234.362 37.6848 234.142 37.5787C233.923 37.4727 233.649 37.4196 233.32 37.4196C232.871 37.4196 232.496 37.5204 232.196 37.722C231.895 37.92 231.745 38.1764 231.745 38.4911C231.745 38.7634 231.846 38.9826 232.047 39.1488C232.249 39.315 232.574 39.4512 233.023 39.5573L234.317 39.8543C235.067 40.0276 235.626 40.2946 235.994 40.6553C236.361 41.0159 236.545 41.4845 236.545 42.0609C236.545 42.5489 236.404 42.9838 236.121 43.3658C235.842 43.7441 235.451 44.0412 234.949 44.2569C234.45 44.4726 233.872 44.5804 233.214 44.5804C232.302 44.5804 231.557 44.386 230.981 43.997C230.405 43.6045 230.051 43.0475 229.92 42.3261L231.453 42.0927C231.549 42.4923 231.745 42.7947 232.042 42.9998C232.339 43.2013 232.726 43.3021 233.203 43.3021C233.723 43.3021 234.139 43.1943 234.45 42.9785C234.761 42.7593 234.917 42.4923 234.917 42.1776C234.917 41.923 234.821 41.709 234.63 41.5358C234.443 41.3625 234.155 41.2317 233.766 41.1432L232.387 40.8409C231.626 40.6676 231.064 40.3918 230.7 40.0134C230.339 39.6351 230.159 39.1559 230.159 38.576C230.159 38.095 230.293 37.6742 230.562 37.3135C230.831 36.9528 231.202 36.6717 231.676 36.4701C232.15 36.265 232.693 36.1625 233.304 36.1625C234.185 36.1625 234.878 36.3534 235.384 36.7354C235.889 37.1137 236.223 37.6212 236.386 38.2577Z" fill="#4B5563"/>
<path d="M49.0758 58.9883V75.2832H46.124V61.8606H46.0285L42.2173 64.2953V61.5901L46.2672 58.9883H49.0758ZM54.1222 75.4582C53.6395 75.4582 53.2258 75.2885 52.881 74.949C52.5362 74.6096 52.3665 74.1958 52.3718 73.7078C52.3665 73.2304 52.5362 72.822 52.881 72.4825C53.2258 72.143 53.6395 71.9733 54.1222 71.9733C54.589 71.9733 54.9948 72.143 55.3396 72.4825C55.6897 72.822 55.8674 73.2304 55.8727 73.7078C55.8674 74.0314 55.7825 74.3258 55.6181 74.591C55.4589 74.8562 55.2467 75.0684 54.9815 75.2275C54.7216 75.3813 54.4352 75.4582 54.1222 75.4582ZM64.2031 75.5935C62.8929 75.5935 61.7684 75.262 60.8295 74.5989C59.896 73.9306 59.1773 72.9679 58.6733 71.7107C58.1747 70.4483 57.9254 68.9286 57.9254 67.1517C57.9307 65.3747 58.1827 63.863 58.6813 62.6165C59.1852 61.3647 59.9039 60.4099 60.8375 59.7521C61.7764 59.0944 62.8982 58.7655 64.2031 58.7655C65.508 58.7655 66.6298 59.0944 67.5687 59.7521C68.5076 60.4099 69.2263 61.3647 69.7249 62.6165C70.2288 63.8683 70.4808 65.38 70.4808 67.1517C70.4808 68.9339 70.2288 70.4563 69.7249 71.7187C69.2263 72.9758 68.5076 73.9359 67.5687 74.5989C66.6351 75.262 65.5133 75.5935 64.2031 75.5935ZM64.2031 73.1031C65.2215 73.1031 66.0251 72.6019 66.6139 71.5994C67.208 70.5915 67.505 69.109 67.505 67.1517C67.505 65.8574 67.3698 64.77 67.0993 63.8895C66.8287 63.009 66.4468 62.346 65.9535 61.9004C65.4602 61.4495 64.8767 61.2241 64.2031 61.2241C63.19 61.2241 62.389 61.728 61.8002 62.7358C61.2115 63.7383 60.9144 65.2103 60.9091 67.1517C60.9038 68.4512 61.0338 69.5439 61.299 70.4297C61.5695 71.3156 61.9514 71.9839 62.4447 72.4348C62.938 72.8803 63.5241 73.1031 64.2031 73.1031ZM78.841 58.9883H82.4533L87.2908 70.7957H87.4818L92.3193 58.9883H95.9316V75.2832H93.0991V64.0884H92.9479L88.4445 75.2355H86.3281L81.8247 64.0646H81.6735V75.2832H78.841V58.9883ZM99.146 75.2832V58.9883H102.026V65.083H102.146C102.294 64.7859 102.504 64.4703 102.774 64.1362C103.045 63.7967 103.411 63.5076 103.872 63.2689C104.334 63.0249 104.922 62.9029 105.638 62.9029C106.583 62.9029 107.434 63.1443 108.193 63.627C108.956 64.1043 109.561 64.8125 110.007 65.7513C110.457 66.6849 110.683 67.8306 110.683 69.1885C110.683 70.5305 110.463 71.671 110.023 72.6098C109.582 73.5487 108.983 74.2648 108.224 74.7581C107.466 75.2514 106.607 75.498 105.646 75.498C104.946 75.498 104.365 75.3813 103.904 75.1479C103.442 74.9146 103.071 74.6334 102.79 74.3046C102.514 73.9704 102.299 73.6548 102.146 73.3577H101.978V75.2832H99.146ZM101.971 69.1726C101.971 69.963 102.082 70.6552 102.305 71.2493C102.533 71.8433 102.859 72.3075 103.283 72.6417C103.713 72.9705 104.233 73.135 104.843 73.135C105.479 73.135 106.012 72.9652 106.442 72.6257C106.872 72.281 107.195 71.8115 107.413 71.2174C107.636 70.6181 107.747 69.9364 107.747 69.1726C107.747 68.4141 107.638 67.7405 107.421 67.1517C107.203 66.5629 106.88 66.1014 106.45 65.7672C106.02 65.4331 105.485 65.266 104.843 65.266C104.228 65.266 103.705 65.4278 103.275 65.7513C102.846 66.0749 102.52 66.5284 102.297 67.1119C102.079 67.6954 101.971 68.3823 101.971 69.1726ZM113.132 79.8661V63.062H115.964V65.083H116.131C116.28 64.7859 116.489 64.4703 116.76 64.1362C117.03 63.7967 117.396 63.5076 117.858 63.2689C118.319 63.0249 118.908 62.9029 119.624 62.9029C120.568 62.9029 121.42 63.1443 122.178 63.627C122.942 64.1043 123.547 64.8125 123.992 65.7513C124.443 66.6849 124.668 67.8306 124.668 69.1885C124.668 70.5305 124.448 71.671 124.008 72.6098C123.568 73.5487 122.968 74.2648 122.21 74.7581C121.451 75.2514 120.592 75.498 119.632 75.498C118.932 75.498 118.351 75.3813 117.889 75.1479C117.428 74.9146 117.057 74.6334 116.776 74.3046C116.5 73.9704 116.285 73.6548 116.131 73.3577H116.012V79.8661H113.132ZM115.956 69.1726C115.956 69.963 116.067 70.6552 116.29 71.2493C116.518 71.8433 116.845 72.3075 117.269 72.6417C117.699 72.9705 118.218 73.135 118.828 73.135C119.465 73.135 119.998 72.9652 120.428 72.6257C120.857 72.281 121.181 71.8115 121.398 71.2174C121.621 70.6181 121.732 69.9364 121.732 69.1726C121.732 68.4141 121.624 67.7405 121.406 67.1517C121.189 66.5629 120.865 66.1014 120.436 65.7672C120.006 65.4331 119.47 65.266 118.828 65.266C118.213 65.266 117.691 65.4278 117.261 65.7513C116.831 66.0749 116.505 66.5284 116.282 67.1119C116.065 67.6954 115.956 68.3823 115.956 69.1726ZM136.794 66.2924L134.168 66.5788C134.094 66.3136 133.964 66.0643 133.779 65.8309C133.598 65.5975 133.354 65.4092 133.047 65.266C132.739 65.1228 132.362 65.0512 131.917 65.0512C131.317 65.0512 130.813 65.1811 130.405 65.441C130.002 65.7009 129.803 66.0378 129.808 66.4515C129.803 66.8069 129.933 67.096 130.198 67.3188C130.469 67.5415 130.914 67.7245 131.535 67.8678L133.619 68.3133C134.776 68.5626 135.635 68.9578 136.197 69.4988C136.765 70.0399 137.051 70.748 137.057 71.6232C137.051 72.3923 136.826 73.0713 136.38 73.6601C135.94 74.2436 135.327 74.6997 134.542 75.0286C133.757 75.3575 132.856 75.5219 131.837 75.5219C130.341 75.5219 129.137 75.2089 128.225 74.583C127.313 73.9518 126.769 73.074 126.594 71.9494L129.403 71.6789C129.53 72.2306 129.8 72.647 130.214 72.9281C130.628 73.2092 131.166 73.3498 131.829 73.3498C132.513 73.3498 133.062 73.2092 133.476 72.9281C133.895 72.647 134.105 72.2995 134.105 71.8858C134.105 71.5357 133.97 71.2466 133.699 71.0185C133.434 70.7904 133.02 70.6154 132.458 70.4934L130.373 70.0558C129.201 69.8118 128.334 69.4007 127.771 68.8225C127.209 68.2391 126.931 67.5018 126.936 66.6106C126.931 65.8574 127.135 65.205 127.549 64.6533C127.968 64.0964 128.549 63.6667 129.291 63.3644C130.039 63.0567 130.901 62.9029 131.877 62.9029C133.309 62.9029 134.436 63.2079 135.258 63.8179C136.086 64.4279 136.598 65.2527 136.794 66.2924Z" fill="#111827"/>
<path d="M43.4784 95.5889V105.094H42.0443V95.5889H43.4784ZM46.8434 100.861V105.094H45.4556V97.9652H46.7877V99.1255H46.8759C47.0399 98.7481 47.2967 98.4448 47.6463 98.2159C47.9991 97.9869 48.4431 97.8724 48.9784 97.8724C49.4642 97.8724 49.8896 97.9745 50.2547 98.1787C50.6198 98.3798 50.903 98.68 51.1041 99.0791C51.3052 99.4783 51.4058 99.9718 51.4058 100.56V105.094H50.018V100.727C50.018 100.21 49.8834 99.8063 49.6142 99.5154C49.345 99.2215 48.9753 99.0745 48.505 99.0745C48.1832 99.0745 47.8969 99.1441 47.6463 99.2834C47.3988 99.4226 47.2023 99.6268 47.0569 99.896C46.9145 100.162 46.8434 100.484 46.8434 100.861ZM56.2698 105.238C55.5798 105.238 54.9857 105.082 54.4876 104.769C53.9925 104.454 53.6119 104.019 53.3458 103.465C53.0797 102.911 52.9467 102.277 52.9467 101.562C52.9467 100.838 53.0828 100.199 53.3551 99.6454C53.6274 99.0884 54.0111 98.6537 54.5061 98.3412C55.0012 98.0287 55.5845 97.8724 56.2559 97.8724C56.7974 97.8724 57.2801 97.973 57.704 98.1741C58.1279 98.3721 58.4698 98.6506 58.7297 99.0095C58.9927 99.3684 59.149 99.7877 59.1985 100.267H57.8479C57.7736 99.9331 57.6034 99.6454 57.3373 99.404C57.0743 99.1627 56.7216 99.042 56.2791 99.042C55.8923 99.042 55.5535 99.1441 55.2627 99.3483C54.9749 99.5495 54.7506 99.8372 54.5897 100.212C54.4288 100.583 54.3483 101.022 54.3483 101.53C54.3483 102.05 54.4272 102.498 54.585 102.876C54.7428 103.253 54.9656 103.546 55.2534 103.753C55.5442 103.96 55.8861 104.064 56.2791 104.064C56.5421 104.064 56.7804 104.016 56.9939 103.92C57.2105 103.821 57.3915 103.68 57.5369 103.498C57.6854 103.315 57.7891 103.095 57.8479 102.839H59.1985C59.149 103.3 58.9989 103.711 58.7483 104.073C58.4976 104.435 58.1619 104.72 57.7411 104.927C57.3234 105.134 56.833 105.238 56.2698 105.238ZM60.6825 105.094V97.9652H62.0239V99.0977H62.0981C62.2281 98.714 62.457 98.4123 62.785 98.1926C63.1161 97.9699 63.4905 97.8585 63.9082 97.8585C63.9949 97.8585 64.097 97.8616 64.2145 97.8678C64.3352 97.8739 64.4296 97.8817 64.4977 97.891V99.2184C64.442 99.2029 64.3429 99.1859 64.2006 99.1673C64.0583 99.1457 63.9159 99.1348 63.7736 99.1348C63.4456 99.1348 63.1532 99.2044 62.8964 99.3437C62.6427 99.4798 62.4416 99.6701 62.293 99.9146C62.1445 100.156 62.0703 100.431 62.0703 100.741V105.094H60.6825ZM68.5158 105.238C67.8135 105.238 67.2086 105.088 66.7011 104.788C66.1968 104.485 65.8069 104.059 65.5315 103.512C65.2592 102.961 65.1231 102.316 65.1231 101.576C65.1231 100.846 65.2592 100.202 65.5315 99.6454C65.8069 99.0884 66.1906 98.6537 66.6825 98.3412C67.1776 98.0287 67.7562 97.8724 68.4184 97.8724C68.8206 97.8724 69.2105 97.9389 69.588 98.072C69.9655 98.205 70.3043 98.4139 70.6044 98.6985C70.9046 98.9832 71.1413 99.353 71.3145 99.8078C71.4878 100.26 71.5745 100.809 71.5745 101.455V101.947H65.9074V100.908H70.2146C70.2146 100.543 70.1403 100.219 69.9918 99.9378C69.8433 99.6531 69.6344 99.4288 69.3652 99.2648C69.0991 99.1008 68.7866 99.0188 68.4277 99.0188C68.0378 99.0188 67.6974 99.1147 67.4066 99.3066C67.1188 99.4953 66.896 99.7428 66.7382 100.049C66.5835 100.352 66.5062 100.682 66.5062 101.038V101.85C66.5062 102.326 66.5897 102.732 66.7568 103.066C66.927 103.4 67.1637 103.655 67.4669 103.832C67.7701 104.005 68.1244 104.092 68.5298 104.092C68.7928 104.092 69.0326 104.055 69.2492 103.98C69.4658 103.903 69.653 103.788 69.8108 103.637C69.9686 103.485 70.0892 103.298 70.1728 103.075L71.4863 103.312C71.3811 103.699 71.1923 104.038 70.92 104.328C70.6508 104.616 70.312 104.841 69.9036 105.001C69.4983 105.159 69.0357 105.238 68.5158 105.238ZM75.1889 105.252C74.7371 105.252 74.3287 105.168 73.9636 105.001C73.5984 104.831 73.3091 104.585 73.0956 104.263C72.8852 103.942 72.78 103.547 72.78 103.08C72.78 102.678 72.8574 102.347 73.0121 102.087C73.1668 101.827 73.3757 101.621 73.6387 101.469C73.9017 101.318 74.1956 101.203 74.5205 101.126C74.8454 101.049 75.1765 100.99 75.5137 100.95C75.9407 100.9 76.2873 100.86 76.5534 100.829C76.8195 100.795 77.0129 100.741 77.1336 100.666C77.2542 100.592 77.3146 100.472 77.3146 100.304V100.272C77.3146 99.8666 77.2001 99.5525 76.9711 99.3298C76.7452 99.107 76.408 98.9956 75.9593 98.9956C75.4921 98.9956 75.1239 99.0992 74.8547 99.3066C74.5886 99.5108 74.4045 99.7382 74.3024 99.9888L72.9982 99.6918C73.1529 99.2586 73.3788 98.909 73.6758 98.6429C73.9759 98.3737 74.3209 98.1787 74.7108 98.0581C75.1007 97.9343 75.5106 97.8724 75.9407 97.8724C76.2254 97.8724 76.5271 97.9064 76.8458 97.9745C77.1676 98.0395 77.4677 98.1602 77.7462 98.3365C78.0278 98.5129 78.2583 98.7651 78.4378 99.0931C78.6172 99.4179 78.7069 99.8403 78.7069 100.36V105.094H77.3517V104.12H77.296C77.2063 104.299 77.0717 104.475 76.8922 104.649C76.7127 104.822 76.4822 104.966 76.2007 105.08C75.9191 105.195 75.5818 105.252 75.1889 105.252ZM75.4905 104.138C75.8742 104.138 76.2022 104.062 76.4745 103.911C76.7499 103.759 76.9587 103.561 77.1011 103.317C77.2465 103.069 77.3192 102.805 77.3192 102.523V101.604C77.2697 101.654 77.1738 101.7 77.0314 101.743C76.8922 101.783 76.7329 101.819 76.5534 101.85C76.3739 101.878 76.1991 101.904 76.0289 101.929C75.8587 101.951 75.7164 101.969 75.6019 101.985C75.3327 102.019 75.0867 102.076 74.864 102.156C74.6443 102.237 74.4679 102.353 74.3349 102.504C74.2049 102.653 74.1399 102.851 74.1399 103.098C74.1399 103.442 74.2668 103.702 74.5205 103.878C74.7742 104.051 75.0976 104.138 75.4905 104.138ZM85.8975 99.7057L84.6397 99.9285C84.5871 99.7676 84.5035 99.6144 84.389 99.469C84.2776 99.3236 84.126 99.2044 83.9342 99.1116C83.7424 99.0188 83.5026 98.9724 83.2148 98.9724C82.8218 98.9724 82.4938 99.0606 82.2308 99.2369C81.9678 99.4102 81.8363 99.6345 81.8363 99.9099C81.8363 100.148 81.9245 100.34 82.1009 100.485C82.2773 100.631 82.5619 100.75 82.9549 100.843L84.0874 101.103C84.7433 101.254 85.2322 101.488 85.554 101.804C85.8758 102.119 86.0367 102.529 86.0367 103.034C86.0367 103.461 85.9129 103.841 85.6654 104.175C85.421 104.506 85.079 104.766 84.6397 104.955C84.2034 105.144 83.6975 105.238 83.122 105.238C82.3237 105.238 81.6723 105.068 81.168 104.728C80.6636 104.384 80.3542 103.897 80.2397 103.266L81.5811 103.061C81.6646 103.411 81.8363 103.676 82.0962 103.855C82.3562 104.031 82.695 104.12 83.1127 104.12C83.5675 104.12 83.9311 104.025 84.2034 103.836C84.4757 103.645 84.6118 103.411 84.6118 103.136C84.6118 102.913 84.5283 102.726 84.3612 102.574C84.1972 102.422 83.945 102.308 83.6047 102.231L82.3979 101.966C81.7327 101.814 81.2407 101.573 80.922 101.242C80.6064 100.911 80.4486 100.492 80.4486 99.9842C80.4486 99.5634 80.5662 99.1952 80.8013 98.8796C81.0365 98.564 81.3614 98.318 81.776 98.1416C82.1906 97.9621 82.6656 97.8724 83.2009 97.8724C83.9713 97.8724 84.5778 98.0395 85.0203 98.3737C85.4627 98.7047 85.7551 99.1488 85.8975 99.7057ZM90.635 105.238C89.9327 105.238 89.3277 105.088 88.8203 104.788C88.3159 104.485 87.9261 104.059 87.6507 103.512C87.3784 102.961 87.2423 102.316 87.2423 101.576C87.2423 100.846 87.3784 100.202 87.6507 99.6454C87.9261 99.0884 88.3098 98.6537 88.8017 98.3412C89.2968 98.0287 89.8754 97.8724 90.5376 97.8724C90.9398 97.8724 91.3297 97.9389 91.7072 98.072C92.0847 98.205 92.4235 98.4139 92.7236 98.6985C93.0238 98.9832 93.2605 99.353 93.4337 99.8078C93.607 100.26 93.6936 100.809 93.6936 101.455V101.947H88.0266V100.908H92.3338C92.3338 100.543 92.2595 100.219 92.111 99.9378C91.9625 99.6531 91.7536 99.4288 91.4844 99.2648C91.2183 99.1008 90.9058 99.0188 90.5469 99.0188C90.157 99.0188 89.8166 99.1147 89.5258 99.3066C89.238 99.4953 89.0152 99.7428 88.8574 100.049C88.7027 100.352 88.6254 100.682 88.6254 101.038V101.85C88.6254 102.326 88.7089 102.732 88.876 103.066C89.0462 103.4 89.2829 103.655 89.5861 103.832C89.8893 104.005 90.2436 104.092 90.649 104.092C90.912 104.092 91.1518 104.055 91.3684 103.98C91.585 103.903 91.7722 103.788 91.93 103.637C92.0878 103.485 92.2084 103.298 92.292 103.075L93.6055 103.312C93.5003 103.699 93.3115 104.038 93.0392 104.328C92.77 104.616 92.4312 104.841 92.0228 105.001C91.6174 105.159 91.1549 105.238 90.635 105.238ZM102.085 97.9652V99.0791H98.0565V97.9652H102.085ZM99.1611 105.094V97.1391C99.1611 96.6935 99.2585 96.3238 99.4535 96.0298C99.6484 95.7328 99.9068 95.5115 100.229 95.3661C100.55 95.2176 100.9 95.1433 101.278 95.1433C101.556 95.1433 101.794 95.1665 101.992 95.2129C102.19 95.2563 102.337 95.2965 102.433 95.3336L102.108 96.4568C102.043 96.4382 101.96 96.4166 101.858 96.3918C101.756 96.364 101.632 96.3501 101.486 96.3501C101.149 96.3501 100.908 96.4336 100.762 96.6007C100.62 96.7678 100.549 97.0091 100.549 97.3247V105.094H99.1611ZM103.517 105.094V97.9652H104.858V99.0977H104.933C105.062 98.714 105.291 98.4123 105.619 98.1926C105.951 97.9699 106.325 97.8585 106.743 97.8585C106.829 97.8585 106.931 97.8616 107.049 97.8678C107.17 97.8739 107.264 97.8817 107.332 97.891V99.2184C107.276 99.2029 107.177 99.1859 107.035 99.1673C106.893 99.1457 106.75 99.1348 106.608 99.1348C106.28 99.1348 105.988 99.2044 105.731 99.3437C105.477 99.4798 105.276 99.6701 105.127 99.9146C104.979 100.156 104.905 100.431 104.905 100.741V105.094H103.517ZM111.281 105.238C110.612 105.238 110.029 105.085 109.531 104.779C109.033 104.472 108.646 104.044 108.371 103.493C108.095 102.942 107.957 102.299 107.957 101.562C107.957 100.823 108.095 100.176 108.371 99.6222C108.646 99.0683 109.033 98.6382 109.531 98.3319C110.029 98.0256 110.612 97.8724 111.281 97.8724C111.949 97.8724 112.532 98.0256 113.03 98.3319C113.529 98.6382 113.915 99.0683 114.191 99.6222C114.466 100.176 114.604 100.823 114.604 101.562C114.604 102.299 114.466 102.942 114.191 103.493C113.915 104.044 113.529 104.472 113.03 104.779C112.532 105.085 111.949 105.238 111.281 105.238ZM111.285 104.073C111.718 104.073 112.077 103.959 112.362 103.73C112.647 103.501 112.857 103.196 112.993 102.815C113.133 102.435 113.202 102.016 113.202 101.558C113.202 101.103 113.133 100.685 112.993 100.304C112.857 99.9208 112.647 99.6129 112.362 99.3808C112.077 99.1488 111.718 99.0327 111.285 99.0327C110.849 99.0327 110.487 99.1488 110.199 99.3808C109.915 99.6129 109.703 99.9208 109.563 100.304C109.427 100.685 109.359 101.103 109.359 101.558C109.359 102.016 109.427 102.435 109.563 102.815C109.703 103.196 109.915 103.501 110.199 103.73C110.487 103.959 110.849 104.073 111.285 104.073ZM116.153 105.094V97.9652H117.485V99.1255H117.573C117.722 98.7326 117.964 98.4263 118.302 98.2066C118.639 97.9838 119.043 97.8724 119.513 97.8724C119.99 97.8724 120.389 97.9838 120.711 98.2066C121.035 98.4294 121.275 98.7357 121.43 99.1255H121.504C121.674 98.745 121.945 98.4417 122.316 98.2159C122.688 97.9869 123.13 97.8724 123.644 97.8724C124.291 97.8724 124.818 98.0751 125.227 98.4804C125.638 98.8857 125.844 99.4969 125.844 100.314V105.094H124.456V100.444C124.456 99.961 124.325 99.6113 124.062 99.3947C123.799 99.1781 123.485 99.0699 123.119 99.0699C122.668 99.0699 122.316 99.2091 122.066 99.4876C121.815 99.763 121.69 100.117 121.69 100.55V105.094H120.307V100.355C120.307 99.9687 120.186 99.6577 119.945 99.4226C119.703 99.1874 119.389 99.0699 119.003 99.0699C118.74 99.0699 118.497 99.1395 118.274 99.2787C118.054 99.4149 117.876 99.6051 117.74 99.8496C117.607 100.094 117.541 100.377 117.541 100.699V105.094H116.153Z" fill="#4B5563"/>
<rect x="134.469" y="91.0942" width="36.4685" height="19" rx="3.73424" fill="#45B369" fill-opacity="0.15"/>
<path d="M142.715 105.252C141.981 105.249 141.355 105.056 140.835 104.672C140.315 104.288 139.917 103.73 139.642 102.996C139.367 102.263 139.229 101.38 139.229 100.346C139.229 99.3158 139.367 98.4355 139.642 97.7053C139.92 96.9751 140.32 96.4181 140.839 96.0345C141.362 95.6508 141.987 95.4589 142.715 95.4589C143.442 95.4589 144.065 95.6523 144.585 96.0391C145.105 96.4228 145.502 96.9797 145.778 97.71C146.056 98.4371 146.195 99.3158 146.195 100.346C146.195 101.383 146.058 102.268 145.782 103.001C145.507 103.731 145.109 104.29 144.59 104.677C144.07 105.06 143.445 105.252 142.715 105.252ZM142.715 104.013C143.358 104.013 143.861 103.699 144.223 103.071C144.588 102.443 144.771 101.534 144.771 100.346C144.771 99.5572 144.687 98.8904 144.52 98.3458C144.356 97.7981 144.119 97.3835 143.81 97.1019C143.504 96.8173 143.138 96.6749 142.715 96.6749C142.074 96.6749 141.571 96.9906 141.206 97.6218C140.841 98.253 140.657 99.1611 140.654 100.346C140.654 101.138 140.736 101.808 140.9 102.356C141.067 102.9 141.304 103.314 141.61 103.595C141.916 103.874 142.284 104.013 142.715 104.013ZM148.43 105.182C148.177 105.182 147.958 105.093 147.776 104.913C147.593 104.731 147.502 104.511 147.502 104.254C147.502 104 147.593 103.784 147.776 103.604C147.958 103.422 148.177 103.331 148.43 103.331C148.684 103.331 148.902 103.422 149.085 103.604C149.267 103.784 149.359 104 149.359 104.254C149.359 104.424 149.315 104.581 149.229 104.723C149.145 104.862 149.034 104.974 148.894 105.057C148.755 105.141 148.6 105.182 148.43 105.182ZM154.163 105.224C153.526 105.224 152.957 105.114 152.455 104.895C151.957 104.675 151.563 104.37 151.272 103.98C150.984 103.587 150.829 103.133 150.808 102.616H152.265C152.284 102.897 152.378 103.142 152.548 103.349C152.721 103.553 152.947 103.711 153.226 103.823C153.504 103.934 153.814 103.99 154.154 103.99C154.529 103.99 154.86 103.925 155.147 103.795C155.438 103.665 155.666 103.484 155.83 103.252C155.994 103.016 156.076 102.746 156.076 102.439C156.076 102.121 155.994 101.841 155.83 101.599C155.669 101.355 155.432 101.163 155.119 101.024C154.81 100.885 154.436 100.815 153.996 100.815H153.193V99.6454H153.996C154.349 99.6454 154.658 99.5819 154.925 99.4551C155.194 99.3282 155.404 99.1518 155.556 98.926C155.707 98.697 155.783 98.4294 155.783 98.123C155.783 97.8291 155.717 97.5738 155.584 97.3572C155.454 97.1375 155.268 96.9658 155.027 96.842C154.788 96.7183 154.507 96.6564 154.182 96.6564C153.873 96.6564 153.583 96.7136 153.314 96.8281C153.048 96.9395 152.831 97.1004 152.664 97.3108C152.497 97.5181 152.407 97.7672 152.395 98.0581H151.007C151.023 97.5444 151.174 97.0927 151.462 96.7028C151.753 96.3129 152.137 96.0082 152.613 95.7885C153.09 95.5688 153.619 95.4589 154.201 95.4589C154.81 95.4589 155.336 95.5781 155.779 95.8163C156.224 96.0515 156.568 96.3655 156.809 96.7585C157.053 97.1515 157.174 97.5815 157.171 98.0488C157.174 98.581 157.026 99.0327 156.725 99.404C156.428 99.7753 156.032 100.024 155.537 100.151V100.226C156.168 100.321 156.657 100.572 157.004 100.977C157.353 101.383 157.527 101.886 157.524 102.486C157.527 103.009 157.381 103.478 157.087 103.892C156.797 104.307 156.399 104.633 155.895 104.871C155.39 105.107 154.813 105.224 154.163 105.224ZM159.079 103.238V102.077L163.186 95.5889H164.1V97.2969H163.52L160.582 101.947V102.022H166.212V103.238H159.079ZM163.585 105.094V102.885L163.594 102.356V95.5889H164.954V105.094H163.585Z" fill="#45B369"/>
<path d="M199.395 69.805L193 83.9386V102.143H286.356V83.9386L272.353 74.1363L265.037 79.0375L258.943 66.8622C257.77 64.5188 254.611 64.0809 252.845 66.017L248.206 71.1022L240.612 69.4685L232.497 83.9386L217.273 69.9353L210.504 75.3032L205.769 69.0826C204.056 66.8326 200.561 67.2288 199.395 69.805Z" fill="url(#paint1_linear_329_1694)"/>
<path d="M193 85.339L200.024 68.8248C200.879 66.8133 203.607 66.5136 204.879 68.2912L208.48 73.3244C209.52 74.7779 211.637 74.8985 212.836 73.5726L214.98 71.2003C216.075 69.9883 217.971 69.9673 219.093 71.1547L229.73 82.4113C231.071 83.8299 233.415 83.4768 234.278 81.7262L239.471 71.1922C240.1 69.9157 241.587 69.3141 242.927 69.7938L246.391 71.0336C247.484 71.4248 248.705 71.1011 249.461 70.2198L253.691 65.2858C255.014 63.7436 257.487 64.0783 258.352 65.9166L263.365 76.5724C264.184 78.3127 266.473 78.7288 267.852 77.3881L270.572 74.7433C271.626 73.7187 273.292 73.683 274.389 74.6615L286.356 85.339" stroke="#26BF94" stroke-width="1.86712" stroke-linecap="round"/>
<path d="M193 102.144L286.356 102.144" stroke="#D1D5DB" stroke-width="0.933561" stroke-dasharray="5.6 5.6"/>
<defs>
<filter id="filter0_d_329_1694" x="0.668766" y="0.956675" width="325.662" height="160.662" filterUnits="userSpaceOnUse" color-interpolation-filters="sRGB">
<feFlood flood-opacity="0" result="BackgroundImageFix"/>
<feColorMatrix in="SourceAlpha" type="matrix" values="0 0 0 0 0 0 0 0 0 0 0 0 0 0 0 0 0 0 127 0" result="hardAlpha"/>
<feOffset dy="12.2879"/>
<feGaussianBlur stdDeviation="13.1656"/>
<feComposite in2="hardAlpha" operator="out"/>
<feColorMatrix type="matrix" values="0 0 0 0 0.596078 0 0 0 0 0.701961 0 0 0 0 0.94902 0 0 0 0.15 0"/>
<feBlend mode="normal" in2="BackgroundImageFix" result="effect1_dropShadow_329_1694"/>
<feBlend mode="normal" in="SourceGraphic" in2="effect1_dropShadow_329_1694" result="shape"/>
</filter>
<linearGradient id="paint0_linear_329_1694" x1="214.377" y1="50.1824" x2="305.144" y2="126.65" gradientUnits="userSpaceOnUse">
<stop stop-color="white"/>
<stop offset="1" stop-color="#EAFFF9"/>
</linearGradient>
<linearGradient id="paint1_linear_329_1694" x1="239.678" y1="62" x2="239.678" y2="102.143" gradientUnits="userSpaceOnUse">
<stop stop-color="#26BF94" stop-opacity="0.59"/>
<stop offset="1" stop-color="#26BF94" stop-opacity="0"/>
</linearGradient>
</defs>
</svg>
