<svg width="1340" height="750" viewBox="0 0 1340 750" fill="none" xmlns="http://www.w3.org/2000/svg">
<mask id="mask0_573_1065" style="mask-type:alpha" maskUnits="userSpaceOnUse" x="0" y="0" width="1340" height="750">
<rect width="1340" height="750" rx="40" fill="#487FFF"/>
</mask>
<g mask="url(#mask0_573_1065)">
<rect width="1340" height="750" rx="40" fill="#155BFF"/>
<circle cx="670" cy="526" r="505.25" stroke="white" stroke-opacity="0.18" stroke-width="1.5" stroke-dasharray="6 6"/>
<circle cx="670" cy="526" r="669.25" stroke="white" stroke-opacity="0.18" stroke-width="1.5" stroke-dasharray="6 6"/>
<circle cx="670" cy="526" r="349.25" stroke="white" stroke-opacity="0.18" stroke-width="1.5" stroke-dasharray="6 6"/>
<path d="M652.477 253.296C655.895 244.079 662.593 238.349 669.969 238.349C677.346 238.349 684.094 244.079 687.487 253.309L687.563 253.527L696.648 256.68L696.485 255.86C693.205 239.4 682.31 227.901 669.969 227.901C657.629 227.901 646.834 239.323 643.517 255.693L643.354 256.501L652.401 253.514L652.477 253.296ZM644.61 255.078C645.326 251.822 646.369 248.796 647.651 246.015L653.821 248.207C653.017 249.604 652.301 251.117 651.685 252.745L644.623 255.078H644.61ZM688.291 252.77C687.676 251.142 686.959 249.63 686.155 248.22L692.325 246.027C693.62 248.848 694.675 251.924 695.391 255.244L688.291 252.77ZM685.652 247.373C683.843 244.438 681.644 242.066 679.181 240.374L683.403 234.029C686.771 236.798 689.686 240.592 691.911 245.143L685.652 247.373ZM678.389 239.849C675.938 238.349 673.262 237.503 670.472 237.413V228.888C674.833 229.004 678.992 230.619 682.662 233.426L678.389 239.849ZM669.53 237.413C666.74 237.49 664.063 238.336 661.6 239.836L657.327 233.413C661.009 230.606 665.169 228.991 669.53 228.888V237.413ZM656.586 234.003L660.808 240.349C658.345 242.041 656.134 244.412 654.312 247.348L648.053 245.117C650.278 240.554 653.206 236.772 656.586 233.99V234.003Z" fill="white"/>
<path d="M942.542 577.178C943.899 577.178 945 576.092 945 574.712L944.475 562.024L943.387 533.965C943.349 533.083 942.632 532.393 941.748 532.393C940.865 532.393 940.11 533.122 940.11 534.029V539.574C939.495 540.366 938.433 540.852 937.409 540.852C936.794 540.852 936.218 540.686 935.732 540.366C935.22 540.021 934.682 539.715 934.131 539.421L841.242 490.189L843.316 485.219C845.915 485.104 848.053 483.136 848.309 480.517C848.885 474.524 849.179 468.442 849.179 462.424V441.111C849.179 440.549 849.077 439.999 848.885 439.463C848.193 437.623 846.414 436.383 844.443 436.383H815.728C813.757 436.383 811.965 437.623 811.286 439.463C811.094 439.999 810.992 440.549 810.992 441.111V462.424C810.992 466.385 811.132 470.384 811.389 474.358L767.466 451.077L769.373 446.503C771.972 446.388 774.11 444.42 774.366 441.801C774.942 435.821 775.236 429.726 775.236 423.708V402.395C775.236 401.833 775.134 401.271 774.942 400.747C774.251 398.907 772.471 397.667 770.5 397.667H741.786C739.814 397.667 738.022 398.907 737.343 400.747C737.151 401.271 737.049 401.833 737.049 402.395V423.708C737.049 427.516 737.177 431.336 737.407 435.144L704.033 417.46V270.007C703.227 249.218 697.453 238.46 691.885 228.059C690.297 225.107 688.812 222.322 687.417 219.306C685.778 215.754 683.602 212.189 680.926 208.727C678.302 205.341 674.333 203.386 670.058 203.386C665.782 203.386 661.877 205.302 659.253 208.663C656.501 212.177 654.286 215.754 652.66 219.306C651.278 222.322 649.78 225.107 648.192 228.059C642.624 238.46 636.863 249.218 636.043 269.982L636.018 270.301V417.434L602.605 435.144C602.836 431.336 602.964 427.503 602.964 423.708V402.395C602.964 401.833 602.861 401.271 602.669 400.747C601.978 398.907 600.199 397.667 598.227 397.667H569.513C567.542 397.667 565.749 398.907 565.071 400.747C564.879 401.283 564.776 401.833 564.776 402.395V423.708C564.776 429.713 565.071 435.808 565.647 441.801C565.916 444.42 568.041 446.388 570.64 446.503L572.547 451.077L528.624 474.358C528.88 470.384 529.021 466.385 529.021 462.424V441.111C529.021 440.549 528.919 439.986 528.727 439.463C528.035 437.623 526.256 436.383 524.285 436.383H495.57C493.599 436.383 491.807 437.623 491.128 439.463C490.936 439.986 490.834 440.549 490.834 441.111V462.424C490.834 468.442 491.128 474.524 491.704 480.517C491.973 483.136 494.098 485.104 496.697 485.219L498.758 490.189L405.869 539.421C405.318 539.702 404.781 540.021 404.268 540.366C403.155 541.095 401.414 540.941 400.338 540.047C400.172 539.906 400.018 539.753 399.89 539.587V534.029C399.89 533.134 399.161 532.393 398.252 532.393C397.343 532.393 396.651 533.083 396.613 533.965L395.525 562.101L395 574.738C395 576.079 396.101 577.178 397.458 577.178C398.815 577.178 399.903 576.092 399.903 574.738V568.72L477.302 544.992V546.385C477.302 547.624 477.801 548.825 478.685 549.707V554.907C478.685 556.619 479.286 558.255 480.387 559.494L481.872 561.206C482.013 561.36 482.192 561.436 482.397 561.436C482.577 561.436 482.756 561.373 482.897 561.245C483.037 561.104 483.127 560.925 483.127 560.721V543.216L535.064 527.295V527.551C535.064 528.79 535.563 529.991 536.446 530.873V536.073C536.446 537.785 537.048 539.421 538.149 540.66L539.634 542.372C539.762 542.526 539.954 542.602 540.159 542.602C540.338 542.602 540.517 542.539 540.658 542.411C540.799 542.27 540.888 542.091 540.888 541.887V525.519L567.81 517.265L592.812 517.584V518.261C592.812 519.501 593.311 520.702 594.195 521.583V526.784C594.195 528.496 594.796 530.132 595.897 531.371L597.382 533.083C597.523 533.237 597.702 533.313 597.907 533.313C598.086 533.313 598.266 533.249 598.406 533.122C598.547 532.981 598.637 532.802 598.637 532.598V517.674L636.095 518.159V643.647C636.095 658.367 637.221 672.703 639.436 686.273C640.934 695.319 642.7 703.024 644.672 709.157C644.889 709.847 645.107 710.537 645.325 711.24C644.288 722.407 637.797 732.31 627.953 737.74L578.525 764.982C572.88 768.087 569.385 774.016 569.385 780.443V796.99L646.016 781.094C649.088 780.455 652.302 781.133 654.862 782.934L659.215 786.014C659.957 790.946 660.725 795.546 661.352 798.561C662.21 802.65 665.884 805.614 670.07 805.614H670.096C674.282 805.614 677.943 802.65 678.814 798.561C679.364 795.955 680.069 791.853 680.952 786.039L685.33 782.934C687.878 781.133 691.104 780.455 694.176 781.094L770.807 796.99V780.443C770.807 774.016 767.299 768.087 761.667 764.982L712.239 737.74C702.395 732.31 695.917 722.42 694.867 711.253C695.059 710.563 695.277 709.86 695.507 709.157C697.364 703.356 698.977 696.392 700.321 688.496C700.462 687.729 700.59 686.975 700.718 686.209C701.422 681.89 701.998 677.635 702.446 673.533C703.521 663.874 704.059 653.83 704.059 643.685V518.159L741.491 517.674V532.598C741.491 532.994 741.811 533.326 742.208 533.326C742.4 533.326 742.592 533.237 742.733 533.083L744.205 531.384C745.306 530.132 745.908 528.509 745.908 526.797V521.596C746.791 520.715 747.29 519.526 747.29 518.274V517.597L772.292 517.277L799.214 525.532V541.9C799.214 542.296 799.534 542.628 799.931 542.628C800.136 542.628 800.315 542.551 800.456 542.385L801.928 540.686C803.029 539.446 803.631 537.811 803.631 536.099V530.898C804.514 530.017 805.013 528.828 805.013 527.576V527.321L856.95 543.241V560.747C856.95 561.143 857.27 561.475 857.667 561.475C857.872 561.475 858.051 561.398 858.192 561.232L859.664 559.533C860.765 558.28 861.366 556.658 861.366 554.946V549.745C862.25 548.863 862.749 547.675 862.749 546.423V545.03L940.148 568.758V574.776C940.148 576.118 941.249 577.217 942.593 577.217L942.542 577.178ZM860.368 549.298V554.907C860.368 556.389 859.843 557.795 858.896 558.868L857.859 560.069V543.51L861.738 544.698V546.385C861.738 547.432 861.29 548.429 860.509 549.145L860.355 549.285L860.368 549.298ZM802.632 530.451V536.073C802.632 537.555 802.107 538.961 801.16 540.034L800.123 541.235V525.813L804.002 527.001V527.551C804.002 528.598 803.554 529.608 802.773 530.31L802.619 530.451H802.632ZM744.896 521.162V526.784C744.896 528.266 744.372 529.672 743.424 530.745L742.387 531.933V517.648L746.266 517.597V518.261C746.266 519.309 745.818 520.306 745.037 521.021L744.884 521.162H744.896ZM696.25 687.87C694.803 687.87 693.626 686.694 693.626 685.25V676.089C693.626 674.645 694.803 673.47 696.25 673.47H701.268C700.833 677.52 700.257 681.737 699.566 686.004C699.463 686.63 699.361 687.244 699.246 687.87H696.25ZM702.728 643.66C702.728 653.447 702.203 663.145 701.204 672.498H696.25C694.278 672.498 692.665 674.108 692.665 676.076V685.238C692.665 687.205 694.278 688.815 696.25 688.815H698.913C697.594 696.418 696.02 703.126 694.24 708.723C693.984 709.476 693.754 710.23 693.549 710.959C687.442 730.559 683.627 753.316 682.565 763.819C682.539 764.087 682.501 764.369 682.475 764.675C681.976 769.262 680.811 777.938 679.672 785.528C678.763 791.47 678.059 795.635 677.508 798.254C676.766 801.756 673.629 804.298 670.045 804.298H670.019C666.435 804.298 663.298 801.756 662.556 798.267C660.866 790.128 658.19 770.527 657.499 763.832C656.347 752.677 652.302 728.796 645.85 708.735C644.109 703.292 642.521 696.597 641.139 688.828H643.853C645.824 688.828 647.437 687.218 647.437 685.25V676.089C647.437 674.121 645.824 672.511 643.853 672.511H638.86C637.861 663.133 637.349 653.473 637.349 643.621V463.216H642.304C643.904 463.216 645.209 461.913 645.209 460.303V453.505C645.209 451.895 643.904 450.592 642.304 450.592H637.336V447.985H642.304C643.904 447.985 645.209 446.682 645.209 445.072V438.274C645.209 436.664 643.904 435.361 642.304 435.361H637.324V389.618L656.155 372.815L656.206 372.764L654.094 261.664L660.559 251.953L677.329 251.876L683.704 261.523V372.636L702.753 389.298V435.348H697.812C696.212 435.348 694.906 436.651 694.906 438.261V445.059C694.906 446.669 696.212 447.972 697.812 447.972H702.753V450.579H697.812C696.212 450.579 694.906 451.882 694.906 453.492V460.29C694.906 461.9 696.212 463.203 697.812 463.203H702.753V484.529V506.417V643.647L702.728 643.66ZM711.561 738.826L725.118 746.301V756.779L757.007 772.827L757.237 772.942V763.998L760.975 766.055C766.211 768.943 769.463 774.437 769.463 780.404V792.684L692.691 769.888L694.202 715.571C696.352 725.397 702.612 733.881 711.561 738.814V738.826ZM725.451 746.467L756.943 763.819V772.418L725.451 756.574V746.467ZM692.371 769.952L681.221 784.212L681.157 784.25C681.541 781.657 681.912 778.986 682.27 776.418V776.392C682.334 775.932 682.398 775.485 682.45 775.038C682.462 774.923 682.475 774.808 682.501 774.693C682.552 774.335 682.591 773.977 682.642 773.632C682.655 773.492 682.68 773.351 682.693 773.211C682.744 772.866 682.783 772.533 682.821 772.201C682.834 772.073 682.859 771.933 682.872 771.805C682.911 771.498 682.949 771.192 682.987 770.885C683.013 770.719 683.026 770.553 683.051 770.4C683.077 770.157 683.115 769.914 683.141 769.684C683.167 769.492 683.192 769.288 683.218 769.096C683.243 768.879 683.269 768.675 683.295 768.457C683.32 768.266 683.346 768.074 683.371 767.882C683.397 767.665 683.423 767.473 683.448 767.269C683.474 767.103 683.487 766.937 683.512 766.784C683.538 766.566 683.563 766.349 683.589 766.145C683.602 766.017 683.615 765.876 683.64 765.749C683.666 765.57 683.679 765.404 683.704 765.225C683.717 765.084 683.743 764.931 683.755 764.79C683.781 764.496 683.819 764.228 683.845 763.972C683.909 763.334 683.986 762.644 684.075 761.915C684.101 761.698 684.127 761.468 684.152 761.251C684.216 760.714 684.28 760.19 684.357 759.615C684.396 759.321 684.447 759.002 684.485 758.695C684.562 758.171 684.626 757.648 684.703 757.085C684.754 756.728 684.805 756.357 684.869 755.999C684.946 755.463 685.023 754.926 685.112 754.351C685.176 753.955 685.24 753.533 685.304 753.137C685.394 752.575 685.484 752 685.573 751.412C685.637 750.991 685.714 750.556 685.791 750.122C685.893 749.521 685.996 748.921 686.098 748.307C686.175 747.86 686.265 747.4 686.341 746.94C686.457 746.314 686.559 745.701 686.674 745.062C686.764 744.589 686.853 744.103 686.943 743.631C687.058 742.992 687.186 742.34 687.314 741.689C687.404 741.19 687.506 740.692 687.609 740.194C687.737 739.529 687.878 738.877 688.006 738.2C688.108 737.689 688.223 737.178 688.326 736.654C688.466 735.99 688.607 735.313 688.761 734.635C688.876 734.111 688.991 733.588 689.107 733.064C689.26 732.374 689.414 731.697 689.567 731.007C689.683 730.47 689.811 729.933 689.939 729.397C690.092 728.719 690.259 728.029 690.425 727.352C690.553 726.803 690.694 726.253 690.822 725.691C690.988 725.014 691.155 724.349 691.334 723.672C691.475 723.11 691.616 722.548 691.769 721.973C691.936 721.321 692.115 720.657 692.294 720.005C692.448 719.43 692.601 718.842 692.768 718.267C692.947 717.641 693.126 717.015 693.306 716.389C693.472 715.789 693.651 715.188 693.818 714.6C693.856 714.472 693.894 714.332 693.933 714.204C693.933 714.204 693.933 714.204 693.933 714.217L692.384 769.978L692.371 769.952ZM682.13 783.573L692.589 770.208L769.476 793.028V795.392L694.394 779.817C693.549 779.638 692.691 779.548 691.833 779.548C689.209 779.548 686.687 780.353 684.549 781.861L682.142 783.56L682.13 783.573ZM583.16 763.832L614.652 746.48V756.587L583.16 772.431V763.832ZM582.84 763.998V772.942L614.882 756.817L614.972 756.779V746.301L628.529 738.826C637.733 733.754 644.096 724.912 646.054 714.728L647.399 769.901L570.627 792.696V780.417C570.627 774.45 573.878 768.956 579.114 766.068L582.852 764.011L582.84 763.998ZM647.731 769.952L646.4 714.907C646.592 715.571 646.784 716.236 646.976 716.9C652.046 734.942 655.246 754.274 656.245 763.972C656.654 767.921 657.742 776.316 658.92 784.238H658.895L647.744 769.965L647.731 769.952ZM570.627 795.38V793.016L647.514 770.195L657.973 783.56L655.566 781.861C652.724 779.855 649.14 779.101 645.722 779.817L570.64 795.392L570.627 795.38ZM596.589 530.732C595.641 529.659 595.129 528.253 595.129 526.771V521.149L594.976 521.008C594.195 520.306 593.747 519.296 593.747 518.249V517.584L597.626 517.635V531.933L596.589 530.732ZM538.853 540.021C537.906 538.948 537.393 537.543 537.393 536.06V530.438L537.24 530.298C536.459 529.595 536.011 528.586 536.011 527.538V526.988L539.89 525.8V541.21L538.853 540.009V540.021ZM481.117 558.868C480.17 557.795 479.658 556.389 479.658 554.907V549.285L479.504 549.145C478.723 548.442 478.275 547.432 478.275 546.385V544.698L482.154 543.51V560.069L481.117 558.868ZM398.264 533.364C398.636 533.364 398.943 533.671 398.943 534.042V574.61C398.943 575.479 398.29 576.194 397.484 576.194C396.677 576.194 396.024 575.492 396.024 574.636L397.586 534.016C397.599 533.658 397.893 533.364 398.264 533.364ZM491.781 441.584H497.26V478.562L493.522 482.625C493.048 482.012 492.728 481.258 492.651 480.427C492.075 474.473 491.781 468.416 491.781 462.424V441.584ZM524.285 437.329C525.859 437.329 527.28 438.313 527.831 439.795C527.933 440.063 527.984 440.344 528.023 440.625H491.832C491.871 440.344 491.922 440.063 492.024 439.795C492.575 438.325 493.996 437.329 495.57 437.329H524.285ZM527.639 474.895L522.8 477.463V441.596H528.061V462.436C528.061 466.576 527.907 470.755 527.639 474.895ZM601.786 401.079C601.888 401.347 601.94 401.628 601.978 401.909H565.788C565.826 401.628 565.877 401.347 565.98 401.079C566.53 399.61 567.951 398.626 569.526 398.626H598.24C599.815 398.626 601.236 399.61 601.786 401.079ZM601.632 435.68L596.768 438.261V402.881H602.029V423.721C602.029 427.694 601.889 431.707 601.632 435.693V435.68ZM637.183 291.41V277.01H643.379C644.173 277.01 644.813 277.648 644.813 278.441V289.966C644.813 290.758 644.173 291.397 643.379 291.397H637.183V291.41ZM643.379 292.368C644.697 292.368 645.773 291.295 645.773 289.966V278.441C645.773 277.125 644.697 276.038 643.379 276.038H637.298V270.34L637.324 270.046C638.117 249.551 643.814 238.92 649.319 228.647C650.842 225.81 652.417 222.871 653.812 219.817C655.08 217.07 656.718 214.298 658.677 211.55C660.764 214.336 665.052 216.15 669.827 216.15C674.602 216.15 679.198 214.195 681.182 211.244C683.205 214.068 684.92 216.943 686.239 219.817C687.634 222.871 689.209 225.81 690.732 228.647C696.237 238.92 701.934 249.551 702.728 270.02V276.038H696.685C695.367 276.038 694.278 277.112 694.278 278.441V289.966C694.278 291.282 695.354 292.368 696.685 292.368H702.728V388.889L683.999 372.508V261.447L677.521 251.646L677.47 251.57L660.444 251.646H660.354L653.735 261.574L655.848 372.623L637.285 389.183V292.355H643.353L643.379 292.368ZM670.058 204.676C673.937 204.676 677.534 206.439 679.915 209.519C680.299 210.004 680.645 210.503 681.003 211.001C679.108 213.914 674.73 215.856 669.853 215.856C664.975 215.856 660.892 214.055 658.895 211.308C659.343 210.694 659.778 210.081 660.264 209.468C662.645 206.427 666.217 204.689 670.07 204.689L670.058 204.676ZM738.009 423.708V402.868H743.271V438.249L738.406 435.668C738.15 431.681 738.009 427.682 738.009 423.695V423.708ZM770.5 398.626C772.074 398.626 773.495 399.61 774.046 401.079C774.148 401.347 774.2 401.628 774.238 401.909H738.048C738.086 401.628 738.137 401.347 738.24 401.079C738.79 399.61 740.211 398.626 741.786 398.626H770.5ZM811.965 462.424V441.584H817.226V477.45L812.387 474.882C812.105 470.729 811.965 466.551 811.965 462.424ZM815.741 437.329H844.455C846.03 437.329 847.451 438.313 848.001 439.795C848.104 440.063 848.155 440.344 848.193 440.625H812.003C812.041 440.344 812.093 440.063 812.195 439.795C812.746 438.325 814.167 437.329 815.741 437.329ZM941.083 534.029C941.083 533.658 941.39 533.352 941.761 533.352C942.132 533.352 942.427 533.633 942.44 534.003L944.001 574.597C944.001 575.466 943.349 576.182 942.542 576.182C941.736 576.182 941.083 575.479 941.083 574.597V534.029ZM940.123 567.404L907.67 557.45L908.643 544.481L931.187 554.971L931.417 555.073V544.545C931.609 544.57 931.814 544.583 932.006 544.583C933.824 544.583 935.463 543.574 936.295 541.976C936.653 542.066 937.037 542.13 937.421 542.13C938.356 542.13 939.329 541.836 940.123 541.299V567.404ZM703.854 517.009V507.273H772.689L771.908 516.127L703.854 517.009ZM702.74 443.935H701.934C701.217 443.935 700.641 443.347 700.641 442.644V440.728C700.641 440.012 701.23 439.437 701.934 439.437H702.74V443.947V443.935ZM702.74 438.466H701.934C700.692 438.466 699.681 439.475 699.681 440.715V442.631C699.681 443.871 700.692 444.88 701.934 444.88H702.74V447.014H697.799C696.724 447.014 695.853 446.132 695.853 445.059V438.261C695.853 437.188 696.724 436.306 697.799 436.306H702.74V438.44V438.466ZM702.74 459.165H701.947C701.23 459.165 700.654 458.578 700.654 457.875V455.958C700.654 455.243 701.243 454.668 701.947 454.668H702.74V459.178V459.165ZM702.74 453.684H701.934C700.692 453.684 699.681 454.693 699.681 455.933V457.849C699.681 459.089 700.692 460.098 701.934 460.098H702.728V462.232H697.786C696.711 462.232 695.84 461.35 695.84 460.277V453.479C695.84 452.406 696.711 451.524 697.786 451.524H702.728V453.658L702.74 453.684ZM710.434 495.594H764.624V506.57H710.434V495.594ZM776.862 497.051L805.039 507.656L801.429 517.201L773.252 506.595L776.862 497.051ZM862.877 529.454L859.267 538.999L830.105 528.011L833.715 518.466L862.877 529.454ZM833.113 518.236L829.503 527.781L802.018 517.431L805.628 507.886L833.113 518.236ZM886.355 549.196L859.869 539.216L863.479 529.672L889.965 539.651L886.355 549.196ZM772.855 516.268L773.636 507.477L885.831 550.001L885.472 550.806L772.855 516.268ZM703.713 418.38L751.566 443.743C751.464 445.391 750.094 446.707 748.417 446.707C747.905 446.707 747.406 446.58 746.945 446.337L703.713 423.427V418.392V418.38ZM757.993 446.068L754.293 444.114V428.602C754.293 424.666 754.485 420.692 754.869 416.782L755.458 410.713C755.458 410.343 755.765 410.036 756.136 410.036C756.508 410.036 756.815 410.343 756.828 410.764L757.416 416.782C757.801 420.692 757.993 424.666 757.993 428.602V446.081V446.068ZM822.155 485.819C821.643 485.819 821.143 485.691 820.67 485.449L766.058 456.482C763.164 454.949 761.308 452.048 761.129 448.803L825.33 482.829C825.227 484.49 823.845 485.819 822.155 485.819ZM828.261 483.302V467.305C828.261 463.369 828.453 459.395 828.837 455.485L829.426 449.416C829.426 449.046 829.733 448.739 830.105 448.739C830.476 448.739 830.783 449.046 830.796 449.467L831.385 455.485C831.769 459.395 831.961 463.382 831.961 467.305V485.257L828.261 483.302ZM932.006 543.944C931.315 543.944 930.662 543.778 930.048 543.459L839.86 495.632C836.966 494.099 835.11 491.186 834.931 487.915L933.709 540.277C934.451 540.673 935.156 541.108 935.796 541.58C935.092 543.024 933.632 543.944 932.006 543.944ZM832.908 485.768V485.244H842.279L840.41 489.742L832.908 485.768ZM832.908 484.286V467.305C832.908 463.344 832.716 459.332 832.332 455.383L831.743 449.416C831.743 448.509 831.001 447.781 830.105 447.781C829.209 447.781 828.466 448.522 828.466 449.378L827.877 455.396C827.493 459.332 827.301 463.344 827.301 467.317V482.804L817.546 477.642V441.609H842.445V478.715L846.286 482.88C845.505 483.749 844.379 484.312 843.111 484.312H832.908V484.286ZM846.504 482.625L842.766 478.562V441.584H848.245V462.424C848.245 468.404 847.95 474.46 847.374 480.414C847.285 481.245 846.977 481.999 846.504 482.612V482.625ZM758.953 446.567V446.528H768.324L766.621 450.63L758.953 446.567ZM758.953 445.57V428.589C758.953 424.628 758.761 420.616 758.377 416.667L757.788 410.7C757.788 409.793 757.045 409.065 756.149 409.065C755.253 409.065 754.511 409.806 754.511 410.662L753.922 416.68C753.538 420.616 753.346 424.628 753.346 428.602V443.615L743.591 438.453V402.893H768.49V439.999L772.331 444.165C771.55 445.034 770.423 445.596 769.156 445.596H758.953V445.57ZM772.535 443.909L768.797 439.846V402.868H774.276V423.708C774.276 429.701 773.982 435.757 773.406 441.699C773.316 442.529 773.009 443.283 772.535 443.896V443.909ZM702.907 277.01V291.41H696.711C695.917 291.41 695.277 290.771 695.277 289.979V278.453C695.277 277.661 695.917 277.022 696.711 277.022H702.907V277.01ZM568.13 516.14L567.349 507.285H636.184V517.022L568.13 516.153V516.14ZM575.415 495.594H629.591V506.57H575.415V495.594ZM538.008 517.431L510.535 527.781L506.925 518.236L534.398 507.886L538.008 517.431ZM506.311 518.466L509.921 528.011L480.759 538.999L477.149 529.454L506.311 518.466ZM566.773 506.595L538.597 517.201L534.987 507.656L563.163 497.051L566.773 506.595ZM480.157 539.229L453.67 549.208L450.06 539.664L476.547 529.684L480.157 539.229ZM454.195 550.001L566.389 507.477L567.17 516.268L454.554 550.806L454.195 550.001ZM505.108 487.915C504.941 491.16 503.085 494.086 500.179 495.632L409.991 543.459C409.376 543.778 408.711 543.944 408.032 543.944C406.406 543.944 404.947 543.024 404.243 541.58C404.883 541.108 405.587 540.673 406.33 540.277L505.108 487.915ZM511.777 483.302L508.078 485.257V467.305C508.078 463.382 508.27 459.408 508.654 455.485L509.242 449.416C509.242 449.046 509.55 448.739 509.921 448.739C510.292 448.739 510.599 449.046 510.612 449.467L511.201 455.485C511.585 459.395 511.777 463.369 511.777 467.305V483.302ZM573.968 456.482L519.356 485.449C518.882 485.691 518.383 485.819 517.871 485.819C516.181 485.819 514.798 484.49 514.696 482.829L578.897 448.803C578.705 452.036 576.861 454.949 573.968 456.482ZM585.733 444.101L582.033 446.056V428.576C582.033 424.641 582.225 420.667 582.609 416.757L583.198 410.688C583.198 410.317 583.505 410.01 583.876 410.01C584.248 410.01 584.555 410.317 584.568 410.739L585.157 416.757C585.541 420.667 585.733 424.653 585.733 428.576V444.088V444.101ZM593.094 446.337C592.633 446.58 592.134 446.707 591.622 446.707C589.945 446.707 588.575 445.391 588.472 443.743L636.312 418.38V423.414L593.094 446.324V446.337ZM637.285 454.642H638.156C638.873 454.642 639.449 455.217 639.449 455.933V457.849C639.449 458.565 638.873 459.14 638.156 459.14H637.285V454.629V454.642ZM637.285 439.424H638.156C638.873 439.424 639.449 440.012 639.449 440.715V442.631C639.449 443.347 638.873 443.922 638.156 443.922H637.285V439.411V439.424ZM637.285 460.124H638.156C639.398 460.124 640.409 459.114 640.409 457.875V455.958C640.409 454.719 639.398 453.709 638.156 453.709H637.285V451.576H642.291C643.366 451.576 644.237 452.457 644.237 453.531V460.328C644.237 461.401 643.366 462.283 642.291 462.283H637.285V460.149V460.124ZM637.285 444.893H638.156C639.398 444.893 640.409 443.884 640.409 442.644V440.728C640.409 439.488 639.398 438.479 638.156 438.479H637.285V436.345H642.291C643.366 436.345 644.237 437.226 644.237 438.3V445.097C644.237 446.171 643.366 447.052 642.291 447.052H637.285V444.919V444.893ZM565.749 402.868H571.228V439.846L567.49 443.909C567.017 443.296 566.697 442.542 566.62 441.711C566.044 435.744 565.749 429.688 565.749 423.708V402.868ZM571.548 439.974V402.868H596.448V438.428L586.693 443.59V428.576C586.693 424.615 586.501 420.603 586.117 416.655L585.528 410.688C585.528 409.78 584.785 409.052 583.889 409.052C582.993 409.052 582.251 409.793 582.251 410.649L581.662 416.667C581.278 420.603 581.086 424.615 581.086 428.589V445.57H570.883C569.628 445.57 568.502 445.021 567.708 444.152L571.548 439.986V439.974ZM581.073 446.528V446.567L573.405 450.63L571.702 446.528H581.073ZM497.58 478.689V441.584H522.479V477.616L512.725 482.778V467.292C512.725 463.331 512.533 459.319 512.148 455.371L511.56 449.403C511.56 448.496 510.817 447.768 509.921 447.768C509.025 447.768 508.282 448.509 508.282 449.365L507.693 455.383C507.309 459.332 507.117 463.344 507.117 467.305V484.286H496.914C495.66 484.286 494.533 483.737 493.74 482.855L497.58 478.689ZM507.117 485.244V485.768L499.616 489.742L497.747 485.244H507.117ZM403.731 541.964C404.563 543.561 406.189 544.583 408.019 544.583C408.211 544.583 408.416 544.57 408.608 544.545V555.073L431.382 544.481L432.355 557.45L399.903 567.404V541.299C401.017 542.027 402.463 542.283 403.731 541.976V541.964ZM432.675 557.348L431.677 543.982L408.941 554.562V544.481C409.415 544.391 409.863 544.238 410.298 544.008L500.486 496.182C503.571 494.546 505.53 491.441 505.735 487.953L514.171 483.481C514.555 485.18 516.079 486.458 517.884 486.458C518.511 486.458 519.113 486.305 519.676 486.011L574.288 457.044C577.373 455.409 579.332 452.304 579.537 448.854L587.947 444.395C588.331 446.081 589.842 447.346 591.647 447.346C592.262 447.346 592.863 447.193 593.427 446.899L636.031 424.308V460.111L599.968 476.453L599.879 476.492V494.917H600.199V476.696L636.043 460.456V506.314H630.27V494.942H574.813V506.314H567.401L563.586 496.22L534.513 507.17L534.219 507.285L506.439 517.75L506.144 517.865L449.599 539.165L449.305 539.28L453.133 549.4L452.966 549.464L453.632 550.933L453.427 550.997L432.739 557.348H432.675ZM638.821 673.457H643.84C645.286 673.457 646.464 674.632 646.464 676.076V685.238C646.464 686.681 645.286 687.857 643.84 687.857H640.844C640.729 687.231 640.626 686.618 640.524 685.991C639.82 681.698 639.244 677.469 638.821 673.457ZM887.123 549.464L886.957 549.4L890.785 539.28L863.696 529.084L833.932 517.878L776.773 496.348L776.478 496.233L772.651 506.353H765.251V494.955H709.781V506.327H703.995V460.469L739.84 476.709V494.93H740.16V476.504L703.995 460.124V424.321L746.612 446.912C747.175 447.206 747.764 447.359 748.391 447.359C750.196 447.359 751.707 446.094 752.091 444.407L760.502 448.867C760.707 452.317 762.665 455.422 765.75 457.057L820.363 486.024C820.926 486.318 821.527 486.471 822.155 486.471C823.973 486.471 825.483 485.193 825.867 483.494L834.304 487.966C834.496 491.429 836.454 494.559 839.552 496.207L929.74 544.034C930.163 544.264 930.624 544.417 931.097 544.506V554.588L908.566 544.11L908.362 544.008L907.363 557.373L886.471 550.959L887.136 549.49L887.123 549.464Z" fill="white"/>
<path d="M670.183 550.892H669.832V550.994H662.539V551.315H669.832V684.363C665.939 684.569 663.832 697.782 663.832 710.227L666.572 761.724C666.6 761.878 666.628 762.045 666.67 762.198L666.881 762.839C667.373 764.313 667.822 765.697 667.822 767.171V793.971C667.822 795.098 668.764 796.021 669.916 796.021C671.068 796.021 671.982 795.098 671.982 793.971V767.235C671.982 765.684 672.473 764.236 672.993 762.698L673.162 762.186C673.218 762.019 673.246 761.852 673.274 761.647L675.972 710.714V710.214C675.972 697.949 673.935 684.94 670.169 684.363V551.289H677.462V550.969H670.169V550.866L670.183 550.892ZM670.942 793.983C670.942 794.573 670.478 795.073 669.93 795.073C669.382 795.073 668.89 794.586 668.89 793.983V767.184C668.89 765.556 668.384 764.031 667.893 762.57L667.682 761.942C667.64 761.827 667.626 761.711 667.612 761.609V761.25L669.986 758.136L672.22 761.673C672.206 761.763 672.192 761.852 672.164 761.929L671.996 762.429C671.476 763.967 670.942 765.543 670.942 767.248V793.983ZM664.886 710.227C664.886 695.732 667.471 685.607 669.832 685.338V757.789L667.569 760.737L664.886 710.727V710.227ZM672.263 761.096L670.183 757.789V685.376C672.248 686.107 674.932 695.398 674.932 710.214L672.263 761.083V761.096Z" fill="white"/>
<circle cx="1123" cy="305" r="8" fill="#9FFFF5"/>
<circle cx="162" cy="672" r="6" fill="#9FFFF5"/>
<circle cx="82" cy="200" r="26" fill="#9FFFF5" fill-opacity="0.18"/>
<circle cx="82" cy="200" r="12" fill="#9FFFF5"/>
<circle cx="1018" cy="508" r="18" fill="#9FFFF5" fill-opacity="0.18"/>
<circle cx="1018" cy="508" r="8.30769" fill="#9FFFF5"/>
</g>
</svg>
