<svg width="1340" height="1308" viewBox="0 0 1340 1308" fill="none" xmlns="http://www.w3.org/2000/svg">
<mask id="mask0_329_1265" style="mask-type:alpha" maskUnits="userSpaceOnUse" x="0" y="0" width="1340" height="1308">
<rect width="1340" height="1308" rx="30" fill="#2866F7"/>
</mask>
<g mask="url(#mask0_329_1265)">
<rect x="0.5" y="0.5" width="1342" height="1307" rx="29.5" fill="white" stroke="#E0EAF8"/>
<g filter="url(#filter0_f_329_1265)">
<path d="M1514 702.751C1293.89 322.376 997.508 89.327 671.5 89.3269C344.998 89.3268 48.209 323.082 -172 704.48L-172 -494.488L1514 -494.487L1514 702.751Z" fill="#316FFF"/>
</g>
<rect width="68.5714" height="68.5714" stroke="white" stroke-opacity="0.06" stroke-width="1.37143"/>
<rect x="68.5723" width="68.5714" height="68.5714" stroke="white" stroke-opacity="0.06" stroke-width="1.37143"/>
<rect x="137.143" width="68.5714" height="68.5714" stroke="white" stroke-opacity="0.06" stroke-width="1.37143"/>
<rect x="205.715" width="68.5714" height="68.5714" stroke="white" stroke-opacity="0.06" stroke-width="1.37143"/>
<rect x="274.285" width="68.5714" height="68.5714" stroke="white" stroke-opacity="0.06" stroke-width="1.37143"/>
<rect x="342.857" width="68.5714" height="68.5714" stroke="white" stroke-opacity="0.06" stroke-width="1.37143"/>
<rect x="411.428" width="68.5714" height="68.5714" stroke="white" stroke-opacity="0.06" stroke-width="1.37143"/>
<rect x="480" width="68.5714" height="68.5714" stroke="white" stroke-opacity="0.06" stroke-width="1.37143"/>
<rect x="548.572" width="68.5714" height="68.5714" stroke="white" stroke-opacity="0.06" stroke-width="1.37143"/>
<rect x="617.143" width="68.5714" height="68.5714" stroke="white" stroke-opacity="0.06" stroke-width="1.37143"/>
<rect x="685.715" width="68.5714" height="68.5714" stroke="white" stroke-opacity="0.06" stroke-width="1.37143"/>
<rect x="754.285" width="68.5714" height="68.5714" stroke="white" stroke-opacity="0.06" stroke-width="1.37143"/>
<rect x="822.857" width="68.5714" height="68.5714" stroke="white" stroke-opacity="0.06" stroke-width="1.37143"/>
<rect x="891.428" width="68.5714" height="68.5714" stroke="white" stroke-opacity="0.06" stroke-width="1.37143"/>
<rect x="960" width="68.5714" height="68.5714" stroke="white" stroke-opacity="0.06" stroke-width="1.37143"/>
<rect x="1028.57" width="68.5714" height="68.5714" stroke="white" stroke-opacity="0.06" stroke-width="1.37143"/>
<rect x="1097.14" width="68.5714" height="68.5714" stroke="white" stroke-opacity="0.06" stroke-width="1.37143"/>
<rect x="1165.71" width="68.5714" height="68.5714" stroke="white" stroke-opacity="0.06" stroke-width="1.37143"/>
<rect x="1234.29" width="68.5714" height="68.5714" stroke="white" stroke-opacity="0.06" stroke-width="1.37143"/>
<rect x="1302.86" width="68.5714" height="68.5714" stroke="white" stroke-opacity="0.06" stroke-width="1.37143"/>
<rect y="68.5703" width="68.5714" height="68.5714" stroke="white" stroke-opacity="0.06" stroke-width="1.37143"/>
<rect x="68.5723" y="68.5703" width="68.5714" height="68.5714" stroke="white" stroke-opacity="0.06" stroke-width="1.37143"/>
<rect x="137.143" y="68.5703" width="68.5714" height="68.5714" fill="white" fill-opacity="0.06" stroke="white" stroke-opacity="0.06" stroke-width="1.37143"/>
<rect x="205.715" y="68.5703" width="68.5714" height="68.5714" stroke="white" stroke-opacity="0.06" stroke-width="1.37143"/>
<rect x="274.285" y="68.5703" width="68.5714" height="68.5714" stroke="white" stroke-opacity="0.06" stroke-width="1.37143"/>
<rect x="342.857" y="68.5703" width="68.5714" height="68.5714" stroke="white" stroke-opacity="0.06" stroke-width="1.37143"/>
<rect x="411.428" y="68.5703" width="68.5714" height="68.5714" stroke="white" stroke-opacity="0.06" stroke-width="1.37143"/>
<rect x="480" y="68.5703" width="68.5714" height="68.5714" stroke="white" stroke-opacity="0.06" stroke-width="1.37143"/>
<rect x="548.572" y="68.5703" width="68.5714" height="68.5714" stroke="white" stroke-opacity="0.06" stroke-width="1.37143"/>
<rect x="617.143" y="68.5703" width="68.5714" height="68.5714" fill="white" fill-opacity="0.06" stroke="white" stroke-opacity="0.06" stroke-width="1.37143"/>
<rect x="685.715" y="68.5703" width="68.5714" height="68.5714" stroke="white" stroke-opacity="0.06" stroke-width="1.37143"/>
<rect x="754.285" y="68.5703" width="68.5714" height="68.5714" stroke="white" stroke-opacity="0.06" stroke-width="1.37143"/>
<rect x="822.857" y="68.5703" width="68.5714" height="68.5714" stroke="white" stroke-opacity="0.06" stroke-width="1.37143"/>
<rect x="891.428" y="68.5703" width="68.5714" height="68.5714" stroke="white" stroke-opacity="0.06" stroke-width="1.37143"/>
<rect x="960" y="68.5703" width="68.5714" height="68.5714" stroke="white" stroke-opacity="0.06" stroke-width="1.37143"/>
<rect x="1028.57" y="68.5703" width="68.5714" height="68.5714" stroke="white" stroke-opacity="0.06" stroke-width="1.37143"/>
<rect x="1097.14" y="68.5703" width="68.5714" height="68.5714" stroke="white" stroke-opacity="0.06" stroke-width="1.37143"/>
<rect x="1165.71" y="68.5703" width="68.5714" height="68.5714" stroke="white" stroke-opacity="0.06" stroke-width="1.37143"/>
<rect x="1234.29" y="68.5703" width="68.5714" height="68.5714" stroke="white" stroke-opacity="0.06" stroke-width="1.37143"/>
<rect x="1302.86" y="68.5703" width="68.5714" height="68.5714" stroke="white" stroke-opacity="0.06" stroke-width="1.37143"/>
<rect y="137.139" width="68.5714" height="68.5714" stroke="white" stroke-opacity="0.06" stroke-width="1.37143"/>
<rect x="68.5723" y="137.139" width="68.5714" height="68.5714" stroke="white" stroke-opacity="0.06" stroke-width="1.37143"/>
<rect x="137.143" y="137.139" width="68.5714" height="68.5714" stroke="white" stroke-opacity="0.06" stroke-width="1.37143"/>
<rect x="205.715" y="137.139" width="68.5714" height="68.5714" stroke="white" stroke-opacity="0.06" stroke-width="1.37143"/>
<rect x="274.285" y="137.139" width="68.5714" height="68.5714" stroke="white" stroke-opacity="0.06" stroke-width="1.37143"/>
<rect x="342.857" y="137.139" width="68.5714" height="68.5714" stroke="white" stroke-opacity="0.06" stroke-width="1.37143"/>
<rect x="411.428" y="137.139" width="68.5714" height="68.5714" stroke="white" stroke-opacity="0.06" stroke-width="1.37143"/>
<rect x="480" y="137.139" width="68.5714" height="68.5714" stroke="white" stroke-opacity="0.06" stroke-width="1.37143"/>
<rect x="548.572" y="137.139" width="68.5714" height="68.5714" stroke="white" stroke-opacity="0.06" stroke-width="1.37143"/>
<rect x="617.143" y="137.139" width="68.5714" height="68.5714" stroke="white" stroke-opacity="0.06" stroke-width="1.37143"/>
<rect x="685.715" y="137.139" width="68.5714" height="68.5714" stroke="white" stroke-opacity="0.06" stroke-width="1.37143"/>
<rect x="754.285" y="137.139" width="68.5714" height="68.5714" stroke="white" stroke-opacity="0.06" stroke-width="1.37143"/>
<rect x="822.857" y="137.139" width="68.5714" height="68.5714" stroke="white" stroke-opacity="0.06" stroke-width="1.37143"/>
<rect x="891.428" y="137.139" width="68.5714" height="68.5714" stroke="white" stroke-opacity="0.06" stroke-width="1.37143"/>
<rect x="960" y="137.139" width="68.5714" height="68.5714" stroke="white" stroke-opacity="0.06" stroke-width="1.37143"/>
<rect x="1028.57" y="137.139" width="68.5714" height="68.5714" stroke="white" stroke-opacity="0.06" stroke-width="1.37143"/>
<rect x="1097.14" y="137.139" width="68.5714" height="68.5714" fill="white" fill-opacity="0.06" stroke="white" stroke-opacity="0.06" stroke-width="1.37143"/>
<rect x="1165.71" y="137.139" width="68.5714" height="68.5714" stroke="white" stroke-opacity="0.06" stroke-width="1.37143"/>
<rect x="1234.29" y="137.139" width="68.5714" height="68.5714" stroke="white" stroke-opacity="0.06" stroke-width="1.37143"/>
<rect x="1302.86" y="137.139" width="68.5714" height="68.5714" stroke="white" stroke-opacity="0.06" stroke-width="1.37143"/>
<rect y="205.719" width="68.5714" height="68.5714" stroke="white" stroke-opacity="0.06" stroke-width="1.37143"/>
<rect x="68.5723" y="205.719" width="68.5714" height="68.5714" stroke="white" stroke-opacity="0.06" stroke-width="1.37143"/>
<rect x="137.143" y="205.719" width="68.5714" height="68.5714" stroke="white" stroke-opacity="0.06" stroke-width="1.37143"/>
<rect x="205.715" y="205.719" width="68.5714" height="68.5714" stroke="white" stroke-opacity="0.06" stroke-width="1.37143"/>
<rect x="274.285" y="205.719" width="68.5714" height="68.5714" stroke="white" stroke-opacity="0.06" stroke-width="1.37143"/>
<rect x="342.857" y="205.719" width="68.5714" height="68.5714" stroke="white" stroke-opacity="0.06" stroke-width="1.37143"/>
<rect x="411.428" y="205.719" width="68.5714" height="68.5714" stroke="white" stroke-opacity="0.06" stroke-width="1.37143"/>
<rect x="480" y="205.719" width="68.5714" height="68.5714" stroke="white" stroke-opacity="0.06" stroke-width="1.37143"/>
<rect x="548.572" y="205.719" width="68.5714" height="68.5714" stroke="white" stroke-opacity="0.06" stroke-width="1.37143"/>
<rect x="617.143" y="205.719" width="68.5714" height="68.5714" stroke="white" stroke-opacity="0.06" stroke-width="1.37143"/>
<rect x="685.715" y="205.719" width="68.5714" height="68.5714" stroke="white" stroke-opacity="0.06" stroke-width="1.37143"/>
<rect x="754.285" y="205.719" width="68.5714" height="68.5714" stroke="white" stroke-opacity="0.06" stroke-width="1.37143"/>
<rect x="822.857" y="205.719" width="68.5714" height="68.5714" stroke="white" stroke-opacity="0.06" stroke-width="1.37143"/>
<rect x="891.428" y="205.719" width="68.5714" height="68.5714" stroke="white" stroke-opacity="0.06" stroke-width="1.37143"/>
<rect x="960" y="205.719" width="68.5714" height="68.5714" stroke="white" stroke-opacity="0.06" stroke-width="1.37143"/>
<rect x="1028.57" y="205.719" width="68.5714" height="68.5714" stroke="white" stroke-opacity="0.06" stroke-width="1.37143"/>
<rect x="1097.14" y="205.719" width="68.5714" height="68.5714" stroke="white" stroke-opacity="0.06" stroke-width="1.37143"/>
<rect x="1165.71" y="205.719" width="68.5714" height="68.5714" stroke="white" stroke-opacity="0.06" stroke-width="1.37143"/>
<rect x="1234.29" y="205.719" width="68.5714" height="68.5714" stroke="white" stroke-opacity="0.06" stroke-width="1.37143"/>
<rect x="1302.86" y="205.719" width="68.5714" height="68.5714" stroke="white" stroke-opacity="0.06" stroke-width="1.37143"/>
<rect y="274.287" width="68.5714" height="68.5714" stroke="white" stroke-opacity="0.06" stroke-width="1.37143"/>
<rect x="68.5723" y="274.287" width="68.5714" height="68.5714" stroke="white" stroke-opacity="0.06" stroke-width="1.37143"/>
<rect x="137.143" y="274.287" width="68.5714" height="68.5714" stroke="white" stroke-opacity="0.06" stroke-width="1.37143"/>
<rect x="205.715" y="274.287" width="68.5714" height="68.5714" fill="white" fill-opacity="0.06" stroke="white" stroke-opacity="0.06" stroke-width="1.37143"/>
<rect x="274.285" y="274.287" width="68.5714" height="68.5714" stroke="white" stroke-opacity="0.06" stroke-width="1.37143"/>
<rect x="342.857" y="274.287" width="68.5714" height="68.5714" stroke="white" stroke-opacity="0.06" stroke-width="1.37143"/>
<rect x="411.428" y="274.287" width="68.5714" height="68.5714" stroke="white" stroke-opacity="0.06" stroke-width="1.37143"/>
<rect x="480" y="274.287" width="68.5714" height="68.5714" stroke="white" stroke-opacity="0.06" stroke-width="1.37143"/>
<rect x="548.572" y="274.287" width="68.5714" height="68.5714" stroke="white" stroke-opacity="0.06" stroke-width="1.37143"/>
<rect x="617.143" y="274.287" width="68.5714" height="68.5714" stroke="white" stroke-opacity="0.06" stroke-width="1.37143"/>
<rect x="685.715" y="274.287" width="68.5714" height="68.5714" stroke="white" stroke-opacity="0.06" stroke-width="1.37143"/>
<rect x="754.285" y="274.287" width="68.5714" height="68.5714" stroke="white" stroke-opacity="0.06" stroke-width="1.37143"/>
<rect x="822.857" y="274.287" width="68.5714" height="68.5714" fill="white" fill-opacity="0.06" stroke="white" stroke-opacity="0.06" stroke-width="1.37143"/>
<rect x="891.428" y="274.287" width="68.5714" height="68.5714" stroke="white" stroke-opacity="0.06" stroke-width="1.37143"/>
<rect x="960" y="274.287" width="68.5714" height="68.5714" stroke="white" stroke-opacity="0.06" stroke-width="1.37143"/>
<rect x="1028.57" y="274.287" width="68.5714" height="68.5714" stroke="white" stroke-opacity="0.06" stroke-width="1.37143"/>
<rect x="1097.14" y="274.287" width="68.5714" height="68.5714" stroke="white" stroke-opacity="0.06" stroke-width="1.37143"/>
<rect x="1165.71" y="274.287" width="68.5714" height="68.5714" stroke="white" stroke-opacity="0.06" stroke-width="1.37143"/>
<rect x="1234.29" y="274.287" width="68.5714" height="68.5714" stroke="white" stroke-opacity="0.06" stroke-width="1.37143"/>
<rect x="1302.86" y="274.287" width="68.5714" height="68.5714" stroke="white" stroke-opacity="0.06" stroke-width="1.37143"/>
<rect y="342.855" width="68.5714" height="68.5714" stroke="white" stroke-opacity="0.06" stroke-width="1.37143"/>
<rect x="68.5723" y="342.855" width="68.5714" height="68.5714" stroke="white" stroke-opacity="0.06" stroke-width="1.37143"/>
<rect x="137.143" y="342.855" width="68.5714" height="68.5714" stroke="white" stroke-opacity="0.06" stroke-width="1.37143"/>
<rect x="205.715" y="342.855" width="68.5714" height="68.5714" stroke="white" stroke-opacity="0.06" stroke-width="1.37143"/>
<rect x="274.285" y="342.855" width="68.5714" height="68.5714" stroke="white" stroke-opacity="0.06" stroke-width="1.37143"/>
<rect x="342.857" y="342.855" width="68.5714" height="68.5714" stroke="white" stroke-opacity="0.06" stroke-width="1.37143"/>
<rect x="411.428" y="342.855" width="68.5714" height="68.5714" stroke="white" stroke-opacity="0.06" stroke-width="1.37143"/>
<rect x="480" y="342.855" width="68.5714" height="68.5714" stroke="white" stroke-opacity="0.06" stroke-width="1.37143"/>
<rect x="548.572" y="342.855" width="68.5714" height="68.5714" stroke="white" stroke-opacity="0.06" stroke-width="1.37143"/>
<rect x="617.143" y="342.855" width="68.5714" height="68.5714" stroke="white" stroke-opacity="0.06" stroke-width="1.37143"/>
<rect x="685.715" y="342.855" width="68.5714" height="68.5714" stroke="white" stroke-opacity="0.06" stroke-width="1.37143"/>
<rect x="754.285" y="342.855" width="68.5714" height="68.5714" stroke="white" stroke-opacity="0.06" stroke-width="1.37143"/>
<rect x="822.857" y="342.855" width="68.5714" height="68.5714" stroke="white" stroke-opacity="0.06" stroke-width="1.37143"/>
<rect x="891.428" y="342.855" width="68.5714" height="68.5714" stroke="white" stroke-opacity="0.06" stroke-width="1.37143"/>
<rect x="960" y="342.855" width="68.5714" height="68.5714" stroke="white" stroke-opacity="0.06" stroke-width="1.37143"/>
<rect x="1028.57" y="342.855" width="68.5714" height="68.5714" stroke="white" stroke-opacity="0.06" stroke-width="1.37143"/>
<rect x="1097.14" y="342.855" width="68.5714" height="68.5714" stroke="white" stroke-opacity="0.06" stroke-width="1.37143"/>
<rect x="1165.71" y="342.855" width="68.5714" height="68.5714" stroke="white" stroke-opacity="0.06" stroke-width="1.37143"/>
<rect x="1234.29" y="342.855" width="68.5714" height="68.5714" fill="white" fill-opacity="0.06" stroke="white" stroke-opacity="0.06" stroke-width="1.37143"/>
<rect x="1302.86" y="342.855" width="68.5714" height="68.5714" stroke="white" stroke-opacity="0.06" stroke-width="1.37143"/>
<rect y="411.424" width="68.5714" height="68.5714" stroke="white" stroke-opacity="0.06" stroke-width="1.37143"/>
<rect x="68.5723" y="411.424" width="68.5714" height="68.5714" stroke="white" stroke-opacity="0.06" stroke-width="1.37143"/>
<rect x="137.143" y="411.424" width="68.5714" height="68.5714" stroke="white" stroke-opacity="0.06" stroke-width="1.37143"/>
<rect x="205.715" y="411.424" width="68.5714" height="68.5714" stroke="white" stroke-opacity="0.06" stroke-width="1.37143"/>
<rect x="274.285" y="411.424" width="68.5714" height="68.5714" stroke="white" stroke-opacity="0.06" stroke-width="1.37143"/>
<rect x="342.857" y="411.424" width="68.5714" height="68.5714" stroke="white" stroke-opacity="0.06" stroke-width="1.37143"/>
<rect x="411.428" y="411.424" width="68.5714" height="68.5714" stroke="white" stroke-opacity="0.06" stroke-width="1.37143"/>
<rect x="480" y="411.424" width="68.5714" height="68.5714" stroke="white" stroke-opacity="0.06" stroke-width="1.37143"/>
<rect x="548.572" y="411.424" width="68.5714" height="68.5714" stroke="white" stroke-opacity="0.06" stroke-width="1.37143"/>
<rect x="617.143" y="411.424" width="68.5714" height="68.5714" stroke="white" stroke-opacity="0.06" stroke-width="1.37143"/>
<rect x="685.715" y="411.424" width="68.5714" height="68.5714" stroke="white" stroke-opacity="0.06" stroke-width="1.37143"/>
<rect x="754.285" y="411.424" width="68.5714" height="68.5714" stroke="white" stroke-opacity="0.06" stroke-width="1.37143"/>
<rect x="822.857" y="411.424" width="68.5714" height="68.5714" stroke="white" stroke-opacity="0.06" stroke-width="1.37143"/>
<rect x="891.428" y="411.424" width="68.5714" height="68.5714" stroke="white" stroke-opacity="0.06" stroke-width="1.37143"/>
<rect x="960" y="411.424" width="68.5714" height="68.5714" stroke="white" stroke-opacity="0.06" stroke-width="1.37143"/>
<rect x="1028.57" y="411.424" width="68.5714" height="68.5714" stroke="white" stroke-opacity="0.06" stroke-width="1.37143"/>
<rect x="1097.14" y="411.424" width="68.5714" height="68.5714" stroke="white" stroke-opacity="0.06" stroke-width="1.37143"/>
<rect x="1165.71" y="411.424" width="68.5714" height="68.5714" stroke="white" stroke-opacity="0.06" stroke-width="1.37143"/>
<rect x="1234.29" y="411.424" width="68.5714" height="68.5714" stroke="white" stroke-opacity="0.06" stroke-width="1.37143"/>
<rect x="1302.86" y="411.424" width="68.5714" height="68.5714" stroke="white" stroke-opacity="0.06" stroke-width="1.37143"/>
<rect y="480.004" width="68.5714" height="68.5714" stroke="white" stroke-opacity="0.06" stroke-width="1.37143"/>
<rect x="68.5723" y="480.004" width="68.5714" height="68.5714" stroke="white" stroke-opacity="0.06" stroke-width="1.37143"/>
<rect x="137.143" y="480.004" width="68.5714" height="68.5714" stroke="white" stroke-opacity="0.06" stroke-width="1.37143"/>
<rect x="205.715" y="480.004" width="68.5714" height="68.5714" stroke="white" stroke-opacity="0.06" stroke-width="1.37143"/>
<rect x="274.285" y="480.004" width="68.5714" height="68.5714" stroke="white" stroke-opacity="0.06" stroke-width="1.37143"/>
<rect x="342.857" y="480.004" width="68.5714" height="68.5714" stroke="white" stroke-opacity="0.06" stroke-width="1.37143"/>
<rect x="411.428" y="480.004" width="68.5714" height="68.5714" stroke="white" stroke-opacity="0.06" stroke-width="1.37143"/>
<rect x="480" y="480.004" width="68.5714" height="68.5714" stroke="white" stroke-opacity="0.06" stroke-width="1.37143"/>
<rect x="548.572" y="480.004" width="68.5714" height="68.5714" fill="white" fill-opacity="0.06" stroke="white" stroke-opacity="0.06" stroke-width="1.37143"/>
<rect x="617.143" y="480.004" width="68.5714" height="68.5714" stroke="white" stroke-opacity="0.06" stroke-width="1.37143"/>
<rect x="685.715" y="480.004" width="68.5714" height="68.5714" stroke="white" stroke-opacity="0.06" stroke-width="1.37143"/>
<rect x="754.285" y="480.004" width="68.5714" height="68.5714" stroke="white" stroke-opacity="0.06" stroke-width="1.37143"/>
<rect x="822.857" y="480.004" width="68.5714" height="68.5714" stroke="white" stroke-opacity="0.06" stroke-width="1.37143"/>
<rect x="891.428" y="480.004" width="68.5714" height="68.5714" stroke="white" stroke-opacity="0.06" stroke-width="1.37143"/>
<rect x="960" y="480.004" width="68.5714" height="68.5714" stroke="white" stroke-opacity="0.06" stroke-width="1.37143"/>
<rect x="1028.57" y="480.004" width="68.5714" height="68.5714" stroke="white" stroke-opacity="0.06" stroke-width="1.37143"/>
<rect x="1097.14" y="480.004" width="68.5714" height="68.5714" stroke="white" stroke-opacity="0.06" stroke-width="1.37143"/>
<rect x="1165.71" y="480.004" width="68.5714" height="68.5714" stroke="white" stroke-opacity="0.06" stroke-width="1.37143"/>
<rect x="1234.29" y="480.004" width="68.5714" height="68.5714" stroke="white" stroke-opacity="0.06" stroke-width="1.37143"/>
<rect x="1302.86" y="480.004" width="68.5714" height="68.5714" stroke="white" stroke-opacity="0.06" stroke-width="1.37143"/>
<rect y="548.572" width="68.5714" height="68.5714" stroke="white" stroke-opacity="0.06" stroke-width="1.37143"/>
<rect x="68.5723" y="548.572" width="68.5714" height="68.5714" stroke="white" stroke-opacity="0.06" stroke-width="1.37143"/>
<rect x="137.143" y="548.572" width="68.5714" height="68.5714" stroke="white" stroke-opacity="0.06" stroke-width="1.37143"/>
<rect x="205.715" y="548.572" width="68.5714" height="68.5714" stroke="white" stroke-opacity="0.06" stroke-width="1.37143"/>
<rect x="274.285" y="548.572" width="68.5714" height="68.5714" fill="white" fill-opacity="0.06" stroke="white" stroke-opacity="0.06" stroke-width="1.37143"/>
<rect x="342.857" y="548.572" width="68.5714" height="68.5714" stroke="white" stroke-opacity="0.06" stroke-width="1.37143"/>
<rect x="411.428" y="548.572" width="68.5714" height="68.5714" stroke="white" stroke-opacity="0.06" stroke-width="1.37143"/>
<rect x="480" y="548.572" width="68.5714" height="68.5714" stroke="white" stroke-opacity="0.06" stroke-width="1.37143"/>
<rect x="548.572" y="548.572" width="68.5714" height="68.5714" stroke="white" stroke-opacity="0.06" stroke-width="1.37143"/>
<rect x="617.143" y="548.572" width="68.5714" height="68.5714" stroke="white" stroke-opacity="0.06" stroke-width="1.37143"/>
<rect x="685.715" y="548.572" width="68.5714" height="68.5714" stroke="white" stroke-opacity="0.06" stroke-width="1.37143"/>
<rect x="754.285" y="548.572" width="68.5714" height="68.5714" stroke="white" stroke-opacity="0.06" stroke-width="1.37143"/>
<rect x="822.857" y="548.572" width="68.5714" height="68.5714" stroke="white" stroke-opacity="0.06" stroke-width="1.37143"/>
<rect x="891.428" y="548.572" width="68.5714" height="68.5714" stroke="white" stroke-opacity="0.06" stroke-width="1.37143"/>
<rect x="960" y="548.572" width="68.5714" height="68.5714" stroke="white" stroke-opacity="0.06" stroke-width="1.37143"/>
<rect x="1028.57" y="548.572" width="68.5714" height="68.5714" stroke="white" stroke-opacity="0.06" stroke-width="1.37143"/>
<rect x="1097.14" y="548.572" width="68.5714" height="68.5714" stroke="white" stroke-opacity="0.06" stroke-width="1.37143"/>
<rect x="1165.71" y="548.572" width="68.5714" height="68.5714" stroke="white" stroke-opacity="0.06" stroke-width="1.37143"/>
<rect x="1234.29" y="548.572" width="68.5714" height="68.5714" stroke="white" stroke-opacity="0.06" stroke-width="1.37143"/>
<rect x="1302.86" y="548.572" width="68.5714" height="68.5714" stroke="white" stroke-opacity="0.06" stroke-width="1.37143"/>
<rect y="617.143" width="68.5714" height="68.5714" stroke="white" stroke-opacity="0.06" stroke-width="1.37143"/>
<rect x="68.5723" y="617.143" width="68.5714" height="68.5714" stroke="white" stroke-opacity="0.06" stroke-width="1.37143"/>
<rect x="137.143" y="617.143" width="68.5714" height="68.5714" stroke="white" stroke-opacity="0.06" stroke-width="1.37143"/>
<rect x="205.715" y="617.143" width="68.5714" height="68.5714" stroke="white" stroke-opacity="0.06" stroke-width="1.37143"/>
<rect x="274.285" y="617.143" width="68.5714" height="68.5714" stroke="white" stroke-opacity="0.06" stroke-width="1.37143"/>
<rect x="342.857" y="617.143" width="68.5714" height="68.5714" stroke="white" stroke-opacity="0.06" stroke-width="1.37143"/>
<rect x="411.428" y="617.143" width="68.5714" height="68.5714" stroke="white" stroke-opacity="0.06" stroke-width="1.37143"/>
<rect x="480" y="617.143" width="68.5714" height="68.5714" stroke="white" stroke-opacity="0.06" stroke-width="1.37143"/>
<rect x="548.572" y="617.143" width="68.5714" height="68.5714" stroke="white" stroke-opacity="0.06" stroke-width="1.37143"/>
<rect x="617.143" y="617.143" width="68.5714" height="68.5714" stroke="white" stroke-opacity="0.06" stroke-width="1.37143"/>
<rect x="685.715" y="617.143" width="68.5714" height="68.5714" stroke="white" stroke-opacity="0.06" stroke-width="1.37143"/>
<rect x="754.285" y="617.143" width="68.5714" height="68.5714" stroke="white" stroke-opacity="0.06" stroke-width="1.37143"/>
<rect x="822.857" y="617.143" width="68.5714" height="68.5714" stroke="white" stroke-opacity="0.06" stroke-width="1.37143"/>
<rect x="891.428" y="617.143" width="68.5714" height="68.5714" stroke="white" stroke-opacity="0.06" stroke-width="1.37143"/>
<rect x="960" y="617.143" width="68.5714" height="68.5714" stroke="white" stroke-opacity="0.06" stroke-width="1.37143"/>
<rect x="1028.57" y="617.143" width="68.5714" height="68.5714" stroke="white" stroke-opacity="0.06" stroke-width="1.37143"/>
<rect x="1097.14" y="617.143" width="68.5714" height="68.5714" stroke="white" stroke-opacity="0.06" stroke-width="1.37143"/>
<rect x="1165.71" y="617.143" width="68.5714" height="68.5714" stroke="white" stroke-opacity="0.06" stroke-width="1.37143"/>
<rect x="1234.29" y="617.143" width="68.5714" height="68.5714" stroke="white" stroke-opacity="0.06" stroke-width="1.37143"/>
<rect x="1302.86" y="617.143" width="68.5714" height="68.5714" stroke="white" stroke-opacity="0.06" stroke-width="1.37143"/>
<rect y="685.711" width="68.5714" height="68.5714" stroke="white" stroke-opacity="0.06" stroke-width="1.37143"/>
<rect x="68.5723" y="685.711" width="68.5714" height="68.5714" stroke="white" stroke-opacity="0.06" stroke-width="1.37143"/>
<rect x="137.143" y="685.711" width="68.5714" height="68.5714" stroke="white" stroke-opacity="0.06" stroke-width="1.37143"/>
<rect x="205.715" y="685.711" width="68.5714" height="68.5714" stroke="white" stroke-opacity="0.06" stroke-width="1.37143"/>
<rect x="274.285" y="685.711" width="68.5714" height="68.5714" stroke="white" stroke-opacity="0.06" stroke-width="1.37143"/>
<rect x="342.857" y="685.711" width="68.5714" height="68.5714" stroke="white" stroke-opacity="0.06" stroke-width="1.37143"/>
<rect x="411.428" y="685.711" width="68.5714" height="68.5714" stroke="white" stroke-opacity="0.06" stroke-width="1.37143"/>
<rect x="480" y="685.711" width="68.5714" height="68.5714" stroke="white" stroke-opacity="0.06" stroke-width="1.37143"/>
<rect x="548.572" y="685.711" width="68.5714" height="68.5714" stroke="white" stroke-opacity="0.06" stroke-width="1.37143"/>
<rect x="617.143" y="685.711" width="68.5714" height="68.5714" stroke="white" stroke-opacity="0.06" stroke-width="1.37143"/>
<rect x="685.715" y="685.711" width="68.5714" height="68.5714" stroke="white" stroke-opacity="0.06" stroke-width="1.37143"/>
<rect x="754.285" y="685.711" width="68.5714" height="68.5714" stroke="white" stroke-opacity="0.06" stroke-width="1.37143"/>
<rect x="822.857" y="685.711" width="68.5714" height="68.5714" stroke="white" stroke-opacity="0.06" stroke-width="1.37143"/>
<rect x="891.428" y="685.711" width="68.5714" height="68.5714" stroke="white" stroke-opacity="0.06" stroke-width="1.37143"/>
<rect x="960" y="685.711" width="68.5714" height="68.5714" stroke="white" stroke-opacity="0.06" stroke-width="1.37143"/>
<rect x="1028.57" y="685.711" width="68.5714" height="68.5714" stroke="white" stroke-opacity="0.06" stroke-width="1.37143"/>
<rect x="1097.14" y="685.711" width="68.5714" height="68.5714" stroke="white" stroke-opacity="0.06" stroke-width="1.37143"/>
<rect x="1165.71" y="685.711" width="68.5714" height="68.5714" stroke="white" stroke-opacity="0.06" stroke-width="1.37143"/>
<rect x="1234.29" y="685.711" width="68.5714" height="68.5714" stroke="white" stroke-opacity="0.06" stroke-width="1.37143"/>
<rect x="1302.86" y="685.711" width="68.5714" height="68.5714" stroke="white" stroke-opacity="0.06" stroke-width="1.37143"/>
<rect y="754.291" width="68.5714" height="68.5714" stroke="white" stroke-opacity="0.06" stroke-width="1.37143"/>
<rect x="68.5723" y="754.291" width="68.5714" height="68.5714" stroke="white" stroke-opacity="0.06" stroke-width="1.37143"/>
<rect x="137.143" y="754.291" width="68.5714" height="68.5714" stroke="white" stroke-opacity="0.06" stroke-width="1.37143"/>
<rect x="205.715" y="754.291" width="68.5714" height="68.5714" stroke="white" stroke-opacity="0.06" stroke-width="1.37143"/>
<rect x="274.285" y="754.291" width="68.5714" height="68.5714" stroke="white" stroke-opacity="0.06" stroke-width="1.37143"/>
<rect x="342.857" y="754.291" width="68.5714" height="68.5714" stroke="white" stroke-opacity="0.06" stroke-width="1.37143"/>
<rect x="411.428" y="754.291" width="68.5714" height="68.5714" stroke="white" stroke-opacity="0.06" stroke-width="1.37143"/>
<rect x="480" y="754.291" width="68.5714" height="68.5714" stroke="white" stroke-opacity="0.06" stroke-width="1.37143"/>
<rect x="548.572" y="754.291" width="68.5714" height="68.5714" stroke="white" stroke-opacity="0.06" stroke-width="1.37143"/>
<rect x="617.143" y="754.291" width="68.5714" height="68.5714" stroke="white" stroke-opacity="0.06" stroke-width="1.37143"/>
<rect x="685.715" y="754.291" width="68.5714" height="68.5714" stroke="white" stroke-opacity="0.06" stroke-width="1.37143"/>
<rect x="754.285" y="754.291" width="68.5714" height="68.5714" stroke="white" stroke-opacity="0.06" stroke-width="1.37143"/>
<rect x="822.857" y="754.291" width="68.5714" height="68.5714" stroke="white" stroke-opacity="0.06" stroke-width="1.37143"/>
<rect x="891.428" y="754.291" width="68.5714" height="68.5714" stroke="white" stroke-opacity="0.06" stroke-width="1.37143"/>
<rect x="960" y="754.291" width="68.5714" height="68.5714" stroke="white" stroke-opacity="0.06" stroke-width="1.37143"/>
<rect x="1028.57" y="754.291" width="68.5714" height="68.5714" stroke="white" stroke-opacity="0.06" stroke-width="1.37143"/>
<rect x="1097.14" y="754.291" width="68.5714" height="68.5714" stroke="white" stroke-opacity="0.06" stroke-width="1.37143"/>
<rect x="1165.71" y="754.291" width="68.5714" height="68.5714" stroke="white" stroke-opacity="0.06" stroke-width="1.37143"/>
<rect x="1234.29" y="754.291" width="68.5714" height="68.5714" stroke="white" stroke-opacity="0.06" stroke-width="1.37143"/>
<rect x="1302.86" y="754.291" width="68.5714" height="68.5714" stroke="white" stroke-opacity="0.06" stroke-width="1.37143"/>
<rect y="822.859" width="68.5714" height="68.5714" stroke="white" stroke-opacity="0.06" stroke-width="1.37143"/>
<rect x="68.5723" y="822.859" width="68.5714" height="68.5714" stroke="white" stroke-opacity="0.06" stroke-width="1.37143"/>
<rect x="137.143" y="822.859" width="68.5714" height="68.5714" stroke="white" stroke-opacity="0.06" stroke-width="1.37143"/>
<rect x="205.715" y="822.859" width="68.5714" height="68.5714" stroke="white" stroke-opacity="0.06" stroke-width="1.37143"/>
<rect x="274.285" y="822.859" width="68.5714" height="68.5714" stroke="white" stroke-opacity="0.06" stroke-width="1.37143"/>
<rect x="342.857" y="822.859" width="68.5714" height="68.5714" stroke="white" stroke-opacity="0.06" stroke-width="1.37143"/>
<rect x="411.428" y="822.859" width="68.5714" height="68.5714" stroke="white" stroke-opacity="0.06" stroke-width="1.37143"/>
<rect x="480" y="822.859" width="68.5714" height="68.5714" stroke="white" stroke-opacity="0.06" stroke-width="1.37143"/>
<rect x="548.572" y="822.859" width="68.5714" height="68.5714" stroke="white" stroke-opacity="0.06" stroke-width="1.37143"/>
<rect x="617.143" y="822.859" width="68.5714" height="68.5714" stroke="white" stroke-opacity="0.06" stroke-width="1.37143"/>
<rect x="685.715" y="822.859" width="68.5714" height="68.5714" stroke="white" stroke-opacity="0.06" stroke-width="1.37143"/>
<rect x="754.285" y="822.859" width="68.5714" height="68.5714" stroke="white" stroke-opacity="0.06" stroke-width="1.37143"/>
<rect x="822.857" y="822.859" width="68.5714" height="68.5714" stroke="white" stroke-opacity="0.06" stroke-width="1.37143"/>
<rect x="891.428" y="822.859" width="68.5714" height="68.5714" stroke="white" stroke-opacity="0.06" stroke-width="1.37143"/>
<rect x="960" y="822.859" width="68.5714" height="68.5714" stroke="white" stroke-opacity="0.06" stroke-width="1.37143"/>
<rect x="1028.57" y="822.859" width="68.5714" height="68.5714" stroke="white" stroke-opacity="0.06" stroke-width="1.37143"/>
<rect x="1097.14" y="822.859" width="68.5714" height="68.5714" stroke="white" stroke-opacity="0.06" stroke-width="1.37143"/>
<rect x="1165.71" y="822.859" width="68.5714" height="68.5714" stroke="white" stroke-opacity="0.06" stroke-width="1.37143"/>
<rect x="1234.29" y="822.859" width="68.5714" height="68.5714" stroke="white" stroke-opacity="0.06" stroke-width="1.37143"/>
<rect x="1302.86" y="822.859" width="68.5714" height="68.5714" stroke="white" stroke-opacity="0.06" stroke-width="1.37143"/>
<rect y="892" width="68.5714" height="68.5714" stroke="white" stroke-opacity="0.06" stroke-width="1.37143"/>
<rect x="68.5723" y="892" width="68.5714" height="68.5714" stroke="white" stroke-opacity="0.06" stroke-width="1.37143"/>
<rect x="137.143" y="892" width="68.5714" height="68.5714" stroke="white" stroke-opacity="0.06" stroke-width="1.37143"/>
<rect x="205.715" y="892" width="68.5714" height="68.5714" stroke="white" stroke-opacity="0.06" stroke-width="1.37143"/>
<rect x="274.285" y="892" width="68.5714" height="68.5714" stroke="white" stroke-opacity="0.06" stroke-width="1.37143"/>
<rect x="342.857" y="892" width="68.5714" height="68.5714" stroke="white" stroke-opacity="0.06" stroke-width="1.37143"/>
<rect x="411.428" y="892" width="68.5714" height="68.5714" stroke="white" stroke-opacity="0.06" stroke-width="1.37143"/>
<rect x="480" y="892" width="68.5714" height="68.5714" stroke="white" stroke-opacity="0.06" stroke-width="1.37143"/>
<rect x="548.572" y="892" width="68.5714" height="68.5714" stroke="white" stroke-opacity="0.06" stroke-width="1.37143"/>
<rect x="617.143" y="892" width="68.5714" height="68.5714" stroke="white" stroke-opacity="0.06" stroke-width="1.37143"/>
<rect x="685.715" y="892" width="68.5714" height="68.5714" stroke="white" stroke-opacity="0.06" stroke-width="1.37143"/>
<rect x="754.285" y="892" width="68.5714" height="68.5714" stroke="white" stroke-opacity="0.06" stroke-width="1.37143"/>
<rect x="822.857" y="892" width="68.5714" height="68.5714" stroke="white" stroke-opacity="0.06" stroke-width="1.37143"/>
<rect x="891.428" y="892" width="68.5714" height="68.5714" stroke="white" stroke-opacity="0.06" stroke-width="1.37143"/>
<rect x="960" y="892" width="68.5714" height="68.5714" stroke="white" stroke-opacity="0.06" stroke-width="1.37143"/>
<rect x="1028.57" y="892" width="68.5714" height="68.5714" stroke="white" stroke-opacity="0.06" stroke-width="1.37143"/>
<rect x="1097.14" y="892" width="68.5714" height="68.5714" stroke="white" stroke-opacity="0.06" stroke-width="1.37143"/>
<rect x="1165.71" y="892" width="68.5714" height="68.5714" stroke="white" stroke-opacity="0.06" stroke-width="1.37143"/>
<rect x="1234.29" y="892" width="68.5714" height="68.5714" stroke="white" stroke-opacity="0.06" stroke-width="1.37143"/>
<rect x="1302.86" y="892" width="68.5714" height="68.5714" stroke="white" stroke-opacity="0.06" stroke-width="1.37143"/>
<rect y="961.141" width="68.5714" height="68.5714" stroke="white" stroke-opacity="0.06" stroke-width="1.37143"/>
<rect x="68.5723" y="961.141" width="68.5714" height="68.5714" stroke="white" stroke-opacity="0.06" stroke-width="1.37143"/>
<rect x="137.143" y="961.141" width="68.5714" height="68.5714" stroke="white" stroke-opacity="0.06" stroke-width="1.37143"/>
<rect x="205.715" y="961.141" width="68.5714" height="68.5714" stroke="white" stroke-opacity="0.06" stroke-width="1.37143"/>
<rect x="274.285" y="961.141" width="68.5714" height="68.5714" stroke="white" stroke-opacity="0.06" stroke-width="1.37143"/>
<rect x="342.857" y="961.141" width="68.5714" height="68.5714" stroke="white" stroke-opacity="0.06" stroke-width="1.37143"/>
<rect x="411.428" y="961.141" width="68.5714" height="68.5714" stroke="white" stroke-opacity="0.06" stroke-width="1.37143"/>
<rect x="480" y="961.141" width="68.5714" height="68.5714" stroke="white" stroke-opacity="0.06" stroke-width="1.37143"/>
<rect x="548.572" y="961.141" width="68.5714" height="68.5714" stroke="white" stroke-opacity="0.06" stroke-width="1.37143"/>
<rect x="617.143" y="961.141" width="68.5714" height="68.5714" stroke="white" stroke-opacity="0.06" stroke-width="1.37143"/>
<rect x="685.715" y="961.141" width="68.5714" height="68.5714" stroke="white" stroke-opacity="0.06" stroke-width="1.37143"/>
<rect x="754.285" y="961.141" width="68.5714" height="68.5714" stroke="white" stroke-opacity="0.06" stroke-width="1.37143"/>
<rect x="822.857" y="961.141" width="68.5714" height="68.5714" stroke="white" stroke-opacity="0.06" stroke-width="1.37143"/>
<rect x="891.428" y="961.141" width="68.5714" height="68.5714" stroke="white" stroke-opacity="0.06" stroke-width="1.37143"/>
<rect x="960" y="961.141" width="68.5714" height="68.5714" stroke="white" stroke-opacity="0.06" stroke-width="1.37143"/>
<rect x="1028.57" y="961.141" width="68.5714" height="68.5714" stroke="white" stroke-opacity="0.06" stroke-width="1.37143"/>
<rect x="1097.14" y="961.141" width="68.5714" height="68.5714" stroke="white" stroke-opacity="0.06" stroke-width="1.37143"/>
<rect x="1165.71" y="961.141" width="68.5714" height="68.5714" stroke="white" stroke-opacity="0.06" stroke-width="1.37143"/>
<rect x="1234.29" y="961.141" width="68.5714" height="68.5714" stroke="white" stroke-opacity="0.06" stroke-width="1.37143"/>
<rect x="1302.86" y="961.141" width="68.5714" height="68.5714" stroke="white" stroke-opacity="0.06" stroke-width="1.37143"/>
</g>
<defs>
<filter id="filter0_f_329_1265" x="-442" y="-764.488" width="2226" height="1738.97" filterUnits="userSpaceOnUse" color-interpolation-filters="sRGB">
<feFlood flood-opacity="0" result="BackgroundImageFix"/>
<feBlend mode="normal" in="SourceGraphic" in2="BackgroundImageFix" result="shape"/>
<feGaussianBlur stdDeviation="135" result="effect1_foregroundBlur_329_1265"/>
</filter>
</defs>
</svg>
