<svg width="50" height="50" viewBox="0 0 50 50" fill="none" xmlns="http://www.w3.org/2000/svg">
<path d="M44.2526 39.9475C42.9021 40.3759 41.6282 41.0161 40.4785 41.8441C39.4164 42.557 37.6948 43.3096 36.7612 42.4708C35.4216 41.2639 38.0621 38.2648 38.0621 35.1346C38.0526 32.7096 36.3491 30.9432 33.3845 30.288C32.5918 30.1267 31.8567 29.7564 31.2552 29.2156C31.6261 28.1979 31.7063 27.0971 31.4871 26.0363C32.9181 24.5458 35.2621 24.4777 37.6991 21.8122C44.144 25.34 46.9535 33.1147 44.2526 39.9475ZM30.3422 19.9717C32.2973 19.9315 34.24 20.2902 36.0517 21.026C34.0457 22.9639 32.4698 23.0303 30.9302 24.2156L29.7233 20.5889L30.3422 19.9717ZM20.8017 17.1449C17.875 20.0699 15.7103 21.476 11.8655 24.2225C11.3417 24.595 11.1017 25.2518 11.2621 25.8742L12.0207 28.9087L11.4853 29.4441L4.76121 22.7199L5.29655 22.1854L8.33103 22.9449C8.95462 23.102 9.61063 22.8599 9.98276 22.3354C12.7112 18.5165 14.1474 16.3139 17.0612 13.4001C17.2566 13.2041 17.346 12.9263 17.3016 12.6532C17.2572 12.38 17.0844 12.1448 16.8371 12.0208L4 5.60183C5.02935 4.49109 6.59029 4.04373 8.05172 4.44062L21.4414 8.09407C21.8885 8.21398 22.3657 8.08689 22.694 7.76045L26.4871 3.96734C29.6172 0.838032 32.1095 0.876826 33.125 1.07683C33.2448 1.75527 33.3836 4.22683 30.206 7.74407C28.5629 9.56303 26.4776 11.6742 25.8784 12.2768C25.533 12.622 25.4137 13.1334 25.5707 13.5958L29.7595 26.1553C30.157 27.6165 29.7099 29.1777 28.5991 30.207L22.1828 17.3682C22.0587 17.1203 21.823 16.9472 21.5494 16.903C21.2758 16.8587 20.9976 16.9488 20.8017 17.1449ZM22.5862 22.032L23.4905 23.8423C23.1496 24.005 22.79 24.1251 22.4198 24.2001C22.2781 24.2405 22.1257 24.2009 22.0215 24.0967C21.9173 23.9925 21.8777 23.8401 21.9181 23.6984C22.0464 23.1104 22.2676 23.1382 22.889 22.6382L22.5862 22.032ZM16.4267 31.0001C17.009 32.0582 17.9294 32.8905 19.0405 33.3639C20.9371 34.1492 23.4147 33.863 23.2828 35.4372C23.1614 36.3239 22.9128 37.1885 22.5448 38.0044C21.5103 40.6492 21.5741 41.3734 21.8845 43.1768C22.1512 44.216 22.136 45.3075 21.8405 46.3389C17.0766 42.8086 14.9342 36.7387 16.4267 31.0001ZM28.4664 49.1148C30.3629 47.8467 32.3983 47.201 35.9664 47.4613C36.4246 47.4979 36.8806 47.5577 37.3328 47.6406C34.6059 49.0524 31.5033 49.5682 28.4664 49.1148ZM39.3836 46.3613C36.675 45.5655 33.8096 45.4647 31.0517 46.0682C29.2868 46.5346 27.6548 47.4059 26.2853 48.613C25.2678 48.296 24.2881 47.8685 23.3638 47.338C23.8554 45.9057 23.9316 44.3635 23.5836 42.8898C23.325 41.3889 23.2457 40.9449 24.15 38.6363C24.5825 37.6669 24.8692 36.6388 25.0009 35.5854C25.13 34.3661 24.4275 33.211 23.2853 32.7648C22.0017 32.2027 20.7535 32.2104 19.6991 31.7742C18.4271 31.1343 17.5354 29.9273 17.2974 28.5234C17.9054 27.1832 18.7148 25.9439 19.6974 24.8484C19.8698 24.6518 20.0672 24.4785 20.2517 24.2932C20.336 24.6782 20.5266 25.0318 20.8017 25.3139C21.7716 26.2846 23.0431 25.951 24.2629 25.3846L27.1552 31.1725C27.3806 31.6219 27.808 31.9357 28.3042 32.0163C28.8005 32.0969 29.3052 31.9344 29.6612 31.5794C29.9263 31.33 30.1724 31.0612 30.3974 30.7751C31.1718 31.3605 32.0648 31.7698 33.0138 31.9742C34.5259 32.3079 36.3302 33.1303 36.3379 35.1406C36.3379 37.3656 34.7121 39.3096 34.6655 41.4665C34.6207 43.5553 36.3819 44.7967 38.3966 44.5294C40.4655 44.2622 41.6267 43.0061 43.1379 42.2337C42.1637 43.8383 40.889 45.2398 39.3836 46.3613Z" fill="#487FFF"/>
</svg>
