<svg width="957" height="958" viewBox="0 0 957 958" fill="none" xmlns="http://www.w3.org/2000/svg">
<circle cx="477.912" cy="478.84" r="229.5" stroke="white" stroke-opacity="0.32" stroke-dasharray="6 6"/>
<circle cx="477.91" cy="478.84" r="140.5" stroke="white" stroke-opacity="0.32" stroke-dasharray="6 6"/>
<path d="M101.074 378.443C108.663 350.121 119.389 322.708 132.95 296.963C146.162 271.886 162.164 248.204 180.509 226.576L181.238 225.717L182.097 226.446L288.847 316.941L288.118 317.8C264.123 346.086 247.043 378.776 237.348 414.958L236.946 416.457L100.619 380.152L101.077 378.444L101.074 378.443ZM181.5 228.89C163.565 250.16 147.903 273.409 134.944 298.01C121.534 323.463 110.915 350.561 103.377 378.553L235.355 413.702C245.068 377.826 261.994 345.372 285.677 317.2L181.503 228.888L181.5 228.89ZM88.9063 448.706L229.558 459.653L229.472 460.776C224.67 522.598 243.056 583.873 281.247 633.316L281.934 634.207L170.277 720.387L169.59 719.495C140.341 681.629 118.46 639.243 104.551 593.52C90.3343 546.784 85.0415 498.44 88.8177 449.828L88.9037 448.706L88.9063 448.706ZM227.145 461.722L90.9805 451.124C87.3927 499.076 92.6825 546.757 106.707 592.863C120.427 637.966 141.948 679.8 170.686 717.225L278.78 633.795C240.947 584.365 222.633 523.344 227.145 461.719L227.145 461.722ZM426.296 91.6338L427.41 91.4828C478.86 84.5569 530.555 87.9082 581.056 101.44C624.269 113.019 664.746 131.621 701.359 156.73L702.286 157.365L622.497 273.66L621.57 273.025C598.185 256.989 572.273 245.09 544.552 237.663C512.18 228.989 479.107 226.832 446.257 231.254L445.142 231.405L426.292 91.6357L426.296 91.6338ZM699.158 157.95C662.999 133.307 623.074 115.03 580.473 103.615C530.625 90.2584 479.613 86.8784 428.826 93.5665L447.074 228.878C479.856 224.615 512.842 226.837 545.137 235.491C572.737 242.886 598.561 254.675 621.916 270.537L699.157 157.953L699.158 157.95ZM434.257 726.519L435.364 726.718C472.055 733.359 508.878 731.806 544.809 722.108L545.896 721.815L582.695 857.97L581.608 858.263C554.127 865.679 525.803 870.088 497.42 871.365C468.336 872.672 439.011 870.698 410.257 865.493L409.15 865.294L409.349 864.188L434.254 726.518L434.257 726.519ZM544.309 724.572C508.759 734.002 472.357 735.536 436.07 729.13L411.765 863.477C440.001 868.503 468.779 870.399 497.32 869.119C525.163 867.866 552.953 863.583 579.934 856.382L544.309 724.572ZM656.118 301.607L755.909 201.934L756.704 202.731C777.031 223.069 795.165 245.721 810.6 270.053C825.991 294.322 838.733 320.318 848.472 347.322L848.853 348.381L847.794 348.762L716.137 396.188L715.756 395.129C703.26 360.48 682.912 328.416 656.914 302.402L656.118 301.607ZM755.907 205.118L659.301 301.61C684.889 327.444 704.98 359.108 717.49 393.308L845.97 347.024C836.337 320.555 823.802 295.07 808.698 271.256C793.554 247.381 775.796 225.133 755.907 205.116L755.907 205.118ZM586.963 706.576L587.978 706.089C644.285 679.109 688.23 632.639 711.714 575.238L712.139 574.197L842.717 627.606L842.292 628.646C823.761 673.935 797.239 714.842 763.455 750.232C730.559 784.694 692.039 812.631 648.974 833.266L647.958 833.753L647.471 832.737L586.961 706.573L586.963 706.576ZM713.37 577.131C689.713 634.225 645.949 680.503 589.967 707.63L649.017 830.752C691.43 810.283 729.378 782.674 761.831 748.68C795.161 713.764 821.384 673.45 839.786 628.834L713.373 577.129L713.37 577.131Z" fill="url(#paint0_linear_474_429)"/>
<path d="M478.346 746.84C458.257 746.84 438.213 744.602 418.77 740.193C399.832 735.896 381.321 729.506 363.755 721.2L363.057 720.87L363.387 720.173L404.347 633.479L405.044 633.809C428.019 644.672 452.682 650.179 478.346 650.179H479.41L479.557 746.838H478.346V746.84ZM365.11 720.135C382.368 728.232 400.531 734.474 419.109 738.688C438.333 743.049 458.149 745.272 478.011 745.296L477.868 651.721C452.403 651.654 427.924 646.208 405.08 635.53L365.108 720.133L365.11 720.135ZM527.004 742.433L509.307 647.409L510.065 647.266C551.83 639.482 589.122 616.448 615.07 582.406L615.538 581.794L692.372 640.406L691.903 641.018C672.03 667.09 647.86 689.087 620.067 706.4C591.658 724.096 560.603 736.171 527.762 742.293L527.004 742.435V742.433ZM511.104 648.639L528.236 740.631C560.606 734.503 591.224 722.547 619.25 705.09C646.666 688.012 670.535 666.351 690.207 640.696L615.825 583.954C589.821 617.757 552.685 640.698 511.102 648.639H511.104ZM230.866 582.469L230.568 581.758C216.861 548.937 209.912 514.131 209.912 478.31C209.912 447.659 215.045 417.572 225.17 388.889L225.425 388.163L316.538 420.345L316.282 421.071C309.816 439.391 306.537 458.65 306.537 478.312C306.537 501.274 310.975 523.544 319.726 544.5L320.024 545.211L230.868 582.471L230.866 582.469ZM226.368 390.13C216.471 418.43 211.455 448.093 211.455 478.31C211.455 513.668 218.264 548.027 231.696 580.451L318.009 544.38C309.375 523.442 304.996 501.217 304.996 478.31C304.996 458.733 308.218 439.552 314.574 421.283L226.369 390.13H226.368ZM649.619 464.617L649.554 463.849C647.443 438.39 639.885 414.296 627.096 392.236L626.709 391.569L710.29 343.072L710.677 343.739C720.458 360.61 728.399 378.574 734.277 397.131C740.299 416.146 744.193 435.904 745.848 455.856L745.912 456.624L745.144 456.689L649.619 464.619V464.617ZM628.815 392.13C641.36 413.985 648.83 437.804 651.025 462.954L744.246 455.215C742.565 435.638 738.717 416.256 732.808 397.595C727.042 379.391 719.279 361.759 709.729 345.18L628.815 392.13ZM329.072 393.139L245.412 344.773L245.799 344.105C255.654 327.046 267.43 311.028 280.795 296.499C294.127 282.01 309.071 268.967 325.216 257.734L325.849 257.294L326.289 257.927L381.022 336.647L380.389 337.087C359.674 351.501 342.062 370.653 329.456 392.471L329.072 393.139ZM247.52 344.209L328.509 391.032C341.069 369.517 358.461 350.605 378.876 336.262L325.463 259.442C309.653 270.511 295.01 283.326 281.929 297.544C268.813 311.8 257.239 327.497 247.518 344.209H247.52ZM609.342 367.094L608.839 366.508C580.999 334.028 542.453 313.186 500.301 307.824L499.537 307.727L511.727 211.84L512.491 211.937C545.749 216.169 577.524 226.468 606.936 242.55C635.576 258.209 660.896 278.748 682.189 303.589L682.691 304.175L682.105 304.678L609.34 367.096L609.342 367.094ZM501.26 306.392C543.239 311.923 581.627 332.68 609.507 364.919L680.517 304.006C659.449 279.567 634.449 259.349 606.197 243.9C577.18 228.034 545.849 217.828 513.06 213.562L501.258 306.39L501.26 306.392Z" fill="url(#paint1_linear_474_429)"/>
<circle cx="477.912" cy="478.84" r="327.5" stroke="white" stroke-opacity="0.32" stroke-dasharray="6 6"/>
<circle cx="477.912" cy="478.839" r="426.5" stroke="white" stroke-opacity="0.32" stroke-dasharray="6 6"/>
<circle cx="393.91" cy="590.838" r="6" fill="#9FFFF5"/>
<circle cx="186.912" cy="327.84" r="6" fill="#9FFFF5"/>
<circle cx="705.91" cy="508.84" r="15" fill="#9FFFF5" fill-opacity="0.21"/>
<circle cx="705.91" cy="508.84" r="7" fill="#9FFFF5"/>
<defs>
<linearGradient id="paint0_linear_474_429" x1="701.411" y1="681.839" x2="436.786" y2="99.3959" gradientUnits="userSpaceOnUse">
<stop stop-color="#00FFFF"/>
<stop offset="1" stop-color="#2866F7"/>
</linearGradient>
<linearGradient id="paint1_linear_474_429" x1="228.005" y1="359.446" x2="875.47" y2="739.35" gradientUnits="userSpaceOnUse">
<stop stop-color="#00FFFF"/>
<stop offset="1" stop-color="#2866F7"/>
</linearGradient>
</defs>
</svg>
