<svg width="660" height="883" viewBox="0 0 660 883" fill="none" xmlns="http://www.w3.org/2000/svg">
<mask id="mask0_341_455" style="mask-type:alpha" maskUnits="userSpaceOnUse" x="0" y="0" width="660" height="883">
<rect width="660" height="883" rx="30" fill="#2866F7"/>
</mask>
<g mask="url(#mask0_341_455)">
<circle cx="337" cy="443" r="229.5" stroke="white" stroke-opacity="0.32" stroke-dasharray="6 6"/>
<circle cx="337" cy="443" r="140.5" stroke="white" stroke-opacity="0.32" stroke-dasharray="6 6"/>
<path d="M-39.836 342.604C-32.2471 314.281 -21.5208 286.868 -7.96036 261.123C5.25184 236.046 21.2537 212.364 39.599 190.736L40.3276 189.878L41.1869 190.606L147.937 281.101L147.208 281.96C123.213 310.246 106.133 342.936 96.438 379.118L96.0363 380.617L-40.291 344.312L-39.8334 342.604L-39.836 342.604ZM40.5894 193.05C22.6548 214.321 6.99265 237.569 -5.96587 262.17C-19.3764 287.623 -29.9954 314.721 -37.5332 342.714L94.445 377.862C104.158 341.986 121.084 309.532 144.767 281.36L40.5929 193.048L40.5894 193.05ZM-52.0039 412.866L88.6482 423.813L88.5623 424.936C83.7595 486.758 102.146 548.033 140.337 597.476L141.023 598.367L29.3666 684.547L28.68 683.656C-0.56938 645.789 -22.4502 603.404 -36.3594 557.68C-50.5758 510.944 -55.8686 462.6 -52.0924 413.988L-52.0065 412.866L-52.0039 412.866ZM86.2344 425.882L-49.9296 415.284C-53.5175 463.236 -48.2276 510.917 -34.2034 557.024C-20.4832 602.126 1.0383 643.96 29.7754 681.385L137.87 597.955C100.037 548.525 81.7229 487.504 86.2352 425.879L86.2344 425.882ZM285.385 55.7939L286.5 55.643C337.949 48.7171 389.645 52.0684 440.146 65.6C483.358 77.1788 523.836 95.7811 560.449 120.89L561.376 121.525L481.587 237.82L480.66 237.185C457.275 221.149 431.362 209.251 403.642 201.823C371.27 193.149 338.197 190.992 305.347 195.415L304.232 195.565L285.382 55.7959L285.385 55.7939ZM558.248 122.11C522.089 97.467 482.163 79.1901 439.563 67.7753C389.714 54.4185 338.703 51.0385 287.916 57.7266L306.164 193.038C338.946 188.775 371.932 190.998 404.227 199.651C431.827 207.046 457.651 218.835 481.006 234.697L558.247 122.113L558.248 122.11ZM293.347 690.679L294.454 690.878C331.145 697.519 367.968 695.966 403.899 686.268L404.986 685.975L441.785 822.13L440.698 822.423C413.217 829.84 384.893 834.249 356.51 835.526C327.426 836.832 298.101 834.858 269.347 829.654L268.239 829.455L268.439 828.348L293.344 690.678L293.347 690.679ZM403.399 688.732C367.849 698.162 331.447 699.696 295.16 693.29L270.855 827.638C299.091 832.663 327.869 834.559 356.41 833.279C384.253 832.026 412.043 827.743 439.024 820.543L403.399 688.732ZM515.208 265.768L614.999 166.094L615.794 166.891C636.121 187.229 654.255 209.881 669.689 234.213C685.081 258.482 697.823 284.478 707.561 311.483L707.942 312.541L706.883 312.922L575.227 360.348L574.846 359.289C562.35 324.64 542.002 292.576 516.004 266.562L515.208 265.768ZM614.996 169.279L518.391 265.77C543.978 291.605 564.07 323.268 576.58 357.468L705.06 311.185C695.427 284.715 682.892 259.23 667.788 235.417C652.644 211.541 634.886 189.293 614.997 169.276L614.996 169.279ZM446.052 670.736L447.068 670.249C503.375 643.269 547.32 596.799 570.804 539.398L571.228 538.358L701.807 591.766L701.382 592.807C682.851 638.095 656.329 679.002 622.545 714.392C589.649 748.854 551.129 776.791 508.063 797.426L507.048 797.913L506.56 796.898L446.05 670.733L446.052 670.736ZM572.46 541.291C548.803 598.385 505.039 644.663 449.056 671.79L508.107 794.912C550.52 774.443 588.468 746.834 620.921 712.84C654.251 677.924 680.474 637.61 698.876 592.994L572.463 541.289L572.46 541.291Z" fill="url(#paint0_linear_341_455)"/>
<path d="M337.434 711C317.345 711 297.301 708.762 277.858 704.354C258.919 700.057 240.409 693.666 222.843 685.36L222.145 685.031L222.475 684.333L263.435 597.639L264.132 597.969C287.107 608.832 311.77 614.339 337.434 614.339H338.498L338.645 710.998H337.434V711ZM224.198 684.295C241.455 692.392 259.619 698.634 278.197 702.848C297.42 707.209 317.237 709.432 337.099 709.456L336.956 615.881C311.491 615.815 287.012 610.368 264.168 599.691L224.196 684.293L224.198 684.295ZM386.092 706.593L368.394 611.569L369.153 611.427C410.918 603.642 448.21 580.608 474.158 546.566L474.626 545.954L551.459 604.566L550.991 605.178C531.118 631.25 506.948 653.247 479.155 670.56C450.746 688.256 419.691 700.332 386.85 706.453L386.092 706.595V706.593ZM370.191 612.799L387.324 704.792C419.694 698.663 450.312 686.707 478.338 669.25C505.753 652.172 529.622 630.511 549.295 604.856L474.912 548.114C448.909 581.917 411.773 604.858 370.19 612.799H370.191ZM89.9537 546.629L89.6561 545.918C75.9492 513.097 69 478.291 69 442.47C69 411.819 74.1332 381.733 84.2575 353.05L84.5134 352.323L175.626 384.505L175.37 385.231C168.904 403.551 165.625 422.81 165.625 442.472C165.625 465.434 170.063 487.704 178.814 508.66L179.112 509.371L89.9556 546.631L89.9537 546.629ZM85.4555 354.29C75.5587 382.59 70.543 412.253 70.543 442.47C70.543 477.828 77.3519 512.187 90.7839 544.611L177.097 508.54C168.463 487.602 164.084 465.377 164.084 442.47C164.084 422.893 167.306 403.712 173.662 385.444L85.4574 354.29H85.4555ZM508.707 428.777L508.642 428.009C506.531 402.55 498.973 378.456 486.184 356.397L485.797 355.729L569.378 307.232L569.765 307.899C579.546 324.77 587.487 342.734 593.365 361.291C599.387 380.307 603.281 400.064 604.935 420.017L605 420.785L604.232 420.849L508.707 428.779V428.777ZM487.903 356.29C500.448 378.145 507.918 401.964 510.113 427.114L603.334 419.376C601.652 399.798 597.804 380.417 591.896 361.755C586.13 343.551 578.367 325.92 568.817 309.34L487.903 356.29ZM188.16 357.299L104.5 308.933L104.887 308.265C114.742 291.206 126.517 275.189 139.883 260.659C153.215 246.17 168.159 233.127 184.304 221.894L184.937 221.454L185.377 222.087L240.11 300.807L239.477 301.247C218.762 315.661 201.15 334.813 188.544 356.632L188.16 357.299ZM106.608 308.37L187.597 355.192C200.157 333.677 217.549 314.766 237.964 300.422L184.55 223.602C168.741 234.671 154.098 247.486 141.017 261.704C127.901 275.96 116.327 291.658 106.606 308.37H106.608ZM468.43 331.254L467.927 330.668C440.087 298.188 401.54 277.346 359.389 271.984L358.625 271.887L370.815 176L371.579 176.097C404.837 180.329 436.612 190.628 466.024 206.71C494.664 222.37 519.984 242.908 541.277 267.749L541.779 268.335L541.193 268.838L468.428 331.256L468.43 331.254ZM360.348 270.552C402.327 276.084 440.714 296.84 468.595 329.079L539.605 268.167C518.537 243.727 493.536 223.509 465.285 208.06C436.267 192.194 404.937 181.988 372.148 177.722L360.346 270.55L360.348 270.552Z" fill="url(#paint1_linear_341_455)"/>
<circle cx="337" cy="443" r="327.5" stroke="white" stroke-opacity="0.32" stroke-dasharray="6 6"/>
<circle cx="337" cy="443" r="426.5" stroke="white" stroke-opacity="0.32" stroke-dasharray="6 6"/>
<circle cx="253" cy="555" r="6" fill="#9FFFF5"/>
<circle cx="46" cy="292" r="6" fill="#9FFFF5"/>
<circle cx="565" cy="473" r="15" fill="#9FFFF5" fill-opacity="0.21"/>
<circle cx="565" cy="473" r="7" fill="#9FFFF5"/>
</g>
<defs>
<linearGradient id="paint0_linear_341_455" x1="560.501" y1="645.999" x2="295.876" y2="63.556" gradientUnits="userSpaceOnUse">
<stop stop-color="#00FFFF"/>
<stop offset="1" stop-color="#2866F7"/>
</linearGradient>
<linearGradient id="paint1_linear_341_455" x1="87.0928" y1="323.606" x2="734.558" y2="703.51" gradientUnits="userSpaceOnUse">
<stop stop-color="#00FFFF"/>
<stop offset="1" stop-color="#2866F7"/>
</linearGradient>
</defs>
</svg>
