<svg width="50" height="50" viewBox="0 0 50 50" fill="none" xmlns="http://www.w3.org/2000/svg">
<path d="M3 3H9.7375V9.7375H3V3Z" fill="#487FFF"/>
<path d="M12.3164 3H19.0539V9.7375H12.3164V3Z" fill="#487FFF"/>
<path d="M21.6309 3H28.3684V9.7375H21.6309V3Z" fill="#487FFF"/>
<path d="M37.6848 5.75V3H30.9473V9.7375H33.6973C34.1768 7.77641 35.7237 6.22953 37.6848 5.75Z" fill="#487FFF"/>
<path d="M40.2617 3V5.75C42.2228 6.22953 43.7697 7.77641 44.2492 9.7375H46.9992V3H40.2617Z" fill="#487FFF"/>
<path d="M9.7375 15.0654V12.3154H3V19.0529H5.75C6.22953 17.0918 7.77641 15.545 9.7375 15.0654Z" fill="#487FFF"/>
<path d="M12.3164 15.0654C14.2775 15.545 15.8244 17.0918 16.3039 19.0529H19.0539V12.3154H12.3164V15.0654Z" fill="#487FFF"/>
<path d="M21.6309 12.3154H28.3684V19.0529H21.6309V12.3154Z" fill="#487FFF"/>
<path d="M33.6973 12.3154H30.9473V19.0529H37.6848V16.3029C35.7237 15.8234 34.1768 14.2765 33.6973 12.3154Z" fill="#487FFF"/>
<path d="M40.2617 16.3029V19.0529H46.9992V12.3154H44.2492C43.7697 14.2765 42.2228 15.8234 40.2617 16.3029Z" fill="#487FFF"/>
<path d="M5.75 21.6313H3V28.3688H9.7375V25.6188C7.77641 25.1393 6.22953 23.5924 5.75 21.6313Z" fill="#487FFF"/>
<path d="M12.3164 25.6188V28.3688H19.0539V21.6313H16.3039C15.8244 23.5924 14.2775 25.1393 12.3164 25.6188Z" fill="#487FFF"/>
<path d="M21.6309 21.6313H28.3684V28.3688H21.6309V21.6313Z" fill="#487FFF"/>
<path d="M30.9473 21.6313H37.6848V28.3688H30.9473V21.6313Z" fill="#487FFF"/>
<path d="M40.2617 21.6313H46.9992V28.3688H40.2617V21.6313Z" fill="#487FFF"/>
<path d="M3 30.9468H9.7375V37.6843H3V30.9468Z" fill="#487FFF"/>
<path d="M12.3164 30.9468H19.0539V37.6843H12.3164V30.9468Z" fill="#487FFF"/>
<path d="M28.3684 33.6968V30.9468H21.6309V37.6843H24.3809C24.8604 35.7232 26.4073 34.1763 28.3684 33.6968Z" fill="#487FFF"/>
<path d="M30.9473 33.6968C32.9084 34.1763 34.4552 35.7232 34.9348 37.6843H37.6848V30.9468H30.9473V33.6968Z" fill="#487FFF"/>
<path d="M40.2617 30.9468H46.9992V37.6843H40.2617V30.9468Z" fill="#487FFF"/>
<path d="M3 40.2627H9.7375V47.0002H3V40.2627Z" fill="#487FFF"/>
<path d="M12.3164 40.2627H19.0539V47.0002H12.3164V40.2627Z" fill="#487FFF"/>
<path d="M24.3809 40.2627H21.6309V47.0002H28.3684V44.2502C26.4073 43.7707 24.8604 42.2238 24.3809 40.2627Z" fill="#487FFF"/>
<path d="M30.9473 44.2502V47.0002H37.6848V40.2627H34.9348C34.4552 42.2238 32.9084 43.7707 30.9473 44.2502Z" fill="#487FFF"/>
<path d="M40.2617 40.2627H46.9992V47.0002H40.2617V40.2627Z" fill="#487FFF"/>
<path d="M11.027 23.1955C12.6027 23.1955 13.8801 21.9181 13.8801 20.3424C13.8801 18.7666 12.6027 17.4893 11.027 17.4893C9.45122 17.4893 8.17383 18.7666 8.17383 20.3424C8.17383 21.9181 9.45122 23.1955 11.027 23.1955Z" fill="#487FFF"/>
<path d="M38.9742 13.8796C40.55 13.8796 41.8273 12.6022 41.8273 11.0265C41.8273 9.45073 40.55 8.17334 38.9742 8.17334C37.3985 8.17334 36.1211 9.45073 36.1211 11.0265C36.1211 12.6022 37.3985 13.8796 38.9742 13.8796Z" fill="#487FFF"/>
<path d="M29.5992 41.8571C31.175 41.8571 32.4523 40.5797 32.4523 39.004C32.4523 37.4283 31.175 36.1509 29.5992 36.1509C28.0235 36.1509 26.7461 37.4283 26.7461 39.004C26.7461 40.5797 28.0235 41.8571 29.5992 41.8571Z" fill="#487FFF"/>
</svg>
