<svg width="954" height="955" viewBox="0 0 954 955" fill="none" xmlns="http://www.w3.org/2000/svg">
<g filter="url(#filter0_d_479_594)">
<ellipse cx="477" cy="477.5" rx="417" ry="417.5" fill="#155BFF"/>
</g>
<path d="M62.0561 483.433C61.9686 478.249 61.9861 473.347 62.0911 468.567C62.3188 454.667 63.3872 439.343 65.8216 419.416C65.8216 419.416 65.8216 419.416 65.8216 419.398C67.9758 404.901 69.2718 397.186 71.5311 387.398C73.4226 377.98 75.1739 371.302 78.6417 359.177H78.6241C78.6767 358.966 78.7467 358.773 78.7993 358.579L78.8693 358.333C78.9394 358.105 79.0094 357.876 79.0795 357.648C79.2196 357.173 79.3422 356.699 79.4998 356.207C79.4998 356.207 79.4998 356.207 79.4998 356.189C83.0901 344.381 84.894 338.775 88.3618 329.883C91.6018 320.728 93.7035 315.842 98.6424 304.684C98.6424 304.684 98.6424 304.666 98.6424 304.649C102.478 296.179 104.474 291.856 107.802 285.582C108.03 285.143 108.24 284.721 108.468 284.282H108.485C108.748 283.807 109.01 283.315 109.273 282.823C113.371 274.635 115.491 271.032 120.85 261.982C125.771 253.741 127.68 250.595 132.672 243.39C137.418 236.062 139.467 233.321 145.141 225.73C150.448 218.63 152.497 215.924 157.891 209.598C163.18 203.008 165.3 200.689 171.272 194.152C177.104 187.773 179.135 185.541 185.125 179.76C190.905 173.838 193.164 171.799 199.539 166.035C205.949 160.254 208.208 158.198 214.706 153.031C221.098 147.637 223.568 145.809 230.538 140.625C230.538 140.625 230.538 140.625 230.556 140.625C237.789 135.265 240.364 133.35 247.527 128.728C254.532 123.896 257.51 122.104 265.321 117.464C273.762 112.456 276.827 110.629 284.901 106.569C292.66 102.352 296.373 100.612 305.392 96.5001C314.604 92.3354 318.808 90.4551 326.233 87.6962C327.827 87.0812 329.421 86.4661 331.015 85.8686C338.265 83.0043 343.134 81.4052 352.889 78.2948C352.889 78.2948 352.889 78.2948 352.907 78.2948C364.554 74.6924 370.281 73.0054 379.02 71.0021C379.861 70.7737 380.719 70.5628 381.559 70.352C381.875 70.2817 382.19 70.1938 382.505 70.1235C390.929 68.0148 397.006 66.8726 408.793 64.7814C421.666 62.7606 429.022 61.7062 437.551 60.9506C438.181 60.8803 438.829 60.8276 439.46 60.7748C440.441 60.687 441.404 60.6343 442.367 60.5464C451.667 59.6326 459.46 59.3163 473.436 59C473.436 59 473.454 59 473.471 59C485.801 59.1054 494.225 59.2812 501.966 59.7205C503.052 59.7732 504.156 59.8083 505.241 59.8786C505.714 59.9138 506.205 59.9489 506.677 59.9841V60.0368C508.061 60.1422 509.462 60.2477 510.863 60.3882C517.238 60.8451 523.386 61.4953 531.022 62.5145V62.4091H531.039C531.477 62.4618 531.897 62.5145 532.318 62.5848C535.19 62.9714 538.027 63.4107 540.847 63.9028C542.948 64.2015 545.138 64.5354 547.485 64.8869C547.485 64.8869 547.484 64.8869 547.502 64.8869C570.603 69.4909 582.547 72.2674 595.963 76.397C601.409 78.0488 607.311 79.9642 614.264 82.3717L614.352 82.1432C614.632 82.2487 614.912 82.3365 615.193 82.442L615.385 82.5123C618.275 83.5315 621.147 84.621 623.95 85.7808C625.578 86.3607 627.26 86.9582 628.993 87.5908C635.421 90.3848 641.025 92.8626 646.087 95.147C647.103 95.5863 648.118 96.0257 649.117 96.465C652.497 97.8708 655.825 99.2942 658.784 100.682C658.889 100.735 658.994 100.77 659.1 100.823L660.291 101.403L660.15 101.702C660.851 102.053 661.569 102.387 662.27 102.738C672.007 107.518 679.888 111.876 689.083 117.394L689.258 117.095C689.521 117.253 689.784 117.412 690.046 117.57L690.169 117.64C693.987 119.907 697.647 122.35 701.238 124.88C701.588 125.108 701.938 125.319 702.306 125.548C705.388 127.481 708.681 129.554 712.236 131.804C712.236 131.804 712.271 131.821 712.289 131.839C720.468 137.919 727.193 142.997 733.025 147.549C735.319 149.341 737.491 151.063 739.593 152.75C745.46 157.477 750.451 161.748 755.373 166.211L755.565 166C755.705 166.123 755.828 166.246 755.968 166.352L756.371 166.721C759.874 169.901 763.236 173.24 766.459 176.719C769.261 179.478 772.203 182.413 775.426 185.664C778.473 188.722 781.731 192.043 785.286 195.698C785.339 195.751 785.374 195.786 785.426 195.839C788.491 199.459 791.276 202.762 793.85 205.873C798.001 210.494 802.029 215.292 805.812 220.177L806.268 220.757C806.408 220.95 806.565 221.126 806.705 221.319L806.478 221.495C806.846 221.969 807.231 222.461 807.581 222.918C808.825 224.517 810.016 226.081 811.206 227.663L811.399 227.522L812.03 228.383C814.096 231.195 816.075 234.077 817.967 237.029C824.062 245.815 830.524 256.043 839.701 271.19C839.719 271.225 839.754 271.261 839.771 271.296C845.656 282.437 849.929 290.784 853.467 298.182L853.607 298.112L854.063 299.078C854.115 299.201 854.185 299.342 854.238 299.465C856.182 303.612 857.425 306.353 858.616 309.534C858.756 309.85 858.896 310.184 859.036 310.5C863.66 321.097 867.741 332.097 873.976 350.285C873.976 350.303 873.976 350.338 873.993 350.355C876.305 358.614 878.197 365.573 879.79 371.759C880.228 373.217 880.648 374.693 881.051 376.17L881.209 376.134L881.472 377.206C881.839 378.718 882.172 380.229 882.505 381.758C882.943 383.533 883.346 385.29 883.731 387.082L883.994 388.312L883.783 388.365C886.603 401.263 888.565 414.162 891.367 436.883C891.367 436.936 891.367 436.971 891.384 437.024C892.12 445.81 892.575 453.858 892.803 461.432H892.891L892.926 462.627C893.013 465.579 893.013 468.584 892.978 471.607C893.013 476.65 892.943 481.518 892.785 486.21C892.54 499.038 891.63 512.938 889.615 529.228C889.475 530.37 889.335 531.512 889.178 532.654C887.023 547.169 885.727 554.884 883.468 564.672C881.437 574.829 879.545 581.788 875.517 595.863C871.927 607.672 870.123 613.278 866.655 622.134C863.415 631.325 861.313 636.175 856.357 647.369C852.556 655.786 850.542 660.109 847.267 666.33C847.145 666.558 847.04 666.787 846.917 666.998L846.532 667.736C846.024 668.737 845.481 669.721 844.955 670.723C841.348 677.875 839.158 681.565 834.149 690.035C829.281 698.172 827.249 701.528 822.38 708.539C817.599 715.938 815.55 718.679 809.858 726.288C804.534 733.387 802.485 736.093 797.09 742.437C791.819 749.009 789.7 751.329 783.727 757.866C777.913 764.227 775.864 766.477 769.892 772.24C764.094 778.162 761.853 780.201 755.46 785.965C749.068 791.746 746.791 793.802 740.311 798.951C733.901 804.363 731.449 806.191 724.461 811.375C724.461 811.375 724.461 811.375 724.443 811.375C717.21 816.734 714.636 818.65 707.473 823.272C706.895 823.676 706.334 824.045 705.809 824.414L705.318 824.748C705.318 824.748 705.283 824.748 705.283 824.765C699.749 828.526 696.632 830.406 689.696 834.536C681.254 839.544 678.19 841.371 670.116 845.431C662.357 849.648 658.644 851.388 649.625 855.5C640.22 859.752 636.052 861.615 628.328 864.48L627.645 864.761C627.102 864.972 626.542 865.165 625.981 865.358C617.557 868.732 612.741 870.349 602.127 873.723C589.798 877.518 584.123 879.205 574.473 881.367C565.016 883.809 558.921 884.987 546.276 887.201C546.259 887.201 546.241 887.201 546.206 887.201C533.841 889.152 526.556 890.188 518.447 890.944C518.114 890.979 517.781 891.014 517.448 891.049L516.152 891.172V891.137C515.452 891.19 514.751 891.243 514.033 891.313C504.085 892.332 496.222 892.666 481.528 893C464.417 892.859 454.819 892.578 444.153 891.629C439.95 891.331 435.817 890.926 431.316 890.417C428.846 890.188 426.395 889.907 423.96 889.608L422.927 889.468C422.927 889.468 422.839 889.468 422.787 889.468V889.362C418.321 888.765 413.329 888.027 407.48 887.148C397.882 885.233 390.229 883.634 383.591 882.123L383.538 882.333L382.382 882.07C379.037 881.279 375.71 880.383 372.4 879.434C367.811 878.257 363.538 877.026 359.089 875.673C356.812 874.988 354.466 874.25 352.014 873.459C348.161 872.37 344.36 871.21 340.665 869.927L339.789 869.611C339.789 869.611 339.684 869.576 339.631 869.558L339.701 869.33C335.551 867.889 331.032 866.289 325.988 864.48C319.438 861.633 313.694 859.085 308.562 856.765C302.59 854.076 297.353 851.634 292.414 849.191C286.477 846.274 281.241 843.515 275.951 840.528C272.904 838.946 269.576 837.136 265.758 834.993L264.83 834.43L265.005 834.114C261.222 831.829 257.212 829.352 252.728 826.54C249.628 824.607 246.336 822.533 242.78 820.267C242.78 820.267 242.745 820.249 242.728 820.231C236.44 815.557 231.011 811.463 226.177 807.755L225.932 808.071C225.792 807.948 225.635 807.843 225.494 807.72L224.811 807.193C219.697 803.256 214.671 799.074 209.855 794.733C209.277 794.259 208.699 793.767 208.138 793.293C205.178 790.99 202.289 788.583 199.504 786.105L198.996 785.648C198.891 785.543 198.768 785.438 198.663 785.35L198.856 785.139C192.796 779.586 186.789 773.681 179.381 766.195C176.438 763.226 173.286 760.01 169.853 756.513C169.766 756.425 169.696 756.355 169.608 756.267C160.256 745.389 153.741 737.587 148.171 730.4C146.613 728.502 145.089 726.569 143.635 724.601L143.32 724.179C143.215 724.039 143.11 723.898 143.005 723.74L143.11 723.652C143.11 723.652 143.005 723.511 142.952 723.441C135.526 713.53 129.169 703.777 118.503 686.486C118.503 686.486 118.485 686.451 118.468 686.433C113.161 676.768 109.133 669.229 105.753 662.569C105.087 661.339 104.439 660.109 103.791 658.844L103.739 658.879C103.564 658.51 103.389 658.141 103.213 657.772L103.143 657.631C102.793 656.911 102.46 656.208 102.11 655.487V655.452C101.865 654.96 101.637 654.486 101.41 653.994L101.322 653.818C101.199 653.554 101.077 653.291 100.954 653.027H100.989C99.9559 650.76 98.9751 648.511 98.0119 646.227C93.4408 636.087 89.29 625.315 83.0376 607.988C83.0376 607.988 83.0376 607.988 83.0376 607.971C80.971 601.047 79.2371 595.037 77.7134 589.625C76.2598 585.179 74.9638 580.628 73.8254 575.989C73.7378 575.62 73.6502 575.268 73.5627 574.899V574.881L73.7904 574.829C73.7553 574.706 73.7378 574.6 73.7028 574.477C70.1124 560.068 67.8182 547.046 64.3504 522.005C64.3504 521.97 64.3504 521.953 64.3504 521.917C63.6849 514.853 63.1945 508.369 62.8267 502.324C62.5816 499.442 62.4064 496.507 62.2663 493.555L62.2138 492.272C62.2138 492.202 62.2138 492.149 62.2138 492.079V491.64L62.1962 491.534C62.1962 491.534 62.1962 491.482 62.1962 491.446V490.937C62.1612 490.357 62.1437 489.777 62.1262 489.18C62.0737 487.299 62.0562 485.419 62.0737 483.539L62.0561 483.433ZM99.6406 647C102.198 652.606 104.912 658.106 108.222 664.52C118.345 682.286 131.498 697.627 147.488 710.279C140.728 695.975 135.001 680.81 130.482 665.117C113.004 651.657 98.9226 634.892 88.5894 615.228C91.5142 625.93 95.1746 636.439 99.4655 646.596C99.518 646.736 99.5881 646.877 99.6406 647.017V647ZM210.117 793.363C229.785 808.352 253.131 819.195 279.524 825.609C274.06 820.513 268.701 815.083 263.569 809.407C258 803.256 252.571 796.702 247.457 789.936C221.554 783.874 198.523 773.594 178.925 759.36C183.251 764.983 187.787 770.466 192.516 775.685C198.103 781.87 204.04 787.81 210.135 793.363H210.117ZM360.981 874.478C386.271 880.295 414.1 881.701 443.768 878.661C432.279 873.934 420.843 867.871 409.704 860.596C398.302 861.826 387.164 862.459 376.305 862.459C357.933 862.459 340.385 860.684 323.834 857.152C335.761 864.128 348.231 869.962 360.981 874.496V874.478ZM516.713 889.872C521.301 889.362 526.486 888.695 532.983 887.834C548.115 885.409 563.702 881.701 579.5 876.71C586.33 874.566 593.23 872.141 600.113 869.523C592.407 869.47 584.333 868.363 576.067 866.219C567.468 869.558 558.746 872.633 550.164 875.339C529.095 881.982 508.341 886.604 488.428 889.134C497.868 890.276 507.361 890.505 516.695 889.872H516.713ZM627.365 863.566C631.866 861.738 637.435 859.401 645.299 856.097C663.023 848.084 680.589 838.454 697.735 827.331C696.824 827.436 695.896 827.489 694.933 827.489C692.376 827.489 689.556 827.102 686.526 826.364C661.131 843.076 634.913 856.906 608.52 867.555C614.457 866.659 621.48 865.182 627.365 863.566ZM818.405 711.632C820.366 707.309 821.364 702.266 821.417 696.66C804.096 720.981 784.078 744.212 761.905 765.756C763.937 768.761 765.285 771.063 765.986 772.75C785.549 753.719 803.185 733.159 818.405 711.65V711.632ZM882.575 387.645C882.137 385.641 881.664 383.585 881.156 381.441C880.456 378.559 879.703 375.555 878.88 372.391C875.99 362.533 872.417 352.833 868.179 343.414C872.785 368.121 873.153 395.13 869.247 423.792C875.324 435.723 880.141 447.796 883.661 459.939C886.918 434.23 886.551 409.962 882.557 387.645H882.575ZM774.638 188.036C763.201 177.686 750.679 168.267 737.421 159.973C751.695 179.25 761.695 201.866 767.142 227.241C781.223 236.414 794.393 246.553 806.338 257.396C800.488 231.125 789.822 207.788 774.638 188.036ZM633.827 91.3162C620.517 86.6243 606.593 83.0746 592.407 80.7374C611.462 90.5957 627.54 103.846 640.237 120.171C656.402 123.527 672.13 128.061 687.069 133.666C672.953 115.953 655.071 101.702 633.827 91.2986V91.3162ZM476.817 61.2493C464.434 62.3212 451.947 64.6408 439.67 68.1378C458.935 69.7721 476.519 74.3761 492.001 81.8621C507.326 78.7693 522.738 76.889 537.834 76.2388C519.778 67.8215 499.287 62.7606 476.817 61.2493ZM368.301 75.571C359.422 78.9274 350.805 83.4963 342.626 89.102C361.401 84.8846 379.37 83.2679 396.096 84.3398C407.953 78.0664 420.16 72.9351 432.419 68.9989C412.331 68.0324 390.789 70.2114 368.301 75.571ZM87.2759 339.671C83.8958 351.287 81.4088 362.867 79.8676 374.096C78.4665 384.358 77.8711 394.392 78.0462 404.005C83.1602 391.405 89.5002 378.928 96.9435 366.909C96.6633 358.193 97.1712 349.037 98.4497 339.653C99.6231 331.06 101.48 322.239 103.932 313.365C97.2938 321.659 91.6894 330.498 87.2759 339.671ZM79.8851 561.843C89.4126 581.436 102.828 598.042 119.729 611.292C117.75 594.44 116.944 577.008 117.312 559.418C102.005 547.609 89.8154 532.795 81.041 515.345C79.3947 531.003 78.9919 546.625 79.8851 561.843ZM149.87 712.142C169.258 726.903 192.288 737.534 218.349 743.755C210.573 728.818 203.637 712.827 197.718 696.186C172.918 690.369 150.956 680.388 132.374 666.541C137.032 682.409 142.917 697.75 149.87 712.142ZM372.295 830.652C366.778 825.38 361.278 819.739 355.937 813.853C350.385 807.72 344.903 801.2 339.614 794.452C327.967 795.718 316.601 796.35 305.497 796.35C285.934 796.35 267.282 794.382 249.751 790.481C254.62 796.842 259.734 803.01 264.988 808.827C270.557 814.977 276.372 820.864 282.309 826.329C309.771 832.638 340.034 834.096 372.277 830.687L372.295 830.652ZM517.571 863.003C526.468 860.192 535.488 857.029 544.42 853.584C534.577 848.348 524.436 841.811 514.261 834.114C504.593 837.874 494.803 841.319 485.153 844.359C460.196 852.231 435.659 857.591 412.191 860.315C423.522 867.625 435.151 873.705 446.816 878.362C469.548 875.814 493.35 870.665 517.571 863.021V863.003ZM576.33 864.69C606.769 852.776 637.067 836.978 666.385 817.754C659.765 813.976 652.497 809.073 644.756 803.168C613.354 823.816 580.901 840.791 548.273 853.637C557.853 858.54 567.293 862.265 576.347 864.69H576.33ZM686.666 824.73C712.464 807.667 737.088 787.898 759.839 765.932C757.369 762.382 754.024 757.936 749.873 752.682C724.846 776.827 697.787 798.582 669.433 817.385C675.773 820.882 681.57 823.359 686.666 824.73ZM869.002 425.742V425.812C864.728 455.739 855.902 486.754 842.801 518.016C849.299 529.21 854.588 540.351 858.599 551.176C871.068 521.197 879.405 491.499 883.328 462.856C883.328 462.82 883.328 462.803 883.328 462.768C879.913 450.344 875.132 437.973 869.019 425.742H869.002ZM844.307 386.327L844.255 386.274C837.985 421.349 835.165 436.461 817.406 481.184C826.759 492.958 834.955 504.784 841.785 516.347C854.938 484.821 863.713 453.595 867.846 423.475C861.401 410.928 853.537 398.522 844.307 386.327ZM806.898 259.873C794.936 248.908 781.713 238.646 767.597 229.367C772.816 254.971 773.394 283.105 769.314 313.031C783.482 323.223 796.758 334.083 808.982 345.593C813.08 314.894 812.397 286.057 806.898 259.873ZM688.785 135.81C673.759 130.046 657.891 125.39 641.586 121.945C654.599 139.219 663.688 159.569 668.627 182.431C685.878 187.562 702.586 193.747 718.349 200.776C712.937 176.157 702.989 154.297 688.785 135.81ZM494.015 82.8461C509.48 90.666 522.492 101.28 532.738 114.407C550.479 112.86 568.168 112.509 585.384 113.317C573.51 98.3101 558.413 86.2201 540.479 77.4338C525.19 77.9609 509.567 79.7709 494.015 82.8286V82.8461ZM396.201 85.7632C383.749 92.3881 371.454 100.366 359.667 109.451C372.295 110.453 383.819 113.44 393.942 118.308C409.214 109.943 424.906 102.703 440.616 96.7637C427.48 90.5957 412.559 86.8879 396.201 85.7632ZM339.824 91.0702C331.347 97.2206 323.274 104.636 315.76 113.141C330.472 109.785 344.57 108.502 357.688 109.328C369.3 100.278 381.384 92.3354 393.679 85.6578C376.831 84.7791 358.721 86.5891 339.824 91.0702ZM218.944 152.346C201.938 165.877 186.053 180.937 171.675 197.139C174.442 196.559 177.875 196.594 181.938 197.262C193.532 184.082 206.404 171.869 220.188 160.957C219.207 157.425 218.787 154.56 218.944 152.346ZM105.998 310.817C103.213 320.447 101.147 330.041 99.8683 339.355C98.6774 348.053 98.187 356.541 98.3621 364.659C106.191 352.306 115.263 340.216 125.403 328.723C125.193 321.975 125.578 314.894 126.577 307.636C127.505 300.835 128.976 293.841 130.938 286.848C121.55 294.228 113.196 302.259 105.998 310.834V310.817ZM121.358 612.557C138.556 625.631 159.012 635.05 182.13 640.551C178.382 622.785 175.598 604.298 173.829 585.601C152.917 580.68 134.405 572.228 118.766 560.507C118.433 578.168 119.309 595.67 121.34 612.557H121.358ZM220.38 744.247C247.229 750.398 276.845 751.803 308.404 748.447C299.542 733.387 291.188 717.255 283.605 700.438C272.799 701.598 262.238 702.196 251.94 702.196C233.568 702.196 216.054 700.333 199.592 696.625C205.564 713.284 212.552 729.31 220.38 744.247ZM374.484 830.424C398.863 827.682 424.398 822.147 450.353 813.958C460.038 810.9 469.881 807.439 479.601 803.678C474.207 798.301 468.725 792.554 463.313 786.562C457.797 780.464 452.227 773.98 446.745 767.32C436.868 771.151 426.867 774.683 417.007 777.793C391.244 785.93 365.902 791.43 341.663 794.206C346.795 800.726 352.119 807.052 357.513 813.009C363.065 819.142 368.774 824.994 374.484 830.424ZM643.495 802.184C635.474 795.981 626.804 788.618 617.732 780.271C584.719 801.973 550.584 819.81 516.275 833.306C526.503 841.02 536.679 847.557 546.539 852.741C579.325 839.895 611.935 822.885 643.477 802.184H643.495ZM749.015 751.593C744.602 746.04 739.278 739.555 733.165 732.298C706.177 758.323 676.999 781.782 646.42 802.044C654.161 807.948 661.411 812.851 668.067 816.629C696.597 797.756 723.83 775.878 748.998 751.593H749.015ZM841.908 520.037C828.247 552.16 810.191 584.265 788.246 615.474C795.392 625.667 801.539 635.455 806.513 644.592C827.459 614.772 844.675 584.09 857.653 553.39C853.712 542.53 848.406 531.319 841.908 520.037ZM816.601 483.117C802.607 516.083 784.095 549.014 761.573 581.032C771.17 592.454 779.822 603.578 787.265 614.104C809.262 582.807 827.319 550.614 840.945 518.385C834.149 506.787 825.953 494.943 816.601 483.117ZM769.138 314.314C764.918 344.468 756.073 375.713 742.868 407.238C756.879 418.608 770.049 430.329 782.046 442.12C795.549 409.821 804.551 377.821 808.807 346.964C796.582 335.418 783.325 324.523 769.138 314.314ZM718.769 202.692C703.007 195.593 686.263 189.389 668.995 184.205C673.671 206.944 674.214 231.95 670.606 258.573C687.927 265.848 704.67 273.861 720.66 282.595C724.513 253.987 723.883 227.1 718.769 202.709V202.692ZM586.575 114.846C569.324 113.967 551.583 114.284 533.771 115.777C544.069 129.396 551.267 145.458 555.191 163.487C574.175 164.419 593.055 166.404 611.322 169.374C606.786 148.709 598.467 130.363 586.575 114.846ZM395.413 119.046C405.361 124.072 413.75 130.907 420.37 139.342C438.286 132.946 456.571 127.621 474.732 123.509C466.151 112.667 455.257 103.933 442.332 97.5721C426.552 103.476 410.772 110.699 395.413 119.046ZM357.863 110.857C345.884 120.241 334.237 130.96 323.204 142.716C331.785 143.419 339.614 145.44 346.532 148.744C361.278 137.814 376.603 127.938 392.12 119.327C381.997 114.582 370.491 111.718 357.863 110.839V110.857ZM314.184 114.934C306.53 123.826 299.385 134.018 292.905 145.212C302.958 142.927 312.59 142.049 321.557 142.593C332.468 130.855 344.027 120.153 355.884 110.734C342.836 110.049 328.825 111.437 314.184 114.916V114.934ZM220.591 162.292C207.21 172.924 194.723 184.768 183.426 197.543C188.365 198.492 194.232 200.32 200.905 202.973C208.804 194.011 217.561 185.699 226.948 178.266C224.058 172.028 221.922 166.685 220.591 162.31V162.292ZM132.829 285.354C130.675 292.787 129.081 300.203 128.1 307.39C127.172 314.138 126.804 320.728 126.927 327.036C137.435 315.315 149.187 303.998 161.902 293.42C161.762 288.816 162.025 283.966 162.708 279.01C163.338 274.371 164.354 269.591 165.685 264.794C153.688 270.944 142.637 277.85 132.829 285.354ZM183.864 640.972C207.648 646.402 233.883 647.632 261.818 644.645C255.846 626.739 250.539 608.094 246.038 589.221C237.001 590.187 228.174 590.679 219.557 590.679C204.075 590.679 189.311 589.098 175.458 585.987C177.244 604.72 180.081 623.206 183.847 640.972H183.864ZM384.274 732.175C393.784 729.17 403.434 725.778 412.961 722.088C402.874 707.309 392.943 691.547 383.398 675.186C374.221 678.736 364.939 682.022 355.779 684.904C331.715 692.496 308.054 697.644 285.426 700.21C293.062 717.027 301.416 733.176 310.313 748.219C334.08 745.548 358.967 740.153 384.256 732.157L384.274 732.175ZM585.682 748.57C580.428 743.052 575.016 737.2 569.569 731.191C564.07 725.11 558.413 718.714 552.774 712.195C518.885 734.459 483.857 752.77 448.654 766.6C454.031 773.137 459.513 779.498 464.96 785.508C470.477 791.606 476.063 797.457 481.563 802.922C516.783 789.128 551.81 770.835 585.717 748.57H585.682ZM732.202 731.138C725.844 723.599 718.541 715.112 710.52 705.921C682.183 733.264 651.534 757.901 619.431 779.164C628.503 787.529 637.172 794.892 645.194 801.095C675.878 780.798 705.143 757.269 732.219 731.155L732.202 731.138ZM787.073 617.126C765.25 647.914 739.978 677.313 711.939 704.533C719.96 713.741 727.246 722.211 733.603 729.785C760.382 703.777 784.516 675.696 805.339 646.279C800.383 637.142 794.236 627.336 787.073 617.144V617.126ZM760.399 582.666C738.034 614.227 712.131 644.364 683.391 672.252C693.339 683.375 702.586 693.814 710.87 703.303C738.945 676.048 764.252 646.578 786.092 615.738C778.648 605.23 770.014 594.106 760.399 582.666ZM670.431 259.733C666.683 286.478 658.854 314.191 647.138 342.166C663.881 351.779 680.169 361.901 695.546 372.304C708.103 342.272 716.492 312.486 720.468 283.772C704.478 275.021 687.735 267.008 670.413 259.733H670.431ZM611.69 171.026C593.406 168.021 574.526 166.018 555.523 165.051C559.201 182.958 559.639 202.622 556.819 223.568V223.603C575.944 227.575 594.807 232.39 613.249 237.995C616.471 214.009 615.963 191.498 611.69 171.043V171.026ZM421.228 140.467C427.813 149.218 432.437 159.498 434.976 171.043C454.329 167.687 474.014 165.332 493.507 164.05C490.232 149.165 484.242 135.933 475.678 124.722C457.481 128.781 439.162 134.088 421.21 140.449L421.228 140.467ZM347.81 149.394C354.536 152.821 360.245 157.46 364.746 163.171C382.277 154.367 400.369 146.582 418.531 140.01C411.928 131.681 403.539 124.95 393.591 120.048C378.022 128.623 362.627 138.499 347.81 149.412V149.394ZM291.871 147.004C285.286 158.62 279.332 171.5 274.113 185.313C279.104 184.205 283.903 183.784 288.369 184.03C298.299 169.69 308.982 156.282 320.121 144.157C311.277 143.718 301.784 144.649 291.871 147.004ZM202.289 203.518C209.417 206.417 217.543 210.266 226.458 214.975C230.433 210.477 234.829 206.312 239.523 202.569C234.724 193.941 230.696 186.209 227.543 179.549C218.454 186.789 209.96 194.837 202.271 203.518H202.289ZM167.541 263.845C166.088 268.888 165.002 273.932 164.336 278.817C163.706 283.368 163.461 287.814 163.531 292.067C176.649 281.277 190.992 271.05 206.194 261.648C206.142 259.311 206.282 256.869 206.615 254.391C206.93 252.106 207.42 249.769 208.051 247.414C193.584 252.089 179.941 257.607 167.541 263.845ZM175.282 584.054C196.754 588.94 220.398 590.047 245.6 587.358C241.169 568.52 237.474 549.138 234.619 529.755C226.773 530.598 219.102 531.02 211.606 531.02C198.103 531.02 185.23 529.649 173.128 526.926C172.831 546.15 173.549 565.375 175.265 584.054H175.282ZM263.587 644.452C284.603 642.08 306.618 637.3 329.001 630.235C337.425 627.582 345.971 624.56 354.431 621.291C345.866 604.035 337.652 586.128 329.981 568.028C322.31 570.998 314.552 573.739 306.898 576.147C286.652 582.526 266.757 586.849 247.737 589.028C252.255 607.918 257.58 626.563 263.587 644.452ZM516.433 668.333C505.154 654.17 493.647 639.198 482.211 623.839C450.634 644.575 418.005 661.62 385.22 674.501C394.765 690.844 404.73 706.606 414.818 721.385C449.18 707.907 483.367 690.071 516.433 668.351V668.333ZM680.799 672.375C675.72 666.699 670.413 660.812 664.879 654.697C659.327 648.564 653.653 642.326 647.873 635.982C618.818 664.028 587.398 689.28 554.473 711.07C560.059 717.537 565.681 723.88 571.163 729.943C576.662 736.006 582.109 741.892 587.398 747.445C620.324 725.655 651.761 700.403 680.817 672.357L680.799 672.375ZM687.157 506.401C665.299 537.241 639.992 566.693 611.918 593.948C624.422 607.426 636.594 620.641 648.101 633.24C676.841 605.335 702.744 575.198 725.091 543.62C713.322 531.424 700.555 518.913 687.157 506.401ZM556.662 224.693C553.719 245.727 547.555 267.535 538.36 289.519C556.522 296.811 574.613 304.789 592.197 313.242C602.723 288.078 609.746 263.142 613.109 239.085C594.667 233.479 575.804 228.664 556.679 224.675L556.662 224.693ZM493.84 165.491C474.347 166.738 454.644 169.075 435.291 172.397C437.638 183.872 437.919 196.489 436.15 209.897C455.748 210.301 475.398 211.584 494.943 213.745C497.255 196.471 496.887 180.234 493.857 165.491H493.84ZM365.534 164.19C369.983 170.147 373.135 177.106 374.887 184.926C393.942 179.391 413.522 174.839 433.102 171.36C430.58 159.902 425.974 149.728 419.389 141.1C401.21 147.637 383.101 155.404 365.534 164.19ZM302.415 187.72C305.707 189.442 308.51 191.727 310.751 194.503C327.6 183.327 345.166 173.082 362.995 164.032C358.529 158.426 352.872 153.91 346.182 150.571C331.102 161.783 316.391 174.277 302.415 187.702V187.72ZM273.412 187.14C268.456 200.513 264.13 214.993 260.504 230.211C268.736 214.518 277.703 199.582 287.195 185.734C282.869 185.559 278.246 186.015 273.412 187.14ZM209.907 246.817C209.189 249.33 208.664 251.825 208.331 254.25C208.033 256.429 207.928 258.538 207.946 260.576C222.605 251.614 238.314 243.267 254.69 235.729C238.98 238.663 223.936 242.371 209.925 246.817H209.907ZM247.299 587.182C266.266 585.039 286.109 580.716 306.285 574.354C313.904 571.947 321.61 569.241 329.228 566.288C321.627 548.241 314.447 529.755 307.897 511.304C301.224 513.887 294.481 516.259 287.843 518.35C270.189 523.921 252.833 527.699 236.23 529.579C239.12 548.962 242.833 568.344 247.281 587.182H247.299ZM446.097 573.669C435.011 557.748 423.908 541.335 413.084 524.87C386.586 542.284 359.194 556.571 331.663 567.396C339.369 585.495 347.6 603.402 356.182 620.641C386.586 608.709 416.849 592.911 446.115 573.687L446.097 573.669ZM609.22 593.983C596.943 580.733 584.036 566.886 570.83 552.828C543.772 578.941 514.506 602.453 483.84 622.75C495.294 638.108 506.818 653.08 518.096 667.226C550.217 645.963 580.883 621.326 609.22 593.983ZM597.679 430.258C578.309 457.601 555.874 483.697 530.987 507.859C544.455 522.005 557.888 536.204 570.935 550.086C597.661 524.149 621.743 496.103 642.532 466.757C628.153 454.561 613.073 442.296 597.679 430.258ZM433.4 172.73C413.802 176.175 394.204 180.708 375.149 186.209C376.498 194.872 377.111 199.142 375.745 211.636H375.762C395.097 210.108 414.643 209.528 434.223 209.844C435.992 196.559 435.712 184.065 433.4 172.695V172.73ZM311.487 195.452C313.659 198.404 315.2 201.831 316.11 205.662C334.535 197.947 353.677 191.147 373.03 185.471C371.314 177.756 368.214 170.903 363.8 165.051C345.936 174.066 328.353 184.293 311.487 195.452ZM235.95 527.681C252.448 525.801 269.717 522.058 287.283 516.505C293.903 514.414 300.611 512.059 307.249 509.476C300.716 490.99 294.709 472.239 289.367 453.735C283.868 455.862 278.281 457.83 272.782 459.57C258.087 464.209 243.656 467.337 229.855 468.918C231.064 488.477 233.095 508.228 235.933 527.664L235.95 527.681ZM412.033 523.271C401.28 506.858 390.649 490.164 380.438 473.628C357.338 488.793 333.484 501.252 309.49 510.671C316.075 529.122 323.274 547.609 330.91 565.638C358.336 554.866 385.623 540.615 412.033 523.288V523.271ZM528.324 507.807C514.979 493.748 501.283 479.409 487.623 465.158C464.907 487.071 440.353 506.805 414.608 523.85C425.431 540.281 436.552 556.676 447.691 572.615C476.116 553.794 503.245 531.987 528.342 507.789L528.324 507.807ZM373.31 186.753C353.958 192.412 334.798 199.177 316.373 206.874C317.126 210.74 317.249 214.958 316.706 219.439C335.446 215.924 354.536 213.394 373.836 211.812C375.027 202.85 374.834 194.433 373.293 186.753H373.31ZM229.768 467.02C243.446 465.456 257.755 462.346 272.309 457.742C277.79 456.02 283.36 454.052 288.859 451.925C283.535 433.298 278.806 414.636 274.813 396.413C270.592 398.048 266.319 399.541 262.098 400.877C250.714 404.462 239.523 406.904 228.822 408.134C228.297 427.517 228.612 447.321 229.768 467.02ZM379.44 472.011C369.23 455.44 359.282 438.763 349.824 422.403C330.647 434.985 310.821 445.336 290.891 453.173C296.25 471.66 302.292 490.392 308.842 508.878C332.714 499.495 356.462 487.106 379.44 472.011ZM486.291 463.787C472.736 449.659 459.023 435.442 445.502 421.525C425.711 440.609 404.31 457.812 381.875 472.679C392.12 489.197 402.768 505.891 413.539 522.269C439.18 505.294 463.646 485.63 486.291 463.787ZM444.188 420.172C430.755 406.324 417.252 392.477 404.047 379.016C387.602 394.867 369.825 409.171 351.191 421.507C360.665 437.85 370.648 454.509 380.876 471.062C403.189 456.283 424.486 439.168 444.188 420.172ZM316.548 220.616C315.883 225.185 314.569 229.894 312.625 234.657C329.789 235.834 347.67 237.89 365.797 240.772C369.72 231.335 372.365 221.987 373.678 212.972C354.36 214.571 335.271 217.102 316.548 220.634V220.616ZM348.896 420.769C339.404 404.303 330.297 387.943 321.802 372.093C306.968 381.81 291.626 389.824 276.214 395.886C280.242 414.091 285.006 432.754 290.348 451.363C310.138 443.578 329.824 433.298 348.879 420.787L348.896 420.769ZM402.733 377.681C389.546 364.255 376.515 351.041 363.958 338.388C351.226 350.654 337.477 361.707 323.063 371.249C331.593 387.1 340.735 403.46 350.245 419.873C368.739 407.607 386.393 393.426 402.733 377.681ZM275.829 394.041C291.083 388.031 306.25 380.106 320.944 370.476C312.38 354.45 304.306 338.687 296.933 323.592C286.827 330.199 276.372 335.647 265.881 339.794C268.456 357.402 271.818 375.642 275.846 394.059L275.829 394.041ZM362.662 337.088C349.947 324.295 337.6 311.959 325.953 300.396C317.266 308.743 307.897 316.282 298.071 322.801C305.48 337.879 313.589 353.624 322.188 369.615C336.444 360.161 350.052 349.213 362.662 337.088ZM265.601 337.931C275.916 333.837 286.197 328.477 296.127 321.958C288.684 306.67 281.819 291.803 275.724 277.745C270.645 281.031 265.426 283.755 260.154 285.846C261.187 302.54 263.009 320.042 265.583 337.914L265.601 337.931ZM324.692 299.148C312.8 287.357 301.399 276.146 290.786 265.813C286.425 269.995 281.713 273.773 276.792 277.06C282.922 291.1 289.822 305.931 297.283 321.185C306.933 314.771 316.145 307.355 324.692 299.148ZM260.049 283.983C265.11 281.945 270.137 279.309 275.023 276.128C269.156 262.527 263.937 249.488 259.436 237.24C258.911 252.089 259.103 267.781 260.049 283.966V283.983ZM276.092 275.425C280.82 272.245 285.339 268.607 289.56 264.601C279.192 254.496 269.384 245.06 260.347 236.467C264.883 248.715 270.172 261.789 276.092 275.443V275.425ZM258.298 238.083C252.711 254.145 247.824 271.015 243.779 288.376C247.281 287.937 250.907 287.129 254.62 285.969C256.021 285.53 257.439 285.02 258.841 284.475C257.93 268.414 257.772 252.844 258.298 238.083ZM290.453 263.722C294.569 259.68 298.299 255.357 301.557 250.824C287.528 245.025 273.99 239.964 261.187 235.729C270.26 244.304 280.085 253.705 290.453 263.739V263.722ZM303.203 251.509C299.84 256.218 295.97 260.735 291.679 264.934C302.38 275.302 313.816 286.479 325.673 298.2C334.097 289.993 341.681 281.154 348.283 271.911C332.784 264.372 317.617 257.519 303.203 251.526V251.509ZM258.946 286.32C257.597 286.83 256.249 287.304 254.917 287.726C250.959 288.974 247.054 289.835 243.323 290.274C239.19 308.321 235.88 327.177 233.481 346.331C240.609 345.488 248.07 343.871 255.653 341.481C258.525 340.585 261.415 339.548 264.287 338.441C261.748 320.57 259.961 303.05 258.946 286.32ZM242.483 288.517C246.493 271.348 251.362 254.654 256.879 238.751C247.054 254.461 237.894 270.997 229.663 287.972C233.603 288.798 237.894 288.991 242.483 288.517ZM262.133 234.85C274.883 239.067 288.351 244.058 302.292 249.787C305.497 245.183 308.159 240.473 310.226 235.729C293.675 234.621 277.528 234.34 262.133 234.85ZM312.117 235.852C310.016 240.772 307.266 245.675 303.938 250.454C318.387 256.429 333.572 263.247 349.089 270.751C355.674 261.35 361.103 251.702 365.237 242.037C347.11 239.138 329.246 237.047 312.1 235.834L312.117 235.852ZM349.93 272.702C343.239 282.103 335.516 291.1 326.951 299.447C338.703 311.063 351.085 323.364 363.748 336.051C376.183 323.943 387.409 310.887 397.129 297.215C381.104 288.412 365.219 280.17 349.93 272.702ZM264.55 340.286C261.73 341.376 258.858 342.377 256.038 343.273C248.245 345.734 240.574 347.403 233.253 348.247C230.941 367.137 229.47 386.643 228.875 406.236C239.418 405.024 250.434 402.616 261.66 399.067C265.881 397.731 270.172 396.22 274.41 394.586C270.417 376.17 267.107 357.912 264.55 340.286ZM232.132 346.489C234.566 327.317 237.912 308.462 242.062 290.397C240.486 290.555 238.927 290.626 237.404 290.626C234.391 290.626 231.519 290.327 228.804 289.747C220.223 307.618 212.464 326.316 205.774 345.294C213.83 347.069 222.692 347.473 232.132 346.489ZM228.454 287.691C236.616 270.909 245.653 254.567 255.39 239.015C242.343 253.038 229.943 267.869 218.506 283.157C221.361 285.231 224.689 286.76 228.454 287.691ZM310.751 234.534C312.643 229.947 313.939 225.396 314.622 221.003C301.119 223.586 287.808 226.679 274.761 230.299C274.691 230.316 274.62 230.334 274.55 230.351C273.815 230.562 273.062 230.773 272.326 230.984C272.309 230.984 272.256 231.002 272.221 231.019C271.38 231.265 270.522 231.494 269.682 231.74C267.44 232.39 265.233 233.04 263.009 233.725C278.298 233.216 294.306 233.479 310.734 234.551L310.751 234.534ZM367.11 242.353C362.925 252.194 357.408 262 350.735 271.559C366.06 278.993 381.945 287.217 397.987 295.985C407.725 282.103 415.746 267.834 421.841 253.547C403.381 249.031 384.975 245.271 367.11 242.353ZM398.758 298.112C388.95 311.924 377.619 325.121 365.044 337.351C377.654 349.986 390.719 363.166 403.907 376.556C420.055 360.864 434.608 343.924 447.201 326.175C430.931 316.299 414.643 306.863 398.758 298.112ZM227.438 406.395C228.069 386.783 229.558 367.278 231.887 348.387C228.542 348.721 225.284 348.897 222.097 348.897C216.142 348.897 210.468 348.299 205.126 347.104C198.593 365.819 192.971 385.132 188.4 404.567C200.327 407.238 213.462 407.853 227.438 406.359V406.395ZM204.495 345.013C211.221 326.017 218.997 307.337 227.614 289.466C223.743 288.482 220.31 286.9 217.351 284.739C205.266 301.029 194.04 318.145 183.987 335.612C189.819 339.97 196.719 343.133 204.513 345.013H204.495ZM217.561 282.437C228.997 267.184 241.362 252.405 254.41 238.417C239.173 249.699 224.601 261.771 211.028 274.353C212.622 277.516 214.829 280.24 217.561 282.437ZM314.779 219.808C315.217 215.133 315.392 212.691 314.552 207.647C297.143 214.993 280.085 223.287 263.762 232.337C280.365 227.311 297.406 223.129 314.762 219.808H314.779ZM375.605 212.796C374.309 221.969 371.629 231.476 367.653 241.071C385.535 243.953 403.942 247.696 422.436 252.177C428.268 238.206 432.174 224.359 434.066 211.004C414.468 210.687 394.94 211.267 375.605 212.814V212.796ZM423.68 253.987C417.55 268.431 409.441 282.859 399.616 296.882C415.501 305.598 431.824 315.017 448.129 324.875C460.791 306.863 471.195 288.341 479.076 269.784C460.581 263.81 441.964 258.503 423.697 253.987H423.68ZM448.812 327.159C436.15 345.031 421.473 362.094 405.22 377.892C418.373 391.247 431.894 405.059 445.432 418.977C464.907 400.051 482.474 379.614 497.64 358.228C481.405 347.473 464.977 337.035 448.795 327.177L448.812 327.159ZM499.217 359.265C483.962 380.774 466.308 401.316 446.745 420.33C460.249 434.212 473.979 448.393 487.588 462.539C509.97 440.802 530.146 417.307 547.59 392.723C531.687 381.283 515.417 370.037 499.217 359.265ZM227.368 408.31C222.394 408.837 217.508 409.101 212.762 409.101C204.058 409.101 195.756 408.222 187.962 406.465C183.514 425.672 179.994 445.301 177.542 464.841C193.024 468.338 210.065 469.129 228.227 467.196C227.106 447.497 226.808 427.71 227.368 408.31ZM187.052 404.286C191.658 384.868 197.297 365.538 203.847 346.841C195.949 344.925 188.943 341.709 183.006 337.299C173.181 354.485 164.301 372.321 156.613 390.333C165.247 396.835 175.475 401.527 187.052 404.303V404.286ZM182.936 334.821C193.024 317.371 204.268 300.291 216.37 284.018C213.55 281.751 211.256 278.957 209.574 275.724C195.196 289.167 181.693 303.419 169.433 318.127C172.69 324.734 177.226 330.34 182.936 334.839V334.821ZM210.503 273.229C224.163 260.611 238.84 248.521 254.164 237.222C237.982 244.761 222.447 253.073 207.963 262C208.156 266.112 209.014 269.89 210.503 273.229ZM314.307 206.435C313.448 202.709 311.96 199.388 309.858 196.541C294.008 207.12 278.544 218.701 263.814 231.037C280.05 222.022 297.003 213.763 314.307 206.435ZM435.975 211.021C434.066 224.517 430.125 238.505 424.258 252.616C442.542 257.097 461.177 262.386 479.671 268.326C487.255 250.191 492.334 232.196 494.768 214.87C475.223 212.708 455.572 211.408 435.975 211.039V211.021ZM480.88 270.364C472.946 289.044 462.473 307.689 449.74 325.841C465.958 335.682 482.403 346.085 498.639 356.822C513.911 335.085 526.468 312.732 535.96 290.38C517.764 283.087 499.252 276.357 480.897 270.382L480.88 270.364ZM537.712 291.065C528.167 313.54 515.557 336.016 500.215 357.841C516.45 368.596 532.72 379.807 548.64 391.229C566.207 366.259 580.621 340.567 591.514 314.858C573.948 306.388 555.856 298.375 537.712 291.065ZM549.148 393.83C531.652 418.52 511.389 442.085 488.936 463.91C502.562 478.074 516.275 492.395 529.691 506.506C554.508 482.396 576.89 456.371 596.19 429.098C580.901 417.184 565.086 405.323 549.148 393.83ZM482.719 621.238C513.333 600.977 542.528 577.5 569.552 551.44C556.609 537.645 543.194 523.429 529.638 509.16C504.488 533.428 477.272 555.288 448.777 574.161C460.021 590.223 471.44 606.055 482.719 621.221V621.238ZM228.349 469.112C221.869 469.797 215.512 470.148 209.312 470.148C198.068 470.148 187.367 469.006 177.297 466.739C174.915 486.122 173.531 505.715 173.163 524.993C191.833 529.228 212.412 530.194 234.339 527.857C231.537 508.422 229.505 488.67 228.332 469.094L228.349 469.112ZM176.106 464.507C178.593 444.984 182.13 425.356 186.614 406.149C174.95 403.354 164.617 398.627 155.86 392.09C148.346 409.874 141.849 428.114 136.56 446.337C147.768 454.807 161.061 460.923 176.106 464.507ZM155.509 389.454C163.233 371.478 172.13 353.676 181.973 336.49C176.176 331.939 171.535 326.281 168.172 319.621C156.21 334.083 145.211 349.231 135.474 364.659C140.29 374.465 147.033 382.794 155.509 389.454ZM168.837 316.844C181.132 302.189 194.653 287.972 209.031 274.582C207.438 271.138 206.509 267.272 206.247 263.054C191.027 272.526 176.666 282.823 163.566 293.701C163.899 302.206 165.685 309.991 168.855 316.844H168.837ZM288.614 185.787C279.174 199.476 270.242 214.237 262.028 229.754C274.007 215.169 286.705 201.321 299.84 188.546C296.495 187.035 292.73 186.103 288.614 185.787ZM263.236 230.053C277.931 217.734 293.325 206.171 309.123 195.593C306.933 192.904 304.201 190.725 300.996 189.091C287.878 201.796 275.216 215.555 263.236 230.053ZM496.677 215.081C494.225 232.548 489.111 250.648 481.493 268.906C499.865 274.863 518.412 281.558 536.591 288.816C545.751 266.92 551.863 245.235 554.788 224.306C535.628 220.388 516.205 217.295 496.677 215.081ZM593.23 315.702C582.284 341.499 567.8 367.295 550.182 392.354C566.137 403.829 581.969 415.673 597.276 427.57C616.734 399.893 632.724 371.407 644.808 342.904C628.188 333.398 610.849 324.242 593.23 315.702ZM646.437 343.853C634.318 372.427 618.293 400.982 598.765 428.729C614.177 440.749 629.274 453.015 643.652 465.193C664.616 435.39 681.815 404.725 694.828 374.043C679.451 363.64 663.18 353.483 646.437 343.853ZM643.968 467.987C623.126 497.404 598.992 525.485 572.214 551.475C585.332 565.427 598.257 579.257 610.639 592.612C638.679 565.375 663.968 535.958 685.791 505.153C672.585 492.87 658.522 480.376 643.968 467.987ZM553.264 709.699C586.19 687.927 617.592 662.675 646.63 634.646C635.158 622.082 622.986 608.85 610.464 595.336C582.092 622.714 551.39 647.386 519.235 668.667C530.724 683.041 542.16 696.836 553.247 709.682L553.264 709.699ZM384.256 672.867C417.007 660.021 449.565 643.028 481.072 622.328C469.794 607.145 458.41 591.312 447.183 575.233C417.83 594.51 387.497 610.343 357.005 622.328C365.692 639.707 374.852 656.7 384.256 672.867ZM171.64 524.641C172.025 505.382 173.444 485.806 175.86 466.405C160.729 462.82 147.331 456.705 136.017 448.218C130.85 466.282 126.769 484.611 123.915 502.693C137.435 512.938 153.495 520.318 171.64 524.641ZM135.369 445.406C140.693 427.218 147.208 408.995 154.756 391.247C146.175 384.569 139.327 376.222 134.405 366.399C124.913 381.617 116.471 397.362 109.343 413.195C115.578 425.953 124.335 436.778 135.369 445.406ZM134.808 363.236C144.563 347.86 155.58 332.783 167.559 318.373C164.284 311.449 162.41 303.594 161.955 295.036C149.222 305.721 137.435 317.125 126.962 328.969C127.452 341.586 130.097 353.097 134.808 363.254V363.236ZM255.408 234.463C241.677 232.618 228.612 231.546 216.562 231.3C213.883 236.01 211.799 240.737 210.345 245.411C224.444 241.018 239.593 237.328 255.408 234.463ZM256.371 233.462C245.81 227.048 235.933 221.407 227.001 216.697C223.288 220.985 220.03 225.484 217.28 230.105C229.417 230.404 242.553 231.546 256.371 233.479V233.462ZM227.859 215.731C236.808 220.511 246.704 226.204 257.282 232.688C250.854 222.25 245.145 212.585 240.293 203.922C235.827 207.489 231.659 211.461 227.859 215.713V215.731ZM258.123 231.933C256.546 218.402 255.671 205.627 255.565 193.923C250.662 196.489 245.863 199.582 241.274 203.149C246.073 211.795 251.73 221.46 258.123 231.933ZM259.156 231.107C262.729 215.696 267.054 201.04 271.993 187.509C270.82 187.808 269.647 188.124 268.456 188.493C264.568 189.723 260.644 191.322 256.774 193.273C256.826 204.906 257.632 217.629 259.138 231.107H259.156ZM321.767 144.245C310.541 156.353 299.788 169.778 289.77 184.135C293.991 184.522 297.861 185.523 301.294 187.14C315.235 173.697 329.894 161.185 344.921 149.956C338.073 146.776 330.297 144.843 321.785 144.245H321.767ZM496.817 213.938V213.974C516.363 216.188 535.785 219.281 554.928 223.199C557.73 202.34 557.275 182.747 553.579 164.946C534.524 164.05 515.049 164.19 495.696 165.368C498.271 181.939 499.444 189.899 496.8 213.938H496.817ZM614.93 239.647C611.55 263.792 604.474 288.833 593.913 314.085C611.532 322.608 628.871 331.728 645.509 341.217C657.173 313.312 664.984 285.653 668.68 258.977C651.306 251.755 633.337 245.306 614.93 239.647ZM696.386 375.098C683.356 405.832 666.105 436.549 645.089 466.405C659.643 478.759 673.706 491.236 686.929 503.536C708.926 472.257 726.983 440.081 740.626 407.871C726.79 396.694 711.921 385.676 696.369 375.098H696.386ZM742.097 409.048C728.419 441.276 710.327 473.487 688.313 504.802C701.728 517.313 714.478 529.808 726.265 542.003C748.805 509.95 767.299 476.984 781.275 443.983C769.296 432.191 756.126 420.435 742.115 409.048H742.097ZM726.352 544.938C703.97 576.516 678.067 606.67 649.309 634.576C655.106 640.92 660.798 647.176 666.35 653.308C671.885 659.424 677.174 665.293 682.253 670.969C711.01 643.046 736.913 612.891 759.278 581.313C754.322 575.444 749.015 569.381 743.516 563.301C738.052 557.274 732.29 551.088 726.37 544.92L726.352 544.938ZM618.205 778.039C650.378 756.759 681.062 732.087 709.452 704.709C701.168 695.237 691.92 684.799 681.955 673.675C652.917 701.704 621.515 726.956 588.589 748.728C598.887 759.518 608.853 769.376 618.205 778.039ZM447.464 765.159C482.666 751.364 517.694 733.071 551.583 710.824C540.497 697.961 529.06 684.166 517.589 669.792C484.488 691.547 450.266 709.418 415.869 722.931C426.167 737.903 436.78 752.102 447.464 765.176V765.159ZM284.656 698.488C307.301 695.94 330.997 690.791 355.096 683.182C364.168 680.318 373.363 677.084 382.453 673.552C373.065 657.385 363.923 640.375 355.271 622.996C346.76 626.299 338.143 629.322 329.649 632.01C307.266 639.075 285.251 643.854 264.2 646.262C270.295 664.274 277.177 681.847 284.656 698.488ZM171.622 526.557C153.39 522.251 137.26 514.888 123.617 504.661C120.85 522.691 119.239 540.773 118.818 558.416C134.353 570.207 152.795 578.695 173.671 583.65C171.99 564.953 171.289 545.746 171.622 526.539V526.557ZM122.619 501.674C125.526 483.609 129.624 465.316 134.808 447.286C123.687 438.676 114.825 427.868 108.468 415.146C101.515 430.838 95.7 446.847 91.2165 462.803C98.7299 478.197 109.291 491.271 122.619 501.674ZM108.59 411.561C115.753 395.781 124.212 380.123 133.722 364.993C128.889 354.836 126.121 343.291 125.491 330.674C115.315 342.342 106.191 354.59 98.3972 367.102C99.0101 383.48 102.443 398.417 108.59 411.579V411.561ZM208.454 246.009C209.907 241.141 212.026 236.185 214.793 231.283C202.499 231.125 191.045 231.81 180.712 233.339C175.195 242.933 170.939 252.634 168.049 262.175C180.449 256.043 194.04 250.613 208.454 246.009ZM215.494 230.053C218.331 225.203 221.729 220.458 225.617 215.959C216.632 211.267 208.471 207.454 201.325 204.607C193.724 213.323 187.087 222.496 181.552 231.898C191.868 230.457 203.252 229.824 215.477 230.053H215.494ZM240.539 201.796C245.355 198.053 250.399 194.819 255.565 192.166C255.53 180.427 256.266 169.603 257.72 159.92C247.737 165.086 237.964 171.395 228.682 178.688C231.782 185.365 235.757 193.132 240.556 201.813L240.539 201.796ZM259.156 159.164C257.597 168.847 256.809 179.742 256.774 191.533C260.574 189.653 264.445 188.089 268.263 186.876C269.734 186.42 271.205 185.998 272.659 185.646C277.79 171.887 283.658 159.041 290.138 147.426C287.598 148.058 285.024 148.779 282.432 149.587C274.673 152.03 266.844 155.246 259.138 159.147L259.156 159.164ZM495.434 163.927C514.769 162.714 534.209 162.556 553.264 163.417C549.323 145.44 542.09 129.466 531.74 115.953C513.858 117.552 495.661 120.364 477.622 124.3C486.169 135.617 492.159 148.937 495.416 163.927H495.434ZM615.088 238.505V238.523C633.477 244.181 651.446 250.63 668.837 257.835C672.41 231.248 671.832 206.277 667.103 183.608C649.922 178.529 631.936 174.4 613.616 171.325C617.837 191.867 618.345 214.448 615.088 238.487V238.505ZM722.184 284.704C718.156 313.47 709.732 343.273 697.139 373.358C712.674 383.919 727.561 394.92 741.397 406.078C754.585 374.553 763.376 343.309 767.545 313.189C753.271 302.997 738.104 293.49 722.184 284.721V284.704ZM782.589 445.301C768.578 478.302 750.066 511.268 727.508 543.303C733.498 549.524 739.313 555.762 744.829 561.843C750.276 567.87 755.513 573.845 760.434 579.661C782.974 547.591 801.486 514.625 815.445 481.623C810.576 475.543 805.304 469.358 799.787 463.26C794.358 457.25 788.561 451.205 782.589 445.283V445.301ZM806.11 647.738C785.321 677.049 761.257 705.042 734.566 730.945C740.679 738.22 745.985 744.722 750.364 750.275C775.251 726.095 797.686 699.982 817.056 672.621C814.517 664.959 810.821 656.595 806.11 647.738ZM514.804 832.198C549.201 818.72 583.405 800.884 616.506 779.147C607.136 770.466 597.171 760.607 586.89 749.835C553.036 772.1 518.026 790.375 482.841 804.205C493.542 814.749 504.296 824.168 514.804 832.198ZM340.437 792.66C364.799 789.919 390.299 784.383 416.237 776.212C425.957 773.137 435.817 769.675 445.572 765.897C434.906 752.823 424.293 738.624 414.03 723.652C404.397 727.395 394.642 730.822 385.027 733.862C359.825 741.805 335.025 747.199 311.329 749.906C320.419 765.141 330.209 779.533 340.437 792.677V792.66ZM198.891 694.71C224.496 700.561 252.728 701.897 282.799 698.681C275.339 682.022 268.491 664.467 262.413 646.455C252.395 647.527 242.588 648.072 233.025 648.072C215.897 648.072 199.592 646.332 184.267 642.87C188.155 660.742 193.059 678.174 198.891 694.692V694.71ZM117.382 557.291C117.855 539.683 119.501 521.636 122.303 503.659C108.923 493.309 98.257 480.34 90.6035 465.052C86.2601 480.885 83.1427 496.894 81.3388 512.639C89.9555 530.335 102.093 545.342 117.382 557.309V557.291ZM90.3408 460.888C94.8769 445.037 100.709 429.116 107.679 413.547C101.427 400.455 97.8542 385.588 97.0486 369.299C89.5352 381.652 83.1602 394.428 78.0987 407.344C78.8343 427.06 82.9675 445.055 90.3408 460.888ZM166.175 263.089C169.048 253.336 173.321 243.443 178.89 233.62C168.995 235.219 159.993 237.609 152.129 240.772C144.003 254.9 137.733 269.169 133.477 283.228C143.267 275.882 154.249 269.099 166.175 263.089ZM179.731 232.161C185.353 222.479 192.148 213.025 199.942 204.063C193.164 201.427 187.244 199.669 182.306 198.808C171.114 211.601 161.359 225.097 153.233 238.927C161.079 235.922 169.976 233.655 179.731 232.161ZM228.069 177.37C237.649 169.884 247.702 163.435 257.982 158.163C259.471 149.025 261.678 140.818 264.532 133.719C249.856 141.328 235.495 150.589 221.834 161.308C223.095 165.666 225.179 171.061 228.069 177.37ZM266.389 132.735C263.377 139.834 261.047 148.129 259.454 157.407C267.019 153.629 274.708 150.483 282.326 148.076C285.286 147.145 288.246 146.319 291.153 145.616C297.493 134.492 304.481 124.37 311.977 115.479C308.212 116.428 304.394 117.482 300.593 118.677C289.209 122.262 277.703 127.006 266.389 132.735ZM476.676 123.07C494.663 119.099 512.825 116.252 530.671 114.618C520.321 101.543 507.185 90.9999 491.581 83.3382C475.888 86.554 460.021 91.0877 444.416 96.8164C457.289 103.318 468.147 112.14 476.694 123.07H476.676ZM613.266 169.69C631.55 172.73 649.52 176.842 666.701 181.868C661.674 158.971 652.444 138.639 639.239 121.453C622.951 118.115 605.963 115.953 588.729 114.969C600.534 130.591 608.783 149.007 613.249 169.69H613.266ZM722.342 283.491C738.262 292.26 753.429 301.749 767.702 311.924C771.73 281.91 771.065 253.741 765.706 228.155C751.695 219.087 736.545 210.828 720.66 203.571C725.669 228.014 726.23 254.9 722.359 283.491H722.342ZM810.278 348.37C805.935 379.21 796.88 411.192 783.377 443.438C789.489 449.483 795.392 455.651 800.926 461.766C806.32 467.723 811.452 473.751 816.233 479.69C830.069 443.543 835.883 428.15 842.976 384.569C838.125 378.278 832.923 372.022 827.337 365.854C821.925 359.862 816.233 354.028 810.278 348.352V348.37ZM858.353 555.393C845.341 585.917 828.177 616.423 807.301 646.068C812.012 654.872 815.69 663.202 818.282 670.881C837.705 643.204 853.677 614.719 865.709 586.233C864.501 576.305 862.031 565.937 858.336 555.393H858.353ZM817.581 674.255C798.299 701.422 775.986 727.36 751.239 751.382C755.373 756.636 758.683 761.099 761.152 764.667C783.64 742.824 803.903 719.224 821.382 694.516C821.172 688.436 819.893 681.636 817.581 674.273V674.255ZM410.229 859.05C434.048 856.378 459.005 850.966 484.365 842.971C493.787 840.001 503.35 836.627 512.79 832.989C502.282 824.923 491.563 815.522 480.88 804.978C470.984 808.827 460.967 812.341 451.106 815.452C425.414 823.553 400.141 829.053 375.99 831.847C387.076 842.215 398.583 851.37 410.229 859.05ZM248.297 788.565C275.794 794.874 306.093 796.315 338.405 792.888C328.212 779.744 318.44 765.369 309.385 750.116C298.036 751.346 286.933 751.962 276.127 751.962C256.914 751.962 238.612 750.011 221.396 746.163C229.435 761.257 238.472 775.527 248.297 788.565ZM131.673 664.133C150.185 678.209 172.165 688.348 197.052 694.27C191.273 677.752 186.386 660.338 182.551 642.484C159.415 637.054 138.941 627.723 121.638 614.789C123.792 631.729 127.172 648.318 131.673 664.133ZM80.2529 510.284C82.1444 494.68 85.3144 478.847 89.6753 463.19C82.1969 447.585 77.9061 429.872 76.9078 410.507C72.1616 423.159 68.6063 436.11 66.312 449.008C67.1351 471.554 71.8463 492.149 80.2529 510.284ZM131.568 284.669C135.754 270.435 141.989 255.972 150.133 241.633C142.759 244.814 136.297 248.715 130.973 253.266C120.535 271.401 112.478 289.694 106.961 307.724C114.089 299.517 122.338 291.768 131.568 284.669ZM151.219 239.7C159.433 225.519 169.38 211.689 180.799 198.562C176.316 197.93 172.673 198.088 169.976 199.054C155.72 215.344 143.25 232.513 132.847 250.103C138.101 246.044 144.266 242.547 151.236 239.7H151.219ZM220.573 151.046C220.135 153.067 220.433 156.072 221.449 159.955C235.477 148.99 250.206 139.518 265.286 131.804C267.948 125.601 271.188 120.223 274.918 115.76C256.231 125.513 237.947 137.357 220.556 151.028L220.573 151.046ZM278.141 114.09C273.92 118.571 270.259 124.195 267.23 130.837C278.246 125.319 289.437 120.768 300.523 117.271C304.884 115.9 309.263 114.688 313.536 113.651C320.717 105.357 328.458 98.0465 336.549 91.8961C331.873 93.0734 327.144 94.3914 322.415 95.8851C307.669 100.542 292.782 106.657 278.123 114.108L278.141 114.09ZM398.6 84.5331C414.853 85.8335 429.687 89.6819 442.735 95.9729C458.217 90.2267 473.944 85.6578 489.532 82.3717C473.734 74.956 455.783 70.5101 436.097 69.1746C423.452 73.023 410.86 78.1894 398.6 84.5331ZM587.573 113.44C604.719 114.354 621.62 116.463 637.855 119.714C624.703 103.143 608.012 89.7874 588.186 80.0697C573.65 77.9258 558.641 77.0296 543.491 77.381C561.075 86.3255 575.909 98.4507 587.591 113.44H587.573ZM720.258 201.638C736.108 208.825 751.222 217.014 765.233 226.011C759.541 200.232 749.12 177.352 734.234 158.005C720.818 149.868 706.404 142.769 691.395 136.847C705.283 155.369 714.986 177.159 720.258 201.638ZM810.471 346.999C816.355 352.622 822.012 358.368 827.389 364.255C827.652 364.536 827.915 364.835 828.16 365.116C833.484 371.003 838.475 376.96 843.134 382.97C846.234 350.039 847.565 334.434 841.05 297.497C836.199 291.012 830.909 284.598 825.34 278.448C820.121 272.684 814.552 267.043 808.772 261.648C814.044 287.779 814.622 316.475 810.453 346.999H810.471ZM844.535 384.78C853.747 396.853 861.611 409.118 868.109 421.56C871.997 391.827 871.279 363.904 865.954 338.546C859.649 325.297 851.926 312.416 843.011 300.185C848.143 326.105 848.651 354.555 844.535 384.798V384.78ZM884.186 466.089V466.247L884.151 466.212C880.018 494.434 871.664 523.675 859.299 553.144C862.995 563.477 865.517 573.669 866.83 583.475C878.249 555.868 885.92 528.507 889.528 502.131V502.078C889.528 502.078 889.528 502.025 889.545 501.99C889.02 490.005 887.216 478.021 884.169 466.071L884.186 466.089ZM865.341 616.423C866.725 607.655 866.935 598.411 865.989 588.905C853.922 617.056 838.073 645.172 818.825 672.515C821.137 679.72 822.468 686.415 822.818 692.46C840.209 667.595 854.535 642.027 865.341 616.441V616.423ZM760.574 767.021C738.087 788.688 713.813 808.247 688.348 825.152C693.076 826.224 697.227 826.312 700.695 825.415C723.252 810.514 744.759 793.222 764.655 774.033C764.077 772.504 762.693 770.167 760.574 767.021ZM684.845 825.925C679.731 824.466 674.004 821.989 667.751 818.527C638.714 837.611 608.73 853.321 578.554 865.253C587.258 867.397 595.752 868.381 603.756 868.152C631.165 857.433 658.452 843.217 684.845 825.925ZM483.559 888.484C504.716 886.111 526.888 881.314 549.429 874.215C557.537 871.667 565.751 868.767 573.878 865.639C564.911 863.126 555.576 859.383 546.118 854.481C536.889 858.065 527.536 861.369 518.324 864.269C494.803 871.684 471.685 876.763 449.53 879.399C460.791 883.686 472.228 886.762 483.577 888.484H483.559ZM320.244 855.008C346.97 861.141 376.41 862.582 407.795 859.313C396.236 851.581 384.799 842.443 373.818 832.111C362.172 833.376 350.77 834.008 339.666 834.008C320.314 834.008 301.872 832.075 284.516 828.262C295.812 838.419 307.826 847.434 320.279 855.025L320.244 855.008ZM176.088 755.652C195.879 770.729 219.4 781.607 246.003 788.003C236.283 774.964 227.316 760.748 219.365 745.688C193.549 739.643 170.659 729.293 151.271 714.953C158.417 729.328 166.753 743.017 176.088 755.652ZM87.0833 609.535C97.2938 630.552 111.655 648.406 129.782 662.657C125.386 646.894 122.093 630.394 120.009 613.559C103.231 600.626 89.8329 584.423 80.1303 565.357C81.2162 580.399 83.528 595.248 87.0833 609.535ZM79.9202 513.061C71.6187 495.752 66.7323 476.158 65.3837 454.772C64.1227 463.295 63.4047 471.853 63.2296 480.411C63.3697 489.057 63.8075 497.509 64.403 506.612C66.4871 525.467 71.1983 542.934 78.4315 558.715C77.7134 543.743 78.2038 528.402 79.9202 513.061ZM65.086 448.956C64.981 445.81 64.9634 442.629 64.9984 439.414C64.3855 446.144 63.9126 452.611 63.5798 459.148C64.0002 455.739 64.5081 452.347 65.086 448.956ZM68.1684 412.44C66.8023 422.913 66.1368 433.193 66.1894 443.086C68.6413 431.031 72.1791 418.994 76.7502 407.238C76.3999 396.747 77.0129 385.712 78.5541 374.43C79.7801 365.468 81.6365 356.295 84.0184 347.069C82.6348 350.496 81.3913 353.975 80.3055 357.472C76.6276 371.425 74.3333 380.159 72.6169 387.662C71.3734 393.9 70.0599 401.386 68.1509 412.457L68.1684 412.44ZM101.41 301.521C96.6633 312.1 92.6001 322.661 89.2725 333.134C93.5984 325.156 98.8 317.459 104.825 310.202C110.079 292.278 117.89 274.072 128.013 255.99C124.878 259.048 122.181 262.386 119.922 265.971C115.561 273.756 112.583 279.08 110.289 283.333C108.135 287.638 105.438 293.209 101.41 301.521ZM146.07 226.362C140.22 234.604 136.437 239.928 133.635 243.988C131.568 247.186 128.976 251.263 125.368 256.974C126.857 255.357 128.416 253.793 130.097 252.335C139.642 235.834 151.043 219.685 163.986 204.256C161.92 206.628 160.221 208.596 158.785 210.301C155.895 213.903 152.042 218.806 146.07 226.38V226.362ZM230.468 142.101C231.204 141.574 231.922 141.029 232.658 140.502C232.185 140.836 231.747 141.135 231.256 141.486C230.976 141.697 230.731 141.89 230.468 142.101ZM248.192 129.625C245.408 131.54 241.957 133.965 237.334 137.216C250.311 128.201 263.657 120.135 277.212 113.212C278.141 112.245 279.086 111.349 280.067 110.488C276.372 112.544 271.836 115.074 265.951 118.378C257.562 123.668 252.185 127.059 248.21 129.625H248.192ZM288.088 106.2C285.584 107.659 283.202 109.346 280.978 111.331C294.709 104.548 308.632 98.9076 322.398 94.5671C328.055 92.7747 333.729 91.2107 339.264 89.8752C346.006 85.0252 353.064 80.9131 360.333 77.5919C356.059 78.7341 351.768 79.9818 347.478 81.3349C347.057 81.4755 346.619 81.6161 346.199 81.7566C338.616 84.3925 333.274 86.2728 329.036 87.8192C323.641 89.9982 316.723 92.9153 305.917 97.4666C297.949 101.368 292.379 104.092 288.106 106.218L288.088 106.2ZM380.859 71.6699C380.649 71.7226 380.438 71.7753 380.228 71.8281C399.739 68.0851 418.461 66.732 436.027 67.8566C446.886 64.5881 457.919 62.2685 468.935 60.8803C464.329 60.7397 459.636 60.7573 454.889 60.8979C449.495 61.1614 445.099 61.425 441.124 61.7238C433.242 62.5321 424.03 63.7798 409.038 65.8182C395.658 68.5244 387.356 70.1938 380.859 71.6523V71.6699ZM510.846 61.425C505.417 61.0384 499.83 60.7748 492.999 60.564C490.232 60.564 487.465 60.6167 484.698 60.7397C505.294 62.866 524.191 68.0148 540.917 76.1158C555.541 75.6589 570.095 76.3794 584.228 78.2597C571.268 72.3377 557.117 67.9621 542.003 65.1856C528.202 63.3405 519.182 62.1631 510.828 61.425H510.846ZM595.735 77.381C585.437 74.2707 576.68 72.1444 565.173 69.6491C573.37 72.1971 581.233 75.2547 588.659 78.8571C600.394 80.632 611.953 83.2152 623.179 86.6067C611.848 82.6528 603.528 79.7885 595.717 77.381H595.735ZM661.849 103.599C657.506 101.473 652.777 99.259 647.4 96.8164C646.367 96.3947 645.334 95.9729 644.318 95.5512C662.182 105.761 677.454 118.87 689.749 134.686C704.478 140.379 718.629 147.232 731.869 155.052C722.727 143.736 712.044 133.737 699.994 125.231C684.302 115.479 673.899 109.521 661.849 103.599ZM738.875 153.401C736.896 151.801 734.829 150.167 732.622 148.445C726.703 143.841 719.995 138.78 711.763 132.63C711.483 132.454 711.221 132.278 710.94 132.102C719.942 139.536 728.069 147.848 735.197 157.038C747.544 164.559 759.243 173.082 770.084 182.395C768.525 180.55 766.932 178.74 765.303 176.983C755.688 167.617 748.034 160.799 738.892 153.418L738.875 153.401ZM775.338 186.964C775.426 187.07 775.513 187.175 775.584 187.263C775.811 187.474 776.039 187.685 776.267 187.896C775.951 187.579 775.636 187.263 775.338 186.947V186.964ZM806.793 223.463C802.712 218.209 798.211 212.726 792.764 206.154C788.544 201.497 784.113 196.963 779.559 192.605C793.272 211.83 802.922 234.182 808.282 259.135C814.499 264.882 820.471 270.909 826.058 277.077C831.032 282.577 835.761 288.271 840.192 294.07C833.414 269.169 829.789 257.079 813.798 232.829C811.609 229.807 809.332 226.731 806.811 223.463H806.793ZM838.878 271.7C834.22 264.144 830.366 257.888 826.829 252.282C833.712 266.006 838.913 280.926 842.346 296.917C850.735 308.198 858.108 320.078 864.291 332.308C861.716 322.819 860.175 317.319 858.826 313.189C858.143 311.291 857.408 309.446 856.655 307.601C852.206 297.725 847.022 287.603 838.878 271.7ZM873.012 350.566C869.457 340.62 866.672 332.835 864.133 326.052C865.254 330.006 866.252 334.03 867.128 338.125C869.632 343.432 871.927 348.826 874.028 354.309C873.695 353.097 873.363 351.867 873.012 350.584V350.566ZM890.351 436.989C890.351 436.989 890.351 436.989 890.351 436.971C888.827 425.215 887.671 416.27 886.393 408.117C887.794 425.549 887.199 443.983 884.589 463.19C887.531 474.085 889.458 485.015 890.316 495.963C891.104 489.127 891.595 482.361 891.822 475.754C891.752 462.557 891.069 450.168 890.351 436.989ZM891.069 499.618C890.947 500.602 890.824 501.568 890.701 502.552C890.719 503.115 890.754 503.677 890.771 504.239C890.876 502.711 890.964 501.147 891.069 499.618ZM889.405 519.984C889.633 516.47 889.738 512.938 889.738 509.423C889.738 509.212 889.738 509.002 889.738 508.808C885.727 533.972 878.179 559.962 867.198 586.163C868.196 594.95 868.231 603.543 867.285 611.749C873.923 595.389 879.107 579.081 882.733 563.108C884.169 555.815 885.727 546.748 888.197 532.373C888.617 528.191 889.038 524.079 889.44 520.002L889.405 519.984ZM872.487 601.574C870.666 606.547 868.704 611.538 866.62 616.529C866.322 618.374 865.972 620.201 865.552 622.011C865.604 621.888 865.657 621.748 865.709 621.625C867.443 616.722 869.492 610.589 872.487 601.592V601.574ZM861.401 632.309C862.574 628.882 863.555 625.368 864.326 621.801C853.572 646.297 839.666 670.758 822.906 694.552C822.993 699.243 822.45 703.584 821.277 707.485C826.566 699.788 831.557 692.004 836.181 684.149C839.999 677.33 842.696 672.48 844.815 668.562C847.267 663.676 850.42 657.122 855.411 646.807C857.793 641.043 859.737 636.333 861.383 632.327L861.401 632.309ZM783.325 756.618C783.027 756.935 782.747 757.251 782.466 757.55C782.642 757.374 782.799 757.198 782.974 757.005C783.097 756.864 783.202 756.741 783.325 756.601V756.618ZM769.173 771.362C770.154 770.36 771.24 769.236 772.449 767.988C770.452 769.991 768.455 771.994 766.424 773.963C766.424 773.963 766.424 773.98 766.424 773.998C767.422 773.031 768.35 772.153 769.173 771.362ZM754.777 785.069C759.016 781.044 762.326 777.899 765.005 775.351C765.005 775.351 765.005 775.333 765.005 775.316C756.003 783.979 746.668 792.256 737.053 800.093C737.999 799.338 738.875 798.652 739.68 798.02C743.131 795.103 747.719 791.149 754.777 785.069ZM601.812 872.616C601.812 872.616 601.847 872.616 601.865 872.616C606.418 871.034 610.306 869.681 613.669 868.504C610.394 869.048 607.066 869.4 603.669 869.523C595.892 872.545 587.994 875.322 580.2 877.782C574.911 879.451 569.639 880.98 564.403 882.351C568.221 881.56 571.408 880.875 574.263 880.242C580.761 878.555 588.869 876.288 601.795 872.633L601.812 872.616ZM497.15 891.137C492.561 890.874 487.973 890.417 483.384 889.749C475.766 890.575 468.252 891.102 460.862 891.295C466.659 891.489 473.314 891.647 481.563 891.84C487.605 891.577 492.684 891.348 497.132 891.137H497.15ZM407.707 885.988C419.319 887.552 427.778 888.677 434.959 889.503C448.935 890.557 463.559 890.382 478.62 888.958C467.867 887.025 457.061 883.932 446.43 879.75C435.537 880.928 424.888 881.525 414.52 881.525C399.336 881.525 384.747 880.225 370.841 877.694C371.174 877.8 371.506 877.905 371.839 877.993C381.945 880.611 392.313 882.773 407.69 885.988H407.707ZM293.027 848.172C297.704 850.474 302.818 852.864 308.72 855.535C313.939 857.89 319.718 860.438 326.409 863.355C335.691 866.606 343.047 869.171 349.544 871.333C339.316 867.08 329.333 862.019 319.718 856.203C307.143 852.583 299.087 850.281 291.889 847.592C292.274 847.785 292.642 847.979 293.027 848.154V848.172ZM243.341 819.265C246.966 821.549 250.294 823.658 253.411 825.591C260.294 829.879 266.144 833.446 271.538 836.592C290.47 846.397 293.833 847.662 315.865 853.813C303.956 846.274 292.449 837.488 281.643 827.594C259.629 822.446 239.698 814.257 222.184 803.186C228.174 807.86 234.969 812.974 243.341 819.247V819.265ZM170.431 755.441C174.057 759.149 177.349 762.488 180.397 765.58C184.95 770.167 188.996 774.156 192.761 777.793C192.253 777.231 191.71 776.686 191.202 776.124C185.598 769.938 180.221 763.384 175.212 756.653C170.519 753.051 166.053 749.203 161.797 745.126C164.406 748.254 167.244 751.663 170.414 755.459L170.431 755.441ZM119.449 685.8C130.307 702.828 136.752 712.95 143.863 722.721C146.21 725.849 148.662 728.994 151.376 732.386C157.734 739.784 164.774 746.584 172.41 752.752C163.548 740.381 155.632 727.079 148.837 713.126C135.789 703.074 124.545 691.283 115.245 677.875C116.559 680.353 117.96 682.971 119.449 685.783V685.8ZM84.1059 607.532C85.6296 611.608 87.0307 615.316 88.3268 618.761C87.4861 615.879 86.6805 612.962 85.9449 610.044C84.8591 607.76 83.8082 605.44 82.8099 603.086C83.2303 604.527 83.6506 606.003 84.0884 607.532H84.1059ZM65.4538 521.689C68.869 545.043 70.6729 557.291 74.7886 574.073C75.962 578.783 77.2756 583.633 78.8168 589.098C80.4981 594.176 82.3896 599.114 84.4912 603.894C81.4614 590.381 79.4823 576.41 78.6066 562.299C72.5819 549.753 68.1859 536.099 65.4363 521.531C65.4363 521.584 65.4363 521.636 65.4363 521.689H65.4538Z" fill="white" fill-opacity="0.6"/>
<path d="M496.441 450.482L488.92 459.091C488.731 459.296 488.454 459.421 488.169 459.377L478.456 457.83C479.613 456.46 480.599 455.041 480.818 454.217L476.293 450.312C474.877 450.935 471.744 454.357 470.451 456.519L443.135 452.166L440.44 455.259L469.128 469.13C470.197 469.646 471.216 470.304 472.127 471.107L475.33 473.861C475.564 474.048 475.58 474.412 475.364 474.646L469.461 481.417C466.955 484.306 464.874 487.204 463.263 489.857L448.526 491.196L446.289 493.764L459.133 498.377C458.609 500.001 458.486 501.073 458.78 501.341C459.073 501.581 460.108 501.312 461.66 500.571L468.089 512.539L470.326 509.971L469.523 495.289C471.954 493.302 474.536 490.859 477.042 487.971L482.945 481.2C483.133 480.967 483.5 480.951 483.735 481.166L486.938 483.92C487.848 484.695 488.65 485.588 489.316 486.598L507.251 512.814L509.946 509.72L501.657 483.509C503.626 481.936 506.584 478.382 507.028 476.874L502.504 472.969C501.726 473.311 500.448 474.49 499.26 475.805L496.312 466.496C496.215 466.219 496.288 465.935 496.476 465.702L503.996 457.092C509.519 450.703 511.555 443.482 510.203 442.304C508.851 441.127 501.939 444.178 496.441 450.482Z" fill="white"/>
<path d="M548.494 350C541.599 350 536 355.517 536 362.311C536 372.285 548.494 384.989 548.494 384.989C548.494 384.989 560.989 372.285 560.989 362.311C561 355.517 555.401 350 548.494 350ZM548.494 367.981C545.324 367.981 542.741 365.446 542.741 362.311C542.741 359.176 545.313 356.642 548.494 356.642C551.676 356.642 554.248 359.176 554.248 362.311C554.248 365.446 551.676 367.981 548.494 367.981Z" fill="white"/>
<path d="M117.5 608.5C193 643 322 609 396 556C468.5 504.074 468.5 486.5 491 460" stroke="url(#paint0_linear_479_594)" stroke-width="4" stroke-linecap="round"/>
<path d="M116.5 546C104.634 546 95 555.46 95 567.111C95 584.214 116.5 606 116.5 606C116.5 606 138 584.214 138 567.111C138.019 555.46 128.385 546 116.5 546ZM116.5 576.834C111.044 576.834 106.599 572.488 106.599 567.111C106.599 561.735 111.025 557.389 116.5 557.389C121.975 557.389 126.401 561.735 126.401 567.111C126.401 572.488 121.975 576.834 116.5 576.834Z" fill="#B1FE4C"/>
<defs>
<filter id="filter0_d_479_594" x="0" y="0" width="954" height="955" filterUnits="userSpaceOnUse" color-interpolation-filters="sRGB">
<feFlood flood-opacity="0" result="BackgroundImageFix"/>
<feColorMatrix in="SourceAlpha" type="matrix" values="0 0 0 0 0 0 0 0 0 0 0 0 0 0 0 0 0 0 127 0" result="hardAlpha"/>
<feOffset/>
<feGaussianBlur stdDeviation="30"/>
<feComposite in2="hardAlpha" operator="out"/>
<feColorMatrix type="matrix" values="0 0 0 0 0 0 0 0 0 0.303738 0 0 0 0 1 0 0 0 0.5 0"/>
<feBlend mode="normal" in2="BackgroundImageFix" result="effect1_dropShadow_479_594"/>
<feBlend mode="normal" in="SourceGraphic" in2="effect1_dropShadow_479_594" result="shape"/>
</filter>
<linearGradient id="paint0_linear_479_594" x1="310.5" y1="534.5" x2="461.5" y2="455" gradientUnits="userSpaceOnUse">
<stop stop-color="#B1FE4C"/>
<stop offset="1" stop-color="#B1FE4C" stop-opacity="0"/>
</linearGradient>
</defs>
</svg>
