<svg width="50" height="50" viewBox="0 0 50 50" fill="none" xmlns="http://www.w3.org/2000/svg">
<path d="M48.875 23.0938V27.7812C48.8743 28.4026 48.6272 28.9984 48.1878 29.4378C47.7484 29.8772 47.1526 30.1243 46.5312 30.125H43.1907C42.7715 31.7187 42.1372 33.248 41.3055 34.6706L43.6702 37.0422C44.1065 37.482 44.3513 38.0765 44.3511 38.696C44.351 39.3155 44.1059 39.9099 43.6694 40.3495L40.3491 43.6695C39.9038 44.0955 39.3113 44.3332 38.6951 44.3332C38.0788 44.3332 37.4863 44.0955 37.041 43.6695L34.6706 41.3055C33.248 42.1372 31.7187 42.7715 30.125 43.1907V46.5312C30.1243 47.1526 29.8772 47.7484 29.4378 48.1878C28.9984 48.6272 28.4026 48.8743 27.7812 48.875H23.0938C22.4724 48.8743 21.8766 48.6272 21.4372 48.1878C20.9978 47.7484 20.7507 47.1526 20.75 46.5312V43.1907C19.782 42.9344 18.8365 42.5995 17.9229 42.1894C17.8084 42.1367 17.7081 42.0573 17.6307 41.9578C17.5532 41.8584 17.5008 41.7417 17.4779 41.6177C17.455 41.4938 17.4622 41.3661 17.499 41.2455C17.5357 41.1249 17.6009 41.0149 17.6891 40.9248L21.0094 37.5965C21.1092 37.4966 21.2342 37.4257 21.371 37.3911C21.5079 37.3565 21.6516 37.3596 21.7868 37.4C22.9711 37.7557 24.2009 37.9368 25.4375 37.9375C27.9098 37.9375 30.3265 37.2044 32.3821 35.8309C34.4377 34.4574 36.0399 32.5051 36.986 30.221C37.9321 27.937 38.1796 25.4236 37.6973 22.9989C37.215 20.5741 36.0245 18.3468 34.2763 16.5987C32.5282 14.8505 30.3009 13.66 27.8761 13.1777C25.4514 12.6954 22.938 12.9429 20.654 13.889C18.3699 14.8351 16.4176 16.4373 15.0441 18.4929C13.6706 20.5485 12.9375 22.9652 12.9375 25.4375C12.9386 26.6716 13.1197 27.899 13.475 29.0809C13.5155 29.216 13.5186 29.3594 13.4841 29.4961C13.4496 29.6328 13.3787 29.7576 13.2789 29.8572L9.95059 33.1852C9.86058 33.2736 9.75059 33.3391 9.62992 33.3761C9.50925 33.413 9.38146 33.4204 9.25734 33.3975C9.13322 33.3747 9.01644 33.3222 8.91686 33.2447C8.81729 33.1672 8.73784 33.0668 8.68526 32.9521C8.27552 32.0384 7.94076 31.0929 7.68428 30.125H4.34375C3.72236 30.1243 3.12661 29.8772 2.68722 29.4378C2.24783 28.9984 2.00068 28.4026 2 27.7812V23.0938C2.00068 22.4724 2.24783 21.8766 2.68722 21.4372C3.12661 20.9978 3.72236 20.7507 4.34375 20.75H7.68428C8.10358 19.1562 8.73782 17.6268 9.56953 16.204L7.20477 13.8328C6.76848 13.393 6.52373 12.7985 6.52388 12.179C6.52403 11.5595 6.76905 10.9651 7.20555 10.5255L10.5259 7.20554C10.9712 6.77954 11.5637 6.54178 12.1799 6.54178C12.7962 6.54178 13.3887 6.77954 13.834 7.20554L16.2044 9.56953C17.627 8.73775 19.1563 8.10351 20.75 7.68428V4.34375C20.7507 3.72236 20.9978 3.12661 21.4372 2.68722C21.8766 2.24783 22.4724 2.00068 23.0938 2H27.7812C28.4026 2.00068 28.9984 2.24783 29.4378 2.68722C29.8772 3.12661 30.1243 3.72236 30.125 4.34375V7.68428C31.7187 8.10351 33.248 8.73775 34.6706 9.56953L37.0422 7.20477C37.4876 6.77923 38.08 6.54183 38.696 6.54198C39.312 6.54212 39.9043 6.7798 40.3495 7.20555L43.6695 10.5259C44.1061 10.9656 44.3512 11.5602 44.3512 12.1799C44.3512 12.7996 44.1061 13.3942 43.6695 13.834L41.3055 16.204C42.1372 17.6268 42.7714 19.1562 43.1907 20.75H46.5312C47.1526 20.7507 47.7484 20.9978 48.1878 21.4372C48.6272 21.8766 48.8743 22.4724 48.875 23.0938ZM34.3368 21.45C34.2933 21.3248 34.2189 21.2127 34.1205 21.1239C34.022 21.0352 33.9028 20.9728 33.7738 20.9425C33.6448 20.9121 33.5102 20.9149 33.3826 20.9505C33.2549 20.986 33.1383 21.0533 33.0436 21.146L29.4887 24.7013L27.0027 23.8724L26.1741 21.3863L29.729 17.8314C29.8217 17.7367 29.889 17.6201 29.9246 17.4925C29.9602 17.3648 29.9629 17.2302 29.9326 17.1012C29.9023 16.9722 29.8398 16.853 29.7511 16.7545C29.6624 16.6561 29.5502 16.5817 29.425 16.5382C28.0871 16.0866 26.6516 16.0065 25.2718 16.3067C23.8919 16.6068 22.6194 17.2758 21.5899 18.2424C20.5605 19.209 19.8127 20.4369 19.4264 21.7952C19.04 23.1534 19.0296 24.5911 19.3962 25.9548L3.2127 42.1383C2.48016 42.8708 2.06862 43.8643 2.06862 44.9003C2.06862 45.9363 2.48016 46.9298 3.2127 47.6623C3.94523 48.3949 4.93876 48.8064 5.97473 48.8064C7.01069 48.8064 8.00422 48.3949 8.73676 47.6623L24.9202 31.4788C26.2839 31.8454 27.7216 31.835 29.0798 31.4487C30.4381 31.0623 31.666 30.3145 32.6326 29.2851C33.5992 28.2556 34.2682 26.9831 34.5684 25.6033C34.8685 24.2234 34.7885 22.7879 34.3368 21.45Z" fill="#487FFF"/>
</svg>
