<svg width="315" height="162" viewBox="0 0 315 162" fill="none" xmlns="http://www.w3.org/2000/svg">
<g filter="url(#filter0_d_329_1658)">
<path d="M27 22.3181C27 18.1934 30.3438 14.8496 34.4685 14.8496H280.929C285.053 14.8496 288.397 18.1934 288.397 22.3181V115.674C288.397 119.799 285.053 123.143 280.929 123.143H34.4685C30.3437 123.143 27 119.799 27 115.674V22.3181Z" fill="url(#paint0_linear_329_1658)"/>
<path d="M34.4688 15.3164H280.929C284.796 15.3165 287.931 18.4515 287.931 22.3184V115.674C287.931 119.541 284.796 122.676 280.929 122.676H34.4688C30.6018 122.676 27.4668 119.541 27.4668 115.674V22.3184C27.4668 18.4514 30.6018 15.3164 34.4688 15.3164Z" stroke="#E0EAF8" stroke-width="0.933561"/>
</g>
<path d="M43.131 44.5591V33.6958H47.0031C47.8483 33.6958 48.5485 33.8497 49.1036 34.1573C49.6588 34.465 50.0743 34.8858 50.3502 35.4197C50.626 35.9502 50.7639 36.5478 50.7639 37.2126C50.7639 37.8809 50.6242 38.4821 50.3449 39.0161C50.069 39.5465 49.6518 39.9673 49.093 40.2785C48.5378 40.5861 47.8394 40.74 46.9978 40.74H44.3351V39.3502H46.8493C47.3833 39.3502 47.8165 39.2583 48.1489 39.0744C48.4813 38.887 48.7253 38.6324 48.8809 38.3106C49.0365 37.9888 49.1142 37.6228 49.1142 37.2126C49.1142 36.8024 49.0365 36.4382 48.8809 36.1199C48.7253 35.8016 48.4795 35.5523 48.1436 35.372C47.8112 35.1916 47.3727 35.1015 46.8281 35.1015H44.77V44.5591H43.131ZM54.8562 44.7394C54.3399 44.7394 53.8731 44.644 53.4558 44.453C53.0386 44.2585 52.7079 43.9774 52.4639 43.6096C52.2235 43.2418 52.1032 42.791 52.1032 42.257C52.1032 41.7973 52.1916 41.4189 52.3685 41.1219C52.5453 40.8248 52.784 40.5897 53.0845 40.4164C53.3851 40.2431 53.7211 40.1123 54.0924 40.0239C54.4637 39.9355 54.842 39.8683 55.2275 39.8223C55.7155 39.7657 56.1115 39.7198 56.4157 39.6844C56.7198 39.6455 56.9408 39.5836 57.0787 39.4988C57.2166 39.4139 57.2856 39.276 57.2856 39.085V39.0479C57.2856 38.5846 57.1547 38.2257 56.893 37.9711C56.6349 37.7165 56.2494 37.5892 55.7367 37.5892C55.2027 37.5892 54.7819 37.7077 54.4743 37.9446C54.1702 38.178 53.9597 38.4379 53.8431 38.7243L52.3525 38.3848C52.5294 37.8898 52.7875 37.4902 53.127 37.1861C53.47 36.8784 53.8643 36.6556 54.3098 36.5177C54.7554 36.3763 55.2239 36.3056 55.7155 36.3056C56.0408 36.3056 56.3856 36.3445 56.7498 36.4222C57.1176 36.4965 57.4606 36.6344 57.7789 36.836C58.1007 37.0376 58.3641 37.3258 58.5692 37.7006C58.7743 38.0719 58.8769 38.5546 58.8769 39.1487V44.5591H57.328V43.4452H57.2643C57.1618 43.6503 57.008 43.8518 56.8029 44.0499C56.5978 44.2479 56.3343 44.4123 56.0125 44.5432C55.6907 44.674 55.3053 44.7394 54.8562 44.7394ZM55.201 43.4664C55.6395 43.4664 56.0143 43.3798 56.3255 43.2065C56.6402 43.0332 56.8789 42.8069 57.0416 42.5275C57.2078 42.2446 57.2909 41.9423 57.2909 41.6205V40.5702C57.2343 40.6268 57.1247 40.6799 56.962 40.7294C56.8029 40.7753 56.6208 40.816 56.4157 40.8514C56.2106 40.8832 56.0108 40.9132 55.8163 40.9415C55.6218 40.9663 55.4591 40.9875 55.3283 41.0052C55.0206 41.0441 54.7395 41.1095 54.4849 41.2014C54.2338 41.2934 54.0322 41.426 53.8802 41.5993C53.7317 41.769 53.6574 41.9953 53.6574 42.2782C53.6574 42.6707 53.8024 42.9678 54.0924 43.1693C54.3823 43.3674 54.7519 43.4664 55.201 43.4664ZM64.4053 47.7841C63.7582 47.7841 63.2012 47.6992 62.7344 47.5295C62.2712 47.3598 61.8928 47.1352 61.5993 46.8559C61.3058 46.5765 61.0866 46.2706 60.9416 45.9382L62.3048 45.3759C62.4003 45.5315 62.5276 45.696 62.6867 45.8693C62.8494 46.0461 63.0686 46.1963 63.3444 46.3201C63.6238 46.4439 63.9827 46.5058 64.4212 46.5058C65.0224 46.5058 65.5192 46.359 65.9117 46.0655C66.3042 45.7755 66.5005 45.3123 66.5005 44.6758V43.0739H66.3997C66.3042 43.2471 66.1663 43.4399 65.986 43.652C65.8092 43.8642 65.5652 44.0481 65.254 44.2037C64.9428 44.3593 64.5379 44.4371 64.0393 44.4371C63.3957 44.4371 62.8158 44.2868 62.2995 43.9862C61.7867 43.6821 61.3801 43.2348 61.0795 42.6442C60.7824 42.0501 60.6339 41.3199 60.6339 40.4535C60.6339 39.5872 60.7807 38.8446 61.0742 38.2257C61.3712 37.6069 61.7779 37.133 62.2942 36.8042C62.8105 36.4718 63.3957 36.3056 64.0499 36.3056C64.5556 36.3056 64.964 36.3904 65.2752 36.5602C65.5864 36.7264 65.8286 36.9209 66.0019 37.1436C66.1787 37.3664 66.3148 37.5627 66.4103 37.7324H66.527V36.4116H68.0812V44.7394C68.0812 45.4396 67.9185 46.0142 67.5932 46.4633C67.2679 46.9124 66.8276 47.2448 66.2724 47.4605C65.7208 47.6763 65.0984 47.7841 64.4053 47.7841ZM64.3894 43.1216C64.8455 43.1216 65.231 43.0155 65.5457 42.8034C65.864 42.5876 66.1044 42.28 66.2671 41.8804C66.4333 41.4773 66.5164 40.9946 66.5164 40.4323C66.5164 39.8842 66.4351 39.4015 66.2724 38.9842C66.1097 38.567 65.8711 38.2416 65.5563 38.0082C65.2416 37.7713 64.8526 37.6529 64.3894 37.6529C63.912 37.6529 63.5142 37.7766 63.1959 38.0242C62.8776 38.2682 62.6372 38.6006 62.4745 39.0214C62.3154 39.4422 62.2358 39.9125 62.2358 40.4323C62.2358 40.9663 62.3172 41.4348 62.4798 41.838C62.6425 42.2411 62.8829 42.5558 63.2012 42.7821C63.523 43.0085 63.9191 43.1216 64.3894 43.1216ZM73.7197 44.7235C72.917 44.7235 72.2256 44.552 71.6457 44.209C71.0693 43.8624 70.6237 43.3762 70.309 42.7503C69.9978 42.1209 69.8422 41.3836 69.8422 40.5384C69.8422 39.7039 69.9978 38.9683 70.309 38.3318C70.6237 37.6953 71.0622 37.1984 71.6245 36.8413C72.1903 36.4841 72.8515 36.3056 73.6083 36.3056C74.068 36.3056 74.5136 36.3816 74.945 36.5336C75.3764 36.6857 75.7636 36.9244 76.1066 37.2497C76.4496 37.5751 76.7202 37.9976 76.9182 38.5175C77.1162 39.0337 77.2152 39.6614 77.2152 40.4005V40.9628H70.7387V39.7746H75.6611C75.6611 39.3573 75.5762 38.9878 75.4065 38.666C75.2367 38.3406 74.998 38.0843 74.6904 37.8969C74.3863 37.7094 74.0291 37.6157 73.6189 37.6157C73.1733 37.6157 72.7844 37.7253 72.4519 37.9446C72.1231 38.1603 71.8685 38.4432 71.6881 38.7933C71.5113 39.1398 71.4229 39.5164 71.4229 39.9231V40.8514C71.4229 41.3959 71.5184 41.8592 71.7093 42.2411C71.9038 42.623 72.1744 42.9147 72.5209 43.1163C72.8675 43.3143 73.2724 43.4133 73.7356 43.4133C74.0362 43.4133 74.3102 43.3709 74.5578 43.286C74.8053 43.1976 75.0192 43.0668 75.1996 42.8935C75.3799 42.7202 75.5178 42.5063 75.6133 42.2517L77.1145 42.5222C76.9942 42.9642 76.7785 43.3515 76.4673 43.6839C76.1597 44.0127 75.7725 44.2691 75.3057 44.453C74.8424 44.6333 74.3138 44.7235 73.7197 44.7235ZM84.514 33.6958V44.5591H82.928V33.6958H84.514ZM90.0795 44.7235C89.3157 44.7235 88.6491 44.5485 88.0798 44.1984C87.5105 43.8483 87.0685 43.3585 86.7537 42.7291C86.439 42.0996 86.2816 41.3641 86.2816 40.5225C86.2816 39.6773 86.439 38.9383 86.7537 38.3053C87.0685 37.6723 87.5105 37.1808 88.0798 36.8307C88.6491 36.4806 89.3157 36.3056 90.0795 36.3056C90.8434 36.3056 91.5099 36.4806 92.0793 36.8307C92.6486 37.1808 93.0906 37.6723 93.4054 38.3053C93.7201 38.9383 93.8774 39.6773 93.8774 40.5225C93.8774 41.3641 93.7201 42.0996 93.4054 42.7291C93.0906 43.3585 92.6486 43.8483 92.0793 44.1984C91.5099 44.5485 90.8434 44.7235 90.0795 44.7235ZM90.0848 43.3921C90.5799 43.3921 90.9901 43.2613 91.3154 42.9996C91.6408 42.7379 91.8812 42.3896 92.0368 41.9547C92.196 41.5197 92.2755 41.0405 92.2755 40.5172C92.2755 39.9974 92.196 39.52 92.0368 39.085C91.8812 38.6465 91.6408 38.2947 91.3154 38.0295C90.9901 37.7642 90.5799 37.6316 90.0848 37.6316C89.5862 37.6316 89.1725 37.7642 88.8436 38.0295C88.5183 38.2947 88.2761 38.6465 88.1169 39.085C87.9613 39.52 87.8836 39.9974 87.8836 40.5172C87.8836 41.0405 87.9613 41.5197 88.1169 41.9547C88.2761 42.3896 88.5183 42.7379 88.8436 42.9996C89.1725 43.2613 89.5862 43.3921 90.0848 43.3921ZM98.0188 44.7394C97.5025 44.7394 97.0357 44.644 96.6184 44.453C96.2012 44.2585 95.8705 43.9774 95.6265 43.6096C95.3861 43.2418 95.2658 42.791 95.2658 42.257C95.2658 41.7973 95.3543 41.4189 95.5311 41.1219C95.7079 40.8248 95.9466 40.5897 96.2471 40.4164C96.5477 40.2431 96.8837 40.1123 97.255 40.0239C97.6263 39.9355 98.0046 39.8683 98.3901 39.8223C98.8781 39.7657 99.2741 39.7198 99.5783 39.6844C99.8824 39.6455 100.103 39.5836 100.241 39.4988C100.379 39.4139 100.448 39.276 100.448 39.085V39.0479C100.448 38.5846 100.317 38.2257 100.056 37.9711C99.7975 37.7165 99.4121 37.5892 98.8993 37.5892C98.3653 37.5892 97.9445 37.7077 97.6369 37.9446C97.3328 38.178 97.1224 38.4379 97.0057 38.7243L95.5151 38.3848C95.692 37.8898 95.9501 37.4902 96.2896 37.1861C96.6326 36.8784 97.0269 36.6556 97.4724 36.5177C97.918 36.3763 98.3866 36.3056 98.8781 36.3056C99.2034 36.3056 99.5482 36.3445 99.9124 36.4222C100.28 36.4965 100.623 36.6344 100.941 36.836C101.263 37.0376 101.527 37.3258 101.732 37.7006C101.937 38.0719 102.039 38.5546 102.039 39.1487V44.5591H100.491V43.4452H100.427C100.324 43.6503 100.171 43.8518 99.9655 44.0499C99.7604 44.2479 99.4969 44.4123 99.1751 44.5432C98.8533 44.674 98.4679 44.7394 98.0188 44.7394ZM98.3636 43.4664C98.8021 43.4664 99.1769 43.3798 99.4881 43.2065C99.8028 43.0332 100.042 42.8069 100.204 42.5275C100.37 42.2446 100.453 41.9423 100.453 41.6205V40.5702C100.397 40.6268 100.287 40.6799 100.125 40.7294C99.9655 40.7753 99.7834 40.816 99.5783 40.8514C99.3732 40.8832 99.1734 40.9132 98.9789 40.9415C98.7844 40.9663 98.6217 40.9875 98.4909 41.0052C98.1832 41.0441 97.9021 41.1095 97.6475 41.2014C97.3964 41.2934 97.1949 41.426 97.0428 41.5993C96.8943 41.769 96.82 41.9953 96.82 42.2782C96.82 42.6707 96.965 42.9678 97.255 43.1693C97.5449 43.3674 97.9145 43.4664 98.3636 43.4664ZM107.202 44.7182C106.544 44.7182 105.957 44.5502 105.441 44.2143C104.928 43.8748 104.525 43.3921 104.231 42.7662C103.942 42.1368 103.797 41.3818 103.797 40.5013C103.797 39.6208 103.943 38.8675 104.237 38.2416C104.534 37.6157 104.94 37.1366 105.457 36.8042C105.973 36.4718 106.558 36.3056 107.213 36.3056C107.718 36.3056 108.125 36.3904 108.433 36.5602C108.744 36.7264 108.984 36.9209 109.154 37.1436C109.327 37.3664 109.462 37.5627 109.557 37.7324H109.652V33.6958H111.238V44.5591H109.69V43.2913H109.557C109.462 43.4646 109.324 43.6627 109.143 43.8854C108.966 44.1082 108.722 44.3027 108.411 44.4689C108.1 44.6351 107.697 44.7182 107.202 44.7182ZM107.552 43.3656C108.008 43.3656 108.394 43.2454 108.708 43.0049C109.027 42.7609 109.267 42.4232 109.43 41.9918C109.596 41.5604 109.679 41.0582 109.679 40.4854C109.679 39.9196 109.598 39.4245 109.435 39.0002C109.272 38.5758 109.034 38.2452 108.719 38.0082C108.404 37.7713 108.015 37.6529 107.552 37.6529C107.075 37.6529 106.677 37.7766 106.359 38.0242C106.04 38.2717 105.8 38.6094 105.637 39.0373C105.478 39.4652 105.398 39.9479 105.398 40.4854C105.398 41.0299 105.48 41.5197 105.642 41.9547C105.805 42.3896 106.046 42.7344 106.364 42.989C106.686 43.2401 107.082 43.3656 107.552 43.3656ZM121.258 36.4116V37.6847H116.808V36.4116H121.258ZM118.002 34.4596H119.587V42.1668C119.587 42.4745 119.633 42.7061 119.725 42.8617C119.817 43.0138 119.936 43.1181 120.081 43.1747C120.229 43.2277 120.39 43.2542 120.563 43.2542C120.691 43.2542 120.802 43.2454 120.898 43.2277C120.993 43.21 121.067 43.1959 121.12 43.1853L121.407 44.4954C121.315 44.5308 121.184 44.5662 121.014 44.6015C120.845 44.6404 120.632 44.6616 120.378 44.6652C119.961 44.6722 119.572 44.598 119.211 44.4424C118.85 44.2868 118.558 44.0463 118.336 43.721C118.113 43.3957 118.002 42.9872 118.002 42.4957V34.4596ZM123.013 44.5591V36.4116H124.599V44.5591H123.013ZM123.814 35.1545C123.538 35.1545 123.301 35.0626 123.103 34.8787C122.908 34.6913 122.811 34.4685 122.811 34.2103C122.811 33.9487 122.908 33.7259 123.103 33.542C123.301 33.3546 123.538 33.2609 123.814 33.2609C124.09 33.2609 124.325 33.3546 124.519 33.542C124.717 33.7259 124.816 33.9487 124.816 34.2103C124.816 34.4685 124.717 34.6913 124.519 34.8787C124.325 35.0626 124.09 35.1545 123.814 35.1545ZM126.732 44.5591V36.4116H128.255V37.7377H128.356C128.525 37.2886 128.803 36.9385 129.188 36.6875C129.574 36.4329 130.035 36.3056 130.573 36.3056C131.117 36.3056 131.574 36.4329 131.941 36.6875C132.313 36.9421 132.587 37.2922 132.763 37.7377H132.848C133.043 37.3028 133.352 36.9562 133.777 36.6981C134.201 36.4364 134.707 36.3056 135.294 36.3056C136.033 36.3056 136.636 36.5372 137.102 37.0004C137.573 37.4637 137.808 38.1621 137.808 39.0956V44.5591H136.222V39.2441C136.222 38.6925 136.072 38.2929 135.771 38.0454C135.47 37.7978 135.111 37.6741 134.694 37.6741C134.178 37.6741 133.777 37.8332 133.49 38.1515C133.204 38.4662 133.06 38.8711 133.06 39.3661V44.5591H131.48V39.1434C131.48 38.7013 131.342 38.346 131.066 38.0772C130.79 37.8084 130.431 37.6741 129.989 37.6741C129.689 37.6741 129.411 37.7536 129.156 37.9128C128.905 38.0684 128.702 38.2858 128.546 38.5652C128.394 38.8446 128.318 39.1681 128.318 39.5359V44.5591H126.732ZM143.445 44.7235C142.642 44.7235 141.951 44.552 141.371 44.209C140.795 43.8624 140.349 43.3762 140.034 42.7503C139.723 42.1209 139.568 41.3836 139.568 40.5384C139.568 39.7039 139.723 38.9683 140.034 38.3318C140.349 37.6953 140.788 37.1984 141.35 36.8413C141.916 36.4841 142.577 36.3056 143.334 36.3056C143.793 36.3056 144.239 36.3816 144.67 36.5336C145.102 36.6857 145.489 36.9244 145.832 37.2497C146.175 37.5751 146.445 37.9976 146.644 38.5175C146.842 39.0337 146.941 39.6614 146.941 40.4005V40.9628H140.464V39.7746H145.386C145.386 39.3573 145.302 38.9878 145.132 38.666C144.962 38.3406 144.723 38.0843 144.416 37.8969C144.112 37.7094 143.754 37.6157 143.344 37.6157C142.899 37.6157 142.51 37.7253 142.177 37.9446C141.848 38.1603 141.594 38.4432 141.413 38.7933C141.237 39.1398 141.148 39.5164 141.148 39.9231V40.8514C141.148 41.3959 141.244 41.8592 141.435 42.2411C141.629 42.623 141.9 42.9147 142.246 43.1163C142.593 43.3143 142.998 43.4133 143.461 43.4133C143.762 43.4133 144.036 43.3709 144.283 43.286C144.531 43.1976 144.745 43.0668 144.925 42.8935C145.105 42.7202 145.243 42.5063 145.339 42.2517L146.84 42.5222C146.72 42.9642 146.504 43.3515 146.193 43.6839C145.885 44.0127 145.498 44.2691 145.031 44.453C144.568 44.6333 144.039 44.7235 143.445 44.7235ZM154.806 38.4008L153.368 38.6554C153.308 38.4715 153.212 38.2964 153.082 38.1302C152.954 37.964 152.781 37.8279 152.562 37.7218C152.343 37.6157 152.069 37.5627 151.74 37.5627C151.291 37.5627 150.916 37.6635 150.615 37.865C150.315 38.0631 150.164 38.3194 150.164 38.6342C150.164 38.9064 150.265 39.1257 150.467 39.2919C150.668 39.4581 150.994 39.5942 151.443 39.7003L152.737 39.9974C153.487 40.1706 154.045 40.4376 154.413 40.7983C154.781 41.159 154.965 41.6276 154.965 42.204C154.965 42.692 154.823 43.1269 154.54 43.5088C154.261 43.8872 153.87 44.1842 153.368 44.4C152.869 44.6157 152.291 44.7235 151.634 44.7235C150.721 44.7235 149.977 44.529 149.4 44.14C148.824 43.7475 148.47 43.1906 148.34 42.4692L149.873 42.2358C149.968 42.6354 150.164 42.9377 150.461 43.1428C150.758 43.3444 151.146 43.4452 151.623 43.4452C152.143 43.4452 152.558 43.3373 152.869 43.1216C153.181 42.9024 153.336 42.6354 153.336 42.3207C153.336 42.066 153.241 41.8521 153.05 41.6788C152.862 41.5056 152.574 41.3747 152.185 41.2863L150.806 40.984C150.046 40.8107 149.484 40.5349 149.119 40.1565C148.759 39.7781 148.578 39.299 148.578 38.719C148.578 38.2381 148.713 37.8173 148.981 37.4566C149.25 37.0959 149.621 36.8148 150.095 36.6132C150.569 36.4081 151.112 36.3056 151.724 36.3056C152.604 36.3056 153.297 36.4965 153.803 36.8784C154.309 37.2568 154.643 37.7642 154.806 38.4008Z" fill="#4B5563"/>
<path d="M43.9823 75.4263L50.9124 61.7093V61.5979H42.8684V59.1314H53.9677V61.6536L47.0456 75.4263H43.9823ZM62.1529 75.6491C61.3732 75.6437 60.612 75.5085 59.8694 75.2433C59.1268 74.9727 58.4585 74.5351 57.8644 73.9305C57.2703 73.3205 56.7982 72.5115 56.4481 71.5037C56.0981 70.4906 55.9257 69.2361 55.931 67.7403C55.931 66.3453 56.0795 65.1014 56.3765 64.0087C56.6736 62.916 57.1006 61.9931 57.6575 61.2399C58.2145 60.4813 58.8855 59.9032 59.6705 59.5053C60.4609 59.1075 61.344 58.9086 62.32 58.9086C63.3438 58.9086 64.2508 59.1102 65.0411 59.5133C65.8368 59.9164 66.4786 60.4681 66.9666 61.1682C67.4546 61.8631 67.757 62.6482 67.8737 63.5234H64.9695C64.821 62.8975 64.516 62.3989 64.0545 62.0275C63.5984 61.6509 63.0202 61.4626 62.32 61.4626C61.1902 61.4626 60.3203 61.9533 59.7103 62.9346C59.1056 63.9159 58.8006 65.2632 58.7953 66.9765H58.9067C59.1666 66.5097 59.5034 66.1092 59.9172 65.7751C60.3309 65.4409 60.7977 65.1836 61.3175 65.0033C61.8426 64.8176 62.3969 64.7248 62.9804 64.7248C63.9352 64.7248 64.7918 64.9529 65.5504 65.4091C66.3142 65.8652 66.9189 66.4938 67.3644 67.2947C67.81 68.0904 68.0301 69.0027 68.0248 70.0318C68.0301 71.1032 67.7861 72.066 67.2928 72.92C66.7995 73.7687 66.1126 74.437 65.2321 74.925C64.3516 75.413 63.3252 75.6544 62.1529 75.6491ZM62.137 73.2621C62.7152 73.2621 63.2324 73.1215 63.6885 72.8404C64.1447 72.5593 64.5054 72.18 64.7706 71.7026C65.0358 71.2252 65.1658 70.6895 65.1605 70.0954C65.1658 69.5119 65.0385 68.9842 64.7786 68.5121C64.524 68.04 64.1712 67.666 63.7204 67.3902C63.2695 67.1144 62.755 66.9765 62.1768 66.9765C61.7472 66.9765 61.3467 67.0587 60.9754 67.2231C60.6041 67.3876 60.2805 67.6157 60.0047 67.9074C59.7289 68.1938 59.5114 68.528 59.3523 68.9099C59.1984 69.2865 59.1189 69.6896 59.1136 70.1193C59.1189 70.6869 59.2515 71.2093 59.5114 71.6867C59.7713 72.1641 60.1293 72.546 60.5855 72.8325C61.0417 73.1189 61.5589 73.2621 62.137 73.2621ZM76.5064 75.6491C75.3236 75.6491 74.2733 75.4501 73.3557 75.0523C72.4433 74.6545 71.7272 74.1108 71.2074 73.4212C70.6929 72.7264 70.4383 71.9387 70.4436 71.0582C70.4383 70.3739 70.5868 69.7453 70.8892 69.1725C71.1915 68.5996 71.5999 68.1222 72.1145 67.7403C72.6343 67.3531 73.2125 67.1064 73.849 67.0004V66.889C73.0109 66.7033 72.3319 66.2763 71.8121 65.608C71.2976 64.9343 71.043 64.1572 71.0483 63.2767C71.043 62.4386 71.2764 61.6907 71.7485 61.033C72.2205 60.3753 72.8677 59.8581 73.6898 59.4815C74.512 59.0996 75.4509 58.9086 76.5064 58.9086C77.5514 58.9086 78.4823 59.0996 79.2992 59.4815C80.1213 59.8581 80.7685 60.3753 81.2405 61.033C81.7179 61.6907 81.9566 62.4386 81.9566 63.2767C81.9566 64.1572 81.6941 64.9343 81.1689 65.608C80.6491 66.2763 79.9781 66.7033 79.1559 66.889V67.0004C79.7925 67.1064 80.3653 67.3531 80.8745 67.7403C81.3891 68.1222 81.7975 68.5996 82.0998 69.1725C82.4075 69.7453 82.5613 70.3739 82.5613 71.0582C82.5613 71.9387 82.3014 72.7264 81.7816 73.4212C81.2618 74.1108 80.5457 74.6545 79.6333 75.0523C78.7263 75.4501 77.684 75.6491 76.5064 75.6491ZM76.5064 73.3735C77.1164 73.3735 77.6469 73.2701 78.0977 73.0632C78.5486 72.851 78.8987 72.554 79.148 72.1721C79.3973 71.7902 79.5246 71.3499 79.5299 70.8513C79.5246 70.3315 79.3893 69.8726 79.1241 69.4748C78.8642 69.0717 78.5062 68.7561 78.05 68.528C77.5991 68.2999 77.0846 68.1859 76.5064 68.1859C75.923 68.1859 75.4031 68.2999 74.947 68.528C74.4908 68.7561 74.1301 69.0717 73.8649 69.4748C73.605 69.8726 73.4777 70.3315 73.483 70.8513C73.4777 71.3499 73.5997 71.7902 73.849 72.1721C74.0983 72.5487 74.4484 72.8431 74.8992 73.0552C75.3554 73.2674 75.8911 73.3735 76.5064 73.3735ZM76.5064 65.9501C77.005 65.9501 77.4453 65.8493 77.8272 65.6477C78.2144 65.4462 78.5194 65.1651 78.7422 64.8044C78.965 64.4437 79.079 64.0273 79.0843 63.5552C79.079 63.0884 78.9676 62.68 78.7502 62.3299C78.5327 61.9745 78.2303 61.7013 77.8431 61.5104C77.4559 61.3141 77.0103 61.216 76.5064 61.216C75.9919 61.216 75.5384 61.3141 75.1459 61.5104C74.7587 61.7013 74.4563 61.9745 74.2388 62.3299C74.0267 62.68 73.9232 63.0884 73.9285 63.5552C73.9232 64.0273 74.0293 64.4437 74.2468 64.8044C74.4696 65.1598 74.7746 65.4409 75.1618 65.6477C75.5543 65.8493 76.0025 65.9501 76.5064 65.9501ZM90.7664 75.4263V63.2051H93.5194V65.2818H93.6626C93.9172 64.5816 94.3389 64.0352 94.9277 63.6427C95.5165 63.2449 96.2193 63.046 97.0362 63.046C97.8636 63.046 98.5611 63.2475 99.1287 63.6507C99.7016 64.0485 100.105 64.5922 100.338 65.2818H100.465C100.736 64.6028 101.192 64.0618 101.834 63.6586C102.481 63.2502 103.248 63.046 104.133 63.046C105.258 63.046 106.176 63.4014 106.886 64.1121C107.597 64.8229 107.952 65.8599 107.952 67.2231V75.4263H105.064V67.6687C105.064 66.9102 104.863 66.3559 104.46 66.0058C104.056 65.6504 103.563 65.4727 102.98 65.4727C102.285 65.4727 101.741 65.6902 101.349 66.1251C100.961 66.5548 100.768 67.1144 100.768 67.804V75.4263H97.9432V67.5493C97.9432 66.9181 97.7522 66.4142 97.3703 66.0376C96.9937 65.661 96.5004 65.4727 95.8904 65.4727C95.4767 65.4727 95.1001 65.5788 94.7606 65.791C94.4211 65.9978 94.1506 66.2922 93.949 66.6741C93.7475 67.0507 93.6467 67.491 93.6467 67.9949V75.4263H90.7664ZM120.534 66.4354L117.908 66.7219C117.834 66.4567 117.704 66.2074 117.518 65.974C117.338 65.7406 117.094 65.5523 116.786 65.4091C116.478 65.2658 116.102 65.1942 115.656 65.1942C115.057 65.1942 114.553 65.3242 114.145 65.5841C113.741 65.844 113.543 66.1808 113.548 66.5946C113.543 66.95 113.672 67.239 113.938 67.4618C114.208 67.6846 114.654 67.8676 115.274 68.0108L117.359 68.4564C118.515 68.7057 119.375 69.1009 119.937 69.6419C120.504 70.1829 120.791 70.8911 120.796 71.7663C120.791 72.5354 120.565 73.2144 120.12 73.8031C119.68 74.3866 119.067 74.8428 118.282 75.1717C117.497 75.5005 116.595 75.665 115.577 75.665C114.081 75.665 112.877 75.352 111.965 74.7261C111.052 74.0949 110.508 73.217 110.333 72.0925L113.142 71.822C113.269 72.3736 113.54 72.79 113.954 73.0712C114.367 73.3523 114.906 73.4928 115.569 73.4928C116.253 73.4928 116.802 73.3523 117.216 73.0712C117.635 72.79 117.844 72.4426 117.844 72.0289C117.844 71.6788 117.709 71.3897 117.439 71.1616C117.173 70.9335 116.76 70.7585 116.197 70.6365L114.113 70.1989C112.941 69.9549 112.073 69.5438 111.511 68.9656C110.949 68.3821 110.67 67.6448 110.676 66.7537C110.67 66.0005 110.874 65.3481 111.288 64.7964C111.707 64.2395 112.288 63.8098 113.031 63.5075C113.779 63.1998 114.641 63.046 115.617 63.046C117.049 63.046 118.176 63.351 118.998 63.961C119.826 64.571 120.337 65.3958 120.534 66.4354Z" fill="#111827"/>
<path d="M42.9818 105.237V95.7315H46.3699C47.1063 95.7315 47.7174 95.8583 48.2032 96.1121C48.6921 96.3658 49.0572 96.717 49.2986 97.1656C49.5399 97.6112 49.6606 98.1264 49.6606 98.7112C49.6606 99.2929 49.5384 99.805 49.2939 100.247C49.0526 100.687 48.6875 101.029 48.1986 101.273C47.7128 101.518 47.1017 101.64 46.3653 101.64H43.7987V100.405H46.2353C46.6995 100.405 47.0769 100.339 47.3678 100.206C47.6617 100.073 47.8768 99.8792 48.0129 99.6255C48.1491 99.3718 48.2172 99.067 48.2172 98.7112C48.2172 98.3522 48.1475 98.0413 48.0083 97.7783C47.8722 97.5153 47.6571 97.3141 47.3632 97.1749C47.0723 97.0326 46.6902 96.9614 46.2168 96.9614H44.4159V105.237H42.9818ZM47.6741 100.948L50.0226 105.237H48.3889L46.0868 100.948H47.6741ZM53.369 105.395C52.9172 105.395 52.5088 105.311 52.1437 105.144C51.7786 104.974 51.4893 104.728 51.2758 104.406C51.0654 104.084 50.9602 103.69 50.9602 103.222C50.9602 102.82 51.0375 102.489 51.1922 102.229C51.3469 101.969 51.5558 101.764 51.8188 101.612C52.0818 101.46 52.3757 101.346 52.7006 101.269C53.0255 101.191 53.3566 101.132 53.6939 101.092C54.1209 101.043 54.4674 101.002 54.7335 100.971C54.9996 100.937 55.193 100.883 55.3137 100.809C55.4344 100.735 55.4947 100.614 55.4947 100.447V100.415C55.4947 100.009 55.3802 99.6951 55.1512 99.4723C54.9254 99.2496 54.5881 99.1382 54.1394 99.1382C53.6722 99.1382 53.304 99.2418 53.0348 99.4491C52.7687 99.6534 52.5846 99.8808 52.4825 100.131L51.1783 99.8344C51.333 99.4012 51.5589 99.0515 51.8559 98.7854C52.1561 98.5162 52.5011 98.3213 52.8909 98.2006C53.2808 98.0769 53.6908 98.015 54.1209 98.015C54.4055 98.015 54.7072 98.049 55.0259 98.1171C55.3477 98.1821 55.6479 98.3027 55.9263 98.4791C56.2079 98.6555 56.4384 98.9077 56.6179 99.2356C56.7973 99.5605 56.8871 99.9829 56.8871 100.503V105.237H55.5318V104.262H55.4761C55.3864 104.442 55.2518 104.618 55.0723 104.791C54.8929 104.965 54.6624 105.108 54.3808 105.223C54.0992 105.337 53.7619 105.395 53.369 105.395ZM53.6707 104.281C54.0543 104.281 54.3823 104.205 54.6546 104.053C54.93 103.902 55.1389 103.704 55.2812 103.459C55.4266 103.212 55.4993 102.947 55.4993 102.666V101.747C55.4498 101.796 55.3539 101.842 55.2116 101.886C55.0723 101.926 54.913 101.962 54.7335 101.993C54.5541 102.02 54.3792 102.047 54.2091 102.071C54.0389 102.093 53.8965 102.112 53.7821 102.127C53.5129 102.161 53.2669 102.218 53.0441 102.299C52.8244 102.379 52.648 102.495 52.515 102.647C52.385 102.796 52.3201 102.994 52.3201 103.241C52.3201 103.585 52.4469 103.844 52.7006 104.021C52.9544 104.194 53.2777 104.281 53.6707 104.281ZM60.1232 101.004V105.237H58.7355V98.1078H60.0675V99.2681H60.1557C60.3197 98.8906 60.5765 98.5874 60.9262 98.3584C61.2789 98.1295 61.7229 98.015 62.2582 98.015C62.744 98.015 63.1694 98.1171 63.5346 98.3213C63.8997 98.5224 64.1828 98.8226 64.3839 99.2217C64.585 99.6209 64.6856 100.114 64.6856 100.702V105.237H63.2978V100.869C63.2978 100.353 63.1632 99.9488 62.8941 99.658C62.6249 99.364 62.2551 99.2171 61.7848 99.2171C61.463 99.2171 61.1768 99.2867 60.9262 99.4259C60.6786 99.5652 60.4821 99.7694 60.3367 100.039C60.1944 100.305 60.1232 100.626 60.1232 101.004ZM69.5357 108.059C68.9695 108.059 68.4822 107.984 68.0737 107.836C67.6684 107.687 67.3373 107.491 67.0805 107.246C66.8237 107.002 66.6318 106.734 66.505 106.444L67.6978 105.952C67.7813 106.088 67.8927 106.232 68.032 106.383C68.1743 106.538 68.3661 106.669 68.6075 106.778C68.8519 106.886 69.166 106.94 69.5497 106.94C70.0757 106.94 70.5104 106.812 70.8539 106.555C71.1973 106.301 71.369 105.896 71.369 105.339V103.937H71.2809C71.1973 104.089 71.0766 104.258 70.9188 104.443C70.7641 104.629 70.5506 104.79 70.2783 104.926C70.006 105.062 69.6518 105.13 69.2155 105.13C68.6523 105.13 68.1449 104.999 67.6931 104.736C67.2445 104.469 66.8887 104.078 66.6256 103.561C66.3657 103.041 66.2358 102.403 66.2358 101.644C66.2358 100.886 66.3642 100.237 66.621 99.6951C66.8809 99.1536 67.2367 98.739 67.6885 98.4513C68.1403 98.1604 68.6523 98.015 69.2248 98.015C69.6672 98.015 70.0246 98.0892 70.2969 98.2378C70.5692 98.3832 70.7811 98.5534 70.9328 98.7483C71.0875 98.9432 71.2066 99.115 71.2901 99.2635H71.3922V98.1078H72.7521V105.395C72.7521 106.007 72.6098 106.51 72.3251 106.903C72.0405 107.296 71.6552 107.587 71.1695 107.776C70.6868 107.964 70.1422 108.059 69.5357 108.059ZM69.5218 103.979C69.921 103.979 70.2582 103.886 70.5336 103.701C70.8121 103.512 71.0225 103.243 71.1648 102.893C71.3102 102.54 71.383 102.118 71.383 101.626C71.383 101.146 71.3118 100.724 71.1695 100.359C71.0271 99.9937 70.8183 99.709 70.5429 99.5048C70.2675 99.2975 69.9271 99.1939 69.5218 99.1939C69.1041 99.1939 68.756 99.3022 68.4775 99.5188C68.199 99.7323 67.9886 100.023 67.8463 100.391C67.7071 100.76 67.6374 101.171 67.6374 101.626C67.6374 102.093 67.7086 102.503 67.8509 102.856C67.9933 103.209 68.2037 103.484 68.4822 103.682C68.7637 103.88 69.1103 103.979 69.5218 103.979ZM77.6858 105.381C76.9834 105.381 76.3785 105.231 75.8711 104.93C75.3667 104.627 74.9769 104.202 74.7015 103.654C74.4292 103.103 74.293 102.458 74.293 101.719C74.293 100.988 74.4292 100.345 74.7015 99.7879C74.9769 99.231 75.3605 98.7963 75.8525 98.4837C76.3476 98.1712 76.9262 98.015 77.5884 98.015C77.9906 98.015 78.3805 98.0815 78.758 98.2146C79.1355 98.3476 79.4743 98.5565 79.7744 98.8411C80.0745 99.1258 80.3112 99.4955 80.4845 99.9504C80.6578 100.402 80.7444 100.951 80.7444 101.598V102.09H75.0774V101.05H79.3845C79.3845 100.685 79.3103 100.362 79.1618 100.08C79.0132 99.7957 78.8044 99.5714 78.5352 99.4074C78.2691 99.2434 77.9566 99.1614 77.5976 99.1614C77.2078 99.1614 76.8674 99.2573 76.5766 99.4491C76.2888 99.6379 76.066 99.8854 75.9082 100.192C75.7535 100.495 75.6761 100.825 75.6761 101.18V101.993C75.6761 102.469 75.7597 102.874 75.9268 103.209C76.097 103.543 76.3337 103.798 76.6369 103.974C76.9401 104.148 77.2944 104.234 77.6997 104.234C77.9628 104.234 78.2026 104.197 78.4191 104.123C78.6357 104.046 78.8229 103.931 78.9807 103.779C79.1385 103.628 79.2592 103.441 79.3428 103.218L80.6562 103.455C80.551 103.841 80.3623 104.18 80.09 104.471C79.8208 104.759 79.482 104.983 79.0736 105.144C78.6682 105.302 78.2056 105.381 77.6858 105.381ZM83.1985 105.325C82.9448 105.325 82.7266 105.235 82.5441 105.056C82.3615 104.873 82.2703 104.654 82.2703 104.397C82.2703 104.143 82.3615 103.926 82.5441 103.747C82.7266 103.564 82.9448 103.473 83.1985 103.473C83.4522 103.473 83.6704 103.564 83.8529 103.747C84.0355 103.926 84.1268 104.143 84.1268 104.397C84.1268 104.567 84.0834 104.723 83.9968 104.866C83.9133 105.005 83.8019 105.116 83.6626 105.2C83.5234 105.283 83.3687 105.325 83.1985 105.325ZM83.1985 100.136C82.9448 100.136 82.7266 100.045 82.5441 99.8622C82.3615 99.6797 82.2703 99.4615 82.2703 99.2078C82.2703 98.9541 82.3615 98.7375 82.5441 98.558C82.7266 98.3755 82.9448 98.2842 83.1985 98.2842C83.4522 98.2842 83.6704 98.3755 83.8529 98.558C84.0355 98.7375 84.1268 98.9541 84.1268 99.2078C84.1268 99.378 84.0834 99.5342 83.9968 99.6766C83.9133 99.8158 83.8019 99.9272 83.6626 100.011C83.5234 100.094 83.3687 100.136 83.1985 100.136ZM92.5635 105.367C91.9817 105.367 91.4588 105.255 90.9947 105.033C90.5337 104.807 90.1655 104.497 89.8901 104.104C89.6147 103.711 89.4677 103.263 89.4492 102.758H90.8415C90.8756 103.167 91.0566 103.503 91.3846 103.766C91.7126 104.029 92.1055 104.16 92.5635 104.16C92.9286 104.16 93.2519 104.076 93.5335 103.909C93.8181 103.739 94.0409 103.506 94.2018 103.209C94.3658 102.912 94.4478 102.573 94.4478 102.192C94.4478 101.805 94.3643 101.46 94.1972 101.157C94.0301 100.854 93.7996 100.616 93.5056 100.442C93.2148 100.269 92.8806 100.181 92.5031 100.178C92.2154 100.178 91.9261 100.227 91.6352 100.326C91.3443 100.425 91.1092 100.555 90.9297 100.716L89.6162 100.521L90.15 95.7315H95.3761V96.9614H91.3428L91.0411 99.6209H91.0968C91.2825 99.4414 91.5285 99.2913 91.8348 99.1707C92.1442 99.05 92.4753 98.9896 92.828 98.9896C93.4066 98.9896 93.9218 99.1273 94.3736 99.4027C94.8284 99.6781 95.1858 100.054 95.4457 100.531C95.7087 101.004 95.8387 101.549 95.8356 102.164C95.8387 102.78 95.6994 103.329 95.4178 103.812C95.1394 104.295 94.7526 104.675 94.2575 104.954C93.7655 105.229 93.2009 105.367 92.5635 105.367ZM100.84 105.367C100.203 105.367 99.6333 105.257 99.132 105.037C98.6339 104.818 98.2394 104.513 97.9485 104.123C97.6607 103.73 97.506 103.275 97.4844 102.758H98.9417C98.9603 103.04 99.0547 103.284 99.2249 103.492C99.3981 103.696 99.624 103.854 99.9025 103.965C100.181 104.076 100.49 104.132 100.831 104.132C101.205 104.132 101.536 104.067 101.824 103.937C102.115 103.807 102.342 103.626 102.506 103.394C102.67 103.159 102.752 102.888 102.752 102.582C102.752 102.263 102.67 101.983 102.506 101.742C102.345 101.497 102.109 101.306 101.796 101.166C101.487 101.027 101.112 100.958 100.673 100.958H99.87V99.7879H100.673C101.026 99.7879 101.335 99.7245 101.601 99.5977C101.87 99.4708 102.081 99.2944 102.232 99.0686C102.384 98.8396 102.46 98.5719 102.46 98.2656C102.46 97.9717 102.393 97.7164 102.26 97.4998C102.13 97.2801 101.945 97.1084 101.703 96.9846C101.465 96.8608 101.183 96.799 100.859 96.799C100.549 96.799 100.26 96.8562 99.9907 96.9707C99.7246 97.0821 99.508 97.243 99.3409 97.4534C99.1738 97.6607 99.0841 97.9098 99.0717 98.2006H97.684C97.6994 97.687 97.851 97.2352 98.1388 96.8454C98.4297 96.4555 98.8133 96.1507 99.2898 95.931C99.7663 95.7114 100.295 95.6015 100.877 95.6015C101.487 95.6015 102.013 95.7206 102.455 95.9589C102.901 96.194 103.244 96.5081 103.486 96.9011C103.73 97.294 103.851 97.7241 103.848 98.1913C103.851 98.7235 103.702 99.1753 103.402 99.5466C103.105 99.9179 102.709 100.167 102.214 100.294V100.368C102.845 100.464 103.334 100.715 103.68 101.12C104.03 101.525 104.203 102.028 104.2 102.628C104.203 103.151 104.058 103.62 103.764 104.035C103.473 104.449 103.076 104.776 102.571 105.014C102.067 105.249 101.49 105.367 100.84 105.367ZM109.264 105.395C108.531 105.392 107.904 105.198 107.384 104.814C106.864 104.431 106.467 103.872 106.191 103.139C105.916 102.406 105.778 101.522 105.778 100.489C105.778 99.4584 105.916 98.5781 106.191 97.8479C106.47 97.1177 106.869 96.5607 107.389 96.177C107.912 95.7934 108.537 95.6015 109.264 95.6015C109.991 95.6015 110.615 95.7949 111.134 96.1817C111.654 96.5654 112.052 97.1223 112.327 97.8525C112.606 98.5797 112.745 99.4584 112.745 100.489C112.745 101.525 112.607 102.41 112.332 103.144C112.056 103.874 111.659 104.432 111.139 104.819C110.619 105.203 109.994 105.395 109.264 105.395ZM109.264 104.155C109.908 104.155 110.41 103.841 110.772 103.213C111.137 102.585 111.32 101.677 111.32 100.489C111.32 99.6998 111.236 99.033 111.069 98.4884C110.905 97.9407 110.669 97.5261 110.359 97.2445C110.053 96.9599 109.688 96.8175 109.264 96.8175C108.623 96.8175 108.121 97.1331 107.756 97.7643C107.39 98.3956 107.206 99.3037 107.203 100.489C107.203 101.281 107.285 101.951 107.449 102.498C107.616 103.043 107.853 103.456 108.159 103.738C108.466 104.016 108.834 104.155 109.264 104.155ZM118.61 99.8808V101.088H114.396V99.8808H118.61ZM124.048 95.7315V105.237H122.609V97.1703H122.553L120.279 98.6555V97.2817L122.651 95.7315H124.048ZM129.937 105.367C129.513 105.361 129.096 105.283 128.684 105.135C128.276 104.986 127.905 104.739 127.57 104.392C127.236 104.046 126.969 103.58 126.767 102.995C126.569 102.41 126.47 101.68 126.47 100.804C126.47 99.9751 126.552 99.2387 126.716 98.5951C126.883 97.9515 127.123 97.4085 127.436 96.966C127.748 96.5205 128.126 96.1817 128.568 95.9496C129.011 95.7175 129.507 95.6015 130.058 95.6015C130.624 95.6015 131.127 95.7129 131.566 95.9357C132.006 96.1585 132.362 96.4663 132.634 96.8593C132.909 97.2523 133.084 97.6994 133.158 98.2006H131.743C131.647 97.8046 131.457 97.4812 131.172 97.2306C130.887 96.98 130.516 96.8547 130.058 96.8547C129.362 96.8547 128.819 97.1579 128.429 97.7643C128.042 98.3708 127.847 99.214 127.844 100.294H127.914C128.078 100.025 128.279 99.7957 128.517 99.6069C128.759 99.4151 129.028 99.2681 129.325 99.166C129.625 99.0608 129.94 99.0082 130.272 99.0082C130.822 99.0082 131.32 99.1428 131.766 99.412C132.215 99.6781 132.572 100.046 132.838 100.517C133.104 100.987 133.237 101.525 133.237 102.132C133.237 102.738 133.1 103.287 132.824 103.779C132.552 104.271 132.168 104.661 131.673 104.949C131.178 105.234 130.6 105.373 129.937 105.367ZM129.933 104.16C130.298 104.16 130.624 104.07 130.912 103.891C131.2 103.711 131.427 103.47 131.594 103.167C131.761 102.864 131.845 102.525 131.845 102.15C131.845 101.785 131.763 101.453 131.599 101.152C131.438 100.852 131.215 100.614 130.931 100.438C130.649 100.261 130.327 100.173 129.965 100.173C129.69 100.173 129.435 100.226 129.199 100.331C128.967 100.436 128.763 100.582 128.587 100.767C128.41 100.953 128.271 101.166 128.169 101.408C128.07 101.646 128.021 101.898 128.021 102.164C128.021 102.52 128.103 102.85 128.267 103.153C128.434 103.456 128.661 103.701 128.949 103.886C129.24 104.069 129.568 104.16 129.933 104.16ZM134.728 103.38V102.22L138.836 95.7315H139.75V97.4395H139.17L136.232 102.09V102.164H141.862V103.38H134.728ZM139.235 105.237V103.028L139.244 102.498V95.7315H140.604V105.237H139.235ZM143.8 105.237L147.949 97.031V96.9614H143.15V95.7315H149.434V97.0032L145.299 105.237H143.8ZM151.624 105.237L155.773 97.031V96.9614H150.974V95.7315H157.258V97.0032L153.123 105.237H151.624ZM162.35 105.237V98.1078H163.682V99.2681H163.77C163.919 98.8752 164.161 98.5688 164.499 98.3492C164.836 98.1264 165.24 98.015 165.71 98.015C166.187 98.015 166.586 98.1264 166.908 98.3492C167.232 98.5719 167.472 98.8783 167.627 99.2681H167.701C167.871 98.8875 168.142 98.5843 168.513 98.3584C168.885 98.1295 169.327 98.015 169.841 98.015C170.488 98.015 171.015 98.2176 171.423 98.623C171.835 99.0283 172.041 99.6394 172.041 100.456V105.237H170.653V100.586C170.653 100.104 170.522 99.7539 170.259 99.5373C169.996 99.3207 169.681 99.2124 169.316 99.2124C168.865 99.2124 168.513 99.3517 168.263 99.6301C168.012 99.9055 167.887 100.26 167.887 100.693V105.237H166.504V100.498C166.504 100.111 166.383 99.8003 166.142 99.5652C165.9 99.33 165.586 99.2124 165.2 99.2124C164.937 99.2124 164.694 99.282 164.471 99.4213C164.251 99.5574 164.073 99.7477 163.937 99.9922C163.804 100.237 163.738 100.52 163.738 100.842V105.237H162.35ZM179.243 99.8483L177.985 100.071C177.933 99.9102 177.849 99.757 177.734 99.6116C177.623 99.4662 177.471 99.347 177.28 99.2542C177.088 99.1614 176.848 99.115 176.56 99.115C176.167 99.115 175.839 99.2031 175.576 99.3795C175.313 99.5528 175.182 99.7771 175.182 100.053C175.182 100.291 175.27 100.483 175.446 100.628C175.623 100.773 175.907 100.893 176.3 100.985L177.433 101.245C178.089 101.397 178.578 101.631 178.899 101.946C179.221 102.262 179.382 102.672 179.382 103.176C179.382 103.603 179.258 103.984 179.011 104.318C178.766 104.649 178.424 104.909 177.985 105.098C177.549 105.286 177.043 105.381 176.467 105.381C175.669 105.381 175.018 105.211 174.513 104.87C174.009 104.527 173.7 104.039 173.585 103.408L174.927 103.204C175.01 103.554 175.182 103.818 175.442 103.998C175.702 104.174 176.04 104.262 176.458 104.262C176.913 104.262 177.277 104.168 177.549 103.979C177.821 103.787 177.957 103.554 177.957 103.278C177.957 103.055 177.874 102.868 177.707 102.717C177.543 102.565 177.29 102.45 176.95 102.373L175.743 102.109C175.078 101.957 174.586 101.716 174.267 101.385C173.952 101.053 173.794 100.634 173.794 100.127C173.794 99.706 173.912 99.3377 174.147 99.0221C174.382 98.7065 174.707 98.4605 175.121 98.2842C175.536 98.1047 176.011 98.015 176.546 98.015C177.317 98.015 177.923 98.1821 178.366 98.5162C178.808 98.8473 179.101 99.2913 179.243 99.8483Z" fill="#4B5563"/>
<path d="M177.305 74.5977L270.661 74.5977" stroke="#D1D5DB" stroke-width="0.933561" stroke-dasharray="5.6 5.6"/>
<path d="M192.038 48.0161C188.106 53.3936 180.959 59.4208 177.305 61.9669V74.5982H270.661V63.2797L260.968 39.1475C260.374 37.6686 258.319 37.5658 257.581 38.9781L247.617 58.0283L235.997 49.9323L226.346 59.9976L214.923 55.6214L203.106 58.0283L193.514 47.9077C193.101 47.4726 192.392 47.5323 192.038 48.0161Z" fill="url(#paint1_linear_329_1658)"/>
<path d="M177.305 62.0771C180.417 59.9006 186.486 54.8695 190.223 49.4213C191.414 47.685 194.088 47.3211 195.437 48.9374L202.034 56.8389C202.694 57.6299 203.735 57.9944 204.745 57.788L214.121 55.8709C214.645 55.7638 215.188 55.8088 215.687 56.0007L224.604 59.4302C225.659 59.8359 226.855 59.5678 227.635 58.7506L234.336 51.7342C235.292 50.7341 236.834 50.5809 237.967 51.3735L244.915 56.2332C246.331 57.2235 248.297 56.7082 249.045 55.1508L256.595 39.4322C257.663 37.2096 260.874 37.3515 261.741 39.6597L270.661 63.3949" stroke="#155BFF" stroke-width="1.86712" stroke-linecap="round"/>
<defs>
<filter id="filter0_d_329_1658" x="0.668766" y="0.806284" width="314.059" height="160.955" filterUnits="userSpaceOnUse" color-interpolation-filters="sRGB">
<feFlood flood-opacity="0" result="BackgroundImageFix"/>
<feColorMatrix in="SourceAlpha" type="matrix" values="0 0 0 0 0 0 0 0 0 0 0 0 0 0 0 0 0 0 127 0" result="hardAlpha"/>
<feOffset dy="12.2879"/>
<feGaussianBlur stdDeviation="13.1656"/>
<feComposite in2="hardAlpha" operator="out"/>
<feColorMatrix type="matrix" values="0 0 0 0 0.596078 0 0 0 0 0.701961 0 0 0 0 0.94902 0 0 0 0.15 0"/>
<feBlend mode="normal" in2="BackgroundImageFix" result="effect1_dropShadow_329_1658"/>
<feBlend mode="normal" in="SourceGraphic" in2="effect1_dropShadow_329_1658" result="shape"/>
</filter>
<linearGradient id="paint0_linear_329_1658" x1="205.405" y1="22.4091" x2="288.397" y2="68.9961" gradientUnits="userSpaceOnUse">
<stop stop-color="white"/>
<stop offset="1" stop-color="#E3ECFF"/>
</linearGradient>
<linearGradient id="paint1_linear_329_1658" x1="223.983" y1="43.7409" x2="223.983" y2="74.5982" gradientUnits="userSpaceOnUse">
<stop stop-color="#155BFF" stop-opacity="0.6"/>
<stop offset="1" stop-color="#155BFF" stop-opacity="0"/>
</linearGradient>
</defs>
</svg>
