<svg width="50" height="50" viewBox="0 0 50 50" fill="none" xmlns="http://www.w3.org/2000/svg">
<path d="M23.6721 47.9449V28.7842L11.6445 43.6537C15.1745 46.2048 19.3156 47.6903 23.6721 47.9449Z" fill="#487FFF"/>
<path d="M26.3691 26.3213V47.9448C31.9718 47.6175 37.2213 45.2566 41.2729 41.2109C45.3253 37.1644 47.6917 31.9202 48.0197 26.3213H26.3691Z" fill="#487FFF"/>
<path d="M38.4922 14.8027H41.8604V23.6239H38.4922V14.8027Z" fill="#487FFF"/>
<path d="M8.77816 8.73473C4.40716 13.1035 2 18.8705 2 24.9731C2 31.0758 4.40716 36.8428 8.77816 41.2115C9.03185 41.465 9.29067 41.7114 9.55362 41.9515L23.673 24.4959V2C18.0686 2.32826 12.8244 4.69051 8.77816 8.73473Z" fill="#487FFF"/>
<path d="M26.3691 12.125H29.729V23.6251H26.3691V12.125Z" fill="#487FFF"/>
<path d="M32.4258 5.63574H35.794V23.625H32.4258V5.63574Z" fill="#487FFF"/>
<path d="M44.5566 18.4092H48.0597V23.6247H44.5566V18.4092Z" fill="#487FFF"/>
</svg>
