<svg width="560" height="615" viewBox="0 0 560 615" fill="none" xmlns="http://www.w3.org/2000/svg">
<path d="M557.501 381.721C558.88 381.721 560 380.609 560 379.207L559.461 366.253L558.351 337.604C558.31 336.7 557.584 336.004 556.682 336.004C555.78 336.004 555.013 336.752 555.013 337.677V343.338C554.39 344.148 553.302 344.647 552.265 344.647C551.643 344.647 551.051 344.481 550.554 344.148C550.035 343.795 549.486 343.483 548.926 343.182L454.36 292.905L456.476 287.825C459.12 287.711 461.297 285.696 461.556 283.026C462.147 276.908 462.438 270.696 462.438 264.546V242.784C462.438 242.213 462.334 241.652 462.137 241.101C461.432 239.221 459.617 237.954 457.616 237.954H428.386C426.374 237.954 424.549 239.221 423.865 241.101C423.668 241.652 423.564 242.213 423.564 242.784V264.546C423.564 268.587 423.71 272.68 423.969 276.731L379.247 252.954L381.186 248.279C383.83 248.165 386.008 246.15 386.267 243.48C386.858 237.372 387.148 231.15 387.148 225V203.238C387.148 202.666 387.045 202.095 386.848 201.555C386.143 199.675 384.328 198.407 382.327 198.407H353.096C351.085 198.407 349.26 199.675 348.576 201.555C348.379 202.084 348.275 202.666 348.275 203.238V225C348.275 228.885 348.41 232.791 348.638 236.676L314.658 218.611V68.0298C313.839 46.7971 307.96 35.8172 302.288 25.1904C300.671 22.178 299.157 19.3317 297.736 16.2569C296.067 12.6316 293.848 8.98546 291.131 5.4536C288.456 1.99446 284.422 0 280.067 0C275.712 0 271.741 1.95291 269.066 5.39127C266.266 8.97507 264.006 12.6316 262.357 16.2569C260.947 19.3317 259.423 22.178 257.805 25.1904C252.133 35.8068 246.275 46.7971 245.435 67.9986L245.404 68.3206V218.57L211.383 236.655C211.621 232.77 211.746 228.854 211.746 224.979V203.217C211.746 202.645 211.642 202.074 211.445 201.534C210.74 199.654 208.926 198.386 206.924 198.386H177.694C175.682 198.386 173.857 199.654 173.173 201.534C172.976 202.084 172.872 202.645 172.872 203.217V224.979C172.872 231.108 173.173 237.341 173.754 243.459C174.023 246.129 176.191 248.144 178.835 248.258L180.774 252.933L136.052 276.711C136.311 272.649 136.456 268.566 136.456 264.526V242.763C136.456 242.192 136.353 241.61 136.156 241.08C135.451 239.2 133.636 237.933 131.635 237.933H102.405C100.393 237.933 98.568 239.2 97.8836 241.08C97.6866 241.61 97.5829 242.192 97.5829 242.763V264.526C97.5829 270.675 97.8836 276.887 98.4643 283.006C98.7339 285.686 100.901 287.69 103.545 287.805L105.64 292.884L11.0741 343.161C10.5142 343.452 9.96464 343.774 9.44618 344.127C8.31596 344.875 6.54286 344.72 5.44374 343.805C5.27783 343.66 5.1223 343.504 4.9875 343.338V337.666C4.9875 336.752 4.24093 335.994 3.31809 335.994C2.39525 335.994 1.69015 336.7 1.64868 337.593L0.539189 366.326L0 379.228C0 380.599 1.11985 381.721 2.49894 381.721C3.87802 381.721 4.9875 380.609 4.9875 379.228V373.078L83.7921 348.844V350.267C83.7921 351.534 84.3002 352.76 85.2023 353.663V358.972C85.2023 360.717 85.8141 362.389 86.9339 363.656L88.4478 365.402C88.593 365.557 88.7692 365.641 88.987 365.641C89.1736 365.641 89.3499 365.578 89.4951 365.443C89.6402 365.298 89.7336 365.121 89.7336 364.913V347.036L142.605 330.779V331.039C142.605 332.306 143.113 333.532 144.015 334.436V339.744C144.015 341.489 144.627 343.161 145.747 344.429L147.261 346.174C147.385 346.33 147.582 346.413 147.8 346.413C147.987 346.413 148.163 346.35 148.308 346.215C148.453 346.07 148.547 345.893 148.547 345.675V328.961L175.952 320.526L201.408 320.848V321.544C201.408 322.812 201.916 324.037 202.818 324.941V330.249C202.818 331.994 203.43 333.667 204.55 334.934L206.064 336.679C206.209 336.835 206.385 336.918 206.592 336.918C206.779 336.918 206.955 336.856 207.101 336.721C207.246 336.575 207.339 336.399 207.339 336.181V320.942L245.476 321.44V449.595C245.476 464.626 246.627 479.262 248.877 493.12C250.402 502.355 252.206 510.229 254.207 516.492C254.425 517.199 254.653 517.905 254.871 518.622C253.813 530.028 247.208 540.135 237.181 545.682L186.86 573.501C181.116 576.669 177.559 582.725 177.559 589.29V606.191L255.576 589.955C258.707 589.301 261.973 589.997 264.586 591.835L269.014 594.983C269.771 600.021 270.549 604.716 271.191 607.801C272.062 611.977 275.806 615 280.067 615H280.088C284.35 615 288.072 611.977 288.964 607.801C289.524 605.142 290.239 600.956 291.142 595.014L295.6 591.846C298.192 590.007 301.479 589.311 304.611 589.965L382.627 606.202V589.301C382.627 582.735 379.06 576.679 373.326 573.511L323.006 545.693C312.979 540.145 306.384 530.048 305.316 518.643C305.513 517.936 305.731 517.22 305.969 516.503C307.856 510.582 309.505 503.466 310.874 495.405C311.019 494.626 311.143 493.857 311.278 493.068C311.994 488.653 312.585 484.311 313.041 480.125C314.14 470.256 314.679 460.003 314.679 449.647V321.461L352.785 320.963V336.202C352.785 336.607 353.107 336.949 353.511 336.949C353.708 336.949 353.905 336.856 354.05 336.7L355.554 334.965C356.674 333.688 357.286 332.026 357.286 330.28V324.972C358.188 324.069 358.696 322.864 358.696 321.576V320.879L384.152 320.557L411.557 328.982V345.696C411.557 346.101 411.878 346.444 412.283 346.444C412.49 346.444 412.677 346.361 412.812 346.195L414.315 344.46C415.435 343.193 416.047 341.52 416.047 339.775V334.467C416.949 333.563 417.457 332.348 417.457 331.07V330.81L470.329 347.067V364.945C470.329 365.35 470.65 365.693 471.055 365.693C471.262 365.693 471.449 365.609 471.583 365.443L473.087 363.708C474.207 362.431 474.818 360.769 474.818 359.024V353.715C475.721 352.812 476.229 351.596 476.229 350.319V348.895L555.033 373.13V379.28C555.033 380.651 556.153 381.773 557.522 381.773L557.47 381.731L557.501 381.721ZM473.844 353.248V358.982C473.844 360.499 473.305 361.932 472.34 363.023L471.283 364.249V347.337L475.233 348.553V350.277C475.233 351.347 474.777 352.365 473.979 353.092L473.823 353.238H473.833L473.844 353.248ZM415.062 333.999V339.744C415.062 341.26 414.533 342.694 413.569 343.785L412.511 345.01V329.262L416.462 330.478V331.039C416.462 332.109 416.005 333.137 415.207 333.854L415.051 333.999H415.062ZM356.28 324.515V330.26C356.28 331.776 355.741 333.21 354.776 334.301L353.719 335.516V320.931L357.669 320.879V321.555C357.669 322.625 357.213 323.643 356.415 324.37L356.259 324.515H356.269H356.28ZM306.757 494.761C305.285 494.761 304.082 493.556 304.082 492.081V482.722C304.082 481.247 305.285 480.052 306.757 480.052H311.869C311.423 484.186 310.843 488.497 310.138 492.85C310.034 493.494 309.93 494.117 309.816 494.751H306.768L306.757 494.761ZM313.352 449.605C313.352 459.598 312.813 469.508 311.807 479.055H306.757C304.756 479.055 303.107 480.696 303.107 482.711V492.071C303.107 494.075 304.746 495.727 306.757 495.727H309.474C308.126 503.487 306.529 510.343 304.715 516.056C304.455 516.825 304.217 517.594 304.009 518.341C297.788 538.359 293.91 561.596 292.821 572.327C292.801 572.597 292.759 572.888 292.728 573.199C292.22 577.884 291.038 586.745 289.876 594.494C288.954 600.561 288.238 604.82 287.678 607.49C286.921 611.063 283.728 613.66 280.078 613.66H280.057C276.407 613.66 273.213 611.063 272.457 607.5C270.735 599.19 268.008 579.172 267.314 572.337C266.142 560.942 262.025 536.562 255.451 516.077C253.678 510.519 252.061 503.684 250.65 495.748H253.409C255.42 495.748 257.059 494.107 257.059 492.091V482.732C257.059 480.727 255.42 479.076 253.409 479.076H248.328C247.312 469.498 246.793 459.629 246.793 449.574V265.346H251.833C253.461 265.346 254.788 264.017 254.788 262.375V255.436C254.788 253.795 253.461 252.465 251.833 252.465H246.772V249.806H251.833C253.461 249.806 254.788 248.476 254.788 246.835V239.896C254.788 238.255 253.461 236.925 251.833 236.925H246.762V190.211L265.934 173.051L265.986 172.999L263.84 59.5429L270.424 49.6226L287.502 49.5395L293.993 59.3871V172.853L313.383 189.868V236.894H308.354C306.726 236.894 305.399 238.224 305.399 239.865V246.804C305.399 248.445 306.726 249.775 308.354 249.775H313.383V252.434H308.354C306.726 252.434 305.399 253.764 305.399 255.405V262.344C305.399 263.985 306.726 265.315 308.354 265.315H313.383V449.584H313.352V449.605ZM322.342 546.794L336.143 554.429V565.128L368.609 581.52L368.847 581.634V572.503L372.652 574.602C377.982 577.552 381.29 583.161 381.29 589.259V601.797L303.128 578.518L304.663 523.047C306.851 533.082 313.228 541.745 322.332 546.783L322.342 546.794ZM336.485 554.595L368.546 572.316V581.094L336.485 564.91V554.584V554.595ZM302.807 578.58L291.453 593.144L291.39 593.186C291.784 590.537 292.158 587.805 292.521 585.187V585.156C292.583 584.688 292.655 584.231 292.707 583.774C292.718 583.66 292.728 583.535 292.759 583.421C292.811 583.058 292.852 582.694 292.904 582.341C292.915 582.195 292.946 582.05 292.956 581.915C293.008 581.562 293.049 581.219 293.091 580.886C293.101 580.762 293.132 580.616 293.143 580.481C293.184 580.17 293.226 579.858 293.257 579.546C293.278 579.38 293.298 579.204 293.319 579.048C293.34 578.798 293.381 578.549 293.412 578.321C293.433 578.123 293.464 577.916 293.485 577.718C293.516 577.5 293.537 577.292 293.568 577.064C293.599 576.866 293.62 576.669 293.651 576.472C293.672 576.253 293.703 576.056 293.734 575.848C293.765 575.682 293.775 575.506 293.796 575.35C293.817 575.132 293.848 574.903 293.869 574.695C293.879 574.571 293.9 574.425 293.92 574.29C293.941 574.103 293.962 573.937 293.983 573.75C293.993 573.605 294.024 573.449 294.034 573.303C294.066 573.002 294.097 572.732 294.128 572.472C294.19 571.818 294.273 571.111 294.366 570.374C294.387 570.156 294.418 569.917 294.439 569.699C294.501 569.148 294.574 568.618 294.646 568.026C294.688 567.725 294.74 567.403 294.781 567.091C294.864 566.551 294.926 566.022 294.999 565.45C295.051 565.087 295.102 564.702 295.165 564.339C295.237 563.788 295.32 563.248 295.414 562.656C295.476 562.251 295.538 561.825 295.611 561.42C295.704 560.848 295.797 560.256 295.88 559.654C295.942 559.228 296.025 558.781 296.098 558.334C296.202 557.722 296.305 557.109 296.409 556.485C296.482 556.028 296.575 555.561 296.658 555.094C296.772 554.449 296.876 553.826 297 553.172C297.093 552.694 297.187 552.195 297.27 551.707C297.384 551.053 297.518 550.388 297.653 549.723C297.747 549.214 297.85 548.705 297.954 548.196C298.089 547.521 298.224 546.856 298.358 546.16C298.462 545.641 298.576 545.111 298.68 544.581C298.825 543.906 298.97 543.21 299.126 542.524C299.24 541.984 299.364 541.454 299.478 540.924C299.634 540.218 299.789 539.533 299.945 538.826C300.059 538.276 300.194 537.735 300.318 537.185C300.474 536.489 300.64 535.793 300.816 535.097C300.951 534.536 301.085 533.975 301.22 533.404C301.386 532.718 301.562 532.033 301.739 531.347C301.884 530.776 302.029 530.194 302.185 529.612C302.35 528.947 302.537 528.272 302.724 527.607C302.879 527.015 303.035 526.423 303.201 525.831C303.387 525.187 303.564 524.553 303.75 523.909C303.916 523.296 304.103 522.683 304.269 522.081C304.31 521.956 304.352 521.811 304.383 521.676L302.807 578.632V578.601V578.58ZM292.375 592.49L303.024 578.84L381.3 602.14V604.55L304.86 588.646C303.999 588.459 303.128 588.376 302.257 588.376C299.582 588.376 297.021 589.197 294.843 590.734L292.396 592.469H292.386L292.375 592.49ZM191.62 572.327L223.681 554.605V564.931L191.62 581.115V572.337V572.327ZM191.288 572.503V581.634L223.909 565.17L224.002 565.128V554.429L237.803 546.794C247.177 541.61 253.647 532.583 255.648 522.185L257.017 578.528L178.855 601.807V589.269C178.855 583.172 182.163 577.562 187.493 574.612L191.298 572.514H191.288V572.503ZM257.359 578.58L256.001 522.372C256.198 523.047 256.395 523.733 256.592 524.408C261.756 542.836 265.012 562.573 266.028 572.483C266.443 576.513 267.552 585.083 268.755 593.175H268.724L257.37 578.601H257.359V578.58ZM178.855 604.55V602.14L257.131 578.84L267.78 592.49L265.333 590.755C262.44 588.708 258.79 587.94 255.306 588.667L178.866 604.571H178.855V604.55ZM205.286 334.29C204.322 333.189 203.803 331.756 203.803 330.249V324.505L203.648 324.359C202.849 323.643 202.393 322.614 202.393 321.544V320.869L206.344 320.921V335.526L205.286 334.301V334.29ZM146.504 343.774C145.54 342.673 145.021 341.24 145.021 339.733V333.989L144.866 333.844C144.067 333.127 143.611 332.098 143.611 331.028V330.467L147.562 329.252V344.99L146.504 343.764V343.774ZM87.7323 363.023C86.768 361.922 86.2496 360.488 86.2496 358.982V353.238L86.094 353.092C85.2956 352.375 84.8394 351.347 84.8394 350.277V348.553L88.79 347.337V364.249L87.7323 363.023ZM3.3803 336.97C3.75359 336.97 4.07503 337.282 4.07503 337.666V379.093C4.07503 379.976 3.41141 380.713 2.59226 380.713C1.7731 380.713 1.10949 379.997 1.10949 379.124L2.69595 337.645C2.70632 337.282 3.00702 336.981 3.39067 336.981L3.3803 336.97ZM98.5887 243.251H104.167V281.011L100.362 285.156C99.8848 284.533 99.553 283.764 99.4804 282.912C98.8894 276.835 98.5991 270.644 98.5991 264.526V243.241L98.5887 243.251ZM131.676 238.899C133.283 238.899 134.725 239.907 135.285 241.413C135.388 241.683 135.44 241.974 135.482 242.265H98.6406C98.682 241.974 98.7339 241.693 98.8376 241.413C99.3975 239.917 100.849 238.899 102.446 238.899H131.676ZM135.088 277.261L130.162 279.879V243.251H135.523V264.536C135.523 268.764 135.368 273.033 135.088 277.261ZM210.585 201.887C210.688 202.157 210.74 202.448 210.782 202.739H173.94C173.982 202.448 174.034 202.168 174.137 201.887C174.697 200.391 176.139 199.384 177.746 199.384H206.976C208.583 199.384 210.025 200.391 210.585 201.887ZM210.429 237.216L205.473 239.855V203.726H210.833V225.01C210.833 229.072 210.688 233.165 210.429 237.237V237.216ZM246.617 89.8857V75.1766H252.921C253.73 75.1766 254.383 75.831 254.383 76.6413V88.4107C254.383 89.2209 253.73 89.8753 252.921 89.8753H246.617V89.8857ZM252.921 90.8726C254.259 90.8726 255.358 89.7715 255.358 88.4211V76.6517C255.358 75.3116 254.259 74.2001 252.921 74.2001H246.731V68.383L246.762 68.0817C247.571 47.1503 253.367 36.295 258.977 25.8033C260.532 22.9051 262.129 19.903 263.55 16.7867C264.835 13.982 266.505 11.1461 268.506 8.34141C270.632 11.1877 274.997 13.0367 279.86 13.0367C284.723 13.0367 289.4 11.0422 291.421 8.02978C293.485 10.9176 295.227 13.847 296.565 16.7867C297.985 19.903 299.592 22.9051 301.137 25.8033C306.737 36.295 312.543 47.1503 313.352 68.0506V74.2001H307.203C305.866 74.2001 304.756 75.3012 304.756 76.6517V88.4211C304.756 89.7611 305.855 90.8726 307.203 90.8726H313.352V189.443L294.283 172.718V59.2936L287.689 49.2902L287.637 49.2071L270.3 49.2902H270.206L263.467 59.4287L265.613 172.832L246.71 189.744V90.8622H252.911L252.921 90.8726ZM280.088 1.31925C284.039 1.31925 287.699 3.11634 290.125 6.26385C290.519 6.76247 290.872 7.27147 291.235 7.78047C289.306 10.7514 284.848 12.7355 279.881 12.7355C274.914 12.7355 270.756 10.8968 268.724 8.0921C269.18 7.46884 269.626 6.83518 270.124 6.21191C272.55 3.10596 276.189 1.32964 280.109 1.32964H280.098L280.088 1.31925ZM349.27 224.99V203.705H354.631V239.834L349.675 237.195C349.415 233.123 349.27 229.041 349.27 224.969V224.99ZM382.347 199.384C383.955 199.384 385.396 200.391 385.956 201.887C386.06 202.157 386.111 202.448 386.153 202.739H349.312C349.353 202.448 349.405 202.168 349.509 201.887C350.069 200.391 351.52 199.384 353.117 199.384H382.347ZM424.56 264.526V243.241H429.921V279.868L424.995 277.251C424.705 273.012 424.57 268.743 424.57 264.526H424.56ZM428.407 238.899H457.637C459.244 238.899 460.685 239.907 461.245 241.413C461.349 241.683 461.401 241.974 461.442 242.265H424.601C424.643 241.974 424.695 241.693 424.798 241.413C425.358 239.917 426.799 238.899 428.407 238.899ZM556.018 337.656C556.018 337.282 556.329 336.96 556.713 336.96C557.097 336.96 557.387 337.251 557.408 337.625L558.994 379.082C558.994 379.976 558.331 380.703 557.511 380.703C556.692 380.703 556.029 379.986 556.029 379.082V337.656H556.018ZM555.044 371.738L522.008 361.569L523.003 348.324L545.95 359.034L546.188 359.138V348.386C546.385 348.418 546.593 348.428 546.79 348.428C548.636 348.428 550.305 347.4 551.155 345.769C551.518 345.862 551.912 345.925 552.306 345.925C553.26 345.925 554.245 345.623 555.054 345.073V371.728L555.044 371.738ZM314.493 320.277V310.336H384.577L383.778 319.384L314.493 320.287V320.277ZM313.362 245.651H312.543C311.817 245.651 311.226 245.048 311.226 244.332V242.379C311.226 241.652 311.828 241.06 312.543 241.06H313.362V245.661V245.651ZM313.362 240.062H312.543C311.278 240.062 310.252 241.091 310.252 242.358V244.311C310.252 245.578 311.278 246.607 312.543 246.607H313.362V248.788H308.333C307.234 248.788 306.353 247.884 306.353 246.794V239.855C306.353 238.753 307.234 237.86 308.333 237.86H313.362V240.062ZM313.362 261.202H312.554C311.828 261.202 311.237 260.599 311.237 259.882V257.929C311.237 257.202 311.838 256.61 312.554 256.61H313.362V261.212V261.202ZM313.362 255.602H312.543C311.278 255.602 310.252 256.631 310.252 257.898V259.851C310.252 261.118 311.278 262.147 312.543 262.147H313.352V264.328H308.323C307.224 264.328 306.343 263.425 306.343 262.334V255.395C306.343 254.304 307.224 253.4 308.323 253.4H313.352V255.602H313.362ZM321.191 298.4H376.365V309.609H321.191V298.4ZM388.828 299.896L417.519 310.731L413.849 320.474L385.157 309.64L388.828 299.896ZM476.395 332.981L472.724 342.725L443.037 331.506L446.718 321.762L476.405 332.981H476.395ZM446.096 321.524L442.426 331.267L414.44 320.693L418.11 310.949L446.096 321.524ZM500.295 353.144L473.325 342.954L476.996 333.21L503.966 343.4L500.295 353.144ZM384.743 319.519L385.541 310.544L499.766 353.965L499.403 354.785L384.743 319.519ZM314.347 219.557L363.071 245.454C362.968 247.136 361.568 248.487 359.867 248.487C359.349 248.487 358.841 248.352 358.364 248.102L314.347 224.709V219.567V219.557ZM369.614 247.832L365.85 245.838V229.997C365.85 225.976 366.047 221.925 366.431 217.926L367.032 211.724C367.032 211.34 367.343 211.028 367.727 211.028C368.111 211.028 368.422 211.34 368.432 211.776L369.034 217.926C369.428 221.915 369.625 225.976 369.625 229.997V247.843L369.614 247.832ZM434.939 288.418C434.421 288.418 433.913 288.283 433.425 288.044L377.827 258.459C374.882 256.891 372.995 253.93 372.808 250.616L438.174 285.364C438.071 287.057 436.66 288.418 434.939 288.418ZM441.15 285.852V269.512C441.15 265.492 441.347 261.43 441.741 257.441L442.343 251.24C442.343 250.866 442.654 250.544 443.037 250.544C443.421 250.544 443.732 250.855 443.742 251.292L444.344 257.441C444.738 261.43 444.935 265.502 444.935 269.512V287.846L441.171 285.852H441.15ZM546.78 347.784C546.074 347.784 545.411 347.618 544.789 347.285L452.971 298.442C450.026 296.873 448.139 293.902 447.952 290.557L548.521 344.034C549.278 344.439 549.994 344.886 550.647 345.364C549.932 346.839 548.449 347.774 546.79 347.774L546.78 347.784ZM445.889 288.366V287.825H455.428L453.531 292.417L445.889 288.355V288.366ZM445.889 286.859V269.522C445.889 265.481 445.692 261.378 445.298 257.348L444.696 251.25C444.696 250.325 443.939 249.578 443.027 249.578C442.115 249.578 441.358 250.336 441.358 251.208L440.756 257.358C440.362 261.378 440.165 265.471 440.165 269.533V285.343L430.232 280.066V243.272H455.584V281.167L459.493 285.426C458.695 286.309 457.554 286.891 456.258 286.891H445.868V286.87L445.889 286.859ZM459.732 285.156L455.926 281.011V243.251H461.505V264.536C461.505 270.644 461.204 276.825 460.623 282.912C460.53 283.764 460.219 284.533 459.742 285.156H459.732ZM370.589 248.341V248.3H380.128L378.397 252.486L370.589 248.331V248.341ZM370.589 247.323V229.986C370.589 225.945 370.392 221.842 369.998 217.812L369.397 211.714C369.397 210.789 368.64 210.042 367.727 210.042C366.815 210.042 366.058 210.8 366.058 211.672L365.456 217.822C365.062 221.842 364.865 225.935 364.865 229.997V245.329L354.932 240.062V203.747H380.284V241.641L384.193 245.9C383.395 246.783 382.254 247.365 380.958 247.365H370.568V247.344L370.589 247.323ZM384.421 245.62L380.616 241.475V203.715H386.194V225C386.194 231.118 385.894 237.31 385.313 243.376C385.22 244.228 384.909 244.997 384.421 245.62ZM313.528 75.187V89.8961H307.224C306.415 89.8961 305.762 89.2417 305.762 88.4314V76.6621C305.762 75.8518 306.415 75.1974 307.224 75.1974H313.528V75.187ZM176.315 319.384L175.517 310.336H245.601V320.277L176.315 319.394V319.384ZM183.729 298.4H238.882V309.609H183.729V298.4ZM145.643 320.703L117.678 331.278L114.007 321.534L141.973 310.959L145.643 320.703ZM113.375 321.762L117.046 331.506L87.359 342.725L83.6884 332.981L113.375 321.762ZM174.936 309.64L146.245 320.474L142.574 310.731L171.255 299.896L174.925 309.64H174.936ZM86.7473 342.964L59.7774 353.154L56.1068 343.411L83.0766 333.22L86.7473 342.964ZM60.3166 353.965L174.542 310.544L175.34 319.519L60.6899 354.785L60.327 353.965H60.3166ZM112.151 290.557C111.985 293.871 110.088 296.863 107.133 298.442L15.3151 347.285C14.6929 347.607 14.0086 347.784 13.3242 347.784C11.6652 347.784 10.1824 346.849 9.46692 345.374C10.1202 344.886 10.8356 344.449 11.5926 344.044L112.162 290.568L112.151 290.557ZM118.943 285.852L115.179 287.846V269.512C115.179 265.502 115.376 261.451 115.77 257.441L116.372 251.24C116.372 250.866 116.683 250.544 117.066 250.544C117.45 250.544 117.761 250.855 117.771 251.292L118.373 257.441C118.767 261.43 118.964 265.492 118.964 269.512V285.852H118.943ZM182.256 258.459L126.658 288.044C126.181 288.293 125.673 288.418 125.144 288.418C123.423 288.418 122.012 287.057 121.909 285.364L187.275 250.616C187.078 253.92 185.201 256.891 182.256 258.459ZM194.233 245.817L190.469 247.812V229.965C190.469 225.945 190.666 221.884 191.06 217.895L191.661 211.693C191.661 211.319 191.972 210.997 192.356 210.997C192.739 210.997 193.051 211.309 193.061 211.745L193.662 217.895C194.056 221.884 194.253 225.956 194.253 229.965V245.807L194.233 245.817ZM201.729 248.102C201.263 248.352 200.755 248.487 200.226 248.487C198.515 248.487 197.126 247.147 197.022 245.454L245.725 219.557V224.699L201.729 248.092V248.102ZM246.721 256.579H247.602C248.328 256.579 248.919 257.171 248.919 257.898V259.851C248.919 260.578 248.328 261.17 247.602 261.17H246.721V256.569V256.579ZM246.721 241.039H247.602C248.328 241.039 248.919 241.641 248.919 242.358V244.311C248.919 245.038 248.328 245.63 247.602 245.63H246.721V241.028V241.039ZM246.721 262.178H247.602C248.867 262.178 249.894 261.15 249.894 259.882V257.929C249.894 256.662 248.867 255.634 247.602 255.634H246.721V253.452H251.822C252.921 253.452 253.803 254.356 253.803 255.447V262.386C253.803 263.476 252.921 264.38 251.822 264.38H246.721V262.178ZM246.721 246.627H247.602C248.867 246.627 249.894 245.599 249.894 244.332V242.379C249.894 241.112 248.867 240.083 247.602 240.083H246.721V237.902H251.822C252.921 237.902 253.803 238.805 253.803 239.896V246.835C253.803 247.936 252.921 248.83 251.822 248.83H246.721V246.627ZM173.889 203.715H179.467V241.475L175.662 245.62C175.174 244.997 174.853 244.228 174.77 243.376C174.179 237.278 173.889 231.098 173.889 224.99V203.705V203.715ZM179.799 241.6V203.705H205.151V240.021L195.218 245.287V229.955C195.218 225.914 195.021 221.811 194.637 217.78L194.036 211.683C194.036 210.758 193.279 210.01 192.366 210.01C191.454 210.01 190.697 210.769 190.697 211.641L190.095 217.791C189.701 221.811 189.504 225.904 189.504 229.965V247.303H179.115C177.839 247.303 176.688 246.742 175.879 245.848L179.789 241.589L179.799 241.6ZM189.494 248.3V248.341L181.686 252.497L179.954 248.31H189.494V248.3ZM104.489 281.146V243.251H129.841V280.045L119.907 285.322V269.512C119.907 265.471 119.71 261.368 119.316 257.337L118.715 251.24C118.715 250.315 117.958 249.567 117.046 249.567C116.133 249.567 115.376 250.325 115.376 251.198L114.775 257.348C114.381 261.378 114.184 265.481 114.184 269.522V286.859H103.794C102.519 286.859 101.368 286.298 100.559 285.395L104.468 281.146H104.489ZM114.194 287.836V288.376L106.552 292.438L104.655 287.846H114.194V287.836ZM8.9381 345.758C9.78836 347.389 11.437 348.438 13.3035 348.438C13.5005 348.438 13.7079 348.428 13.9049 348.397V359.148L37.09 348.334L38.0854 361.579L5.04972 371.749V345.093C6.17994 345.841 7.65234 346.101 8.94847 345.789L8.9381 345.758ZM38.4069 361.465L37.3907 347.815L14.247 358.618V348.324C14.7344 348.231 15.1803 348.075 15.6261 347.846L107.444 299.003C110.586 297.33 112.577 294.162 112.784 290.599L121.369 286.028C121.763 287.763 123.308 289.072 125.144 289.072C125.787 289.072 126.398 288.916 126.969 288.615L182.567 259.03C185.709 257.358 187.7 254.19 187.908 250.668L196.472 246.118C196.866 247.843 198.401 249.131 200.236 249.131C200.858 249.131 201.47 248.975 202.051 248.674L245.424 225.602V262.168L208.708 278.861L208.614 278.902V297.715H208.936V279.11L245.435 262.521V309.349H239.556V297.735H183.096V309.349H175.548L171.659 299.044L142.056 310.222L141.755 310.336L113.468 321.025L113.168 321.139L55.5987 342.891L55.298 343.006L59.1968 353.341L59.0309 353.404L59.7049 354.9L59.4975 354.962L38.438 361.444H38.3758L38.4069 361.465ZM248.286 480.042H253.398C254.871 480.042 256.073 481.247 256.073 482.711V492.071C256.073 493.546 254.871 494.751 253.398 494.751H250.35C250.236 494.107 250.132 493.483 250.028 492.85C249.313 488.466 248.722 484.145 248.297 480.052L248.286 480.042ZM501.083 353.414L500.917 353.352L504.816 343.016L477.234 332.607L446.936 321.16L388.745 299.169L388.444 299.055L384.546 309.391H377.007V297.746H320.538V309.359H314.648V262.531L351.147 279.121V297.725H351.469V278.913L314.648 262.188V225.623L358.032 248.695C358.602 248.996 359.204 249.152 359.847 249.152C361.682 249.152 363.227 247.864 363.611 246.139L372.175 250.689C372.383 254.211 374.374 257.379 377.516 259.051L433.114 288.636C433.685 288.937 434.296 289.093 434.939 289.093C436.795 289.093 438.33 287.784 438.724 286.049L447.309 290.62C447.506 294.152 449.497 297.351 452.649 299.034L544.467 347.877C544.892 348.116 545.369 348.272 545.846 348.355V358.65L522.91 347.95L522.703 347.846L521.686 361.496L500.42 354.941L501.094 353.445V353.414H501.083Z" fill="white"/>
</svg>
