<svg width="50" height="50" viewBox="0 0 50 50" fill="none" xmlns="http://www.w3.org/2000/svg">
<path d="M9.12825 22.0592L2.66364 28.5911C1.77879 29.4852 1.77879 30.9472 2.66364 31.8413C3.15291 32.3356 3.68382 32.5881 4.35006 32.5881C4.93302 32.5881 5.51598 32.3672 5.9532 31.9149L10.7002 27.1185C10.0027 25.362 9.46137 23.6475 9.12825 22.0592ZM11.5642 27.0449C11.5746 27.0659 11.585 27.087 11.585 27.108C12.0847 28.3387 12.6468 29.6009 13.2714 30.8736C16.2487 36.9426 20.4439 43.1695 23.619 47.3137C24.3164 48.2288 25.6801 48.2288 26.388 47.3137C29.5527 43.18 33.7479 36.9426 36.7356 30.8736C38.9009 26.4664 40.4207 22.1539 40.4207 18.8406C40.4207 17.4312 40.2437 16.0743 39.8794 14.749L35.1012 19.5664C35.0283 22.2906 33.8936 24.7414 32.1031 26.519C28.1473 30.4634 21.7972 30.4423 17.8622 26.4769C13.9273 22.501 13.9064 16.0428 17.8622 12.0458C22.1095 7.75433 29.053 8.14351 32.8318 12.8136L36.798 8.80616C30.9893 1.83252 20.5064 1.3592 14.1042 7.81744C11.3143 10.6363 9.58629 14.5281 9.58629 18.8301C9.58629 21.4597 10.544 24.4995 11.5642 27.0449ZM16.0717 21.7542C17.3001 20.8286 19.0386 20.9443 20.1316 22.0487L20.6105 22.5326C22.0366 23.9736 23.9209 24.6993 25.7947 24.6993C27.6789 24.6993 29.5527 23.9736 30.9788 22.5326L41.545 11.8565C42.5027 10.8888 44.0642 10.8888 45.0219 11.8565L45.5945 12.4455L47.9576 3.52597C48.197 2.6214 47.385 1.80097 46.4897 2.04289L37.6621 4.43054L38.2346 5.00905C39.1923 5.97674 39.1923 7.55448 38.2346 8.52217L27.6893 19.1982C26.6483 20.2501 24.941 20.2501 23.9 19.1982L23.1193 18.4094C21.2767 16.5476 18.643 15.8429 16.1654 16.4635C15.6241 18.1675 15.5929 20.0187 16.0717 21.7542Z" fill="#487FFF"/>
</svg>
