<svg width="50" height="50" viewBox="0 0 50 50" fill="none" xmlns="http://www.w3.org/2000/svg">
<path d="M16.9805 36.914L41.5668 16.595C43.0793 15.2868 44.2281 13.6192 44.9148 11.7515L46.8343 7.57418C47.6102 5.4586 45.5267 3.3998 43.3812 4.16208L39.1537 6.05877C37.2636 6.73736 35.5759 7.8725 34.2521 9.36704L14.105 33.1708L6.01035 33.156C5.45458 33.155 4.92162 33.3711 4.5324 33.7557L4.1745 34.1093C3.86581 34.4143 3.98332 34.9372 4.39595 35.0885L10.8321 37.4431C10.7747 37.9169 10.9325 38.4176 11.3007 38.7815L11.7992 39.274C12.0865 39.558 12.4588 39.7137 12.8399 39.7454L15.0336 45.6087C15.1867 46.0165 15.7158 46.1326 16.0245 45.8276L16.3824 45.4739C16.7717 45.0893 16.9903 44.5627 16.9893 44.0135L16.976 36.9184L16.9805 36.914Z" fill="#487FFF"/>
<path d="M28.6476 13.0947L9.87578 10.1595C9.15396 10.0474 8.42382 10.2808 7.90934 10.7892L7.11301 11.5761C6.81774 11.8679 6.90383 12.3685 7.28513 12.5419L22.8785 19.9134L28.6476 13.0947Z" fill="#487FFF"/>
<path d="M40.6347 40.5534L37.6914 22.1638L30.8266 27.8379L38.2236 43.1133C38.4036 43.4856 38.9058 43.5751 39.201 43.2833L39.9974 42.4965C40.5118 41.9881 40.7481 41.2666 40.6347 40.5534Z" fill="#487FFF"/>
</svg>
