<svg width="312" height="720" viewBox="0 0 312 720" fill="none" xmlns="http://www.w3.org/2000/svg">
<path d="M156 31L156 709" stroke="#E0EAF8" stroke-width="1.5" stroke-dasharray="4 4"/>
<line x1="7" y1="15.5" x2="156" y2="15.5" stroke="#E0EAF8"/>
<circle cx="156" cy="15" r="15" transform="rotate(-90 156 15)" fill="#2866F7" fill-opacity="0.18"/>
<circle cx="156" cy="15" r="6" transform="rotate(-90 156 15)" fill="#2866F7"/>
<circle cx="4" cy="15" r="4" transform="rotate(-90 4 15)" fill="#2866F7"/>
<line x1="7" y1="289.5" x2="156" y2="289.5" stroke="#E0EAF8"/>
<circle cx="156" cy="289" r="15" transform="rotate(-90 156 289)" fill="#2866F7" fill-opacity="0.18"/>
<circle cx="156" cy="289" r="6" transform="rotate(-90 156 289)" fill="#2866F7"/>
<circle cx="4" cy="289" r="4" transform="rotate(-90 4 289)" fill="#2866F7"/>
<line x1="305" y1="704.5" x2="156" y2="704.5" stroke="#E0EAF8"/>
<circle cx="156" cy="705" r="15" transform="rotate(90 156 705)" fill="#2866F7" fill-opacity="0.18"/>
<circle cx="156" cy="705" r="6" transform="rotate(90 156 705)" fill="#2866F7"/>
<circle cx="308" cy="705" r="4" transform="rotate(90 308 705)" fill="#2866F7"/>
<line x1="305" y1="151.499" x2="156" y2="151.499" stroke="#E0EAF8"/>
<circle cx="156" cy="152" r="12" transform="rotate(90 156 152)" fill="#2866F7" fill-opacity="0.18"/>
<circle cx="156" cy="152" r="4" transform="rotate(90 156 152)" fill="#2866F7"/>
<circle cx="308" cy="152" r="4" transform="rotate(90 308 152)" fill="#2866F7"/>
<line x1="305" y1="425.499" x2="156" y2="425.499" stroke="#E0EAF8"/>
<circle cx="156" cy="426" r="12" transform="rotate(90 156 426)" fill="#2866F7" fill-opacity="0.18"/>
<circle cx="156" cy="426" r="4" transform="rotate(90 156 426)" fill="#2866F7"/>
<circle cx="308" cy="426" r="4" transform="rotate(90 308 426)" fill="#2866F7"/>
<line x1="7" y1="564.5" x2="156" y2="564.5" stroke="#E0EAF8"/>
<circle cx="157" cy="564" r="16" transform="rotate(-90 157 564)" fill="#2866F7" fill-opacity="0.18"/>
<circle cx="157" cy="564" r="8" transform="rotate(-90 157 564)" fill="#2866F7"/>
<circle cx="4" cy="565" r="4" transform="rotate(-90 4 565)" fill="#2866F7"/>
</svg>
