<svg width="1340" height="750" viewBox="0 0 1340 750" fill="none" xmlns="http://www.w3.org/2000/svg">
<mask id="mask0_590_1283" style="mask-type:alpha" maskUnits="userSpaceOnUse" x="0" y="0" width="1340" height="750">
<rect width="1340" height="750" rx="40" fill="#487FFF"/>
</mask>
<g mask="url(#mask0_590_1283)">
<rect width="1340" height="750" rx="40" fill="#155BFF"/>
<g opacity="0.8">
<path style="mix-blend-mode:color-dodge" d="M1075.4 937.699C1075.4 1162.31 893.309 1344.4 668.698 1344.4C444.088 1344.4 262 1162.31 262 937.699C262 713.088 444.084 531.004 668.698 531.004C893.312 531.004 1075.4 713.085 1075.4 937.696V937.699Z" fill="url(#paint0_radial_590_1283)"/>
<g style="mix-blend-mode:color-dodge">
<path d="M491.162 576.219C491.044 576.198 490.866 576.245 490.587 576.329C489.697 576.665 488.383 577.331 488.168 577.475C487.966 577.62 485.651 579.549 485.644 579.565C485.51 579.676 485.378 579.811 485.436 579.861C485.449 579.875 486.551 580.345 489.888 578.02C491.73 576.746 491.525 576.279 491.162 576.215V576.219Z" fill="url(#paint1_radial_590_1283)"/>
<path d="M485.776 574.108C485.682 574.048 485.604 574.122 485.517 574.155C484.949 574.37 483.696 574.965 483.481 575.096C483.229 575.244 483 575.516 483.084 575.573C483.195 575.644 483.743 575.459 484.243 575.187C484.482 575.063 485.715 574.28 485.776 574.108Z" fill="url(#paint2_radial_590_1283)"/>
<path d="M495.558 569.726C496.199 569.578 496.842 569.37 497.487 569.101C497.578 569.064 498.452 568.705 499.849 567.969C499.863 567.955 501.459 567.119 501.711 566.92C501.637 566.898 501.516 566.912 501.348 566.964C501.288 566.984 495.387 569.101 489.977 571.984L492.984 570.805C493.841 570.459 494.624 569.935 495.552 569.726H495.558Z" fill="url(#paint3_radial_590_1283)"/>
<path d="M489.257 573.312C489.227 573.301 489.183 573.285 489.153 573.281C489.281 573.164 489.348 573.11 491.549 572.179C492.305 571.86 493.34 571.423 493.895 571.134C493.989 571.08 494.127 571.003 494.207 570.932C494.063 570.953 493.871 570.983 493.737 571.023C487.278 573.113 482.248 576.454 481.391 577.21C481.905 577.314 488.807 573.947 489.19 573.651C489.17 573.533 489.227 573.422 489.257 573.312Z" fill="url(#paint4_radial_590_1283)"/>
<path d="M495.816 572.693C495.95 572.609 496.092 572.515 496.199 572.411C496.421 572.22 496.602 571.988 496.814 571.793C497.197 571.44 497.61 571.117 498 570.765C498.229 570.556 498.229 570.506 498.235 570.479C498.205 570.452 498.185 570.445 498.02 570.486C496.71 570.916 494.438 572.593 494.297 572.787C494.297 572.798 494.307 572.804 494.307 572.814C494.451 572.886 494.327 573.192 493.938 573.732C494.122 573.712 495.806 572.7 495.813 572.693H495.816Z" fill="url(#paint5_radial_590_1283)"/>
<path d="M479.649 584.589C479.515 584.569 479.374 584.62 479.239 584.653C478.654 584.825 478.14 585.073 478.14 585.073C476.601 585.839 474.807 587.177 474.699 587.342C474.699 587.348 474.713 587.365 474.719 587.382C474.995 587.368 477.895 586.219 479.108 585.345C479.552 585.026 479.965 584.63 479.649 584.586V584.589Z" fill="url(#paint6_radial_590_1283)"/>
<path d="M482.564 591.24C482.406 591.132 482.251 591.014 481.391 591.142C481.243 591.162 481.055 591.196 480.91 591.223C479.512 591.505 478.104 591.781 476.703 592.07C474.979 592.449 469.394 595.107 468.628 596.173C468.635 596.213 468.652 596.26 468.658 596.297C469.112 596.441 469.613 596.206 470.05 596.505C470.732 596.979 470.53 597.278 470.382 597.503C470.13 597.9 466.424 600.652 465.426 601.183C465.009 601.408 464.959 601.401 464.727 601.388C464.448 600.309 465.762 599.943 465.792 599.009C465.096 599.113 461.652 600.954 461.249 601.902C461.205 602.003 461.151 602.161 461.188 602.265C461.403 603.065 461.843 603.787 461.995 604.614C462.062 604.933 462.27 605.222 462.257 605.565C462.257 606.17 461.874 606.718 461.968 607.343C461.988 607.44 462.025 607.581 462.099 607.652C463.147 608.754 472.536 603.25 475.097 600.676C475.658 600.104 477.295 596.845 476.219 596.885C475.04 596.925 474.001 597.497 472.886 597.759C475.08 596.284 477.547 595.272 479.741 593.79C479.761 593.773 482.53 591.424 482.554 591.243L482.564 591.24Z" fill="url(#paint7_radial_590_1283)"/>
<path d="M455.624 590.84C459.704 589.012 463.155 586.125 467.151 584.163C464.455 585.861 463.043 586.783 462.913 586.928L476.607 579.125C476.882 578.967 477.292 578.732 477.696 578.215C477.548 578.174 477.326 578.248 477.178 578.305C474.254 579.613 454.868 590.027 450.738 593.421C452.802 593.158 454.095 591.482 455.843 590.631C455.786 590.695 455.695 590.779 455.628 590.836L455.624 590.84Z" fill="url(#paint8_radial_590_1283)"/>
<path d="M455.66 619.719C455.603 619.719 455.526 619.733 455.475 619.746C455.257 619.827 455.008 619.944 454.555 620.297C452.777 621.675 451.45 623.537 449.511 624.726C446.295 626.692 445.324 627.29 445.176 627.767C445.203 627.784 445.23 627.821 445.253 627.828C445.505 627.861 445.737 627.814 446.52 627.65C447.743 627.391 447.894 627.398 448.123 627.562C448.553 627.851 448.449 628.544 449.013 628.739C449.188 628.802 450.075 628.712 450.959 628.544C456.514 627.512 458.822 625.227 458.836 625.207C459.458 624.461 457.912 621.601 457.905 621.577C457.223 620.408 455.838 619.719 455.654 619.716L455.66 619.719Z" fill="url(#paint9_radial_590_1283)"/>
<path d="M463.454 596.277C463.326 596.267 463.061 596.277 462.499 596.425C459.515 597.224 457.385 599.069 457.277 599.338C457.291 599.355 457.304 599.372 457.321 599.378C457.617 599.385 457.912 599.231 458.208 599.355C458.272 599.563 458.292 599.597 458 600.195C457.818 600.555 457.365 601.526 457.976 601.344C458.981 601.045 461.942 598.441 462.274 598.145C463.692 596.882 464.042 596.327 463.45 596.277H463.454Z" fill="url(#paint10_radial_590_1283)"/>
<path d="M595.87 542.436C593.881 544.876 588.689 546.284 585.896 547.04C585.765 547.07 571.642 551.167 571.037 551.986C567.139 557.225 576.941 558.912 577.059 558.895C601.361 557.114 601.674 557.38 603.381 558.862C603.508 558.973 614.806 571.531 611.133 578.356C609.648 581.131 609.655 581.236 609.732 581.619C609.997 583.084 611.758 583.191 612.269 584.431C613.045 586.33 612.262 588.504 613.321 590.349C616.523 589.596 619.097 586.259 622.915 587.966C629.434 590.866 626.423 596.112 626.376 596.159C623.701 599.325 618.832 599.184 616.426 602.752C615.099 604.711 613.801 610.105 614.803 613.264C615.267 614.756 634.253 646.908 643.35 649.983C638.783 583.134 635.436 552.736 630.825 538.286C634.969 550.992 638.319 575.919 643.35 649.983C666.1 654.352 666.58 653.804 668.032 652.171C670.441 649.476 674.551 628.685 674.585 628.48C675.176 625.418 673.566 622.182 675.311 619.215C676.235 617.679 676.342 617.646 682.031 615.918C693.979 612.3 700.109 609.359 700.423 607.094C700.9 603.592 701.172 601.66 704.398 600.017C712.218 596.055 721.214 595.494 729.017 591.475C732.213 589.821 735.701 588.766 738.658 586.676C738.722 586.632 740.19 585.56 738.369 583.198C735.707 579.764 731.651 577.774 729.084 574.239C727.451 571.978 727.508 569.121 726.375 566.685C725.062 563.835 725.65 563.066 727.249 561.449C729.464 559.205 727.931 558.291 723.371 555.609C708.495 546.821 708.367 546.616 707.097 544.641C707.177 544.452 707.275 544.21 707.355 544.022C707.584 543.935 707.893 543.824 708.118 543.733C703.773 539.479 694.945 542.849 692.832 534.771C692.385 534.546 691.787 534.247 691.343 534.042C691.41 533.665 691.541 533.161 691.659 532.798C691.847 532.751 692.089 532.688 692.257 532.644C690.305 532.378 684.676 532.022 684.616 532.015C680.848 531.797 676.083 532.614 675.173 532.782C671.913 533.366 669.151 531.229 666.016 531.122C661.613 530.967 651.929 530.95 648.068 531.138C643.332 531.403 640.689 531.72 640.14 532.089C640.14 532.089 640.124 532.089 640.11 532.096C634.955 532.376 631.146 532.753 628.681 533.225H628.665C628.594 533.242 628.493 533.182 628.449 533.269C628.46 533.303 628.493 533.289 628.513 533.292C628.591 533.306 628.681 533.316 628.762 533.329C631.773 533.551 633.731 533.777 634.636 534.008C634.385 534.035 632.577 534.022 629.212 533.968C627.142 533.944 626.369 533.934 623.916 534.166C605.783 536.192 592.758 542.036 592.627 542.097C593.053 542.325 594.133 542.438 595.867 542.436H595.87Z" fill="url(#paint11_radial_590_1283)"/>
<path d="M527.251 619.108C528.179 616.641 527.769 615.525 526.038 615.798C525.988 615.808 520.816 617.179 519.858 619.487C519.321 620.815 521.478 624.266 522.338 624.804C524.449 626.148 527.224 619.185 527.251 619.108Z" fill="url(#paint12_radial_590_1283)"/>
<path d="M564.094 545.83C562.948 546.304 561.769 546.714 560.589 547.147C564.316 546.274 576.333 542.974 578.272 542.426C570.224 545.098 563.862 547.208 557.078 548.646C555.495 548.982 555.018 549.362 554.406 549.832C554.406 550.296 553.754 552.601 552.601 553.657C549.013 552.571 539.697 557.968 539.335 558.281C540.158 558.643 541.126 558.492 541.912 558.976C541.875 559.094 541.815 559.258 541.784 559.383C542.984 559.225 543.438 559.174 547.42 557.699C540.564 561.433 539.768 560.545 539.24 559.961C534.045 560.085 533.743 562.061 533.608 563.012C530.658 564.958 526.817 565.163 524.199 567.74C524.266 567.854 524.371 567.999 524.451 568.11C525.278 568.153 525.869 568.18 531.286 567.118C535.282 566.325 538.824 563.493 543.219 564.46C543.004 564.976 542.59 565.466 541.976 565.932C544.899 566.514 554.251 561.977 553.401 559.668C553.092 559.578 552.669 559.477 552.349 559.406C553.045 558.425 559.228 554.503 560.63 554.174C568.98 552.161 571.91 549.026 571.988 548.32C571.86 548.28 571.692 548.223 571.558 548.172C579.297 546.153 582.825 545.229 585.228 543.639C584.813 543.61 584.158 543.675 583.262 543.834C583.343 543.807 600.78 538.38 601.677 538.115C597.167 538.76 596.892 538.793 595.188 538.914C599.516 537.762 603.962 537.11 608.307 536.001C604.107 536.011 597.114 536.875 597.063 536.888C596.892 536.908 580.086 539.778 576.46 541.173C576.608 541.384 576.897 541.616 577.139 541.72C576.437 541.932 575.839 542.12 574.071 541.902C572.841 541.751 558.395 545.262 556.91 547.053C557.652 547.403 557.84 547.487 564.104 545.837L564.094 545.83Z" fill="url(#paint13_radial_590_1283)"/>
<path d="M496.501 574.935C496.168 575.409 495.957 575.953 495.59 576.387C495.066 576.988 494.999 577.042 493.201 578.436C493.379 577.993 493.614 577.408 493.799 576.961C493.87 576.736 494.014 576.521 494.014 576.266C493.866 576.192 492.401 576.346 490.886 577.912C491.05 577.912 491.225 577.899 491.39 577.889C491.39 577.936 491.39 578.006 491.38 578.05C489.636 579.522 487.31 579.76 485.388 580.849C485.684 581.004 485.986 580.661 486.295 580.856C486.13 581.19 486.056 581.389 486.074 581.454C486.295 581.524 488.269 580.946 491.995 579.72C490.234 580.698 485.543 583.289 485.18 584.448C485.203 584.478 485.223 584.509 485.23 584.526C485.254 584.536 491.558 582.197 492.354 581.76C492.715 581.558 494.081 580.422 496.454 578.352C496.477 578.403 496.565 578.557 496.44 578.9C496.434 578.93 496.41 578.964 496.39 578.991C497.479 577.956 499.457 576.251 502.325 573.876C503.249 573.117 503.316 573.06 503.454 572.814C503.265 572.77 503.054 572.772 502.819 572.821C502.775 572.831 497.217 574.475 496.656 574.807C496.598 574.837 496.528 574.881 496.498 574.928L496.501 574.935Z" fill="url(#paint14_radial_590_1283)"/>
<path d="M557.451 619.517C560.046 619.299 565.765 626.504 565.825 626.581C567.186 628.355 568.608 630.193 569.895 629.952C573.477 629.276 578.824 615.603 578.874 615.465C579.008 615.045 579.133 614.46 579.099 614.016L552.925 608.082C553.657 607.507 554.356 606.973 560.647 604.177C563.409 602.957 564.784 602.342 564.696 601.623C564.481 599.751 555.287 591.041 550.825 590.319C548.842 590.003 546.742 590.604 544.826 589.66C542.79 588.662 543.042 585.355 540.253 585.14C537.692 584.935 532.181 587.012 528.159 588.528C524.072 590.063 524.035 590.057 523.393 590.02C523.128 589.361 522.832 588.682 522.594 582.734C520.94 582.079 515.765 582.959 514.226 583.242C506.349 585.097 482.867 604.779 487.282 607.786C491.658 610.777 506.726 607.699 508.752 606.718C508.45 605.457 508.255 604.624 514.824 603.905C520.399 603.3 521.226 601.946 521.78 601.049C523.135 601.764 526.724 604.873 526.744 604.896C528.659 606.946 529.466 609.725 531.257 611.869C533.515 614.568 538.71 614.275 538.761 619.228C538.761 619.336 537.635 630.445 522.15 635.086C517.516 636.471 512.489 636.205 508.093 638.547C506.148 639.576 506.087 642.856 506.642 643.343C507.489 644.106 510.231 644.442 518.37 641.689C522.516 640.285 528.276 641.202 535.649 644.442C535.051 645.071 533.265 645.943 530.292 647.056C532.732 649.21 551.644 653.145 555.506 651.008C555.403 650.618 555.024 650.264 554.37 649.946C554.036 649.785 551.067 647.092 545.461 641.868C552.021 642.577 554.094 643.417 557.824 645.944C558.55 646.441 559.071 646.797 559.427 646.69C561.534 646.038 565.049 638.101 563.352 636.34C559.686 632.526 552.851 633.023 550.757 627.065C549.033 622.165 557.364 619.521 557.455 619.517H557.451Z" fill="url(#paint15_radial_590_1283)"/>
<path d="M471.922 582.237C472.147 582.412 473.626 581.706 474.808 580.963C475.047 580.812 475.46 580.547 475.534 580.443C475.528 580.436 475.511 580.426 475.507 580.426C475.447 580.433 475.39 580.446 475.326 580.473C474.782 580.678 471.952 581.995 471.922 582.237Z" fill="url(#paint16_radial_590_1283)"/>
<path d="M616.729 596.969L620.725 596.172C620.725 596.172 621.766 595.712 622.028 594.959C622.19 594.479 622.015 594.166 621.844 593.897C621.487 593.299 620.768 593.108 620.338 592.58C620.073 592.251 620.056 591.935 620.056 591.757C620.056 591.703 620.036 591.629 619.992 591.592C619.992 591.592 619.481 591.253 618.07 591.417C616.279 591.8 611.167 594.774 613.957 596.482C614.562 596.855 615.62 597.177 616.729 596.965V596.969Z" fill="url(#paint17_radial_590_1283)"/>
<path d="M538.35 583.161C538.38 583.148 538.407 583.114 538.434 583.094C538.017 582.459 532.453 580.806 528.339 581.437C524.734 582.039 525.86 584.468 526.706 585.161C529.445 587.395 538.259 583.208 538.35 583.161Z" fill="url(#paint18_radial_590_1283)"/>
<path d="M510.262 564.427C509.126 564.857 507.244 565.643 506.848 565.939C507.032 565.922 507.204 565.862 507.365 565.808C509.139 565.237 510.894 565.374 510.894 565.381C510.732 566.01 509.865 565.989 509.717 566.635C509.946 566.937 512.96 565.717 513.172 565.606C514.257 565.028 517.766 561.98 517.766 561.369C517.299 561.214 516.926 561.617 516.482 561.611C516.879 560.838 517.853 560.882 518.35 560.253C518.297 560.237 518.191 560.252 518.034 560.297C514.882 561.325 510.709 563.237 510.191 563.587C510.894 563.788 511.515 563.278 512.204 563.335C512.298 563.597 511.932 563.802 510.262 564.427Z" fill="url(#paint19_radial_590_1283)"/>
<path d="M495.1 581.121C494.34 581.655 494.085 581.84 495.254 582.559C496.256 583.181 498.776 582.617 500.937 580.775C502.173 579.713 504.714 577.112 503.548 577.005C503.407 576.998 503.208 577.038 503.067 577.072C501.054 577.626 495.439 580.889 495.1 581.121Z" fill="url(#paint20_radial_590_1283)"/>
<path d="M529.451 562.32C529.437 562.296 529.407 562.266 529.4 562.249C529.309 562.256 529.199 562.28 529.125 562.3C529.044 562.327 528.946 562.347 528.873 562.374C527.253 562.858 525.687 563.493 524.081 563.98C522.219 564.544 520.297 564.917 518.435 565.495C517.111 565.909 516.295 566.194 516.016 566.366C516.52 566.483 521.943 565.59 524.857 564.773C526.309 564.36 526.994 564.094 528.967 562.713C529.138 562.595 529.309 562.474 529.454 562.316L529.451 562.32Z" fill="url(#paint21_radial_590_1283)"/>
<path d="M515.977 565.159C516 565.173 516.014 565.199 516.03 565.213C516.628 565.142 522.2 562.814 523.8 562.061C524.509 561.732 524.646 561.597 524.667 561.298C524.667 560.945 524.139 561.106 524.119 560.774C524.119 560.619 524.22 560.451 524.119 560.287C524.119 560.266 524.112 560.243 524.089 560.223C524.089 560.223 524.021 560.122 523.853 560.071C523.578 559.984 523.45 560.024 523.104 560.129C522.902 560.213 522.6 560.354 522.254 560.606C521.031 561.463 520.227 562.854 518.762 563.398C516.944 564.064 516.333 564.292 515.98 565.163L515.977 565.159Z" fill="url(#paint22_radial_590_1283)"/>
<path d="M528.899 556.789C532.834 554.826 532.858 554.782 532.915 554.675C532.77 554.658 532.633 554.715 532.508 554.745C532.471 554.759 528.54 556.019 527.39 556.574C526.073 557.229 526.523 557.672 526.523 557.672C526.796 557.814 527.713 557.373 528.896 556.789H528.899Z" fill="url(#paint23_radial_590_1283)"/>
<path d="M537.396 554.964C539.09 554.456 539.608 554.319 540.172 554.547C540.172 554.604 540.152 554.678 540.128 554.742C539.638 555.044 539.083 555.229 537.413 555.764C532.863 557.212 531.704 557.729 531.415 557.914C530.393 558.549 530.299 559.759 530.733 559.957C530.818 559.991 531.829 559.729 533.767 559.171C534.923 558.835 536.163 559.114 537.319 558.691C540.132 557.679 542.534 555.844 545.246 554.631C546.947 553.882 548.808 553.66 550.455 552.827C550.573 552.769 550.724 552.665 550.811 552.575C550.753 552.516 550.314 552.395 549.494 552.212C549.474 552.175 549.467 552.128 549.443 552.094C549.716 551.919 550.011 551.795 550.3 551.657C552.626 550.568 552.639 550.478 552.683 550.239C552.431 550.179 552.149 550.252 551.93 550.061C552.286 549.56 553.17 549.406 552.985 548.555C553.489 547.971 554.279 547.762 554.74 547.134C554.592 547.134 554.38 547.114 554.242 547.137C551.423 547.84 541.187 551.681 540.186 552.329C540.733 552.42 541.221 552.175 541.748 552.094C540.985 552.732 538.885 553.213 537.978 553.411C534.866 554.117 533.297 555.888 533.283 555.905C533.606 556.093 537.01 555.078 537.396 554.964Z" fill="url(#paint24_radial_590_1283)"/>
<path d="M504.948 581.259C505.207 581.256 533.707 578.329 541.258 570.838C543.311 568.809 538.257 568.513 538.203 568.513C535.578 568.442 522.779 572.858 520.12 573.933C517.755 574.891 515.9 572.686 516.401 572.115C516.626 571.86 517.005 571.735 517.882 571.483C522.5 570.183 520.215 568.718 519.717 568.694C518.511 568.63 517.483 569.346 516.33 569.484C514.976 569.649 513.672 569.145 512.328 569.286C511.931 569.329 510.574 569.507 509.723 569.729C509.014 570.018 506.78 572.354 506.8 572.922C507.378 572.905 507.421 572.905 508.557 572.518C509.828 572.075 511.592 571.47 511.958 571.709C512.67 572.172 510.395 575.072 510.281 575.193C508.89 576.49 506.934 576.978 505.654 578.436C503.154 581.292 504.162 581.276 504.952 581.259H504.948Z" fill="url(#paint25_radial_590_1283)"/>
<path d="M1075.39 933.361C1074.75 922.016 1074.21 906.86 1073.04 895.559C1072.54 892.158 1072.08 889.047 1071.65 886.13C1068.93 877.151 1068.69 875.709 1063.36 843.943C1063.43 844.061 1063.52 844.232 1063.58 844.35C1054.89 815.529 1050.48 800.421 1050.34 799.028C1050.4 799.098 1050.45 799.156 1050.51 799.219C1045.93 785.69 1043.8 781.073 1037.58 767.601L1023.65 740.331C1019.81 735.254 1015.36 730.768 1008.8 726.57C1014.92 730.462 1019.84 734.931 1023.65 740.331C1018.28 731.564 1011.41 719.709 1005.7 711.173C981.236 677.781 980.769 677.139 965.604 660.821L949.406 644.428L949.366 644.378C948.751 643.817 948.15 643.266 947.521 642.731C948.22 643.676 948.486 644.032 955.22 651.015C953.997 650.316 952.962 649.372 951.823 648.562C953.714 652.009 957.125 653.945 959.787 656.633C959.602 656.761 959.35 656.926 959.175 657.053C947.871 647.836 938.253 636.753 926.838 627.67C932.544 631.219 937.04 636.478 943.247 639.334C941.788 636.679 924.442 621.675 913.016 614.779C904.814 609.823 903.923 608.993 903.059 608.196C903.533 608.344 904.141 608.576 904.585 608.788C903.688 608.062 903.187 607.659 900.899 606.288C900.724 606.429 900.489 606.617 900.307 606.758C899.578 606.479 898.18 605.948 892.709 602.235C893.2 602.423 893.842 602.652 894.336 602.793C893.405 600.609 883.388 596.018 882.642 595.8C882.951 596.566 883.661 597.599 884.772 598.898C881.287 597.685 879.533 594.012 876.072 592.775C876.724 594.358 878.448 595.104 879.113 596.667C878.275 598.504 877.926 599.981 878.065 601.099C878.394 603.613 886.459 617.814 886.533 617.938C892.548 627.179 892.309 630.405 892.266 630.748C891.486 636.474 889.52 640.463 886.368 642.715C884.638 643.961 884.671 644.563 885.605 646.828C885.733 647.134 898.352 676.675 910.009 671.281C913.752 669.541 911.887 663.354 910.983 660.37C911.948 661.066 932.809 681.81 936.704 688.356C938.552 691.468 940.306 694.401 943.509 694.418C944.157 693.255 944.48 685.056 942.46 681.296C937.81 672.676 938.885 671.698 941.224 669.537C941.308 667.464 941.062 666.688 935.01 662.686C932.217 660.837 928.923 656.853 925.131 650.733C922.963 647.234 926.552 642.825 923.346 639.495C917.768 633.695 914.895 630.629 914.727 630.298C914.579 629.979 914.404 629.542 914.253 629.219C914.381 629.021 914.549 628.762 914.676 628.574C917.785 629.606 928.179 636.478 928.941 638.628C928.683 638.655 928.343 638.682 928.091 638.712C933.468 650.713 938.699 659.08 943.784 663.811C950.441 670.015 960.563 669.07 967.264 675.21C966.104 675.045 965.136 674.41 964.071 674.003C963.876 674.121 963.618 674.282 963.419 674.403C963.826 675.203 964.374 675.912 964.854 676.668C960.97 675.549 957.256 673.859 953.207 673.335C957.623 679.41 963.933 683.95 967.375 690.816C963.03 690.648 962.727 684.32 958.036 684.686C957.902 684.905 957.72 685.2 957.569 685.419C957.619 685.496 962.868 695.134 963.409 695.816C964.125 696.713 967.674 701.277 967.425 703.306C965.648 703.145 964.588 703.108 964.243 703.195C963.873 704.019 963.745 704.929 963.399 705.759C963.53 705.941 963.718 706.179 963.853 706.361L963.765 706.347C955.573 705.774 951.45 705.881 951.396 706.67C950.892 706.983 950.213 707.396 949.695 707.712C947.155 706.24 943.919 705.329 940.535 704.634L946.463 705.672C945.465 704.919 942.796 702.92 938.008 703.152C936.381 703.232 936.005 703.253 931.431 698.01C928.071 694.163 924.116 688.564 924.321 683.759C924.398 681.773 921.404 673.395 919.173 673.153C918.9 673.147 912.526 673.11 913.625 676.221C914.092 677.555 922.268 691.837 928.071 698.538C930.427 701.246 930.538 701.613 930.598 701.787C930.302 702.11 930.242 702.181 928.494 702.513C927.268 702.725 925.618 702.997 924.385 703.192C924.018 703.696 923.541 704.372 923.175 704.872C918.836 704.747 916.073 705.265 914.888 706.428C915.221 708.213 915.842 711.516 918.023 717.575C917.708 718.136 917.291 718.868 916.975 719.423C913.352 719.34 910.518 719.678 908.473 720.438C908.491 720.635 909.277 722.644 910.832 726.466C909.572 727.33 907.717 728.244 906.249 728.714C906.215 730.055 905.862 731.86 905.294 733.083C899.027 732.77 898.022 732.021 895.294 730.025C895.966 731.231 896.974 732.767 897.787 733.873C897.595 734.484 897.327 735.311 897.135 735.926C895.878 736.46 894.154 737.092 892.827 737.418C890.802 736.116 888.157 735.424 884.893 735.341C884.634 735.912 884.278 736.679 884.023 737.253C885.246 738.329 886.879 739.774 888.116 740.862C887.612 741.222 886.929 741.702 886.429 742.062C915.789 750.214 911.178 779.712 911.014 779.978C897.337 779 884.157 774.91 870.554 773.526C871.226 774.702 872.278 776.177 873.185 777.172C873.165 777.528 874.687 813.975 879.372 815.353C878.527 822.849 878.027 826.941 877.87 827.628C887.373 826.889 889.352 826.734 893.432 827.659C894.476 831.942 895.027 834.129 895.085 834.218L917.355 826.832C923.501 826.059 925.047 818.273 921.727 813.031C925.272 798.389 925.447 798.319 934.614 794.71C934.701 786.833 935.075 782.622 935.736 782.078C939.98 778.543 943.29 784.192 947.262 784.208C950.882 777.787 953.886 773.62 959.545 778.499C959.827 778.738 990.897 814.425 993.962 824.426C996.271 831.977 995.206 832.131 982.086 833.929C984.654 838.288 992.598 845.173 992.658 845.203C993.781 841.648 991.566 838.22 992.228 834.682C992.82 834.752 993.596 834.863 994.174 834.941C995.82 832.494 996.482 829.571 998.008 827.071C996.704 822.534 996.073 819.445 996.113 817.802C996.704 817.651 997.494 817.44 998.095 817.285C998.889 818.374 999.947 819.822 1000.76 820.894C1000.32 818.761 996.599 813.482 989.587 805.056C989.738 804.455 989.93 803.645 990.067 803.033C985.128 800.832 981.216 799.095 968.043 772.168C968.668 771.17 969.959 770.081 971.061 769.658L1000.93 804.754C1001.01 804.87 1004 813.453 1009.93 830.502L1019.39 852.186C1019.57 850.93 1019.67 849.246 1019.67 847.982C1019.66 842.831 1017.69 838.062 1016.69 833.099C1014.54 822.366 1013.99 816.599 1015.04 815.8C1017.92 816.418 1023.96 820.017 1025.23 824.701C1025.84 823.603 1026.54 822.067 1026.95 820.881C1027.59 820.837 1028.44 820.787 1029.07 820.75C1031.03 806.085 1020.56 793.406 1022.38 778.768C1023.45 778.391 1025.14 778.489 1026.17 778.963C1025.91 779.5 1025.57 780.233 1025.32 780.774C1027.17 782.931 1027.92 783.489 1030.08 784.783C1030.49 786.504 1030.47 788.698 1030.01 791.366C1031.93 793.53 1032.82 796.329 1034.48 798.648C1041.55 794.562 1031 787.344 1033.09 781.379C1036.24 780.707 1036.78 781.745 1037.69 784.175C1037.38 784.743 1036.96 785.499 1036.65 786.07C1037.39 787.244 1038.3 789.935 1039.37 794.142C1039.03 794.649 1038.56 795.331 1038.21 795.839C1043.31 808.393 1054.83 818.175 1054.36 833.146C1053.85 833.435 1053.13 833.838 1052.59 834.127C1046.5 830.041 1046.82 816.532 1036.93 819.12C1036.84 820.289 1036.23 821.879 1035.43 822.729C1034.25 822.336 1032.66 821.882 1031.46 821.61C1031.72 822.729 1032.52 824.147 1033.36 824.94C1031.08 826.872 1028.02 825.699 1025.57 826.926C1025.37 828.267 1025.26 830.092 1025.31 831.446C1025.88 831.614 1026.63 831.836 1027.19 831.997C1028.18 839.497 1030.01 853.453 1039.26 861.236C1039.69 860.799 1040.26 860.218 1040.69 859.784C1040.67 859.176 1040.64 858.369 1040.61 857.765C1043.62 860.285 1044.61 864.502 1048.11 866.616C1048.54 865.45 1048.92 863.807 1049.03 862.567C1049.87 863.427 1051.25 864.378 1052.37 864.825C1053.9 893.227 1054.14 897.592 1051.03 905.257C1046.95 904.921 1046.28 904.038 1044.97 900.039C1043.85 900.069 1042.28 900.691 1041.5 901.504C1027.93 900.506 1029.17 880.773 1014.99 880.542C1012.35 885.253 1014.44 890.71 1012.62 895.546C1012.03 895.784 1011.27 896.094 1010.68 896.332C1007.75 894.178 976.609 865.853 974.381 862.157C973.692 861.004 974.62 858.917 975.339 857.781C976.47 855.982 976.603 849.492 975.739 838.311C972.358 836.083 971.666 835.714 969.629 834.615C967.804 836.006 963.091 835.829 955.492 834.084C954.544 835.001 953.385 836.359 952.7 837.498C937.91 831.735 925.947 847.939 911.249 842.851C909.629 842.71 909.347 842.696 909.061 842.693C904.894 843.537 903.483 843.822 898.96 838.409C898.147 837.841 898.116 837.841 898.096 837.841C897.542 838.335 896.728 838.929 896.261 839.507C893.492 842.891 895.586 847.683 892.887 851.087C889.514 855.322 883.196 855.244 880.088 859.848C879.153 861.209 879.594 863.652 879.513 865.295C878.89 877.207 876.976 883.937 873.77 885.485C869.452 887.575 862.012 893.331 861.108 894.806C858.426 899.115 838.711 933.324 838.711 933.351C837.898 942.487 843.953 950.19 844.104 959.122C844.235 966.625 833.536 970.181 836.92 978.867C841.984 991.879 849.017 1003.95 855.026 1016.51C857.549 1021.78 876.502 1039.89 880.098 1039.55C897.935 1037.87 915.16 1031.16 933.428 1033.12C934.019 1033.18 934.715 1033.68 935.168 1034.06C938.461 1036.82 936.109 1041.79 939.325 1044.58C942.477 1047.33 946.59 1045.97 950.132 1047.08C951.696 1051.82 951.507 1056.46 949.564 1061.02C980.275 1066.7 999.645 1071.86 1013.64 1078.68C999.86 1071.97 979.953 1066.64 949.564 1061.02C944.165 1073.71 941.881 1081.86 942.712 1085.48C944.668 1094.05 947.346 1105.8 936.375 1131.58C931.324 1143.45 921.659 1152.17 914.999 1162.93C908.799 1172.94 908.093 1185.1 902.357 1195.3C880.057 1234.99 879.416 1235.65 875.833 1239.34C873.407 1241.83 872.066 1243.21 869.553 1248.95C880.975 1252.49 894.413 1243.34 898.829 1240.33L916.525 1227.86L938.908 1210.02C943.962 1204.74 946.97 1197.87 952.374 1192.87C958.56 1187.15 966.81 1184.39 972.919 1178.56C987.5 1164.6 1001.05 1136.9 1002.45 1133.45C1008.1 1119.66 1027.41 1098.56 1033.13 1092.48C1042.13 1082.5 1054.21 1056.29 1057.22 1046.03C1055.69 1045.53 1053.58 1045.56 1050.9 1046.13C1050.3 1045.29 1050.63 1039.4 1051.88 1028.47C1052.58 1022.39 1051.21 1016.41 1051.1 1010.36C1050.79 994.665 1053.84 979.066 1052.44 963.342L1048.28 913.83C1048.94 914.858 1049.62 917.757 1050.31 922.527C1051.37 921.66 1052.24 919.889 1052.56 918.558C1062.71 955.922 1051.95 993.388 1053.15 1030.79C1055.88 1029.51 1057.85 1029.01 1059.07 1029.28C1066.3 1013.7 1070.08 1004.9 1070.43 1002.89C1070.33 1003.56 1070.2 1004.44 1070.09 1005.11C1070.33 1003.88 1070.63 1002.24 1070.83 1001L1071.04 999.628L1072.23 990.992C1072.72 987.04 1073.33 982.097 1074.25 968.662C1074.23 969.371 1074.22 970.04 1074.19 970.681C1074.71 959.048 1075.48 944.507 1075.41 933.357L1075.39 933.361ZM1072.85 976.666C1072.32 975.537 1072.25 970.286 1072.63 960.913C1072.37 963.883 1072.16 966.024 1071.99 967.334C1070.93 936.882 1071.38 934.097 1072 930.242C1073.78 932.924 1074.51 955.445 1074.24 968.406C1073.66 973.719 1073.44 974.556 1072.85 976.666H1072.85Z" fill="url(#paint26_radial_590_1283)"/>
<path d="M1064.03 752.594C1064.16 753.098 1064.33 753.77 1064.44 754.284L1066.47 763.36C1066.44 763.219 1066.4 763.051 1066.36 762.917C1067.08 768.307 1068.14 773.637 1069.2 778.97C1066.09 759.032 1064.95 754.936 1060.34 738.329C1059.51 735.755 1058.73 733.345 1058 731.073C1062.77 747.372 1062.93 748.04 1064.94 756.626C1064.65 755.279 1064.34 753.941 1064.04 752.597L1064.03 752.594Z" fill="url(#paint27_radial_590_1283)"/>
<path d="M1056.76 726.863C1056.95 727.384 1057.15 727.901 1057.36 728.405C1056.76 726.453 1055.96 724.554 1055.54 722.541C1055.77 723.176 1055.99 723.822 1056.2 724.474L1051.37 710.168L1051.42 710.356C1050.83 708.787 1050.69 708.458 1050.51 708.219C1052.41 713.861 1054.74 721.009 1058 731.073C1057.62 729.77 1057.21 728.392 1056.76 726.866L1056.76 726.863Z" fill="url(#paint28_radial_590_1283)"/>
<path d="M840.204 696.354C840.174 696.461 840.117 696.599 840.053 696.7C838.524 699.68 837.422 705.373 837.415 705.427C837.029 707.715 837.163 708.804 837.926 709.742C839.233 711.311 845.288 710.649 849.694 707.823C850.813 707.107 851.831 706.277 853.017 705.679C854.402 704.987 856.25 705.494 857.322 703.995C857.924 703.152 857.675 701.186 856.596 698.175C856.042 696.639 855.383 695.692 854.688 694.69C853.542 692.993 853.468 692.382 854.237 690.614C854.56 689.861 855.101 688.594 854.688 687.018C854.271 685.462 853.078 684.38 852.134 683.752C851.67 683.433 851.005 683.066 850.487 682.821C849.089 682.156 847.557 681.823 846.152 681.185C845.131 680.714 844.768 680.341 844.603 680.153C844.475 680.025 844.455 680.005 844.324 680.012C843.938 680.106 834.784 682.388 840.54 685.597C840.903 685.802 841.111 685.919 841.921 685.983C841.71 686.195 841.34 686.356 841.088 686.484C837.294 688.339 836.397 689.256 835.526 690.144C834.911 690.769 834.239 691.857 834.505 693.517C834.74 694.116 835.059 694.949 836.548 695.685C837.704 696.259 839.004 696.031 840.201 696.347L840.204 696.354Z" fill="url(#paint29_radial_590_1283)"/>
<path d="M459.954 588.84C459.954 588.84 459.981 588.817 459.988 588.81C459.981 588.81 459.981 588.817 459.967 588.817C459.077 589.284 451.788 593.508 451.422 593.992C451.788 593.988 452.178 593.988 459.954 588.84Z" fill="url(#paint30_radial_590_1283)"/>
<path d="M959.567 723.123C960.282 723.902 961.808 723.519 962.097 724.907C962.362 726.161 961.865 727.441 962.211 728.684C962.5 729.706 963.219 729.891 963.528 729.965C964.365 730.173 968.606 728.812 968.7 725.404C968.71 725.025 968.65 724.514 968.606 724.134C968.398 722.716 967.867 721.372 967.652 719.954C967.443 718.432 967.537 716.892 967.319 715.38C966.973 712.984 966.113 712.702 965.262 712.611C963.901 712.648 960.585 713.905 959.409 716.089C958.71 717.376 958.538 722.014 959.567 723.119V723.123Z" fill="url(#paint31_radial_590_1283)"/>
<path d="M938.449 722.451C938.472 722.437 940.176 720.518 940.179 720.424C940.337 719.735 939.131 719.157 937.024 718.919C934.736 718.697 931.073 719.184 932.501 720.834C933.294 721.748 936.288 723.015 937.525 722.955C937.945 722.931 938.153 722.736 938.449 722.447V722.451Z" fill="url(#paint32_radial_590_1283)"/>
<path d="M418.891 619.457C418.928 619.501 418.992 619.565 419.032 619.608C419.183 619.591 419.388 619.511 419.52 619.417C421.848 617.817 423.858 615.821 426.176 614.201C430.367 611.284 434.877 608.855 439.013 605.844C439.652 605.373 440.376 604.378 441.187 602.857C441.157 602.783 441.114 602.678 441.083 602.604C439.625 602.91 438.556 603.928 437.296 604.601C438 603.989 438.407 603.437 438.519 602.944C438.466 602.92 438.402 602.88 438.351 602.853C438.203 602.893 438.005 602.947 437.857 603.008C434.418 604.45 425.119 611.402 409.959 623.862C407.976 625.496 406.407 626.786 404.777 630.194C404.838 630.22 404.929 630.257 404.979 630.281C410.426 627.717 414.244 623.049 418.891 619.46V619.457Z" fill="url(#paint33_radial_590_1283)"/>
<path d="M450.781 597.88C451.342 597.937 453.16 596.922 454.924 595.937C461.951 591.989 465.55 590.446 465.563 590.436C467.828 589.566 470.194 588.951 472.361 587.822C474.085 586.928 480.591 582.391 480.648 582.348C481.908 581.474 481.992 581.323 482.134 581.081C481.223 581.017 480.174 581.598 480.161 581.608C478.168 582.734 476.448 584.293 474.462 585.439C476.918 583.003 479.795 581.044 482.187 578.534C482.107 578.547 482.003 578.554 481.922 578.564C481.841 578.608 473.712 582.781 473.457 583.914C473.272 584.74 472.173 586.831 465.96 588.279C465.923 588.239 465.873 588.181 465.829 588.141C465.973 587.95 466.145 587.775 466.309 587.61C466.363 587.563 466.427 587.499 466.467 587.446C467.317 586.518 470.194 585.967 469.008 584.646C468.843 584.677 452.212 592.725 452.071 595.027C452.123 595.058 454.806 593.602 460.119 590.658C459.313 591.985 457.824 592.436 456.695 593.333C456.897 593.333 456.947 593.333 458.9 592.278C459.427 591.992 460.412 591.461 462.421 590.745C460.593 591.992 454.676 595.101 451.335 596.583C450.152 597.11 450.132 597.802 450.788 597.876L450.781 597.88Z" fill="url(#paint34_radial_590_1283)"/>
<path d="M404.484 639.106C405.694 639.401 406.615 638.339 407.764 638.397C407.825 638.46 407.882 638.541 407.942 638.602C407.418 640.036 406.057 640.866 405.345 642.167C406.722 642.187 417.902 637.214 424.24 632.109C426.277 630.473 427.12 629.787 428.256 629.36C428.323 629.404 428.421 629.465 428.495 629.508C428.143 630.174 427.946 630.578 427.903 630.721C428.441 631.246 432.682 632.163 432.715 632.16C435.372 631.264 437.998 629.365 440.592 626.464C440.723 626.306 440.757 626.272 440.777 626.235C440.501 626.184 439.13 626.821 436.664 628.147C437.07 626.837 440.965 623.89 443.633 624.017C444.591 624.064 444.779 624.004 445.129 623.748C445.152 623.735 447.172 621.894 446.839 620.23C444.745 619.041 443.875 616.722 444.991 615.354C445.969 614.148 454.578 603.583 454.38 602.722C453.98 602.507 453.543 602.447 453.12 602.309C453.069 602.178 453.002 602.017 452.958 601.892C452.931 601.912 452.888 601.946 452.858 601.963C448.879 605.333 446.154 610.038 441.493 612.696C441.046 610.777 443.025 610.162 443.593 608.788C443.492 608.717 443.341 608.613 443.24 608.536C441.412 609.221 439.886 610.606 437.934 611.029C438.475 610.169 439.416 609.631 439.876 608.68C439.819 608.62 439.735 608.539 439.685 608.482C437.087 609.262 435.148 611.291 432.648 612.239C434.187 610.105 436.738 609.151 438.488 607.259C436.922 607.42 416.474 620.633 416.958 623.1C417.21 623.201 417.526 623.365 417.751 623.52C417.361 624.185 417.341 624.209 414.915 625.674C410.849 628.134 410.671 628.618 410.688 629.206C410.893 629.307 411.209 629.35 411.434 629.3C413.699 628.853 415.547 627.334 417.802 626.84C419.398 626.487 420.997 627.186 422.604 626.84C419.747 629.041 415.927 630.19 414.307 630.684C403.617 633.9 402.582 638.628 404.488 639.096L404.484 639.106Z" fill="url(#paint35_radial_590_1283)"/>
<path d="M498.02 658.492C498.359 657.588 497.449 657.628 496.733 657.735C496.696 657.746 493.618 658.317 492.831 659.271C491.722 660.642 491.998 662.574 492.479 662.968C493.631 663.946 497.546 659.748 498.02 658.492Z" fill="url(#paint36_radial_590_1283)"/>
<path d="M492.805 651.001C492.939 650.954 493.353 650.726 493.524 650.406C493.873 649.694 493.336 648.525 492.939 648.162C492.264 647.523 491.37 647.16 490.735 646.478C489.626 645.305 489.038 643.706 487.747 642.674C487.556 642.523 487.274 642.341 487.059 642.214C485.772 641.417 484.175 641.558 482.885 640.772C482.065 640.268 482.052 639.122 481.222 638.628C481.127 638.571 480.963 638.584 480.852 638.615C479.676 639.172 475.697 644.771 475.536 644.999C475.018 645.725 474.376 646.72 473.903 647.469L469.551 654.513C471.274 654.652 472.203 655.156 472.34 656.025C472.508 657.127 472.674 657.666 472.837 657.641C473.183 657.581 473.882 657.016 475.294 655.823C477.327 654.106 480.738 651.233 484.73 650.793C487.421 650.49 490.086 651.959 492.812 651.001H492.805Z" fill="url(#paint37_radial_590_1283)"/>
<path d="M485.646 655.817C485.589 655.824 479.869 657.064 478.004 658.515C476.895 659.379 476.724 661.798 477.346 662.249C478.542 663.122 485.743 658.851 487.05 656.852C487.467 656.203 487.561 655.504 485.646 655.814V655.817Z" fill="url(#paint38_radial_590_1283)"/>
<path d="M866.545 694.841C866.148 694.888 866.212 695.11 866.32 695.52L869.065 695.735C867.583 695.053 866.995 694.841 866.542 694.841H866.545Z" fill="url(#paint39_radial_590_1283)"/>
<path d="M600.787 723.855C603.399 720.444 604.555 718.169 604.208 717.097C604.064 717.054 603.876 716.983 603.724 717.007C602.296 717.484 598.496 720.727 595.552 724.346C591.987 728.728 589.56 733.886 586.069 738.308C584.197 740.664 581.613 742.334 579.859 744.794C579.187 745.745 579.724 746.014 580.013 746.158C580.32 746.317 583.999 746.682 591.049 747.254C597.094 747.741 601.54 748.275 606.252 749.562C606.793 749.704 607.505 749.956 608.053 749.999C609.77 750.1 611.544 748.39 613.224 750.14C614.051 751.017 614.135 752.62 614.196 753.679C614.253 754.828 614.8 754.932 615.12 754.895C616.813 754.697 618.907 751.437 619.122 748.672C619.451 744.223 616.074 737.32 612.683 733.674C611.509 732.411 608.85 732.229 604.706 733.13C602.814 733.54 602.397 733.147 601.967 731.567C601.14 728.58 600.408 728.059 599.262 727.464C598.65 727.145 598.65 726.943 598.949 726.349C599.379 725.532 600.209 724.594 600.784 723.855H600.787Z" fill="url(#paint40_radial_590_1283)"/>
<path d="M847.931 668.758C848.271 670.919 846.614 672.935 847.471 675.126C848.133 675.378 849.528 675.217 852.468 673.002C853.543 672.182 854.471 671.476 855.197 671.883C858.214 673.547 854.713 676.803 855.748 679.165C857.841 683.954 860.301 684.606 863.42 685.429C868.302 686.709 868.924 686.871 869.828 687.496C869.979 688.268 869.532 689.072 869.959 689.828C871.27 692.163 873.585 693.753 874.748 696.209C875.366 698.733 872.284 697.264 870.026 696.196C869.386 695.893 868.15 695.669 866.32 695.524C867.425 698.713 871.014 700.258 871.73 703.703C872.116 705.554 870.386 706.539 867.902 707.732C867.251 708.045 866.242 708.528 866.609 709.274C866.804 709.664 867.899 710.928 873.834 710.767C876.347 710.699 881.586 710.548 881.727 712.259C881.848 713.824 880.659 713.808 878.854 713.771C877.1 713.744 876.569 714.234 875.897 714.849C874.623 716.009 874.425 717.813 873.309 719.067C871.932 720.626 870.046 721.58 868.628 723.086C868.645 723.234 868.675 723.432 868.692 723.576C869.219 723.702 873.258 723.29 880.81 722.34C886.543 721.621 892.336 722.068 898.062 721.244C898.113 721.234 898.21 721.234 898.271 721.207L908.11 717.881C908.177 717.796 908.184 717.645 908.217 717.548C906.174 715.518 903.57 717.316 901.345 716.523C900.287 713.559 903.039 710.844 901.913 707.89C899.9 702.601 897.814 702.701 896.137 702.789C892.323 702.99 889.722 697.651 889.722 697.597C889.749 697.523 889.792 697.426 889.836 697.355C889.995 697.306 891.068 697.502 893.055 697.943C894.406 698.417 896.258 699.062 896.127 698.377C896.12 698.343 896.096 698.303 896.09 698.269C895.901 698.004 895.565 697.506 894.52 696.686C889.886 693.094 884.083 691.316 879.859 687.139C877.829 685.133 876.374 682.586 873.901 681.017C869.626 678.288 865.705 677.723 863.736 677.639C863.722 677.629 863.709 677.629 863.692 677.629C866.192 675.401 869.485 664.369 862.754 664.104C861.534 664.057 860.15 664.235 859.243 664.356C854.995 664.914 854.219 665.011 854.192 663.902C854.131 661.678 857.925 657.504 854.817 657.316C854.73 657.316 846.443 657.474 845.22 660.427C845.112 660.703 845.25 661.12 845.304 661.412C845.704 664.037 847.521 666.15 847.935 668.761L847.931 668.758Z" fill="url(#paint41_radial_590_1283)"/>
<path d="M793.626 613.425C793.626 613.284 793.659 613.092 793.619 612.955C793.149 612.121 791.798 610.559 790.198 609.917C789.926 609.813 789.57 609.682 789.298 609.604C786.902 608.949 784.334 609.53 781.972 608.576C780.295 607.897 779.058 606.237 777.039 606.341C774.73 606.903 772.556 607.86 770.247 608.401C768.009 608.929 765.654 608.791 763.446 609.54C762.038 610.014 763.056 611.755 761.951 612.397C760.761 613.089 759.534 611.792 758.348 612.481C758.173 612.592 757.925 612.743 757.753 612.857C757.306 614.833 759.084 617.118 756.923 618.862C756.255 618.597 751.204 614.44 750.367 612.854C748.475 609.262 740.447 607.034 738.206 608.821C738.838 610.643 741.052 610.25 742.043 611.58C741.415 614.218 738.283 613.795 737.02 615.667C737.755 616.187 740.279 615.831 741.697 615.569C744.194 615.119 752.057 617.844 747.669 621.467C749.547 623.775 752.051 621.813 754.168 622.418C756.392 623.036 756.399 623.852 756.416 625.808C756.933 626.248 757.377 626.437 761.796 625.973C764.686 625.67 765.681 625.59 766.605 625.657C768.715 625.798 770.684 626.736 772.791 626.867C773.05 626.88 773.393 626.897 773.665 626.89C774.411 626.877 775.449 626.863 781.3 625.432C786.596 624.138 794.674 618.284 794.268 616.57C794.016 615.455 793.055 614.712 792.729 613.633C792.897 613.474 793.199 613.407 793.636 613.432L793.626 613.425Z" fill="url(#paint42_radial_590_1283)"/>
<path d="M555.598 735.408C553.276 736.272 558.572 738.85 559.661 739.357C566.637 742.627 569.063 739.091 569.087 739.051C569.937 737.159 558.145 734.992 555.598 735.408Z" fill="url(#paint43_radial_590_1283)"/>
<path d="M733.39 1097.52C732.849 1094.68 736.649 1090.79 733.057 1088.96C730.497 1087.67 727.973 1089.57 725.436 1089.02C717.186 1087.22 711.786 1080.06 703.892 1077.63C692.127 1074 679.979 1071.91 668.06 1068.94C661.137 1066.39 660.512 1058.39 656.251 1053.78C648.973 1049.04 643.532 1041.35 635.931 1037.01C625.987 1031.34 613.742 1033.28 603.886 1027.3C596.086 1022.57 590.851 1014.54 582.49 1010.52C581.274 1009.93 579.53 1009.39 578.202 1009.2C537.746 1003.1 505.785 998.294 502.173 1030.36C490.173 1021.83 459.321 1035.33 462.17 1015.41C463.904 1003.35 458.753 994.463 458.686 994.436C449.307 989.688 439.787 994.621 430.327 993.979C432.404 987.088 432.685 982.038 431.171 978.83C433.899 972.452 435.765 966.37 436.769 960.583C434.981 959.017 419.228 946.305 415.864 981.892C410.433 981.542 406.949 989.16 400.725 985.591C386.151 977.241 381.181 966.635 379.514 961.057C377.458 954.155 383.268 948.758 383.12 942.232C383.033 938.068 377.424 936.039 378.889 931.277C380.795 925.101 392.183 913.5 394.851 911.44C399.616 907.768 418.112 911.941 418.253 912.008C418.754 911.598 419.409 911.051 419.903 910.641C418.492 909.088 416.402 908.554 414.802 907.284C414.933 906.675 415.104 905.866 415.239 905.251C418.939 903.11 448.319 900.559 448.443 900.627C461.031 907.344 453.356 925.03 465.437 932.03C479.685 916.988 456.8 903.644 459.321 888.492C461.949 872.826 477.605 869.187 486.352 859.176C486.157 859.156 486.147 859.156 486.134 859.162C485.75 858.726 485.24 858.144 484.847 857.707C484.92 857.136 485.011 856.383 485.078 855.822C485.626 855.661 486.352 855.442 486.906 855.281C486.97 854.599 487.071 853.698 487.135 853.02C486.587 852.818 485.868 852.542 485.33 852.344L488.23 823.623C488.456 827.863 488.449 840.801 488.442 840.821C489.347 840.239 490.203 833.646 491.01 821.042C492.061 823.055 493.866 824.644 494.346 826.986C496.924 822.554 496.067 816.751 500.039 812.886C500.133 812.785 517.046 803.598 518.296 803.692C519.342 793.806 522.638 786.27 528.182 781.086C529.114 781.133 537.625 776.497 553.715 767.178C553.47 767.685 553.15 768.361 552.908 768.871C554.152 769.338 555.909 769.785 557.253 769.745V771.839C547.938 778.45 543.22 782.721 543.099 784.652C552.562 784.817 581.684 767.887 576.482 754.771C572.48 757.453 572.312 762.386 569.912 766.005C566.804 765.138 564.267 764.429 562.166 763.804C564.26 763.36 565.856 761.115 565.866 761.089C565.88 761.062 565.893 761.008 565.9 760.978C565.88 760.958 565.873 760.931 565.856 760.914C565.678 760.87 565.614 760.874 565.06 760.961C561.316 761.546 559.179 760.732 558.423 760.349C556.568 759.418 556.286 758.33 556.41 756.777C556.454 756.176 556.366 756.125 556.299 756.075C556.272 756.092 556.229 756.122 556.198 756.139C556.003 756.448 554.831 759.402 555.909 761.583C552.277 759.869 551.658 758.024 550.237 753.628C546.823 752.375 546.601 752.099 545.143 750.312C550.257 748.921 553.94 747.922 555.026 742.794C553.28 741.072 540.274 747.801 516.008 762.984C532.713 745.61 549.643 734.323 566.797 729.121C572.648 733.127 598.956 720.078 602.975 712.783C602.113 710.668 602.312 708.048 603.574 704.923C603.221 704.378 602.764 703.652 602.404 703.111C600.297 702.658 598.197 702.194 596.08 701.767C594.282 701.75 594.252 701.757 594.238 701.757C592.958 701.885 589.073 702.268 582.188 706.764C581.949 706.247 581.64 705.548 581.408 705.023C583.512 702.029 584.51 701.639 592.303 698.625C577.194 699.919 562.452 701.179 546.245 702.809C561.138 701.243 574.086 700.073 592.397 698.588C592.803 698.383 593.388 698.118 593.623 697.741C593.973 696.817 587.897 691.588 580.259 693.595C579.107 693.89 578.231 693.938 577.631 693.739C577.097 692.264 578.303 690.627 577.231 689.202C575.779 687.287 572.933 687.774 571.495 685.835C570.897 685.019 571.303 684.293 572.453 682.71C573.571 681.149 572.902 678.179 570.446 673.802C564.27 662.768 559.671 660.139 556.649 665.915C555.936 667.259 557.727 668.66 556.568 669.994C555.237 671.53 552.831 670.119 551.558 671.836C549.635 674.47 548.403 675.869 547.861 676.033C542.824 677.569 539.309 673.479 534.927 672.508C534.157 671.14 535.888 662.138 538.553 659.994C535.985 659.137 533.277 660.384 530.71 659.443C530.111 659.224 529.738 658.814 528.939 657.457C528.666 656.996 528.038 655.914 521.704 653.824C520.289 653.354 519.963 653.384 518.901 653.488C513.114 655.044 506.908 653.76 501.245 656.116C502.26 661.489 495.664 666.321 500.13 671.937C499.273 674.561 495.849 675.445 495.664 678.53C495.445 682.109 499.071 684.199 499.192 687.647C499.206 687.788 499.458 701.639 491.473 703.484C489.729 703.891 485.757 705.151 486.604 708.081C486.218 708.579 486.019 708.763 484.41 709.993C482.293 718.028 487.575 728.059 478.415 734.407C475.552 730.018 470.464 728.758 466.495 725.922C468.646 719.611 467.725 717.309 466.542 714.399C467.154 713.918 468.189 713.045 468.797 712.564C468.703 712.231 468.797 711.539 468.703 711.2C468.014 711.102 467.083 711.035 466.388 711.059C462.621 707.419 458.064 710.716 454.018 709.617C449.891 708.505 447.788 704.321 443.839 702.93C443.161 702.695 442.233 702.453 441.527 702.338C437.918 701.73 435.341 704.388 432.216 705.279C431.49 704.685 430.669 701.641 429.752 696.145C429.425 694.232 427.004 693.097 422.487 692.741C420.955 683.974 442.331 668.106 451.457 661.328C450.406 658.539 447.351 659.772 445.604 658.394C457.441 656.288 466.729 651.646 473.468 644.469C466.593 645.668 465.165 645.92 459.58 642.741C466.186 640.355 474.712 644.519 479.725 636.793C479.214 636.437 478.401 636.145 477.783 636.108C477.81 636.068 481.096 632.092 484.551 634.283C492.23 631.51 497.08 629.237 499.098 627.465C499.753 626.894 500.533 626.01 500.977 625.267C502.21 623.177 500.17 620.932 501.286 618.835C502.314 616.903 504.74 617.088 506.098 615.66C506.847 614.702 506.972 613.482 507.513 612.43C507.408 612.333 497.707 602.433 494.447 616.463C488.476 619.897 484.188 633.883 476.929 627.401C477.565 623.09 486.285 620.314 482.209 616.039C477.585 617.784 475.73 622.441 472.312 625.455C471.496 623.13 476.204 616.987 476.254 616.93C476.09 616.867 474.631 616.781 471.875 616.671C476.643 608.989 479.03 604.682 479.036 603.75C478.72 603.508 478.274 603.193 477.958 602.961C480.682 598.753 488.399 592.905 501.108 585.416C500.223 585.311 499.069 585.387 497.646 585.644C482.39 589.217 461.754 617.851 461.603 618.126C461.757 618.452 461.962 618.872 462.12 619.195C463.746 619.188 465.343 618.835 466.969 618.735C467.04 619.03 467.137 619.43 467.218 619.729C463.83 621.409 463.296 621.715 461.744 623.197L461.707 624.014H461.727C462.016 624.074 462.409 624.162 462.705 624.232C459.452 629.817 452.348 631.723 449.693 637.886C448.033 636.161 448.754 633.639 451.857 630.321C450.079 629.862 446.29 631.915 440.492 636.481C440.012 636.857 437.112 638.705 426.385 638.198C425.69 637.183 425.817 635.842 425.078 634.841C416.405 637.072 413.824 642.11 408.673 652.147C407.718 649.613 409.946 647.516 409.657 645.077C404.976 645.826 401.142 649.664 396.031 648.898C398.168 646.794 401.616 646.021 402.426 642.58C402.157 642.432 401.807 642.241 401.538 642.096C400.382 642.721 400.208 642.822 396.884 642.459C396.511 641.928 395.93 641.266 395.439 640.829C393.073 641.327 391.733 643.35 389.878 644.61C390.217 643.961 390.748 643.134 391.195 642.567C390.341 643.187 389.221 644.165 387.835 645.5C388.556 643.995 390.012 641.892 392.203 639.193C388.433 642.661 383.105 647.319 376.221 653.169L376.191 653.186C379.457 650.067 382.982 647.234 386.299 644.17C386.262 644.19 378.889 649.724 369.661 658.935C369.971 658.371 370.465 657.655 370.864 657.158C365.152 663.573 357.544 672.115 351.828 678.53C327.152 710.652 326.688 711.27 315.78 729.383L315.864 729.242C316.036 728.993 316.248 728.657 316.412 728.402C311.544 740.67 308.812 748.475 308.216 751.817C307.746 753.276 307.121 755.218 306.63 756.67C306.966 757.224 307.41 757.953 307.746 758.504C306.202 763.388 304.595 770.006 302.924 778.358C302.315 781.352 303.008 784.101 303.932 786.816C303.575 786.688 302.987 786.547 302.097 786.483C301.673 786.45 301.448 786.379 301.304 786.221C301.169 786.08 301.116 786.033 300.864 785.139C300.746 784.685 300.289 783.18 299.909 783.093C299.902 783.099 299.896 783.109 299.879 783.113C299.872 783.14 298.955 787.441 299.99 790.969C300.84 793.88 302.903 793.473 302.934 793.47C303.475 793.302 303.979 792.764 304.301 791.991C304.584 791.299 304.627 790.522 304.634 790.19C304.664 789.709 304.547 789.242 304.523 788.762C304.516 788.715 304.54 788.668 304.54 788.614C305.551 791.447 306.566 794.283 306.395 797.327C305.397 796.766 304.049 796.05 303.028 795.546C290.725 810.87 286.437 887.726 294.627 902.075C295.33 902.194 301.625 914.428 313.512 938.777C312.239 938.791 310.562 938.841 309.288 938.912C311.446 943.422 327.172 963.745 327.31 963.913C328.748 961.823 330.224 959.656 322.999 949.383C319.705 944.715 315.992 939.433 309.695 913.897C317.582 919.66 318.422 923.427 319.467 928.189C320.216 931.583 321.06 935.42 322.569 937.82C325.784 942.958 329.73 947.568 333.157 952.559C337.593 959.031 345.157 962.653 348.871 969.767C351.878 975.497 350.44 983.165 356.616 987.507C357.453 988.098 358.784 988.569 359.738 988.945C361.486 989.617 363.697 990.864 365.518 991.334C371.863 992.968 378.372 993.976 384.753 995.521C391.286 997.108 398.228 993.351 404.623 996.997C414.393 1002.56 420.995 1005.53 424.43 1005.9C425.202 1005.98 426.237 1006.1 427.004 1006.21C450.029 1009.43 459.566 1037.94 484.789 1037.04C496.01 1018.32 502.929 1040.78 505.392 1051.3C505.907 1053.51 504.061 1059.24 499.854 1068.47C499.78 1068.7 493.674 1093.67 496.292 1098.32C496.716 1099.09 497.257 1100.12 497.744 1100.85C506.017 1113.12 539.974 1146.7 540.246 1146.94C548.537 1154.1 559.774 1155.73 568.514 1162.01C575.175 1166.79 580.161 1176.18 582.557 1188.47C582.668 1189.03 595.683 1247.4 618.329 1279.27C647.047 1319.7 674.845 1315.23 675.097 1315.15C657.257 1305.96 649.179 1297.59 650.861 1290.04C648.386 1287.4 644.807 1279.63 640.125 1266.74C640.851 1266.51 642.896 1266.45 646.261 1266.55C646.232 1266.2 644.186 1263.21 640.125 1257.58C643.254 1254.79 644.703 1252.29 644.47 1250.07C644.823 1249.85 645.29 1249.56 645.646 1249.34C653.953 1251.88 656.732 1245.01 654.581 1241.87L652.142 1238.44C671.031 1237.93 679.069 1192.22 679.133 1191.76C681.848 1185.92 688.972 1182.46 691.909 1181.24C698.613 1178.46 698.707 1170.59 703.442 1166.28C705.572 1164.35 707.491 1164.3 709.091 1164.51C711.853 1164.86 712.075 1164.89 712.434 1162.28C713.204 1156.55 712.68 1150.79 712.959 1145.04C713.116 1141.83 711.218 1138.53 713.352 1135.39C715.822 1131.77 716.732 1130.42 714.995 1128.03C714.676 1127.59 714.33 1126.92 714.202 1126.4C730.013 1120.64 735.628 1103.51 735.651 1103.36C735.665 1103.17 735.678 1102.9 735.641 1102.71C735.302 1100.81 733.756 1099.43 733.4 1097.53L733.39 1097.52ZM336.958 740.278C342.553 738.446 348.454 736.695 354.533 735.025C348.477 736.699 342.58 738.449 336.958 740.278ZM516.26 1066.37C523.391 1065.48 530.662 1064.59 538.294 1063.73C531.257 1064.54 523.979 1065.41 516.26 1066.37ZM676.451 1166.47C676.155 1163.7 675.218 1154.59 673.766 1138.51C674.633 1147.9 675.53 1157.24 676.528 1167.08C676.498 1166.88 676.468 1166.67 676.454 1166.48L676.451 1166.47ZM668.84 1078.98C668.877 1079.5 668.92 1080.02 668.957 1080.53C668.92 1080.02 668.873 1079.49 668.84 1078.98Z" fill="url(#paint44_radial_590_1283)"/>
</g>
</g>
<circle cx="1230" cy="552" r="10" fill="#9FFFF5"/>
<circle cx="121" cy="594" r="6" fill="#9FFFF5"/>
<circle cx="1036" cy="284" r="6" fill="#9FFFF5"/>
<circle cx="669" cy="412" r="237.25" stroke="white" stroke-opacity="0.18" stroke-width="1.5" stroke-dasharray="6 6"/>
<circle cx="669" cy="412" r="388.25" stroke="white" stroke-opacity="0.18" stroke-width="1.5" stroke-dasharray="6 6"/>
<circle cx="669" cy="412" r="577.25" stroke="white" stroke-opacity="0.18" stroke-width="1.5" stroke-dasharray="6 6"/>
<circle cx="669" cy="322" r="747.25" stroke="white" stroke-opacity="0.18" stroke-width="1.5" stroke-dasharray="6 6"/>
<circle cx="669" cy="413" r="133.25" stroke="white" stroke-opacity="0.18" stroke-width="1.5" stroke-dasharray="6 6"/>
<path d="M668.503 390.828C655.714 390.828 645.309 401.232 645.309 414.021C645.309 422.251 649.617 429.493 656.096 433.611L656.79 430.773C651.511 427.072 648.054 420.943 648.054 414.021C648.054 402.747 657.227 393.574 668.503 393.574C679.779 393.574 688.951 402.747 688.951 414.021C688.951 420.942 685.495 427.07 680.217 430.773L680.91 433.611C687.39 429.491 691.696 422.25 691.696 414.021C691.696 401.232 681.292 390.828 668.503 390.828Z" fill="#C6FFF9"/>
<path d="M689.651 392.874C684.004 387.227 676.493 384.115 668.504 384.115C660.516 384.115 653.005 387.225 647.357 392.874C641.71 398.524 638.598 406.034 638.598 414.021C638.598 422.008 641.708 429.52 647.357 435.17C649.477 437.289 651.861 439.053 654.435 440.43L655.114 437.647C646.898 432.972 641.345 424.133 641.345 414.021C641.345 399.046 653.529 386.86 668.506 386.86C683.483 386.86 695.667 399.046 695.667 414.021C695.667 424.131 690.116 432.97 681.898 437.645L682.577 440.428C685.149 439.051 687.531 437.289 689.653 435.17C695.3 429.52 698.413 422.01 698.413 414.021C698.413 406.032 695.302 398.524 689.653 392.874H689.651Z" fill="#C6FFF9"/>
<path d="M705.512 398.387C703.49 393.605 700.593 389.308 696.905 385.62C693.217 381.932 688.922 379.035 684.138 377.013C679.184 374.918 673.924 373.857 668.502 373.857C663.08 373.857 657.82 374.918 652.866 377.013C648.082 379.037 643.787 381.932 640.099 385.62C636.411 389.308 633.515 393.603 631.493 398.387C629.399 403.341 628.336 408.601 628.336 414.023C628.336 419.445 629.399 424.705 631.493 429.659C633.517 434.441 636.413 438.738 640.099 442.426C643.549 445.876 647.529 448.63 651.942 450.628L652.721 447.446C640.21 441.516 631.539 428.764 631.539 414.025C631.539 393.644 648.121 377.061 668.502 377.061C688.883 377.061 705.466 393.642 705.466 414.025C705.466 428.764 696.794 441.516 684.286 447.446L685.064 450.628C689.477 448.63 693.457 445.874 696.903 442.426C700.591 438.738 703.488 434.443 705.51 429.659C707.606 424.705 708.668 419.445 708.668 414.023C708.668 408.601 707.606 403.343 705.51 398.387H705.512Z" fill="#C6FFF9"/>
<path d="M718.508 392.897C715.774 386.432 711.861 380.63 706.878 375.645C701.895 370.661 696.09 366.748 689.627 364.016C682.934 361.186 675.825 359.749 668.501 359.749C661.177 359.749 654.066 361.184 647.375 364.016C640.91 366.75 635.108 370.663 630.124 375.645C625.141 380.626 621.228 386.432 618.494 392.897C615.664 399.59 614.227 406.697 614.227 414.021C614.227 421.346 615.662 428.456 618.494 435.148C621.228 441.612 625.141 447.415 630.124 452.4C635.108 457.383 640.91 461.296 647.375 464.028C647.766 464.194 648.159 464.355 648.554 464.51L650.037 458.431C632.654 451.178 620.405 434.004 620.405 414.021C620.405 387.502 641.982 365.925 668.503 365.925C695.024 365.925 716.599 387.502 716.599 414.021C716.599 434.002 704.352 451.176 686.969 458.431L688.452 464.51C688.845 464.355 689.238 464.194 689.629 464.028C696.092 461.294 701.896 457.381 706.88 452.4C711.863 447.416 715.776 441.612 718.51 435.148C721.34 428.454 722.776 421.347 722.776 414.021C722.776 406.695 721.34 399.588 718.51 392.897H718.508Z" fill="#C6FFF9"/>
<path d="M732.536 386.97C729.036 378.694 724.025 371.263 717.643 364.883C711.262 358.503 703.83 353.492 695.556 349.99C686.986 346.367 677.885 344.529 668.505 344.529C659.125 344.529 650.023 346.367 641.453 349.99C633.176 353.49 625.745 358.501 619.365 364.883C612.983 371.264 607.974 378.696 604.473 386.97C600.849 395.54 599.012 404.641 599.012 414.021C599.012 423.401 600.849 432.504 604.475 441.073C607.974 449.35 612.985 456.781 619.367 463.161C625.749 469.541 633.178 474.552 641.455 478.053C642.6 478.538 643.755 478.991 644.921 479.411L646.663 472.275C623.103 463.412 606.296 440.643 606.296 414.023C606.296 379.72 634.204 351.811 668.507 351.811C702.81 351.811 730.718 379.718 730.718 414.023C730.718 440.643 713.913 463.412 690.351 472.275L692.093 479.409C693.257 478.989 694.412 478.537 695.556 478.053C703.832 474.553 711.264 469.543 717.643 463.161C724.025 456.779 729.034 449.348 732.536 441.073C736.161 432.504 737.999 423.402 737.999 414.021C737.999 404.639 736.161 395.54 732.536 386.97Z" fill="#C6FFF9"/>
<path d="M704.195 563.974L705.103 569.443H710.651L675.141 423.954L674.117 419.847C674.765 418.849 675.141 417.659 675.141 416.379C675.141 412.849 672.282 409.99 668.752 409.99C665.223 409.99 662.363 412.849 662.363 416.379C662.363 417.408 662.609 418.381 663.04 419.242L662.009 423.375L626.355 569.443H631.103L632.656 564.592L668.758 547.18L704.195 563.974ZM703.273 560.281L672.164 545.538L696.648 533.73L703.273 560.281ZM688.6 501.477L688.733 502.014H648.722L667.872 490.4L688.6 501.477ZM685.324 504.785L668.522 513.229L651.463 504.785H685.325H685.324ZM665.422 514.786L642.168 526.472L647.321 505.827L665.422 514.786ZM668.531 516.325L693.155 528.514H644.275L668.531 516.325ZM694.941 531.285L668.747 543.92L642.087 531.285H694.941ZM694.775 526.225L671.63 514.768L689.655 505.709L694.775 526.223V526.225ZM687.694 497.851L670.625 488.73L683.296 481.044H683.499L687.692 497.851H687.694ZM668.059 422.733C668.287 422.757 668.518 422.772 668.752 422.772C668.82 422.772 668.889 422.768 668.957 422.766L670.075 427.253L671.276 432.064H665.727L666.952 427.155L668.055 422.735L668.059 422.733ZM674.569 445.562L668.361 450.425L662.524 446.208L668.865 439.334L674.569 445.564V445.562ZM675.093 447.352L677.508 457.032L669.822 451.479L675.093 447.352ZM669.926 438.182L672.191 435.725L673.881 442.499L669.924 438.18L669.926 438.182ZM671.665 433.622L671.739 433.917L668.868 437.029L665.747 433.622H671.665ZM662.865 443.534L664.974 435.085L667.808 438.179L662.865 443.536V443.534ZM659.395 457.447L661.799 447.817L666.944 451.534L659.395 457.447ZM668.404 452.591L678.16 459.641L678.296 460.187H658.71V460.183L668.404 452.591ZM679.134 463.545L682.012 475.076L670.863 468.301L679.134 463.545ZM668.835 467.07L660.922 462.262H677.195L668.835 467.07ZM658.024 462.932L666.78 468.253L655.009 475.022L658.026 462.932H658.024ZM668.806 469.485L682.726 477.944L682.77 478.125L682.521 478.277H654.194L654.308 477.825L668.804 469.487L668.806 469.485ZM677.955 481.044L667.785 487.212L656.245 481.044H677.957H677.955ZM653.137 482.524L665.033 488.881L649.146 498.517L653.137 482.524ZM633.584 560.876L640.359 533.723L665.339 545.56L633.584 560.875V560.876Z" fill="#C6FFF9"/>
<circle cx="314" cy="265" r="26" fill="#9FFFF5" fill-opacity="0.18"/>
<circle cx="314" cy="265" r="12" fill="#9FFFF5"/>
</g>
<defs>
<radialGradient id="paint0_radial_590_1283" cx="0" cy="0" r="1" gradientUnits="userSpaceOnUse" gradientTransform="translate(668.698 930.84) scale(416.168 416.168)">
<stop offset="0.69"/>
<stop offset="0.73" stop-color="#040404"/>
<stop offset="0.77" stop-color="#101010"/>
<stop offset="0.81" stop-color="#242424"/>
<stop offset="0.85" stop-color="#414141"/>
<stop offset="0.89" stop-color="#656565"/>
<stop offset="0.92" stop-color="#929292"/>
<stop offset="0.96" stop-color="#C6C6C6"/>
<stop offset="1" stop-color="white"/>
</radialGradient>
<radialGradient id="paint1_radial_590_1283" cx="0" cy="0" r="1" gradientUnits="userSpaceOnUse" gradientTransform="translate(751.591 703.061) scale(1320.64 1320.64)">
<stop offset="0.07" stop-color="#B0B0B0"/>
<stop offset="1"/>
</radialGradient>
<radialGradient id="paint2_radial_590_1283" cx="0" cy="0" r="1" gradientUnits="userSpaceOnUse" gradientTransform="translate(751.563 703.074) scale(1320.56 1320.56)">
<stop offset="0.07" stop-color="#B0B0B0"/>
<stop offset="1"/>
</radialGradient>
<radialGradient id="paint3_radial_590_1283" cx="0" cy="0" r="1" gradientUnits="userSpaceOnUse" gradientTransform="translate(751.599 703.068) scale(1320.69 1320.69)">
<stop offset="0.07" stop-color="#B0B0B0"/>
<stop offset="1"/>
</radialGradient>
<radialGradient id="paint4_radial_590_1283" cx="0" cy="0" r="1" gradientUnits="userSpaceOnUse" gradientTransform="translate(751.595 703.061) scale(1320.67 1320.67)">
<stop offset="0.07" stop-color="#B0B0B0"/>
<stop offset="1"/>
</radialGradient>
<radialGradient id="paint5_radial_590_1283" cx="0" cy="0" r="1" gradientUnits="userSpaceOnUse" gradientTransform="translate(751.597 703.071) scale(1320.68 1320.69)">
<stop offset="0.07" stop-color="#B0B0B0"/>
<stop offset="1"/>
</radialGradient>
<radialGradient id="paint6_radial_590_1283" cx="0" cy="0" r="1" gradientUnits="userSpaceOnUse" gradientTransform="translate(751.577 703.071) scale(1320.61 1320.61)">
<stop offset="0.07" stop-color="#B0B0B0"/>
<stop offset="1"/>
</radialGradient>
<radialGradient id="paint7_radial_590_1283" cx="0" cy="0" r="1" gradientUnits="userSpaceOnUse" gradientTransform="translate(751.589 703.061) scale(1320.65 1320.65)">
<stop offset="0.07" stop-color="#B0B0B0"/>
<stop offset="1"/>
</radialGradient>
<radialGradient id="paint8_radial_590_1283" cx="0" cy="0" r="1" gradientUnits="userSpaceOnUse" gradientTransform="translate(751.59 703.061) scale(1320.65 1320.65)">
<stop offset="0.07" stop-color="#B0B0B0"/>
<stop offset="1"/>
</radialGradient>
<radialGradient id="paint9_radial_590_1283" cx="0" cy="0" r="1" gradientUnits="userSpaceOnUse" gradientTransform="translate(751.596 703.064) scale(1320.68 1320.68)">
<stop offset="0.07" stop-color="#B0B0B0"/>
<stop offset="1"/>
</radialGradient>
<radialGradient id="paint10_radial_590_1283" cx="0" cy="0" r="1" gradientUnits="userSpaceOnUse" gradientTransform="translate(751.596 703.061) scale(1320.66 1320.66)">
<stop offset="0.07" stop-color="#B0B0B0"/>
<stop offset="1"/>
</radialGradient>
<radialGradient id="paint11_radial_590_1283" cx="0" cy="0" r="1" gradientUnits="userSpaceOnUse" gradientTransform="translate(751.592 703.064) scale(1320.65 1320.65)">
<stop offset="0.07" stop-color="#B0B0B0"/>
<stop offset="1"/>
</radialGradient>
<radialGradient id="paint12_radial_590_1283" cx="0" cy="0" r="1" gradientUnits="userSpaceOnUse" gradientTransform="translate(751.596 703.064) scale(1320.67 1320.67)">
<stop offset="0.07" stop-color="#B0B0B0"/>
<stop offset="1"/>
</radialGradient>
<radialGradient id="paint13_radial_590_1283" cx="0" cy="0" r="1" gradientUnits="userSpaceOnUse" gradientTransform="translate(751.592 703.064) scale(1320.66 1320.65)">
<stop offset="0.07" stop-color="#B0B0B0"/>
<stop offset="1"/>
</radialGradient>
<radialGradient id="paint14_radial_590_1283" cx="0" cy="0" r="1" gradientUnits="userSpaceOnUse" gradientTransform="translate(751.594 703.064) scale(1320.66 1320.66)">
<stop offset="0.07" stop-color="#B0B0B0"/>
<stop offset="1"/>
</radialGradient>
<radialGradient id="paint15_radial_590_1283" cx="0" cy="0" r="1" gradientUnits="userSpaceOnUse" gradientTransform="translate(751.593 703.064) scale(1320.65 1320.65)">
<stop offset="0.07" stop-color="#B0B0B0"/>
<stop offset="1"/>
</radialGradient>
<radialGradient id="paint16_radial_590_1283" cx="0" cy="0" r="1" gradientUnits="userSpaceOnUse" gradientTransform="translate(751.563 703.068) scale(1320.55 1320.55)">
<stop offset="0.07" stop-color="#B0B0B0"/>
<stop offset="1"/>
</radialGradient>
<radialGradient id="paint17_radial_590_1283" cx="0" cy="0" r="1" gradientUnits="userSpaceOnUse" gradientTransform="translate(751.596 703.064) scale(1320.66 1320.66)">
<stop offset="0.07" stop-color="#B0B0B0"/>
<stop offset="1"/>
</radialGradient>
<radialGradient id="paint18_radial_590_1283" cx="0" cy="0" r="1" gradientUnits="userSpaceOnUse" gradientTransform="translate(751.595 703.064) scale(1320.65 1320.66)">
<stop offset="0.07" stop-color="#B0B0B0"/>
<stop offset="1"/>
</radialGradient>
<radialGradient id="paint19_radial_590_1283" cx="0" cy="0" r="1" gradientUnits="userSpaceOnUse" gradientTransform="translate(751.597 703.068) scale(1320.69 1320.69)">
<stop offset="0.07" stop-color="#B0B0B0"/>
<stop offset="1"/>
</radialGradient>
<radialGradient id="paint20_radial_590_1283" cx="0" cy="0" r="1" gradientUnits="userSpaceOnUse" gradientTransform="translate(751.59 703.061) scale(1320.64 1320.64)">
<stop offset="0.07" stop-color="#B0B0B0"/>
<stop offset="1"/>
</radialGradient>
<radialGradient id="paint21_radial_590_1283" cx="0" cy="0" r="1" gradientUnits="userSpaceOnUse" gradientTransform="translate(751.594 703.068) scale(1320.66 1320.67)">
<stop offset="0.07" stop-color="#B0B0B0"/>
<stop offset="1"/>
</radialGradient>
<radialGradient id="paint22_radial_590_1283" cx="0" cy="0" r="1" gradientUnits="userSpaceOnUse" gradientTransform="translate(751.596 703.064) scale(1320.66 1320.66)">
<stop offset="0.07" stop-color="#B0B0B0"/>
<stop offset="1"/>
</radialGradient>
<radialGradient id="paint23_radial_590_1283" cx="0" cy="0" r="1" gradientUnits="userSpaceOnUse" gradientTransform="translate(751.591 703.064) scale(1320.65 1320.64)">
<stop offset="0.07" stop-color="#B0B0B0"/>
<stop offset="1"/>
</radialGradient>
<radialGradient id="paint24_radial_590_1283" cx="0" cy="0" r="1" gradientUnits="userSpaceOnUse" gradientTransform="translate(751.596 703.064) scale(1320.66 1320.66)">
<stop offset="0.07" stop-color="#B0B0B0"/>
<stop offset="1"/>
</radialGradient>
<radialGradient id="paint25_radial_590_1283" cx="0" cy="0" r="1" gradientUnits="userSpaceOnUse" gradientTransform="translate(751.59 703.064) scale(1320.65 1320.65)">
<stop offset="0.07" stop-color="#B0B0B0"/>
<stop offset="1"/>
</radialGradient>
<radialGradient id="paint26_radial_590_1283" cx="0" cy="0" r="1" gradientUnits="userSpaceOnUse" gradientTransform="translate(751.589 703.064) scale(1320.65 1320.65)">
<stop offset="0.07" stop-color="#B0B0B0"/>
<stop offset="1"/>
</radialGradient>
<radialGradient id="paint27_radial_590_1283" cx="0" cy="0" r="1" gradientUnits="userSpaceOnUse" gradientTransform="translate(751.59 612.064) scale(1320.66 1320.66)">
<stop offset="0.07" stop-color="#B0B0B0"/>
<stop offset="1"/>
</radialGradient>
<radialGradient id="paint28_radial_590_1283" cx="0" cy="0" r="1" gradientUnits="userSpaceOnUse" gradientTransform="translate(751.606 612.064) scale(1320.61 1320.61)">
<stop offset="0.07" stop-color="#B0B0B0"/>
<stop offset="1"/>
</radialGradient>
<radialGradient id="paint29_radial_590_1283" cx="0" cy="0" r="1" gradientUnits="userSpaceOnUse" gradientTransform="translate(751.59 703.064) scale(1320.65 1320.65)">
<stop offset="0.07" stop-color="#B0B0B0"/>
<stop offset="1"/>
</radialGradient>
<radialGradient id="paint30_radial_590_1283" cx="0" cy="0" r="1" gradientUnits="userSpaceOnUse" gradientTransform="translate(751.598 703.061) scale(1320.68 1320.68)">
<stop offset="0.07" stop-color="#B0B0B0"/>
<stop offset="1"/>
</radialGradient>
<radialGradient id="paint31_radial_590_1283" cx="0" cy="0" r="1" gradientUnits="userSpaceOnUse" gradientTransform="translate(751.598 612.061) scale(1320.63 1320.64)">
<stop offset="0.07" stop-color="#B0B0B0"/>
<stop offset="1"/>
</radialGradient>
<radialGradient id="paint32_radial_590_1283" cx="0" cy="0" r="1" gradientUnits="userSpaceOnUse" gradientTransform="translate(751.596 612.061) scale(1320.63 1320.64)">
<stop offset="0.07" stop-color="#B0B0B0"/>
<stop offset="1"/>
</radialGradient>
<radialGradient id="paint33_radial_590_1283" cx="0" cy="0" r="1" gradientUnits="userSpaceOnUse" gradientTransform="translate(751.593 703.064) scale(1320.65 1320.65)">
<stop offset="0.07" stop-color="#B0B0B0"/>
<stop offset="1"/>
</radialGradient>
<radialGradient id="paint34_radial_590_1283" cx="0" cy="0" r="1" gradientUnits="userSpaceOnUse" gradientTransform="translate(751.589 703.064) scale(1320.65 1320.65)">
<stop offset="0.07" stop-color="#B0B0B0"/>
<stop offset="1"/>
</radialGradient>
<radialGradient id="paint35_radial_590_1283" cx="0" cy="0" r="1" gradientUnits="userSpaceOnUse" gradientTransform="translate(751.589 703.064) scale(1320.65 1320.65)">
<stop offset="0.07" stop-color="#B0B0B0"/>
<stop offset="1"/>
</radialGradient>
<radialGradient id="paint36_radial_590_1283" cx="0" cy="0" r="1" gradientUnits="userSpaceOnUse" gradientTransform="translate(751.597 703.064) scale(1320.68 1320.68)">
<stop offset="0.07" stop-color="#B0B0B0"/>
<stop offset="1"/>
</radialGradient>
<radialGradient id="paint37_radial_590_1283" cx="0" cy="0" r="1" gradientUnits="userSpaceOnUse" gradientTransform="translate(751.591 703.064) scale(1320.65 1320.65)">
<stop offset="0.07" stop-color="#B0B0B0"/>
<stop offset="1"/>
</radialGradient>
<radialGradient id="paint38_radial_590_1283" cx="0" cy="0" r="1" gradientUnits="userSpaceOnUse" gradientTransform="translate(751.59 703.064) scale(1320.65 1320.65)">
<stop offset="0.07" stop-color="#B0B0B0"/>
<stop offset="1"/>
</radialGradient>
<radialGradient id="paint39_radial_590_1283" cx="0" cy="0" r="1" gradientUnits="userSpaceOnUse" gradientTransform="translate(751.598 703.064) scale(1320.58 1320.58)">
<stop offset="0.07" stop-color="#B0B0B0"/>
<stop offset="1"/>
</radialGradient>
<radialGradient id="paint40_radial_590_1283" cx="0" cy="0" r="1" gradientUnits="userSpaceOnUse" gradientTransform="translate(751.59 703.064) scale(1320.65 1320.65)">
<stop offset="0.07" stop-color="#B0B0B0"/>
<stop offset="1"/>
</radialGradient>
<radialGradient id="paint41_radial_590_1283" cx="0" cy="0" r="1" gradientUnits="userSpaceOnUse" gradientTransform="translate(751.595 703.064) scale(1320.64 1320.64)">
<stop offset="0.07" stop-color="#B0B0B0"/>
<stop offset="1"/>
</radialGradient>
<radialGradient id="paint42_radial_590_1283" cx="0" cy="0" r="1" gradientUnits="userSpaceOnUse" gradientTransform="translate(751.59 703.064) scale(1320.65 1320.65)">
<stop offset="0.07" stop-color="#B0B0B0"/>
<stop offset="1"/>
</radialGradient>
<radialGradient id="paint43_radial_590_1283" cx="0" cy="0" r="1" gradientUnits="userSpaceOnUse" gradientTransform="translate(751.591 703.064) scale(1320.66 1320.66)">
<stop offset="0.07" stop-color="#B0B0B0"/>
<stop offset="1"/>
</radialGradient>
<radialGradient id="paint44_radial_590_1283" cx="0" cy="0" r="1" gradientUnits="userSpaceOnUse" gradientTransform="translate(751.593 703.064) scale(1320.65 1320.65)">
<stop offset="0.07" stop-color="#B0B0B0"/>
<stop offset="1"/>
</radialGradient>
</defs>
</svg>
