<svg width="60" height="60" viewBox="0 0 60 60" fill="none" xmlns="http://www.w3.org/2000/svg">
<path d="M23.7128 27.0524C27.19 22.6183 32.5911 19.7686 38.6712 19.7686C39.5766 19.7686 40.4716 19.8303 41.3564 19.9538V15.9004C38.6095 18.3695 31.4903 20.1287 23.1264 20.1287C14.8138 20.1287 7.71521 18.39 4.9375 15.9313V21.1472C6.32635 26.8363 23.5173 27.0627 23.7128 27.0524Z" fill="#487FFF"/>
<path d="M4.92826 25.2212L4.91797 30.5194C5.58668 33.4617 11.7902 35.8485 19.825 36.3732C20.1336 33.8732 20.9361 31.5173 22.1295 29.4186C14.2387 29.2849 7.58251 27.5874 4.92826 25.2212Z" fill="#487FFF"/>
<path d="M4.91849 34.6348L4.9082 39.6758C4.93907 39.6449 4.96993 39.6141 5.00079 39.5935C5.19626 42.8444 12.1405 45.509 21.0601 45.8896C20.165 43.688 19.6815 41.291 19.6815 38.7705V38.7602C12.871 38.3384 7.28469 36.7541 4.91849 34.6348Z" fill="#487FFF"/>
<path d="M22.2417 48.2868C14.1967 48.153 7.43757 46.3732 4.90677 43.9453L4.89648 48.6983C4.89648 52.2784 13.0547 55.1796 23.1265 55.1796C25.0503 55.1796 26.9021 55.0767 28.6408 54.8813C26.0071 53.2352 23.8055 50.9719 22.2417 48.2868Z" fill="#487FFF"/>
<path d="M23.1275 17.7419C33.2071 17.7419 41.3781 14.8447 41.3781 11.2708C41.3781 7.69699 33.2071 4.7998 23.1275 4.7998C13.048 4.7998 4.87695 7.69699 4.87695 11.2708C4.87695 14.8447 13.048 17.7419 23.1275 17.7419Z" fill="#487FFF"/>
<path d="M38.6709 22.3096C29.5868 22.3096 22.2207 29.6756 22.2207 38.7598C22.2207 47.8439 29.5868 55.1997 38.6709 55.1997C47.7551 55.1997 55.1211 47.8336 55.1211 38.7495C55.1211 29.6654 47.7551 22.3096 38.6709 22.3096ZM40.1729 47.5353V48.5744C40.1729 49.4077 39.5042 50.0764 38.6709 50.0764C37.8376 50.0764 37.1689 49.4077 37.1689 48.5744V47.5353C36.2944 47.2678 35.4817 46.7843 34.8438 46.1053C34.278 45.4983 34.3089 44.5518 34.9056 43.986C35.5126 43.4202 36.4282 43.4819 37.0249 44.0477C37.6833 44.6753 38.7738 44.7473 38.8252 44.7473C39.9878 44.665 40.9137 43.6876 40.9137 42.5045C40.9137 41.27 39.9055 40.2515 38.6709 40.2515C35.78 40.2515 33.4241 37.8956 33.4241 35.0047C33.4241 32.6282 35.0085 30.6221 37.1689 29.974V28.9349C37.1689 28.1016 37.8376 27.4329 38.6709 27.4329C39.5042 27.4329 40.1729 28.1016 40.1729 28.9349V29.974C41.0474 30.2415 41.8601 30.725 42.498 31.404C43.0638 32.011 43.0329 32.9575 42.4363 33.5233C41.8293 34.0891 40.8314 34.1097 40.317 33.4616C39.7717 32.7723 38.568 32.762 38.5166 32.762C37.3541 32.8443 36.4282 33.8216 36.4282 35.0047C36.4282 36.2393 37.4364 37.2578 38.6709 37.2578C41.5618 37.2578 43.9177 39.6137 43.9177 42.5045C43.9177 44.881 42.3334 46.8872 40.1729 47.5353Z" fill="#487FFF"/>
</svg>
