<svg width="315" height="162" viewBox="0 0 315 162" fill="none" xmlns="http://www.w3.org/2000/svg">
<g filter="url(#filter0_d_329_1676)">
<path d="M27 22.4685C27 18.3438 30.3438 15 34.4685 15H280.929C285.053 15 288.397 18.3438 288.397 22.4685V115.825C288.397 119.949 285.053 123.293 280.929 123.293H34.4685C30.3437 123.293 27 119.949 27 115.825V22.4685Z" fill="url(#paint0_linear_329_1676)"/>
<path d="M34.4688 15.4668H280.929C284.796 15.4669 287.931 18.6019 287.931 22.4688V115.824C287.931 119.691 284.796 122.826 280.929 122.826H34.4688C30.6018 122.826 27.4668 119.691 27.4668 115.824V22.4688C27.4668 18.6018 30.6018 15.4668 34.4688 15.4668Z" stroke="#E0EAF8" stroke-width="0.933561"/>
</g>
<path d="M41.2816 33.8462L44.3051 42.6938H44.4271L47.4505 33.8462H49.2222L45.3129 44.7095H43.4193L39.51 33.8462H41.2816ZM50.6636 44.7095V36.562H52.2496V44.7095H50.6636ZM51.4646 35.3049C51.1888 35.3049 50.9518 35.213 50.7538 35.0291C50.5593 34.8417 50.4621 34.6189 50.4621 34.3607C50.4621 34.0991 50.5593 33.8763 50.7538 33.6924C50.9518 33.505 51.1888 33.4113 51.4646 33.4113C51.7404 33.4113 51.9756 33.505 52.1701 33.6924C52.3681 33.8763 52.4671 34.0991 52.4671 34.3607C52.4671 34.6189 52.3681 34.8417 52.1701 35.0291C51.9756 35.213 51.7404 35.3049 51.4646 35.3049ZM57.4333 44.8686C56.7755 44.8686 56.1885 44.7006 55.6722 44.3647C55.1595 44.0252 54.7564 43.5425 54.4629 42.9166C54.1729 42.2872 54.0279 41.5322 54.0279 40.6517C54.0279 39.7711 54.1747 39.0179 54.4682 38.392C54.7652 37.7661 55.1719 37.287 55.6882 36.9546C56.2044 36.6221 56.7897 36.4559 57.4439 36.4559C57.9496 36.4559 58.3562 36.5408 58.6639 36.7106C58.9751 36.8768 59.2155 37.0712 59.3853 37.294C59.5586 37.5168 59.6929 37.7131 59.7884 37.8828H59.8839V33.8462H61.4699V44.7095H59.921V43.4417H59.7884C59.6929 43.615 59.555 43.813 59.3747 44.0358C59.1979 44.2586 58.9539 44.4531 58.6427 44.6193C58.3315 44.7855 57.9284 44.8686 57.4333 44.8686ZM57.7834 43.516C58.2395 43.516 58.625 43.3958 58.9397 43.1553C59.258 42.9113 59.4984 42.5736 59.6611 42.1422C59.8273 41.7108 59.9104 41.2086 59.9104 40.6358C59.9104 40.07 59.8291 39.5749 59.6664 39.1505C59.5037 38.7262 59.265 38.3956 58.9503 38.1586C58.6356 37.9217 58.2466 37.8032 57.7834 37.8032C57.306 37.8032 56.9082 37.927 56.5899 38.1745C56.2716 38.4221 56.0312 38.7598 55.8685 39.1877C55.7094 39.6156 55.6298 40.0982 55.6298 40.6358C55.6298 41.1803 55.7111 41.6701 55.8738 42.105C56.0365 42.54 56.2769 42.8848 56.5952 43.1394C56.917 43.3905 57.3131 43.516 57.7834 43.516ZM67.245 44.8739C66.4422 44.8739 65.7509 44.7024 65.171 44.3594C64.5946 44.0128 64.149 43.5266 63.8343 42.9007C63.5231 42.2713 63.3675 41.534 63.3675 40.6888C63.3675 39.8542 63.5231 39.1187 63.8343 38.4822C64.149 37.8457 64.5875 37.3488 65.1497 36.9917C65.7155 36.6345 66.3768 36.4559 67.1336 36.4559C67.5933 36.4559 68.0388 36.532 68.4703 36.684C68.9017 36.8361 69.2889 37.0748 69.6319 37.4001C69.9749 37.7254 70.2454 38.148 70.4435 38.6678C70.6415 39.1841 70.7405 39.8118 70.7405 40.5509V41.1131H64.2639V39.925H69.1863C69.1863 39.5077 69.1015 39.1382 68.9317 38.8164C68.762 38.491 68.5233 38.2347 68.2156 38.0472C67.9115 37.8598 67.5544 37.7661 67.1442 37.7661C66.6986 37.7661 66.3096 37.8757 65.9772 38.095C65.6484 38.3107 65.3937 38.5936 65.2134 38.9437C65.0366 39.2902 64.9482 39.6668 64.9482 40.0735V41.0018C64.9482 41.5463 65.0437 42.0096 65.2346 42.3915C65.4291 42.7734 65.6996 43.0651 66.0462 43.2667C66.3927 43.4647 66.7976 43.5637 67.2609 43.5637C67.5614 43.5637 67.8355 43.5213 68.083 43.4364C68.3306 43.348 68.5445 43.2172 68.7249 43.0439C68.9052 42.8706 69.0431 42.6567 69.1386 42.4021L70.6397 42.6726C70.5195 43.1146 70.3038 43.5019 69.9926 43.8343C69.6849 44.1631 69.2977 44.4195 68.831 44.6034C68.3677 44.7837 67.839 44.8739 67.245 44.8739ZM75.9321 44.8739C75.1683 44.8739 74.5017 44.6989 73.9324 44.3488C73.3631 43.9987 72.921 43.5089 72.6063 42.8795C72.2916 42.25 72.1342 41.5145 72.1342 40.6729C72.1342 39.8277 72.2916 39.0887 72.6063 38.4557C72.921 37.8227 73.3631 37.3312 73.9324 36.9811C74.5017 36.631 75.1683 36.4559 75.9321 36.4559C76.6959 36.4559 77.3625 36.631 77.9318 36.9811C78.5012 37.3312 78.9432 37.8227 79.2579 38.4557C79.5726 39.0887 79.73 39.8277 79.73 40.6729C79.73 41.5145 79.5726 42.25 79.2579 42.8795C78.9432 43.5089 78.5012 43.9987 77.9318 44.3488C77.3625 44.6989 76.6959 44.8739 75.9321 44.8739ZM75.9374 43.5425C76.4325 43.5425 76.8427 43.4117 77.168 43.15C77.4934 42.8883 77.7338 42.54 77.8894 42.105C78.0485 41.6701 78.1281 41.1909 78.1281 40.6676C78.1281 40.1478 78.0485 39.6704 77.8894 39.2354C77.7338 38.7969 77.4934 38.4451 77.168 38.1798C76.8427 37.9146 76.4325 37.782 75.9374 37.782C75.4388 37.782 75.0251 37.9146 74.6962 38.1798C74.3709 38.4451 74.1286 38.7969 73.9695 39.2354C73.8139 39.6704 73.7361 40.1478 73.7361 40.6676C73.7361 41.1909 73.8139 41.6701 73.9695 42.105C74.1286 42.54 74.3709 42.8883 74.6962 43.15C75.0251 43.4117 75.4388 43.5425 75.9374 43.5425ZM85.5807 44.7095V33.8462H87.1667V37.8828H87.2622C87.3541 37.7131 87.4867 37.5168 87.66 37.294C87.8332 37.0712 88.0737 36.8768 88.3814 36.7106C88.689 36.5408 89.0957 36.4559 89.6014 36.4559C90.2591 36.4559 90.8461 36.6221 91.3624 36.9546C91.8787 37.287 92.2836 37.7661 92.5771 38.392C92.8741 39.0179 93.0226 39.7711 93.0226 40.6517C93.0226 41.5322 92.8759 42.2872 92.5824 42.9166C92.2889 43.5425 91.8858 44.0252 91.373 44.3647C90.8603 44.7006 90.275 44.8686 89.6173 44.8686C89.1222 44.8686 88.7173 44.7855 88.4026 44.6193C88.0914 44.4531 87.8474 44.2586 87.6706 44.0358C87.4938 43.813 87.3576 43.615 87.2622 43.4417H87.1295V44.7095H85.5807ZM87.1348 40.6358C87.1348 41.2086 87.2179 41.7108 87.3841 42.1422C87.5504 42.5736 87.7908 42.9113 88.1055 43.1553C88.4203 43.3958 88.8057 43.516 89.2619 43.516C89.7357 43.516 90.1318 43.3905 90.45 43.1394C90.7683 42.8848 91.0088 42.54 91.1714 42.105C91.3376 41.6701 91.4207 41.1803 91.4207 40.6358C91.4207 40.0982 91.3394 39.6156 91.1767 39.1877C91.0176 38.7598 90.7771 38.4221 90.4554 38.1745C90.1371 37.927 89.7393 37.8032 89.2619 37.8032C88.8022 37.8032 88.4132 37.9217 88.0949 38.1586C87.7802 38.3956 87.5415 38.7262 87.3788 39.1505C87.2162 39.5749 87.1348 40.07 87.1348 40.6358ZM99.9647 41.3306V36.562H101.556V44.7095H99.9965V43.2985H99.9116C99.7242 43.7335 99.4236 44.0959 99.0099 44.3859C98.5997 44.6723 98.0887 44.8156 97.477 44.8156C96.9536 44.8156 96.4903 44.7006 96.0872 44.4708C95.6876 44.2374 95.3729 43.8926 95.143 43.4364C94.9167 42.9803 94.8036 42.4162 94.8036 41.7444V36.562H96.3896V41.5534C96.3896 42.1086 96.5434 42.5506 96.851 42.8795C97.1587 43.2083 97.5583 43.3728 98.0498 43.3728C98.3469 43.3728 98.6421 43.2985 98.9356 43.15C99.2327 43.0015 99.4785 42.7769 99.6729 42.4764C99.871 42.1758 99.9682 41.7939 99.9647 41.3306ZM107.564 36.562V37.8351H102.96V36.562H107.564ZM104.223 44.7095V35.6179C104.223 35.1086 104.334 34.6861 104.557 34.3501C104.78 34.0107 105.075 33.7578 105.443 33.5916C105.81 33.4219 106.21 33.337 106.641 33.337C106.96 33.337 107.232 33.3635 107.458 33.4166C107.685 33.4661 107.853 33.512 107.962 33.5545L107.591 34.8381C107.517 34.8169 107.421 34.7922 107.305 34.7639C107.188 34.732 107.046 34.7161 106.88 34.7161C106.495 34.7161 106.219 34.8116 106.053 35.0026C105.89 35.1935 105.809 35.4693 105.809 35.83V44.7095H104.223ZM113.078 36.562V37.8351H108.474V36.562H113.078ZM109.737 44.7095V35.6179C109.737 35.1086 109.848 34.6861 110.071 34.3501C110.294 34.0107 110.589 33.7578 110.957 33.5916C111.324 33.4219 111.724 33.337 112.155 33.337C112.474 33.337 112.746 33.3635 112.972 33.4166C113.199 33.4661 113.366 33.512 113.476 33.5545L113.105 34.8381C113.031 34.8169 112.935 34.7922 112.818 34.7639C112.702 34.732 112.56 34.7161 112.394 34.7161C112.009 34.7161 111.733 34.8116 111.567 35.0026C111.404 35.1935 111.323 35.4693 111.323 35.83V44.7095H109.737ZM117.905 44.8739C117.103 44.8739 116.411 44.7024 115.831 44.3594C115.255 44.0128 114.809 43.5266 114.495 42.9007C114.183 42.2713 114.028 41.534 114.028 40.6888C114.028 39.8542 114.183 39.1187 114.495 38.4822C114.809 37.8457 115.248 37.3488 115.81 36.9917C116.376 36.6345 117.037 36.4559 117.794 36.4559C118.254 36.4559 118.699 36.532 119.131 36.684C119.562 36.8361 119.949 37.0748 120.292 37.4001C120.635 37.7254 120.906 38.148 121.104 38.6678C121.302 39.1841 121.401 39.8118 121.401 40.5509V41.1131H114.924V39.925H119.847C119.847 39.5077 119.762 39.1382 119.592 38.8164C119.422 38.491 119.184 38.2347 118.876 38.0472C118.572 37.8598 118.215 37.7661 117.804 37.7661C117.359 37.7661 116.97 37.8757 116.637 38.095C116.309 38.3107 116.054 38.5936 115.874 38.9437C115.697 39.2902 115.608 39.6668 115.608 40.0735V41.0018C115.608 41.5463 115.704 42.0096 115.895 42.3915C116.089 42.7734 116.36 43.0651 116.706 43.2667C117.053 43.4647 117.458 43.5637 117.921 43.5637C118.222 43.5637 118.496 43.5213 118.743 43.4364C118.991 43.348 119.205 43.2172 119.385 43.0439C119.565 42.8706 119.703 42.6567 119.799 42.4021L121.3 42.6726C121.18 43.1146 120.964 43.5019 120.653 43.8343C120.345 44.1631 119.958 44.4195 119.491 44.6034C119.028 44.7837 118.499 44.8739 117.905 44.8739ZM123.16 44.7095V36.562H124.693V37.8563H124.778C124.927 37.4178 125.189 37.073 125.563 36.8219C125.942 36.5673 126.37 36.44 126.847 36.44C126.946 36.44 127.063 36.4436 127.197 36.4506C127.335 36.4577 127.443 36.4666 127.521 36.4772V37.9942C127.457 37.9765 127.344 37.9571 127.181 37.9359C127.018 37.9111 126.856 37.8987 126.693 37.8987C126.318 37.8987 125.984 37.9783 125.691 38.1374C125.401 38.293 125.171 38.5105 125.001 38.7898C124.831 39.0657 124.746 39.3804 124.746 39.734V44.7095H123.16ZM128.893 44.7095V36.562H130.479V44.7095H128.893ZM129.694 35.3049C129.418 35.3049 129.181 35.213 128.983 35.0291C128.789 34.8417 128.692 34.6189 128.692 34.3607C128.692 34.0991 128.789 33.8763 128.983 33.6924C129.181 33.505 129.418 33.4113 129.694 33.4113C129.97 33.4113 130.205 33.505 130.4 33.6924C130.598 33.8763 130.697 34.0991 130.697 34.3607C130.697 34.6189 130.598 34.8417 130.4 35.0291C130.205 35.213 129.97 35.3049 129.694 35.3049ZM134.199 39.8719V44.7095H132.613V36.562H134.135V37.8881H134.236C134.423 37.4567 134.717 37.1101 135.116 36.8485C135.52 36.5868 136.027 36.4559 136.639 36.4559C137.194 36.4559 137.68 36.5726 138.097 36.806C138.515 37.0359 138.838 37.3789 139.068 37.8351C139.298 38.2912 139.413 38.8553 139.413 39.5271V44.7095H137.827V39.7181C137.827 39.1276 137.673 38.6661 137.365 38.3337C137.058 37.9977 136.635 37.8298 136.098 37.8298C135.73 37.8298 135.403 37.9093 135.116 38.0685C134.834 38.2276 134.609 38.461 134.443 38.7686C134.28 39.0727 134.199 39.4405 134.199 39.8719ZM144.956 47.9345C144.309 47.9345 143.752 47.8496 143.285 47.6799C142.822 47.5102 142.443 47.2856 142.15 47.0062C141.856 46.7269 141.637 46.421 141.492 46.0886L142.855 45.5263C142.951 45.6819 143.078 45.8464 143.237 46.0196C143.4 46.1965 143.619 46.3467 143.895 46.4705C144.174 46.5943 144.533 46.6562 144.972 46.6562C145.573 46.6562 146.07 46.5094 146.462 46.2159C146.855 45.9259 147.051 45.4627 147.051 44.8262V43.2243H146.95C146.855 43.3975 146.717 43.5903 146.537 43.8024C146.36 44.0146 146.116 44.1985 145.805 44.3541C145.493 44.5097 145.089 44.5875 144.59 44.5875C143.946 44.5875 143.366 44.4372 142.85 44.1366C142.337 43.8325 141.931 43.3852 141.63 42.7946C141.333 42.2005 141.185 41.4703 141.185 40.6039C141.185 39.7376 141.331 38.9949 141.625 38.3761C141.922 37.7573 142.329 37.2834 142.845 36.9546C143.361 36.6221 143.946 36.4559 144.601 36.4559C145.106 36.4559 145.515 36.5408 145.826 36.7106C146.137 36.8768 146.379 37.0712 146.553 37.294C146.729 37.5168 146.866 37.7131 146.961 37.8828H147.078V36.562H148.632V44.8898C148.632 45.59 148.469 46.1646 148.144 46.6137C147.819 47.0628 147.378 47.3952 146.823 47.6109C146.271 47.8266 145.649 47.9345 144.956 47.9345ZM144.94 43.272C145.396 43.272 145.782 43.1659 146.096 42.9537C146.415 42.738 146.655 42.4304 146.818 42.0308C146.984 41.6277 147.067 41.145 147.067 40.5827C147.067 40.0346 146.986 39.5519 146.823 39.1346C146.66 38.7174 146.422 38.392 146.107 38.1586C145.792 37.9217 145.403 37.8032 144.94 37.8032C144.463 37.8032 144.065 37.927 143.747 38.1745C143.428 38.4185 143.188 38.7509 143.025 39.1718C142.866 39.5926 142.786 40.0629 142.786 40.5827C142.786 41.1167 142.868 41.5852 143.03 41.9884C143.193 42.3915 143.434 42.7062 143.752 42.9325C144.074 43.1588 144.47 43.272 144.94 43.272Z" fill="#4B5563"/>
<path d="M46.6098 75.887C45.2996 75.887 44.1751 75.5554 43.2363 74.8924C42.3027 74.2241 41.584 73.2613 41.0801 72.0042C40.5814 70.7418 40.3321 69.2221 40.3321 67.4451C40.3374 65.6682 40.5894 64.1565 41.088 62.9099C41.5919 61.6581 42.3107 60.7033 43.2442 60.0456C44.1831 59.3879 45.3049 59.059 46.6098 59.059C47.9147 59.059 49.0365 59.3879 49.9754 60.0456C50.9143 60.7033 51.633 61.6581 52.1316 62.9099C52.6355 64.1618 52.8875 65.6735 52.8875 67.4451C52.8875 69.2274 52.6355 70.7497 52.1316 72.0122C51.633 73.2693 50.9143 74.2294 49.9754 74.8924C49.0418 75.5554 47.92 75.887 46.6098 75.887ZM46.6098 73.3966C47.6282 73.3966 48.4318 72.8953 49.0206 71.8928C49.6147 70.885 49.9118 69.4024 49.9118 67.4451C49.9118 66.1509 49.7765 65.0635 49.506 64.183C49.2355 63.3025 48.8535 62.6394 48.3602 62.1939C47.8669 61.743 47.2835 61.5176 46.6098 61.5176C45.5967 61.5176 44.7957 62.0215 44.207 63.0293C43.6182 64.0318 43.3211 65.5038 43.3158 67.4451C43.3105 68.7447 43.4405 69.8374 43.7057 70.7232C43.9762 71.609 44.3581 72.2774 44.8514 72.7282C45.3447 73.1738 45.9309 73.3966 46.6098 73.3966ZM56.7026 75.7517C56.2199 75.7517 55.8062 75.582 55.4614 75.2425C55.1166 74.903 54.9469 74.4893 54.9522 74.0013C54.9469 73.5239 55.1166 73.1155 55.4614 72.776C55.8062 72.4365 56.2199 72.2668 56.7026 72.2668C57.1694 72.2668 57.5752 72.4365 57.92 72.776C58.27 73.1155 58.4477 73.5239 58.453 74.0013C58.4477 74.3248 58.3629 74.6192 58.1984 74.8844C58.0393 75.1497 57.8271 75.3618 57.5619 75.521C57.302 75.6748 57.0156 75.7517 56.7026 75.7517ZM66.863 75.7994C65.8022 75.7994 64.8527 75.6005 64.0146 75.2027C63.1765 74.7996 62.5108 74.2479 62.0175 73.5478C61.5295 72.8476 61.2696 72.0466 61.2378 71.1449H64.1021C64.1552 71.8132 64.4443 72.3596 64.9694 72.7839C65.4945 73.203 66.1257 73.4125 66.863 73.4125C67.4412 73.4125 67.9557 73.2799 68.4066 73.0147C68.8575 72.7495 69.2129 72.3808 69.4728 71.9087C69.7327 71.4366 69.86 70.8982 69.8547 70.2936C69.86 69.6783 69.73 69.1319 69.4648 68.6545C69.1996 68.1771 68.8363 67.8032 68.3748 67.5327C67.9133 67.2568 67.3829 67.1189 66.7835 67.1189C66.2955 67.1136 65.8154 67.2038 65.3434 67.3894C64.8713 67.5751 64.4973 67.8191 64.2215 68.1214L61.5561 67.6838L62.4074 59.2818H71.8597V61.7483H64.8501L64.3806 66.0687H64.4761C64.7784 65.7133 65.2054 65.4189 65.7571 65.1855C66.3087 64.9468 66.9134 64.8274 67.5712 64.8274C68.5578 64.8274 69.4383 65.0608 70.2127 65.5276C70.9872 65.9891 71.5972 66.6256 72.0427 67.4372C72.4883 68.2487 72.7111 69.177 72.7111 70.2219C72.7111 71.2987 72.4618 72.2588 71.9631 73.1022C71.4698 73.9403 70.7829 74.6007 69.9024 75.0834C69.0272 75.5607 68.0141 75.7994 66.863 75.7994ZM81.0932 59.2818H84.7055L89.543 71.0892H89.734L94.5715 59.2818H98.1837V75.5767H95.3512V64.3819H95.2001L90.6967 75.5289H88.5803L84.0769 64.358H83.9257V75.5767H81.0932V59.2818ZM101.398 75.5767V59.2818H104.278V65.3764H104.398C104.546 65.0794 104.756 64.7638 105.026 64.4296C105.297 64.0901 105.663 63.8011 106.124 63.5624C106.586 63.3184 107.175 63.1964 107.891 63.1964C108.835 63.1964 109.686 63.4377 110.445 63.9204C111.209 64.3978 111.813 65.1059 112.259 66.0448C112.71 66.9784 112.935 68.1241 112.935 69.482C112.935 70.824 112.715 71.9644 112.275 72.9033C111.834 73.8421 111.235 74.5582 110.477 75.0515C109.718 75.5448 108.859 75.7915 107.899 75.7915C107.198 75.7915 106.618 75.6748 106.156 75.4414C105.695 75.208 105.323 74.9269 105.042 74.598C104.766 74.2638 104.552 73.9482 104.398 73.6512H104.231V75.5767H101.398ZM104.223 69.4661C104.223 70.2564 104.334 70.9486 104.557 71.5427C104.785 72.1368 105.111 72.6009 105.536 72.9351C105.965 73.264 106.485 73.4284 107.095 73.4284C107.732 73.4284 108.265 73.2587 108.694 72.9192C109.124 72.5744 109.447 72.105 109.665 71.5109C109.888 70.9115 109.999 70.2299 109.999 69.4661C109.999 68.7076 109.89 68.0339 109.673 67.4451C109.455 66.8564 109.132 66.3949 108.702 66.0607C108.273 65.7265 107.737 65.5594 107.095 65.5594C106.48 65.5594 105.957 65.7212 105.528 66.0448C105.098 66.3684 104.772 66.8219 104.549 67.4054C104.331 67.9888 104.223 68.6757 104.223 69.4661ZM115.384 80.1596V63.3555H118.216V65.3764H118.383C118.532 65.0794 118.741 64.7638 119.012 64.4296C119.282 64.0901 119.648 63.8011 120.11 63.5624C120.571 63.3184 121.16 63.1964 121.876 63.1964C122.82 63.1964 123.672 63.4377 124.43 63.9204C125.194 64.3978 125.799 65.1059 126.244 66.0448C126.695 66.9784 126.921 68.1241 126.921 69.482C126.921 70.824 126.7 71.9644 126.26 72.9033C125.82 73.8421 125.221 74.5582 124.462 75.0515C123.704 75.5448 122.844 75.7915 121.884 75.7915C121.184 75.7915 120.603 75.6748 120.142 75.4414C119.68 75.208 119.309 74.9269 119.028 74.598C118.752 74.2638 118.537 73.9482 118.383 73.6512H118.264V80.1596H115.384ZM118.208 69.4661C118.208 70.2564 118.32 70.9486 118.542 71.5427C118.77 72.1368 119.097 72.6009 119.521 72.9351C119.951 73.264 120.471 73.4284 121.081 73.4284C121.717 73.4284 122.25 73.2587 122.68 72.9192C123.109 72.5744 123.433 72.105 123.65 71.5109C123.873 70.9115 123.985 70.2299 123.985 69.4661C123.985 68.7076 123.876 68.0339 123.658 67.4451C123.441 66.8564 123.117 66.3949 122.688 66.0607C122.258 65.7265 121.722 65.5594 121.081 65.5594C120.465 65.5594 119.943 65.7212 119.513 66.0448C119.083 66.3684 118.757 66.8219 118.534 67.4054C118.317 67.9888 118.208 68.6757 118.208 69.4661ZM139.046 66.5858L136.421 66.8723C136.346 66.607 136.216 66.3577 136.031 66.1244C135.85 65.891 135.606 65.7027 135.299 65.5594C134.991 65.4162 134.614 65.3446 134.169 65.3446C133.57 65.3446 133.066 65.4746 132.657 65.7345C132.254 65.9944 132.055 66.3312 132.06 66.745C132.055 67.1004 132.185 67.3894 132.45 67.6122C132.721 67.835 133.166 68.018 133.787 68.1612L135.872 68.6068C137.028 68.8561 137.887 69.2513 138.45 69.7923C139.017 70.3333 139.304 71.0415 139.309 71.9167C139.304 72.6858 139.078 73.3648 138.633 73.9535C138.192 74.537 137.58 74.9932 136.795 75.3221C136.01 75.6509 135.108 75.8154 134.089 75.8154C132.594 75.8154 131.389 75.5024 130.477 74.8765C129.565 74.2453 129.021 73.3674 128.846 72.2429L131.655 71.9724C131.782 72.524 132.053 72.9404 132.466 73.2215C132.88 73.5027 133.418 73.6432 134.081 73.6432C134.766 73.6432 135.315 73.5027 135.728 73.2215C136.147 72.9404 136.357 72.593 136.357 72.1792C136.357 71.8292 136.222 71.5401 135.951 71.312C135.686 71.0839 135.272 70.9089 134.71 70.7869L132.625 70.3492C131.453 70.1053 130.586 69.6942 130.024 69.116C129.461 68.5325 129.183 67.7952 129.188 66.9041C129.183 66.1509 129.387 65.4984 129.801 64.9468C130.22 64.3898 130.801 63.9602 131.543 63.6578C132.291 63.3502 133.153 63.1964 134.129 63.1964C135.561 63.1964 136.688 63.5014 137.511 64.1114C138.338 64.7214 138.85 65.5462 139.046 66.5858Z" fill="#111827"/>
<path d="M43.2601 105.387H40.183V95.8819H43.3576C44.2889 95.8819 45.0888 96.0722 45.7571 96.4527C46.4255 96.8302 46.9376 97.3733 47.2934 98.0818C47.6523 98.7873 47.8318 99.6336 47.8318 100.621C47.8318 101.611 47.6508 102.462 47.2888 103.173C46.9298 103.885 46.41 104.433 45.7293 104.816C45.0486 105.197 44.2255 105.387 43.2601 105.387ZM41.6171 104.134H43.1812C43.9053 104.134 44.5071 103.998 44.9867 103.726C45.4663 103.45 45.8252 103.053 46.0635 102.533C46.3017 102.01 46.4208 101.372 46.4208 100.621C46.4208 99.8749 46.3017 99.2421 46.0635 98.7223C45.8283 98.2025 45.4771 97.808 45.0099 97.5388C44.5427 97.2696 43.9625 97.135 43.2694 97.135H41.6171V104.134ZM52.5763 105.531C51.874 105.531 51.2691 105.381 50.7616 105.081C50.2573 104.778 49.8674 104.352 49.592 103.805C49.3197 103.254 49.1836 102.609 49.1836 101.869C49.1836 101.139 49.3197 100.495 49.592 99.9383C49.8674 99.3814 50.2511 98.9467 50.743 98.6341C51.2381 98.3216 51.8167 98.1654 52.4789 98.1654C52.8811 98.1654 53.271 98.2319 53.6485 98.3649C54.026 98.498 54.3648 98.7069 54.6649 98.9915C54.9651 99.2762 55.2018 99.6459 55.375 100.101C55.5483 100.553 55.635 101.102 55.635 101.748V102.24H49.9679V101.201H54.2751C54.2751 100.836 54.2008 100.512 54.0523 100.231C53.9038 99.9461 53.6949 99.7217 53.4257 99.5578C53.1596 99.3938 52.8471 99.3118 52.4882 99.3118C52.0983 99.3118 51.7579 99.4077 51.4671 99.5995C51.1793 99.7883 50.9565 100.036 50.7987 100.342C50.644 100.645 50.5667 100.975 50.5667 101.331V102.143C50.5667 102.619 50.6502 103.025 50.8173 103.359C50.9875 103.693 51.2242 103.948 51.5274 104.125C51.8306 104.298 52.1849 104.385 52.5903 104.385C52.8533 104.385 53.0931 104.348 53.3097 104.273C53.5263 104.196 53.7135 104.081 53.8713 103.93C54.0291 103.778 54.1497 103.591 54.2333 103.368L55.5468 103.605C55.4416 103.992 55.2528 104.331 54.9805 104.621C54.7113 104.909 54.3725 105.133 53.9641 105.294C53.5588 105.452 53.0962 105.531 52.5763 105.531ZM60.1776 105.531C59.4876 105.531 58.8935 105.375 58.3954 105.062C57.9003 104.747 57.5197 104.312 57.2536 103.758C56.9875 103.204 56.8544 102.57 56.8544 101.855C56.8544 101.131 56.9906 100.492 57.2629 99.9383C57.5352 99.3814 57.9189 98.9467 58.4139 98.6341C58.909 98.3216 59.4922 98.1654 60.1637 98.1654C60.7052 98.1654 61.1879 98.2659 61.6118 98.4671C62.0357 98.6651 62.3776 98.9436 62.6375 99.3025C62.9005 99.6614 63.0568 100.081 63.1063 100.56H61.7556C61.6814 100.226 61.5112 99.9383 61.2451 99.697C60.9821 99.4556 60.6294 99.335 60.1869 99.335C59.8001 99.335 59.4613 99.4371 59.1705 99.6413C58.8827 99.8424 58.6584 100.13 58.4975 100.505C58.3366 100.876 58.2561 101.315 58.2561 101.823C58.2561 102.343 58.335 102.791 58.4928 103.169C58.6506 103.546 58.8734 103.839 59.1612 104.046C59.452 104.253 59.7939 104.357 60.1869 104.357C60.4499 104.357 60.6881 104.309 60.9016 104.213C61.1182 104.114 61.2993 103.973 61.4447 103.791C61.5932 103.608 61.6969 103.388 61.7556 103.132H63.1063C63.0568 103.593 62.9067 104.004 62.6561 104.366C62.4054 104.728 62.0697 105.013 61.6489 105.22C61.2312 105.427 60.7408 105.531 60.1776 105.531ZM64.5903 105.387V98.2582H65.9316V99.3907H66.0059C66.1359 99.007 66.3648 98.7053 66.6928 98.4856C67.0239 98.2628 67.3983 98.1514 67.816 98.1514C67.9026 98.1514 68.0047 98.1545 68.1223 98.1607C68.243 98.1669 68.3374 98.1747 68.4054 98.1839V99.5113C68.3497 99.4959 68.2507 99.4789 68.1084 99.4603C67.9661 99.4386 67.8237 99.4278 67.6814 99.4278C67.3534 99.4278 67.061 99.4974 66.8042 99.6367C66.5505 99.7728 66.3494 99.9631 66.2008 100.208C66.0523 100.449 65.9781 100.724 65.9781 101.034V105.387H64.5903ZM72.4236 105.531C71.7213 105.531 71.1163 105.381 70.6089 105.081C70.1045 104.778 69.7147 104.352 69.4393 103.805C69.167 103.254 69.0309 102.609 69.0309 101.869C69.0309 101.139 69.167 100.495 69.4393 99.9383C69.7147 99.3814 70.0984 98.9467 70.5903 98.6341C71.0854 98.3216 71.664 98.1654 72.3262 98.1654C72.7284 98.1654 73.1183 98.2319 73.4958 98.3649C73.8733 98.498 74.2121 98.7069 74.5122 98.9915C74.8123 99.2762 75.0491 99.6459 75.2223 100.101C75.3956 100.553 75.4822 101.102 75.4822 101.748V102.24H69.8152V101.201H74.1223C74.1223 100.836 74.0481 100.512 73.8996 100.231C73.751 99.9461 73.5422 99.7217 73.273 99.5578C73.0069 99.3938 72.6944 99.3118 72.3355 99.3118C71.9456 99.3118 71.6052 99.4077 71.3144 99.5995C71.0266 99.7883 70.8038 100.036 70.646 100.342C70.4913 100.645 70.414 100.975 70.414 101.331V102.143C70.414 102.619 70.4975 103.025 70.6646 103.359C70.8348 103.693 71.0715 103.948 71.3747 104.125C71.6779 104.298 72.0322 104.385 72.4376 104.385C72.7006 104.385 72.9404 104.348 73.157 104.273C73.3736 104.196 73.5607 104.081 73.7186 103.93C73.8764 103.778 73.997 103.591 74.0806 103.368L75.3941 103.605C75.2889 103.992 75.1001 104.331 74.8278 104.621C74.5586 104.909 74.2198 105.133 73.8114 105.294C73.406 105.452 72.9435 105.531 72.4236 105.531ZM79.0966 105.545C78.6449 105.545 78.2365 105.461 77.8713 105.294C77.5062 105.124 77.2169 104.878 77.0034 104.556C76.793 104.235 76.6878 103.84 76.6878 103.373C76.6878 102.971 76.7652 102.64 76.9199 102.38C77.0746 102.12 77.2834 101.914 77.5465 101.762C77.8095 101.611 78.1034 101.496 78.4283 101.419C78.7532 101.342 79.0843 101.283 79.4215 101.243C79.8485 101.193 80.1951 101.153 80.4612 101.122C80.7273 101.088 80.9207 101.034 81.0413 100.959C81.162 100.885 81.2223 100.764 81.2223 100.597V100.565C81.2223 100.16 81.1079 99.8455 80.8789 99.6227C80.653 99.4 80.3158 99.2886 79.8671 99.2886C79.3999 99.2886 79.0317 99.3922 78.7625 99.5995C78.4964 99.8037 78.3123 100.031 78.2102 100.282L76.906 99.9848C77.0607 99.5516 77.2865 99.2019 77.5836 98.9358C77.8837 98.6666 78.2287 98.4717 78.6186 98.351C79.0085 98.2273 79.4184 98.1654 79.8485 98.1654C80.1332 98.1654 80.4349 98.1994 80.7536 98.2675C81.0754 98.3325 81.3755 98.4531 81.654 98.6295C81.9356 98.8059 82.1661 99.058 82.3455 99.386C82.525 99.7109 82.6147 100.133 82.6147 100.653V105.387H81.2595V104.413H81.2038C81.1141 104.592 80.9795 104.768 80.8 104.942C80.6205 105.115 80.39 105.259 80.1084 105.373C79.8269 105.488 79.4896 105.545 79.0966 105.545ZM79.3983 104.431C79.782 104.431 80.11 104.355 80.3823 104.204C80.6577 104.052 80.8665 103.854 81.0088 103.61C81.1543 103.362 81.227 103.098 81.227 102.816V101.897C81.1775 101.946 81.0816 101.993 80.9392 102.036C80.8 102.076 80.6406 102.112 80.4612 102.143C80.2817 102.171 80.1069 102.197 79.9367 102.222C79.7665 102.244 79.6242 102.262 79.5097 102.278C79.2405 102.312 78.9945 102.369 78.7718 102.449C78.5521 102.53 78.3757 102.646 78.2426 102.797C78.1127 102.946 78.0477 103.144 78.0477 103.391C78.0477 103.735 78.1746 103.995 78.4283 104.171C78.682 104.344 79.0054 104.431 79.3983 104.431ZM89.8052 99.9987L88.5475 100.221C88.4949 100.061 88.4113 99.9074 88.2968 99.762C88.1854 99.6165 88.0338 99.4974 87.842 99.4046C87.6501 99.3118 87.4103 99.2654 87.1226 99.2654C86.7296 99.2654 86.4016 99.3535 86.1386 99.5299C85.8756 99.7032 85.7441 99.9275 85.7441 100.203C85.7441 100.441 85.8323 100.633 86.0087 100.778C86.185 100.924 86.4697 101.043 86.8627 101.136L87.9951 101.396C88.6511 101.547 89.14 101.781 89.4618 102.097C89.7836 102.412 89.9445 102.822 89.9445 103.326C89.9445 103.753 89.8207 104.134 89.5732 104.468C89.3287 104.799 88.9868 105.059 88.5475 105.248C88.1112 105.437 87.6053 105.531 87.0298 105.531C86.2315 105.531 85.5801 105.361 85.0758 105.021C84.5714 104.677 84.262 104.19 84.1475 103.559L85.4888 103.354C85.5724 103.704 85.7441 103.969 86.004 104.148C86.2639 104.324 86.6028 104.413 87.0205 104.413C87.4753 104.413 87.8389 104.318 88.1112 104.129C88.3835 103.938 88.5196 103.704 88.5196 103.429C88.5196 103.206 88.4361 103.019 88.269 102.867C88.105 102.715 87.8528 102.601 87.5124 102.524L86.3057 102.259C85.6405 102.107 85.1485 101.866 84.8298 101.535C84.5142 101.204 84.3564 100.785 84.3564 100.277C84.3564 99.8563 84.474 99.4881 84.7091 99.1725C84.9443 98.8569 85.2692 98.6109 85.6838 98.4346C86.0984 98.2551 86.5734 98.1654 87.1087 98.1654C87.8791 98.1654 88.4856 98.3325 88.928 98.6666C89.3705 98.9977 89.6629 99.4417 89.8052 99.9987ZM94.5428 105.531C93.8404 105.531 93.2355 105.381 92.7281 105.081C92.2237 104.778 91.8339 104.352 91.5585 103.805C91.2862 103.254 91.1501 102.609 91.1501 101.869C91.1501 101.139 91.2862 100.495 91.5585 99.9383C91.8339 99.3814 92.2175 98.9467 92.7095 98.6341C93.2046 98.3216 93.7832 98.1654 94.4454 98.1654C94.8476 98.1654 95.2375 98.2319 95.615 98.3649C95.9925 98.498 96.3313 98.7069 96.6314 98.9915C96.9315 99.2762 97.1683 99.6459 97.3415 100.101C97.5148 100.553 97.6014 101.102 97.6014 101.748V102.24H91.9344V101.201H96.2415C96.2415 100.836 96.1673 100.512 96.0188 100.231C95.8702 99.9461 95.6614 99.7217 95.3922 99.5578C95.1261 99.3938 94.8136 99.3118 94.4546 99.3118C94.0648 99.3118 93.7244 99.4077 93.4336 99.5995C93.1458 99.7883 92.923 100.036 92.7652 100.342C92.6105 100.645 92.5332 100.975 92.5332 101.331V102.143C92.5332 102.619 92.6167 103.025 92.7838 103.359C92.954 103.693 93.1907 103.948 93.4939 104.125C93.7971 104.298 94.1514 104.385 94.5568 104.385C94.8198 104.385 95.0596 104.348 95.2762 104.273C95.4927 104.196 95.6799 104.081 95.8377 103.93C95.9956 103.778 96.1162 103.591 96.1998 103.368L97.5133 103.605C97.408 103.992 97.2193 104.331 96.947 104.621C96.6778 104.909 96.339 105.133 95.9306 105.294C95.5252 105.452 95.0627 105.531 94.5428 105.531ZM105.993 98.2582V99.3721H101.964V98.2582H105.993ZM103.069 105.387V97.432C103.069 96.9865 103.166 96.6167 103.361 96.3228C103.556 96.0257 103.815 95.8045 104.136 95.6591C104.458 95.5106 104.808 95.4363 105.185 95.4363C105.464 95.4363 105.702 95.4595 105.9 95.5059C106.098 95.5492 106.245 95.5895 106.341 95.6266L106.016 96.7498C105.951 96.7312 105.868 96.7096 105.765 96.6848C105.663 96.657 105.54 96.643 105.394 96.643C105.057 96.643 104.816 96.7266 104.67 96.8937C104.528 97.0607 104.457 97.3021 104.457 97.6177V105.387H103.069ZM107.425 105.387V98.2582H108.766V99.3907H108.84C108.97 99.007 109.199 98.7053 109.527 98.4856C109.858 98.2628 110.233 98.1514 110.65 98.1514C110.737 98.1514 110.839 98.1545 110.957 98.1607C111.077 98.1669 111.172 98.1747 111.24 98.1839V99.5113C111.184 99.4959 111.085 99.4789 110.943 99.4603C110.8 99.4386 110.658 99.4278 110.516 99.4278C110.188 99.4278 109.895 99.4974 109.639 99.6367C109.385 99.7728 109.184 99.9631 109.035 100.208C108.887 100.449 108.812 100.724 108.812 101.034V105.387H107.425ZM115.188 105.531C114.52 105.531 113.937 105.378 113.439 105.072C112.94 104.765 112.554 104.337 112.278 103.786C112.003 103.235 111.865 102.592 111.865 101.855C111.865 101.116 112.003 100.469 112.278 99.9151C112.554 99.3613 112.94 98.9312 113.439 98.6249C113.937 98.3185 114.52 98.1654 115.188 98.1654C115.857 98.1654 116.44 98.3185 116.938 98.6249C117.436 98.9312 117.823 99.3613 118.099 99.9151C118.374 100.469 118.512 101.116 118.512 101.855C118.512 102.592 118.374 103.235 118.099 103.786C117.823 104.337 117.436 104.765 116.938 105.072C116.44 105.378 115.857 105.531 115.188 105.531ZM115.193 104.366C115.626 104.366 115.985 104.252 116.27 104.023C116.555 103.794 116.765 103.489 116.901 103.108C117.04 102.728 117.11 102.308 117.11 101.851C117.11 101.396 117.04 100.978 116.901 100.597C116.765 100.214 116.555 99.9059 116.27 99.6738C115.985 99.4417 115.626 99.3257 115.193 99.3257C114.757 99.3257 114.395 99.4417 114.107 99.6738C113.822 99.9059 113.61 100.214 113.471 100.597C113.335 100.978 113.267 101.396 113.267 101.851C113.267 102.308 113.335 102.728 113.471 103.108C113.61 103.489 113.822 103.794 114.107 104.023C114.395 104.252 114.757 104.366 115.193 104.366ZM120.061 105.387V98.2582H121.393V99.4185H121.481C121.629 99.0256 121.872 98.7192 122.21 98.4995C122.547 98.2768 122.951 98.1654 123.421 98.1654C123.897 98.1654 124.297 98.2768 124.618 98.4995C124.943 98.7223 125.183 99.0286 125.338 99.4185H125.412C125.582 99.0379 125.853 98.7347 126.224 98.5088C126.596 98.2799 127.038 98.1654 127.552 98.1654C128.198 98.1654 128.726 98.368 129.134 98.7734C129.546 99.1787 129.752 99.7898 129.752 100.607V105.387H128.364V100.737C128.364 100.254 128.232 99.9043 127.969 99.6877C127.706 99.4711 127.392 99.3628 127.027 99.3628C126.575 99.3628 126.224 99.5021 125.974 99.7805C125.723 100.056 125.598 100.41 125.598 100.843V105.387H124.215V100.648C124.215 100.262 124.094 99.9507 123.853 99.7156C123.611 99.4804 123.297 99.3628 122.91 99.3628C122.647 99.3628 122.404 99.4324 122.182 99.5717C121.962 99.7078 121.784 99.8981 121.648 100.143C121.515 100.387 121.448 100.67 121.448 100.992V105.387H120.061Z" fill="#4B5563"/>
<rect x="138.607" y="91.3872" width="35.4685" height="19" rx="3.73424" fill="#EF4A00" fill-opacity="0.15"/>
<path d="M146.679 105.545C145.945 105.542 145.319 105.349 144.799 104.965C144.279 104.581 143.881 104.023 143.606 103.289C143.331 102.556 143.193 101.673 143.193 100.639C143.193 99.6088 143.331 98.7285 143.606 97.9983C143.885 97.2681 144.284 96.7111 144.804 96.3274C145.326 95.9437 145.952 95.7519 146.679 95.7519C147.406 95.7519 148.029 95.9453 148.549 96.3321C149.069 96.7157 149.467 97.2727 149.742 98.0029C150.02 98.7301 150.16 99.6088 150.16 100.639C150.16 101.676 150.022 102.561 149.747 103.294C149.471 104.024 149.074 104.583 148.554 104.969C148.034 105.353 147.409 105.545 146.679 105.545ZM146.679 104.306C147.322 104.306 147.825 103.992 148.187 103.364C148.552 102.735 148.735 101.827 148.735 100.639C148.735 99.8502 148.651 99.1834 148.484 98.6388C148.32 98.0911 148.083 97.6765 147.774 97.3949C147.468 97.1103 147.103 96.9679 146.679 96.9679C146.038 96.9679 145.535 97.2835 145.17 97.9147C144.805 98.546 144.621 99.4541 144.618 100.639C144.618 101.431 144.7 102.101 144.864 102.649C145.031 103.193 145.268 103.607 145.574 103.888C145.88 104.167 146.249 104.306 146.679 104.306ZM152.394 105.475C152.141 105.475 151.923 105.386 151.74 105.206C151.557 105.024 151.466 104.804 151.466 104.547C151.466 104.293 151.557 104.077 151.74 103.897C151.923 103.715 152.141 103.624 152.394 103.624C152.648 103.624 152.866 103.715 153.049 103.897C153.231 104.077 153.323 104.293 153.323 104.547C153.323 104.717 153.279 104.874 153.193 105.016C153.109 105.155 152.998 105.267 152.859 105.35C152.719 105.434 152.565 105.475 152.394 105.475ZM158.137 105.517C157.713 105.511 157.295 105.434 156.884 105.285C156.475 105.137 156.104 104.889 155.77 104.542C155.436 104.196 155.168 103.73 154.967 103.145C154.769 102.561 154.67 101.83 154.67 100.955C154.67 100.126 154.752 99.3891 154.916 98.7455C155.083 98.1019 155.323 97.5589 155.635 97.1164C155.948 96.6709 156.325 96.3321 156.768 96.1C157.21 95.8679 157.707 95.7519 158.257 95.7519C158.824 95.7519 159.327 95.8633 159.766 96.0861C160.205 96.3089 160.561 96.6167 160.833 97.0097C161.109 97.4027 161.284 97.8498 161.358 98.351H159.942C159.846 97.955 159.656 97.6316 159.371 97.381C159.087 97.1304 158.715 97.005 158.257 97.005C157.561 97.005 157.018 97.3083 156.628 97.9147C156.242 98.5212 156.047 99.3644 156.044 100.444H156.113C156.277 100.175 156.478 99.9461 156.717 99.7573C156.958 99.5655 157.227 99.4185 157.524 99.3164C157.824 99.2112 158.14 99.1586 158.471 99.1586C159.022 99.1586 159.52 99.2932 159.965 99.5624C160.414 99.8285 160.772 100.197 161.038 100.667C161.304 101.137 161.437 101.676 161.437 102.282C161.437 102.889 161.299 103.438 161.024 103.93C160.751 104.422 160.368 104.812 159.873 105.099C159.378 105.384 158.799 105.523 158.137 105.517ZM158.132 104.31C158.497 104.31 158.824 104.221 159.111 104.041C159.399 103.862 159.627 103.62 159.794 103.317C159.961 103.014 160.044 102.675 160.044 102.301C160.044 101.936 159.962 101.603 159.798 101.303C159.637 101.003 159.415 100.764 159.13 100.588C158.848 100.412 158.527 100.324 158.165 100.324C157.889 100.324 157.634 100.376 157.399 100.481C157.167 100.587 156.963 100.732 156.786 100.918C156.61 101.103 156.471 101.317 156.368 101.558C156.269 101.796 156.22 102.049 156.22 102.315C156.22 102.671 156.302 103 156.466 103.303C156.633 103.607 156.86 103.851 157.148 104.037C157.439 104.219 157.767 104.31 158.132 104.31ZM163.127 105.387V104.348L166.344 101.015C166.687 100.653 166.97 100.336 167.193 100.064C167.419 99.7883 167.588 99.5268 167.699 99.2793C167.81 99.0317 167.866 98.7687 167.866 98.4903C167.866 98.1747 167.792 97.9024 167.643 97.6734C167.495 97.4413 167.292 97.2634 167.035 97.1396C166.778 97.0128 166.489 96.9494 166.167 96.9494C165.827 96.9494 165.53 97.019 165.276 97.1582C165.023 97.2975 164.828 97.4939 164.691 97.7477C164.555 98.0014 164.487 98.2984 164.487 98.6388H163.118C163.118 98.0602 163.251 97.5543 163.517 97.1211C163.783 96.6879 164.148 96.3522 164.613 96.1139C165.077 95.8726 165.604 95.7519 166.195 95.7519C166.792 95.7519 167.318 95.871 167.773 96.1093C168.231 96.3444 168.589 96.6662 168.845 97.0747C169.102 97.48 169.231 97.9379 169.231 98.4485C169.231 98.8012 169.164 99.1462 169.031 99.4835C168.901 99.8208 168.674 100.197 168.349 100.611C168.024 101.023 167.572 101.523 166.994 102.11L165.105 104.088V104.157H169.384V105.387H163.127Z" fill="#EF4A00"/>
<path d="M185.567 41.4769L179.172 55.6104V73.815H272.528V55.6104L258.525 45.8082L251.209 50.7094L245.115 38.5341C243.942 36.1906 240.783 35.7528 239.016 37.6889L234.378 42.7741L226.783 41.1404L218.668 55.6104L203.444 41.6071L196.676 46.9751L191.94 40.7544C190.228 38.5045 186.733 38.9006 185.567 41.4769Z" fill="url(#paint1_linear_329_1676)"/>
<path d="M179.172 57.0109L186.196 40.4967C187.051 38.4852 189.779 38.1854 191.051 39.9631L194.652 44.9963C195.692 46.4498 197.809 46.5704 199.008 45.2445L201.152 42.8722C202.247 41.6602 204.143 41.6392 205.265 42.8266L215.902 54.0832C217.243 55.5018 219.587 55.1487 220.45 53.3981L225.643 42.8641C226.272 41.5876 227.759 40.986 229.099 41.4656L232.562 42.7054C233.656 43.0967 234.877 42.773 235.632 41.8917L239.863 36.9577C241.186 35.4155 243.659 35.7502 244.524 37.5884L249.537 48.2443C250.356 49.9845 252.645 50.4007 254.024 49.06L256.744 46.4152C257.798 45.3906 259.464 45.3549 260.561 46.3334L272.528 57.0109" stroke="#FF9F29" stroke-width="1.86712" stroke-linecap="round"/>
<path d="M179.172 73.8149L272.528 73.815" stroke="#D1D5DB" stroke-width="0.933561" stroke-dasharray="5.6 5.6"/>
<defs>
<filter id="filter0_d_329_1676" x="0.668766" y="0.956675" width="314.059" height="160.955" filterUnits="userSpaceOnUse" color-interpolation-filters="sRGB">
<feFlood flood-opacity="0" result="BackgroundImageFix"/>
<feColorMatrix in="SourceAlpha" type="matrix" values="0 0 0 0 0 0 0 0 0 0 0 0 0 0 0 0 0 0 127 0" result="hardAlpha"/>
<feOffset dy="12.2879"/>
<feGaussianBlur stdDeviation="13.1656"/>
<feComposite in2="hardAlpha" operator="out"/>
<feColorMatrix type="matrix" values="0 0 0 0 0.596078 0 0 0 0 0.701961 0 0 0 0 0.94902 0 0 0 0.15 0"/>
<feBlend mode="normal" in2="BackgroundImageFix" result="effect1_dropShadow_329_1676"/>
<feBlend mode="normal" in="SourceGraphic" in2="effect1_dropShadow_329_1676" result="shape"/>
</filter>
<linearGradient id="paint0_linear_329_1676" x1="172.647" y1="33.6469" x2="295.112" y2="122.849" gradientUnits="userSpaceOnUse">
<stop stop-color="white"/>
<stop offset="1" stop-color="#FFF5E9"/>
</linearGradient>
<linearGradient id="paint1_linear_329_1676" x1="225.85" y1="33.6719" x2="225.85" y2="73.815" gradientUnits="userSpaceOnUse">
<stop stop-color="#FF9F29" stop-opacity="0.59"/>
<stop offset="1" stop-color="#FF9F29" stop-opacity="0"/>
</linearGradient>
</defs>
</svg>
